<svg id="Layer_1" data-name="Layer 1" xmlns="http://www.w3.org/2000/svg" viewBox="0 0 800 800"><path d="M596.39,573.14q-3.32,4.41-6.65,8.8l-8.81,8.21,0,0c.06-1.18-.34-2.72.25-3.47,3.32-4.24,6.88-8.29,9.9-11.85l-55-10.08c0-8.32,0-16.69,0-25.06-.13-20.77-.4-41.54-.43-62.31,0-12.13.49-24.27.43-36.4,0-6.59-.78-13.18-1.2-19.78V356h.71V342.76c-.23.6.13-.33.51-1.3l-.93-2c.36-3.48.61-5.94.86-8.4l1-.18q-.49-6-1-12l.4.06V286l.58-.77c-.3-3-.53-5.45-.77-7.88V259.41l.56-.84c-.6-10.58-1.09-19.18-1.7-30-1.43,3.45-1.92,4.61-2,4.88l-13.05-8.72,3.34-1.91-5.59-7.14L515.41,218l1.8,5.15L506.73,220l-.45,1.52,3.76,2.05c.25.95.52,2,.79,3a16.32,16.32,0,0,1,10.67,4.14c.49.39-.76,2.93-1.59,5.78-2.52-3.32-4-5.28-5.87-7.7-.39,1.49-.63,2.38-.51,1.94H497l2.42-5.36-2.77,1.54-11.06-.74-6.2-2.75c1.7,3.49,3.25,6.67,5.21,10.67l-6.64,1.1c.85-1.94,1.38-3.16,2.78-6.34l-6.13,4.05-2.48-.7-4.84,3-5.95-4.09,3.25-2.59,2.28,4.32,3.23-1.84-3.73-6.28,4.59-3.1c.21,2.22.35,3.76.74,8,2.92-6.48,4.76-10.56,7.86-17.42L474,216.9l-6.93-4c.15,2.75.22,3.95.3,5.38l-4,2.91c.23-4.69.4-8.16.58-11.63h-1.79c-.29,1.5-.57,3-.84,4.38l-3,2.1,5.34,9.3-5-.85c.44,1.71.75,2.88,1,3.73l-6.22-.48-13.66-9.39L440,216l15.06,3.24c-5.06-3-8.39-6.57-11.78-6.63-3.57-.07-7.19,3.2-10.75,5l2,4.63-3.67,5.94,6.28,2.81-4.64,3.43-5.62-3.63,1.36-5.26c-.21-.93-.53-2.32-1.1-4.8l-11.95,4.31v-5.23l9.06-2L416.57,213l-1.09,1.67-4.8-.44c1,3,1.78,5.53,3.17,9.83l-9.09-3.67-2.12,1-8.36-5.21,5-5.6L392.18,206l-3.07,2.32,6,3.26L388,216.15l-4.21-1.46c-.12,2.1-.21,3.79-.36,6.29H372.92l-2.74-2.25h-3.59l-2.1-2.76-3,2.5c.17,1.26.32,2.4.59,4.5l-3.79-2.3c-.63-2-1-3.22-1.85-5.86-.95,2.68-1.38,3.9-1.82,5.11h0l-6.87-.64,6.3-4.94c-.57-1.14-1-2.1-2.13-4.3l9.23,3.74c-4.45-4.39-8-7.86-12.53-12.33l-1.14.69V217l-2.09,0v3.9l-4.39-4,5.65-2.84-2-2.53-8.46,4.39-13.42-11.41-.39-4.3-1.18,0-.4,6c.58,2.8.94,4.5,1.33,6.39h-5.37c-.25,1.53-.45,2.78-.72,4.42l-3.16-1.52,2.64-3.42c-2.05-2.25-3.92-4.32-5.86-6.44L303.73,211l-1.35,7.32-3.92-8.88-6.63,2.8,2.13-6.71-4.63,3.85L287,206.58l-2.07.17-9.52,5-1.9,2.09c-.72-3.22-1.21-5.42-1.85-8.3L267.36,203l-3.8,4.53,5.69-1.65,1.3,3.38-3.36.5c-.6,1-1.21,2-2,3.31l-3.81-2.5-1.94,3.91-2.12-.14V155.08q.66-6.75,1.33-13.51l0-.66c2-5.49,3.93-11,5.73-16l9.59,2.6c11.23-2.12,21-12.61,33.39-5.68l-2.51-2.72c4.12-.49,8.19-1.24,12.29-1.4,7.09-.27,14.2-.17,21.3-.22,1.4,0,2.86.33,4.18,0,5.16-1.24,10.24-2.9,15.43-4a43.82,43.82,0,0,1,11-1.06c7.08.37,14.16,2.07,21.17,1.76,5.52-.25,10.95-2.68,16.41-4.15,0,.62,0,1.23,0,1.84h33.06l1-.87,62,3.85c.29-.2,1.19-.78-.3.19l17.35,3.9,14.71,2c.78,4,2.58,9.74,2.91,15.56.84,14.95,1,29.93,1.48,44.89v.68l-1.32,19.81c.91-1.24.26-.35-.63.87l3.35,9.45,5.11,2.15c-.33,1.76-.58,3.15-1,5.34l6.56,2c.16.37.54,1.23,1.45,3.33L536.4,224c.35,1.32.88,3.25,1.34,4.94l2.37,1.72c2,4.08,3.59,7.49,5.28,11l7-6.45-5.89-2.46v-2.63a14.56,14.56,0,0,1-1.26-1.37c-.36-.52-.61-1.1-.92-1.66,7.34,3.32,11.48,8.4,8.77,17.16h5.21c-.77-4.91-1.45-9.29-2.08-13.39,6.88.26,9.93,15.55,19.29,2.95l2.61,4.29c-1.79,1.29-3.07,2.23-5.38,3.91l8.89,2.61-2.44,5.92,5.54-1.64c.32-1.67.53-2.74.68-3.52l7.7-1.18-3.51,10.31,8.68-1-2.7-3.75,3.49-2.08c-.16-3.52-.33-7.18-.52-11.25l3.26-1.37c-1-3.12-2-6.2-2.94-9l4.22-5.76v16.6c-.66,36.31-1.48,72.61-1.94,108.91-.37,28.65-.36,57.3-.43,85.95q-.16,63.72-.21,127.42c0,.85-.09,1.7-.14,2.55l-2.68,8.8h0C597.29,571.34,596.84,572.24,596.39,573.14Z" fill="#1d1d1d"/><path d="M534.92,421.17c.42,6.6,1.16,13.19,1.2,19.78.06,12.13-.45,24.27-.43,36.4,0,20.77.3,41.54.43,62.31,0,8.37,0,16.74,0,25.06l55,10.08c-3,3.56-6.58,7.61-9.9,11.85-.59.75-.19,2.29-.25,3.47l-5.44,4-14.6,5.16-.49-1.09,9.22-5.65-6.5-2-1.71-2-4.08,1.8c-.33-1.58-.56-2.73-.74-3.59l-6.78-1c-.06,0-.93.47-.86.44l-13.55-6.75c0-.78-.07-1.55-.1-2.33l-32.17-1.23h-6.75l-26.63-1.46.06.31H448.92c-.41-1.87-.63-2.89-1.4-6.45-.85,4.93-1.28,7.45-1.67,9.74l-15.62-8.79c-.3,2.47-.59,4.9-1,7.89l4.85-1.44c-1,2.31-3.07,4.6-4.21,4.19-2.31-.84-4.09-3.14-5.95-4.73l-6.46,5.34-1-1.52,3.92-2.11-1.61-3.12-5,3.31-3.53-1.58-.18,1.75-30-2.39c.47-1.42,0,0-.6,1.78H365.11l1.3-4.46-3.8.64v3.8l-10.73.66h-5.39l-21.63-1.34h0l-15.53-2.91-19.93,1.48c.48-2.15.72-3.18.65-2.87l-20.61-5.92c.3-4.17.41-5.67.51-7.11-9-2-10.88-8.54-6.77-22l-3.34-.23c-.22-4.26-.42-8.29-.63-12.31l-.47.08-2.94-17a40.75,40.75,0,0,0-.44-12.2c-.33-1.73-2.56-3.24-2.61-4.89-.27-8.72-.13-17.45-.13-26.53l-3.6-.41,6.8-11.94-3.93.94L242.61,446v7.65l4.8.37c.54,1.48,1.15,3.15,1.75,4.81l-1.78,1.4-9.71-9,7.72-11.78,1.58,1.34-2.64,3.62,6.67-.43c.21-1.83.43-3.67.64-5.47l-7.22-4.27-6.67,9.61-2.08-.84c-.23-1.59-.41-2.81-.43-3l-7.89,2-.63-1.77,4.12-3.72-1.09-.64c2.6-4.47,5.21-8.93,8-13.67l5.61,4.24,3.74-5.84L211.52,427l4,5.51-1,.42,2.88,8.33L208,445.87c.07-1.34.15-2.82.21-4-1.21-1.57-2.25-2.9-3.4-4.38l4.86-3-8.56-6.18c.72,10.09,1.34,18.7,2,27.66l-3.1-.28-.09-10-1.27-21.1c0-1.12,0-2.24-.05-3.36v-2.61q-.64-12.88-1.31-25.77c0-1.75,0-3.51,0-5.26V345.62l2.29-.06v16.6l9.24-4.47,2,3.17,3.25-2.48c-.2-.54-.39-1.09-.59-1.63l-4.62.94c-1.6-3-3.19-6-4.85-9.13.52-.81,1.11-1.74,1.81-2.82l-2.53-3.84,15.48-4.75c-.21-.91-.41-1.83-.61-2.75l6.91,4.72c.12.89.27,2,.41,3l3.14,2.76c-2.81,3.21-5.51,6.31-8,9.19-2.45-1-4.28-1.69-3.85-1.51-1,5.06-2.27,9.47-2.53,13.93-.14,2.53,1.42,5.15,2.65,9.17l4.69-7.82-2-2.62c.26-2.11.51-4.08.67-5.41l8.26-8.66.71-2.9,7,2.69-5.88,6.28,1.16,1.23,5.78-3a72.53,72.53,0,0,1,.5,8.3c-.14,2.51-.84,5-1.71,9.78-1.78-3.78-2.41-5.14-3.09-6.58l-3.91-.36-3-4.89-2,.93c2.5,6.6,5,13.19,6.82,18l13.22-9.38c-.24,3.25-1.89,4.62-2.47,6.35-.38,1.11.83,2.75,1.6,4.91l2.88-4.13,4.09.36,1.66-2.66-4.68-7.89,3-1c.33.24.66.47,0,0,.77.21.38.11,0,0-.18-1-.36-1.92-.5-2.65l-4.23-2c.59-1.43,1.08-2.65,1.71-4.19l4.31,3.43c.83-2.45,1.5-4.44,2.31-6.81l-7.26-4.22-4.8,2.54-1.25-3.15,3.87-4.05,5.32-1c1.31-6,2.78-12.77,4.26-19.56l-2.46-.58c.75-4.68,1.51-9.37,2.6-16.1l4.41,7.93-.89,1.47v28l.44.32c1,6.86,1.67,11.86,2.48,17.64l-1.57.95c.45,5.65.9,11.21,1.41,17.69l-1,.7v11.91l1.75,2.21c-.75,3-1.26,4.95-1.76,6.94l1.53.39,1.84-2.45L267,412l-.86.67-7.66-2.16c2.61,3.68,3.86,5.43,5.1,7.19l-.8.37,4.93,10.6,2.31-4.1,5.83.41-.86-6.15-4.49-3.46,6.32-4.55-7.23-1.7.17-2,11.11,1.28c1.06,2.48,1.85,4.34,2.33,5.48l-6.33,4,3.92,5.69,4.26-8.46,3.09,1.48L296,412.5l8.57,5.87-3.44,1.43c-.36-1-.72-2.08-1.09-3.12l-17.75,6.51,3.74,4.19,2.34-3.64,11-4.23-5.62,4.67L300,427c.24-2.21.41-3.79.58-5.33h7.25l1,3.77,4.88-.66-3.47-3.05,4-1.85c-3.63-6.45-7.1-12.62-11-19.55l9.2-1.68c-.62,2.43-.91,3.56-1.18,4.63l3.92,2.42-4.06,2.86,5.65,2.07c-.3,1.18-.6,2.37-1,4.13l3.51-2.17,6.12,5.44v-5.55l5.07-.59L326,405.82l6.74-1.7c-.57,2.07-.83,3-1.12,4l4,1.44-4.34,9.27,5.13,1v4.52l1.49-.28-1.5-4.24c.18-2.1.35-4.19.53-6.29l1.27.07c.86,2.87,1.71,5.75,2,6.55l10.45,3.72,5.7-6.12,2.46,4,2.42-1.85L354,406l2.21-1.83.89,1,15.4-2.86,16.69-11.49,1.51-5.32c1.31,2,2,3,3.48,5.27l-11.61,8.62c.21.92.53,2.27.92,3.95l3-.92c.07-1.25.12-2.17.25-4.48l7.56,9.4v-5.83l3.65,2c-.33-1.33-.57-2.33-1-4,2.74,1.47,4.86,2.62,6.4,3.46l5.47-2.6.92,1.4-4.23,4.68-5.55-1.8,2.3,4.47-6.59-5.83q-1,10.88-1.94,21.76L390,421.88l10.46-9.12,7.45,11.94,3.52-2.13-2.37,2.33c-1.92-2.14-3-4.15-4.66-4.94s-3.73-.15-5.63-.15l.49,1.76,4.86.3c-.22,1.61-.35,2.55-.47,3.49L406,427l9.59-1.07-9.16,8,12.09-2.14.06,1.21-7.26,4.2,9.94,3-2.31-4.59,5.21-2.23c.26-.51.65-1.27,1-2l3.3.39,9.34-7-9.88,2.46,6-10.2-8.37,2.76h-1.23c.86,2.64,1.65,5,2.44,7.43l-2.07,1c-1.94-3-3.88-6.06-5.94-9.26l3.63-2.58v-4.63l6.19,1.07,0,.08,6.93-2.41-10.25-6.35,3-3.3,4.55-.91c-.66,1.4-1.1,2.36-1.6,3.43l7.3,4.56v-4.13l4.41-6.42L440,410.41l-1.35-.4c-1.21,3.81-2.41,7.63-4.3,13.59l14.19-6.48c-.56,2.43-1,4.45-1.78,7.63l5.82-2.62v-7l1.23,0,1.22,3.27,7.62-6c-.59,2.23-1.17,4.45-2,7.49.27,1.49.69,3.85,1.12,6.26,2.84-4.78,5.31-8.94,8.92-15,.55,1.53,0-.48-.19-.45-2.66.39-5.27,1.08-7.89,1.7.12-.89.24-1.78.45-3.36l-4.44,2.83c.51-3,.82-4.83,1.27-7.56l5.57,4.07c1.46-2.77,2.7-5.13,3.95-7.49l1.46.95-2.31,3.29c2.23,2.59,4.46,5.19,5.77,6.73-1.07,4.1-1.8,6.9-2.8,10.77l5.29-2,4.28,1.51,7.75-11L483,407.69l6.56-3.6,6.55,6.92,4.25-1.64,2.75,2.52,2.3-.84,3.71-5.15-1.64,2.92,8.38,6.89-3.21,8.17c-.71.27-1.43.54,0,0-1.05,1.12-.52.56,0,0h4.62c-.07,1.34.23,2.86-.28,4-1.28,2.84-2.92,5.51-4.53,8.43l-5-1.76,4.5-5.33-1.48-1.3L506,433.2l-3.17-1c-1.13,2.61-2.21,5.07-3.5,8h4.1c-.14-1.57-.24-2.75-.49-5.56l7.66,4.18-4.71,6,6.12-1.85,4.49,6.3,4-.71-5.62-5.18,2.88-3.66-1.16-3.41,9.6,10.41,2.39-5.26-3.23-1,8.07-5.74L526.2,424.8c-.79,3.63-1.31,6-2.06,9.41.05.46.23,2.05.48,4.33l-6-4.81v-4l4.58,1.69c-.83-1.85-1.3-2.91-1.78-4l2.14-3.1L520.2,419l8.09,3.53c-1.22-3.12-2-5.26-3-7.58Zm-131,66.19c.71-.51,1.42-1,0,0,.9-1.48.45-.74,0,0h0C403.58,488.06,403.73,487.71,403.89,487.36Zm29-47.95c-.16-1.34-.31-2.68-.68-5.81L427.51,441l5.42-1.61c.27,1.22.54,2.44,1,4.72l6.14-5.42-2.34-3.44Zm-148.58,16.2c.55.92,1.09,1.84,0,0,1.71,1.25.85.62,0,0l-.58-3.38-8.09,2.61c.87,1.89,1.69,3.67,2.68,5.8l4.36-2.51-1.8-3.1Zm112.79-18.23.47,2.06,7.8-3.93c0-.4-.08-1.33-.19-3.05l-8.09,4.92v-5.26l2.64-1.46-2.39-3.49-5.19,3L388.08,429l-.65,1.38,9.78,5.24-7.89,4,2.46,2.08ZM233.7,402.94c-.35,1.8-.71,3.6-1.06,5.4l2.63,1.73c.31-1.07,1.08-2.28.81-3.17-.43-1.43-1.55-2.65-2.38-4l1.81-1.49c2.45,1.56,4.41,2.81,7.12,4.52v-4.18l-3.31-1.63-2.24-4.72-11.44,2.63C229.29,400.27,231.5,401.6,233.7,402.94Zm-9.45.68c-.51-1.72-1-3.43-1.54-5.14l-2,1.18,3.51,3.95c.15,1.06.31,2.11.92,6.32-4.6-4.43-7.25-7-9.91-9.54L213.79,402l11.89,13.32c.61,1.14,2.16,4,3.7,6.84l4.69-2.75Zm166.37,8.13,2.91.41c-1.68-2.49-3.37-5-5.4-8-2.56,1.68-4.94,4.22-7.74,4.81s-5.8-.9-8.89-1.5l-3.61,6.14c1.81,2.34,3.82,4.95,6.11,7.9l-3.1,2.74c-.64-1.67-1.06-2.78-1.85-4.86-1.79.78-3.44,1.44-5,2.25-.19.09,0,1,0,1.58h3.61l4.57,7.66,5.47-.26-4.2-2.85,7.36-8.22-3.3-5-5.36,2.3c.54-2.66.89-4.4,1.37-6.8l9.94,4.91c-.44,2.71-.79,4.84-1.26,7.65l2.07,2.48Zm-181.87,8.09,6.75,4.71,3.37-1.21-3.21-16.07-2.44.29c-.2,1.21-.4,2.42-.76,4.57l-7.93-1.58,5.7-4.87-9.94-7.91c.82,4.23,1.24,6.39,1.65,8.55l1-.24q.22,3.1.47,6.19l-.89-.12-1.26,14.22,9.33.49Zm245.46,14.65-1.53.53c.38,3.14-.36,7.87,1.38,9.09,3.66,2.59,8.62,3.35,13.05,4.85l1.75-2.8c-.15,1.54-.3,3.08-.5,5l5.72,1.32L463,436.13v-2.47l-4.19,4.65c2.07,2,3.84,3.66,5.62,5.34-3.43.46-6.85.22-8.73-1.61-1.11-1.09.21-4.67.59-8.84l-4.08-4.69C453.52,432.47,453.87,433.48,454.21,434.49ZM205.09,368.11l-5.05-.73c.16,2.89.3,5.39.5,9.18l8.43-9.08v6.08l-6.1,5.52,5.41-1.69,5.48,2.24-2.47-6.58c.34-1,.71-2.18,1-3.17-1.39-1.88-2.63-3.55-4.58-6.2ZM376,433.66l4.22,2.11-1.87,10.47,2.11.52,5.9-17.28-1.64-.72-2.86,3.39Zm-58.69,1,14.25-5.06v-4L315,430.9C314.84,430.63,315.89,432.37,317.27,434.68Zm-112-47.19-7.19,3.39,12.09,6.44c-.16.65-.35,1.43-.75,3l4.37-3.43-3.32-5.51-4.09,1.16C206,391,205.75,389.75,205.26,387.49Zm12.57-.91-12.43-6.21-1,1.47,10.88,9.59c.24.52.9,2,1.56,3.45l1.3-.45c-.4-2-.81-4-1.28-6.31Zm63.51,48.52-1.49-.56-6.72,5.65c-1.69-2.75-2.5-4.08-4.11-6.72l-.55,7.7,5.77,4.09ZM315,452.94l1.11-1-7.5-5.82-7.81,4.56Zm194.5-32,1.24.33,2.51-6.36-3.41-3.17-6.59,3.47,1.62,4.05,4.91-2.71C509.72,418.14,509.63,419.56,509.54,421Zm-37.08,13.74-2.65,3.62,2.45,1c1.26-3.64,2.53-7.28,3.9-11.22l-8.43-2.68Zm12.22,19.17,11.66-6.83-8-.91-3.06-2.48C485,447.67,484.86,450.69,484.68,453.89Zm-40.47-21.42,5.75-2.72-10.43-6.93c.21,3,.32,4.71.45,6.52Zm-35.38,28.26-.9,1.34c1.57.86,3.06,2.07,4.74,2.47s3.37-.09,6.51-.27l-6-8.08-1.84,5.24Zm117.82,5.56c1.38,3,2.57,5.68,3.77,8.31l1.53-.18c-.6-2.82-1.19-5.63-2.1-9.92l4.41-1.91-4.49-3C528.54,462.24,527.53,464.41,526.65,466.29ZM401.48,442.06l7.42,3.8,5-7-8,4.56,4.23-8.09Zm-154.12-7.33,6.75-13.09-5.84,1.28c.26,2,.45,3.44.64,4.91l-4.35,1.7C245.3,430.89,245.87,432,247.36,434.73ZM341.2,426l-7.34,3.44,5.58,4.93,4.76-5.61Zm154.69-3.53-6.08-2.31c-.5,3-1,5.73-1.42,8.51l1.92.87ZM226.46,376.72l-6.05-3.59c.67,4.76,1.13,8,1.59,11.25l2.29-.53c-.11-1.07-.22-2.14-.34-3.22Zm61.09,57.53,5.54-7.69-2.52-2.29-2.93,8.34-7-4.24-.9,1.63Zm237.83,18.54,6.59,1.38,2.31,3.81V449.1c-1.54.86-2.56,1.42-3.49,1.95L528,449.33Zm-251.21,7.07c-.87-3.62-1.35-5.65-1.85-7.74l-7.93,2.11Zm177.44.17,11.13.81L453.61,455ZM367.8,428h-7.39l9.33,7.33C368.81,431.84,368.31,430,367.8,428Zm-38.66,14.69-3-.44,1.52,4.1,7.62-4.71-1.51-2.29Zm-38.06-8.61,3,1.76c-.39,1.21-.71,2.21-1.24,3.88l4.76-2c-1.09-2.41-2-4.46-3.31-7.29Zm208.19,0-2.49-1.49L492.13,441l1.78,1.11Q496.58,438.08,499.27,434.08ZM422.69,560.23l-1.35,1.83,4.93,5.82,2.22-4.31ZM532.07,431l2-.19c.11-1.84.58-3.76.16-5.47-.17-.7-2.26-.93-5.18-2C530.5,427.1,531.28,429.07,532.07,431ZM251.89,410.74c-.28-4.16-.45-6.65-.84-12.4-1.94,5-3,7-3.36,9.13C247.59,408,249.55,409,251.89,410.74ZM222.1,341.6c-.59-.89-1.18-1.79-1.76-2.69-1.14.15-2.79-.1-3.32.55-1,1.19-1.28,2.92-1.87,4.43l2.95,2.46ZM460,429.82c-.1-2.15.26-3.6-.29-4.15a4.72,4.72,0,0,0-3.43-1.35c-1.42.18-2.74,1.22-6.79,3.21L456,427ZM308.6,428.26l-2.32,1.41,5.33,8.34,1.36-.89Q310.78,432.7,308.6,428.26Zm135.17,14-.94,1,5.93,6.84,3.46-1.22Zm-8.66,115.24c-.46.62-.93,1.23-1.4,1.85l7.39,5.32,1.29-1.69Zm-118.21-100,1.12,1,7.05-5.5-2.37-2.2ZM296,564.31l.9-2.42-5.44-2.19-1,2.62ZM509.6,491l1,.08V480c-1.3,2.08-2,3.11-2.18,3.46C508.91,486.53,509.26,488.74,509.6,491ZM472.74,476.4c-.07.54-.13,1.08-.2,1.62a29.87,29.87,0,0,0,5.26,1.28c.45,0,1-1.61,2.26-3.63ZM487,458.75l9.21,2,1.31-4.24Zm-210.86,4c-.48,2-.72,3-1,4.25l8.8,1.3ZM298.68,437c-.69,5.14-.95,7.07-1.58,11.72,2.52-3.17,3.84-4.15,4.06-5.34S300.34,441.06,298.68,437Zm223.75,46-.79,1.28,6,4.51,1.34-2.08Q525.69,484.82,522.43,483Zm-75-24.06-1.7-1.38-4.59,6.14,1.47,1.14C444.24,462.84,445.84,460.87,447.45,458.91ZM440,470.25c-.14-.83-.27-1.66-.41-2.49l-6.13,1.13c.13.64.27,1.28.41,1.92Zm56.2-55.42,4.68,7.2c-.68-4.75-1-6.89-1.43-9.94Zm-236,15.94,1.54.32c.75-1.56,1.5-3.12,3.1-6.42-2.74,1.15-4.28,1.33-4.51,2C259.91,427.88,260.22,429.38,260.22,430.77Zm-33.37-37.9c.16-.67.33-1.35.5-2l-5.61-2.09-.77,2.38ZM306.21,441l5.9,3.66.7-1.22L308.69,439Zm184,38.69c.45-2.12.76-3.55,1.17-5.5L485.77,472C487.68,475.34,488.75,477.22,490.19,479.73Zm-11.51-48.9,2.42.82q.81-2.5,1.63-5l-2-.74C480,427.56,479.35,429.19,478.68,430.83Zm-241.25,4.59,5-6.79-5,.71ZM474.14,459l-7.06,5.57c3.14-.25,4.76,0,5.79-.6C473.58,463.49,473.49,461.76,474.14,459ZM209.53,346.88l-1.69.68c.24,1.28.22,2.71.83,3.79.3.54,1.75.43,4,.88ZM413,503.16c3.63-1.46,5-1.6,5.64-2.38s.26-2.16.51-5.7Zm-12-43.89-2.06-.53-1.5,5.63,2,.48Q400.24,462.06,401,459.27Zm42.37,56.26,5.16,1.51c-.64-2.36-1-3.68-1.65-6Zm79.43-44.83,1.2-1.5-6.34-4.27-.78,1.13ZM370.81,443l-2.2.56,1.44,4.94,2.08-.53Zm45.32,2.83-4-3v6.46Zm-7.36,11L406.69,453l-4.33,5.34Zm58-29-1.43-.37c-.41,1-1.17,1.94-1.13,2.88,0,.75,1,1.46,2.56,3.39ZM472,513l1.12-1.83-5-2.86-.88,1.52Zm-5.61-36.28c2.93-1.46,4.35-1.73,4.55-2.38.29-.93-.32-2.13-.92-5C468.61,472.22,468,473.36,466.4,476.72ZM360.87,407.94l3.07,3.41,3.15-4.73ZM303.48,561.31l-2.1-.56c-.35,1.92-.71,3.84-1.06,5.77l1.26.4Zm210.7-107.88,2.4-2.06-6.34-3.47Zm-46.53-28C469.22,422,470,421,470,420c0-.51-1.41-1-3.1-2C467.1,420.3,467.23,421.45,467.65,425.42Zm-150.9-1.62,5.25-.72-4.27-3.67C317.33,421.19,317.13,422.07,316.75,423.8Zm42-.06-4.57,4.91,5.39-.45Zm25.14,20.7,1.4.76q1.29-2.38,2.59-4.75l-1.49-.67Q385.14,442.12,383.88,444.44ZM248.19,394.68h-7.13c2.07,1.44,2.84,2.38,3.61,2.39S246.17,396.11,248.19,394.68ZM358.34,436c.22.6.45,1.19.67,1.79l4.13-2.12c-.21-.46-.43-.91-.64-1.37ZM489.9,417.79h1.77v-4l-1.49-.05C490.09,415.07,490,416.43,489.9,417.79Zm11.87,84.85-1.6-.75L498.1,506l1.5.77Q500.69,504.7,501.77,502.64ZM238.9,380.73l-1.88-.24-.36,3.76,1.72.2C238.56,383.21,238.73,382,238.9,380.73Zm73.49,76.73-1.82,1.86,3.22,3,1.64-1.74Zm112.21-7.84-.12,1.49,4.71.58.15-1.8Zm73.6-21.5,1.54-.9-1.81-3.09-1.51.87ZM302.28,433l-.47-2-3.5,1,.38,1.63Zm203.34,23.32-1.49-.47-1.28,3.66,1.61.62C504.85,458.9,505.24,457.63,505.62,456.36ZM277.47,483.85c-.32.59-.64,1.18-1,1.77l3.4,1.65.76-1.4Zm153.76.62,1,1.5,3.16-2.47c-.31-.41-.61-.82-.91-1.24Zm-150,82.9,1.85.63,1.05-3.26-1.58-.57Zm89.44-130.14-1.65-.55c-.38,1.28-.77,2.56-1.16,3.84l1.47.47Zm106.6-1.5c.27.57.55,1.13.82,1.7l3.15-1.8-.73-1.4Zm-98-33.08L379,401l-3,.44c.08.54.16,1.09.25,1.63Zm-89.89,49.58,1.24,1.11,2.78-3.27-1.12-1Zm16,42.39-1.47.87,2,3.1,1.25-.79ZM476,439.5c-.24.56-.47,1.13-.71,1.69l3.29,1.27.63-1.53Zm-9.27,57.75,1.7-.81c-.57-1.06-1.15-2.12-1.73-3.18l-1.34.64C465.81,495,466.26,496.14,466.72,497.25ZM484.44,439l3.65,1.41,1.73-4.1Zm-164.59,6.57-.13,1.4h4.19c0-.34,0-.67.08-1Zm81.71,71.09,1.3.84,1.77-2.75-1.28-.83ZM273.45,470.9l-.88,1.36,3.26,1.93.75-1.28Zm181.48,21.67.27-1.6-3.24-.4-.19,1.42ZM287.62,461.18c.2.56.41,1.11.61,1.67l2.6-1-.46-1.42ZM454,450l-.18,1.62,3.15.16.12-1.32Zm6.57,15.77-.09-1.52-2.84.3.09,1.22Zm41.61-17.66,1.46-.36c-.46-1.26-.92-2.52-1.37-3.78l-1.19.38C501.47,445.58,501.84,446.84,502.2,448.09ZM263.85,434.2l1.34,1.32,2.26-3.31-.64-.6ZM455.38,565.76l1.74-.27c-.23-.9-.46-1.8-.68-2.7l-1.44.31C455.13,564,455.25,564.87,455.38,565.76ZM348.27,430.63l-1.56,1.52L349,434l1.37-1.48ZM341.6,463.3c-.36.44-.73.88-1.1,1.31l2.1,1.43c.28-.37.56-.74.83-1.12Zm83.47,5.83,1.24,1.05,1.54-2.17-1-.8Zm42-13.6c-.69-1.76-.78-2.77-1.27-3s-1.32.36-3.12,1Zm37-27.37,1.39.61c.31-1,.62-2,.92-3l-1.13-.38ZM373.2,464.87l1.42.21v-2.7l-1.08-.08C373.43,463.16,373.31,464,373.2,464.87Zm106-.26-1.38,1,1.49,1.94,1.16-.77Zm-24.16,8.31c.1-.41.2-.81.29-1.22l-3.14-.76-.29,1.22ZM243,388.25l-1-.75-2,3,1,.66Zm194.08,66.62.77-1.24-2.13-1-.56,1.05ZM306.62,433c-.55.57-1.1,1.14-1.66,1.7l1.91,1.61,1.59-1.68ZM354,439.9l-.87-1-2.3,2.06.75.89ZM302.78,480l1.32.74,1-2.49-1-.51Zm183.51,83.36-1.38-.41-.78,2.61,1.34.41C485.74,565.12,486,564.25,486.29,563.38ZM298,568.56l-1.27-.07-.15,2.59,1.27.07Zm49.4-101.95-1.27-.44-.93,2.69,1.27.43ZM262,473.86l-.06,1.28h2.3l0-1.07Zm36.68-17.35-1,1.11,1.95,1.61.8-.86Zm138.65-7.45,1.19-.1c-.06-.77-.12-1.53-.19-2.3l-1.2.1C437.18,447.53,437.25,448.3,437.32,449.06Zm-93.83,12.07,1-.76-1.7-2.24-1,.72Zm-2.77,107,.93-.55-2.11-3.26-.82.56Zm109.54-6.86-1.17-.11v2.49l.89.05Zm-29.05-114.6-1.37.47.87,2,1.06-.38Zm35.65,75.62-1.39-.25-.16,2.48,1.19.11Zm77-37.62-1.14-.24-.45,2.15,1.15.23ZM334.29,460l.42-1.42-2.17-.41-.29,1.1Zm-85.74-43.43,1.25-.63c-.4-.65-.8-1.3-1.19-2l-1,.54C247.92,415.19,248.24,415.88,248.55,416.56Zm253,109.76,1.43.31.27-2.22-1.12-.21C502,524.91,501.77,525.62,501.58,526.32ZM280.63,560l-1.42-.37-.45,2.45,1.11.27C280.12,561.54,280.37,560.75,280.63,560Zm14.09-77.81-1.43-.31-.27,2.22,1.12.21C294.33,483.58,294.53,482.87,294.72,482.16Zm28.54,87.9-.76,1.08,2.57,1.51.58-.92ZM523.5,459.62l-.19,1.2,2.21.35.19-1.2ZM335.71,562.13l.61-1-3.56-1.67-.35.72Zm62.19-112.3-1.14.73,1.37,1.79.88-.59Zm79.44-.72-1.33-.24c-.07.83-.15,1.66-.22,2.49l1.09.14C477,450.7,477.19,449.91,477.34,449.11Zm-99.2,117.46-1.2.33c.24.75.47,1.51.7,2.26l1-.27Zm45.51-77,1.07-.8L423.26,487l-.85.65Zm-60.27,2.31-.8-1-2.08,2,.69.79ZM448,470.71c-.21-.39-.41-.78-.62-1.16-.55.4-1.11.79-1.65,1.21a6.2,6.2,0,0,0,.42.88Zm-5-35.91.09,1.3,2.13-.33-.09-1ZM302.6,474l1.23-.61-1.09-1.88-1,.51Zm-7.45-.68-.58-1.26-1.9,1.07.49,1Zm31.28-38.12-.65-.91-1.84,1.3.66.93Zm12.4,9.11c.15-.35.3-.71.44-1.06l-2-.79-.42,1Zm42.84,6.2.72,1.24,1.63-1.18c-.2-.32-.39-.64-.58-1ZM374,485.81l1.24,1.26,1.32-1.27-1.35-1.37Zm124.38-19.64,1.32.31.33-2.11-1-.24C498.82,464.81,498.61,465.49,498.41,466.17Zm-29.54-10.28-.33,1.27,2.15.43.27-1Zm46.21,27.59-.55,1.14,2,.75.39-.93Zm-12,15.3,1.15.1.18-2.08-1.14-.1C503.19,497.39,503.13,498.08,503.06,498.78ZM322,436.23l-1.39-.16v2.22l1.06.09Zm93.69,49.48-1.36,1.49,1.47,1.09,1.24-1.35Zm21.57-11.46-.93-.84-1.11,1.45.69.63ZM365,479l-.18,1.2,2.23.11.09-.92Zm79-24.32-.18,1.2L446,456l.1-.92ZM276.25,565.38l-.9.49,1.1,2,.88-.5ZM506.36,475.7l-1.14-.18-.29,2.21.94.14C506,477.15,506.2,476.42,506.36,475.7Zm-5.22-52.65c0,.42.08.83.11,1.25l2-.33-.09-.92Zm-69.51,70.28-1.15.05.36,1.63.79-.14ZM302.53,462.7l1-.38c-.21-.53-.41-1.07-.62-1.6l-1,.38ZM394,531.42l1.06.15v-2.25l-.79-.05Zm-119.47-97.2,1,.47c.36-.75.72-1.5,1.07-2.25l-1-.47Zm12.92,14.17.35-.94c-.64-.22-1.28-.45-1.93-.63-.06,0-.22.34-.54.85Zm68.1,26.3c.44.47.87.95,1.3,1.42l1.16-1.23-1-1.17Zm107.24,9.83-.88-.9-1.31,1.48.71.7ZM406.85,513v.74h1.84V513Zm9.57,51.81,1,.15.14-1.82-.76-.1Zm70.94-131.14.63-1-1.54-.7-.4.79ZM445,485.56l1.17-.91-.79-1.6-1.28,1.2Zm25.64,19.2.95-3-1.69.76C470,503,470.13,503.26,470.62,504.76Zm25.27-6.86-.24.9,4,.45ZM285.2,492.27l-1-.07c.06.57.13,1.15.2,1.72l.73,0Zm120-25.75.87-.59-1.24-1.3-.55.89Zm54.84,97.75h.68v-1.74h-.68ZM279.59,448.17l.09.87,4.35-.87ZM387,461l1-.13c-.13-.56-.26-1.12-.38-1.68l-.68.09C387,459.81,387,460.39,387,461Zm-60.1-.59c.14-.33.28-.66.41-1l-1.5-.48c-.09.26-.19.51-.28.76ZM417,452l-.29,1.11,1.86.29.17-.84Zm68.74-27.88.5-.66-1.29-1-.52.69ZM289,483.33l-.8.09c.06.57.13,1.15.2,1.72l.8-.09C289.14,484.48,289.07,483.9,289,483.33Zm-28.15-28.65-.23.9,4,.45Zm95.32,114,.27-.93-1.71-.28-.17.65ZM331.52,435l.45,1,1.36-.84-.39-.71Zm-23.18,40.08.27-1.19-1.83-.14-.13.88Zm109.24,4.06,1.81,2.3v-2.18ZM369.9,513.89l1-.18c-.18-.52-.36-1.05-.59-1.69l-.86.59C369.6,513,369.75,513.44,369.9,513.89ZM444.72,557l-.44.94,1.54.51.29-.65C445.65,557.49,445.19,557.22,444.72,557ZM368.1,500.82h-.61v1.42h.61Zm85.9,5.82.76-.71-1.25-1.07-.55.59C453.31,505.84,453.65,506.24,454,506.64Zm-187.14-6.36,2.41.56c.05-.44.1-.88.2-1.66Zm40-43.57.42.77,1.44-.91-.29-.55ZM247,384.13l1.43,1.35,1.23-1.59Zm17.73,99.79c0,.28.05.57.08.85l3.71-.85ZM497.4,443.36l-1,.17.49,1.65.85-.6Zm-136.33,1.88.67.3.69-1.56-.67-.3Zm117.61,79.22.51.9,1.23-.91-.42-.63ZM368.85,461.7l0-.63-1.35-.1,0,.65ZM431.44,557l-.78-.49L430,558l.64.3Zm-15.72-77.8c0-.29-.05-.58-.08-.87l-1.63.24.05.63ZM335.14,451l-.63-.05-.13,1.34.64.06Zm192.45,7.31.86-.17-1.25-3.41C527.5,457.49,527.55,457.9,527.59,458.31Zm-2.43,20.22.46.7,1.24-1.06-.35-.47Zm-241.63-2-.85.21,1.44,3.31C283.67,477.35,283.6,477,283.53,476.54ZM463.6,498.31l-.44.63,1.82,1.37.36-.44Zm-172-31.25c.16.26.32.52.49.78l1.17-.93c-.12-.17-.24-.35-.35-.53Zm195.72-6.15.15.55,1.25-.35-.15-.54Zm-84.83-9.56.62.09.15-1.2-.6-.08Zm-118,13.08-.35-.83-2.84,1.63Zm136.38,80.45-.06.6,1.22.12L422,545Zm39.49-14.59c.13-.24.26-.49.4-.73l-3.31-1.11Zm-22.47,14.09.79-.8-.9-.86-.7.71ZM364.69,455.8l0-.84-3.25.54Zm-21.51,18.87.66-.59-3.41-2.85C342.58,473.93,342.88,474.3,343.18,474.67Zm-44.51-4.25.73-.39c-.24-.33-.49-.65-2-2.7C298.36,469.7,298.52,470.06,298.67,470.42Zm120.84-.13-.32-.83-3.1,1.64Zm99.31,3.81c.16-.22.31-.45.46-.68l-3.23-1.1Zm-205.45-2.9L312.19,470l-.87.9,1.2,1.2Zm110,85-.18.46.82.33.19-.48Zm-81-119.68Zm99.8,40-.56.19.36,1.07.55-.18Zm-2.76,76.75.76.32c.11-.37.21-.75.9-3.14Zm-62.29-83.1h0C376.28,468.69,376.13,468.44,377.16,470.23Zm115.3-6.38-.39-.34-.58.67.36.32Zm-98,37.81ZM381,465.1h0C381,464.85,381,464.6,381,465.1Zm115.92,5-2.2.57.33.48.31,0ZM372,473.91l.15.39.72-.27-.16-.41ZM455.89,470Zm-167.4,16.61c.21,1.67.18,1.38,0,0C288.23,488,288.19,488.21,288.49,486.58Zm-4.77-2.45Zm-8.79-53.54Zm148,77.09ZM305.61,467Zm105.54-16.23Zm45.58,63c-.19-.49-.09-.24,0,0ZM233.66,384.4h0C233.43,385.78,233.39,386,233.66,384.4Zm86.68,88.79.41.06c0-.26.07-.51.11-.76l-.43-.06Zm29.18,1.8Zm92.13,95.27ZM284.94,468.9Zm8.53,27-.82-.46c.28.43.34.52.39.61Zm35.43,73.71.51.34.11-.29ZM436.82,461.75Zm-61.71-7.81-.19-.28c-.1.14-.2.27-.29.42l.29.11Zm-4.72,81.3c0,.47,0,.84,0,0ZM325.52,420.37l.51.34.12-.29Zm64.73,4.88.34-.51-.28-.11Zm-71,15.9-.85-.86-.52.58.86.85Zm-35.89.06-.82-.47c.28.44.34.53.39.62Zm230.18,21.91Zm-171.62,27c-.14-.43-.18-.57,0,0C341.56,489.61,341.64,489.74,341.9,490.12Zm150.12,32c-.23.29-.14.17,0,0ZM277,478.65Zm128.44,78.12.39.27a2.16,2.16,0,0,0-.14-.43Zm104.46-88.45h0C509.94,468.52,510,468.61,509.89,468.32Zm-77.36-10.41c-.12-.43-.15-.57,0,0Zm-134.16,6.42ZM302.74,439l.3.06c0-.09.08-.23,0-.27s-.18-.06-.28-.08Z" fill="#353535"/><path d="M540.22,82.26l2.87,2.51,12.84,12.81c17,17,34.11,34,51,51.15,1.88,1.91,2.49,5.06,3.69,7.64-1.4,14.57-2.78,29.15-4.24,43.72a12.64,12.64,0,0,1-1.17,3q-.51-7.62-1-15.22l.81-.44c-1.08-3.47-2.16-6.93-4.2-13.43-1.34,5.1-1.8,6.85-2.23,8.45l-10.78-2-1.62-4.58c-1.56-.51-3.22-1-3.77-1.23l-7.51,3V163.57l-4,3.38c-.75-2.08-1.34-3.73-1.93-5.38l-1.78,0c.16,3.14.31,6.28.49,9.91l-4.73-3.22,1.3-1.73-9.94-7.72c-2.86-2.11-5.74-4.25-8.56-6.45-1.63-1.27-4.41-2.55-4.56-4-1.24-12.8-1.45-25.72-3.23-38.43-.57-4.11-4.17-9.9-7.67-11.06-6.39-2.12-13.74-1.28-20.68-1.86-1.73-.15-3.4-1-5.89-1.73l-2.28.87-3.78-3.53-2.07,3.12L493,94.11,487.81,97c-.48-1.85-.79-3-1.45-5.53L470.63,95.1l-6-3.54-27,2-.15-2.29L401,93.36l.17-1.41-16.7-1.26-.14,1.79h-8.8l-1.4,2.41h-25c.1.18-.64-1.24-1.32-2.55l-8,5.1-1.41,2-2.75-.7V94.9l-5.79,4.87L324.37,96v5.42l-4-.4-1.5-4.31-10.23,5.93c.12-2.53.17-3.61.27-5.72l-16,3.45.29,1.37-3.42.58V106l-4.5-2.58-.13,2.28-15.24,1.15,2.19,4.7L264.52,109c-.21,1.59-.36,2.67-.5,3.75l-1-.35c-1,2.09-2,4.17-3,6.26l-.08-.07-1.29-7.37c.45-1.58.89-3.16,1.34-4.74l3.7-.6c1-1.5,2-2.94,4.39-6.53l-5.33,3.39c-.44-.7-.87-1.41-1.3-2.11l8.43-4.3,17.68-3,.09.71,18.72-2,.25.13,40.45-4.82c-.25.62.13-.31.74-1.78l-6.12-1c-.59-1.49-1.1-2.78-1.72-4.37l-4.51,2.1-.65-.35-15.28-2.61,2.29,2.14H301.58l-.23-.36L265.5,84.84c.15.57-.29-1-.73-2.64a1.07,1.07,0,0,1,.55-.11l4.86-1.2,4.56-.18L285,79.47l3.24-.09,10.28-1.22,5.94-.14,12.29-1.3,24.94-1.93,23.1-1.29c21.2,0,42.4-.29,63.59,0,17.75.25,35.48,1.19,53.22,1.82l-8.4.56c0,.64,0,1.29.07,1.93l45.13,3.31-3.82-2.92L516,78Z" fill="#414141"/><path d="M346.49,577.18h5.39l29.84,2.92,1.79,2.28,2.32-3.35,4,2-4.17,4,4.85,3.22-10.43,12.71a11.7,11.7,0,0,1,3.35,1.22c2,1.39,3.73,3.12,5.57,4.7l-3.33,0-1.44,2.84-1.68-2.6c-9-.44-18-.91-26.91-1.31-33.08-1.5-66.18-2.61-99.22-4.74-7.28-.47-14.32-4.55-21.47-7l2.5-.3-9.72-10.46-3.13,1.09-11.81-14,2.55-4.59L213,561.78l3.88-3.22-.9-1.34-4.67,2.41-2.93-.33-1.7,2.4-1.25-.1a2.29,2.29,0,0,1-.11-.58c0-1.59,0-3.18,0-4.77L210,558l1.83-2.81-2-3,5.91-2.79c1.56,3.89,3,7.38,4.56,11.33l-2.37,2.09a11.16,11.16,0,0,0,.65,1.19h13c-.06.94-.11,1.87-.16,2.8l-4.93-1.75-7.2,5.4L234.45,568c.21,2,.37,3.47.63,6l5.4-3.34,5.3.3c.43-1.46.69-2.36.37-1.26H257.9l-1.35-5.54h-8.18c6.76-3.5,12.42-5.78,13.7,2.77l8.45,3.93,1.33-2.38,8.82,7.39h44.2Zm17.19,26.24-.15,1.36h19.2l0-1.36Zm19.79-13.88.39-1.64-3.49-.77-.37,1.58ZM248,572.86l-1.44.82,1.94,3,1.16-.78Zm-27,.55-1.18.77c.43.57.87,1.14,1.31,1.7l.92-.61Zm21.78,9.51,1.13-.35-.62-2-1.08.33Zm-1.62-6.06.72-.54-1.13-1.25-.5.38Zm-12.24-7Zm147.45,12.24Zm-158.92-11,.34-.51-.29-.12Z" fill="#555"/><path d="M385.66,606.9l3.33,0,11.92-6.44-.9-1.83,7.55-1.49-2.6-1.57.57-2.45L421.65,597l-8.44,3.45,9.05,1-1.48,5.46H408.5c2.66,3.46,4.46,6.4,6.86,8.71,1.85,1.78,4.46,2.78,6.74,4.12q.67,22.65,1.36,45.28-1.35-15.87-2.69-31.75V622.06l-9.34,2-3.32,7.21-7.59-11.43-2.77,1.24c.81,2.74,1.59,4.93,2.1,7.18,2.17,9.79,4,19.67,6.51,29.37,1.25,4.8,4.69,9.13,5.47,13.94,1.34,8.25,1.14,16.74,2,25.09,2.54,25.35,5.25,50.69,7.93,76,.75,7.09,1.6,14.16,2.41,21.23l-20.21,0c-1.93-31.65-3.7-63.3-5.85-94.93-1.06-15.65-2.82-31.25-4.27-46.87-.53-8.05-.91-16.11-1.69-24.14-.23-2.33-1.6-4.55-2.45-6.82h0q-2.07-4-4.13-8c0-.7,0-1.4.05-2.1Z" fill="#303030"/><path d="M503.17,575.84l32.17,1.23c0,.78.07,1.55.1,2.33L549,586.15c-.07,0,.8-.42.86-.44l6.78,1c.18.86.41,2,.74,3.59l4.08-1.8,1.71,2,6.5,2-9.22,5.65.49,1.09,14.6-5.16-12.89,6.08-4.13,1.23-1.26.13-6.13,1.28h0l-22.3,1.34-1.33,0-39.87,1.3-22.22.13c-.23-1.72-.46-3.44-.7-5.15l-1.73,0-1.53,4.33,4,.77-37.07,1.78-2.19,6.3v-6.14c2.28-.67,4.55-1.86,6.85-1.93,7.63-.25,15.27-.09,24.95-.09l-17.45-12.21,5.68-4.4,2.17-4.46-1.92-1.27-9.74,1.89,2.69-4.82,3.34,2c1.43-1.08,2.59-2.69,3.89-2.82,9.74-1,19.51-1.72,29.28-2.43,6.82-.49,13.65-.82,20.47-1.23h6.75ZM476.12,603.2v.66h6.83v-.66Zm-29.77-10.06,1.4,1.39,1.44-1.67-1.09-.9Zm21.48-6.58-.76.41,2.28,3Zm74.38-.76.95-.88-.8-.94-.83.75Z" fill="#4f4f4f"/><path d="M605.19,203.11a12.64,12.64,0,0,0,1.17-3c1.46-14.57,2.84-29.15,4.24-43.72.38,4.07,1.1,8.15,1.07,12.22q-.58,79.75-1.37,159.5c-.26,26.69-.66,53.39-1,80.08L609,409l-2.63-.61c.49,1.92.79,3.07,1.09,4.23-.24,1.12-.49,2.24-.87,4l2.43-1.56c.08,1.2.15,2.39.23,3.59l-.06,3.85q0,3,0,6.09c0,2.48,0,5,.08,7.45l-2.55-2.15v12.3l2.55-.74,1.23,18.24-2-4.85c-.67,6.87-1.34,13.63-2,20.4-.44-1.68-1.29-3.37-1.26-5,.28-18.21.95-36.42,1-54.63,0-13-.88-26.09-1.07-39.14-.2-13.32,0-26.64,0-40.48l-2.64,1.52,1.35-104.67h0c.42-1.09,1.19-2.18,1.2-3.29.13-8.14.1-16.28.12-24.42Q605.16,206.11,605.19,203.11Zm1.4,251.82,1.27,1.17,1-1.44-1.1-1ZM607,430Z" fill="#7a7a7a"/><path d="M424.15,793.9c-.81-7.07-1.66-14.14-2.41-21.23-2.68-25.34-5.39-50.68-7.93-76-.84-8.35-.64-16.84-2-25.09-.78-4.81-4.22-9.14-5.47-13.94-2.52-9.7-4.34-19.58-6.51-29.37-.51-2.25-1.29-4.44-2.1-7.18l2.77-1.24,7.59,11.43,3.32-7.21,9.34-2v11.17l-1.5-8.24c-1.83.21-4.85-.17-5.31.74-1.53,3-3.33,6.71-2.92,9.86,1.87,14.29,4.54,28.47,6.73,42.72.68,4.42.74,8.93,1.08,13.39l-.39.08q.81,8.9,1.64,17.78l-.87,2,1.15.33c.12-.79.24-1.57.37-2.36.62-1.16,1.8-2.32,1.79-3.48,0-9.89-.23-19.77-.4-29.66.44,1.23,1.22,2.45,1.27,3.69.53,13.42.77,26.85,1.46,40.25.58,11.36,1.94,22.67,2.45,34,.59,13.16.61,26.34.88,39.52Z" fill="#161616"/><path d="M602.47,341.49l2.64-1.52c0,13.84-.15,27.16,0,40.48.19,13.05,1.1,26.1,1.07,39.14-.05,18.21-.72,36.42-1,54.63,0,1.67.82,3.36,1.26,5v35.85c1.36-4.61,2.08-7,2.79-9.46q-3.4,24.29-6.8,48.58h-.68c0-1.14,0-2.28.05-3.42.2-6.93.58-13.85.58-20.77q0-82.15,0-164.31c0-1.08,0-2.16,0-3.24V359Q602.43,350.23,602.47,341.49Z" fill="#8a8a8a"/><path d="M199.86,445.65l.09,10q.59,13.26,1.16,26.52,1.54,36.3,3.08,72.61l-.42.31c-.82-8-2.09-16-2.38-24-2.69-72.74-5.72-145.47-7.58-218.23-1.27-49.35-.93-98.74-1-148.11,0-5,2.39-10.1,3.68-15.15l-.06,1.37q-1.29,15.22-2.59,30.44c0,38.68-.11,77.35.18,116,.13,17,1.15,33.91,1.76,50.86l1.37,39.24c0,1.75,0,3.51,0,5.26q.66,12.88,1.31,25.77v2.61c0,1.12,0,2.24.05,3.36Q199.22,435.11,199.86,445.65Z" fill="#979797"/><path d="M428.2,793.91c-.27-13.18-.29-26.36-.88-39.52-.51-11.36-1.87-22.67-2.45-34-.69-13.4-.93-26.83-1.46-40.25-.05-1.24-.83-2.46-1.27-3.69l1.35-10.11c.43,3.14,1,6.26,1.27,9.41.53,5.65.91,11.32,1.36,17l2.79,49.93q1.32,25.62,2.63,51.25Z" fill="#303030"/><path d="M393.82,652.07c1.45,15.62,3.21,31.22,4.27,46.87,2.15,31.63,3.92,63.28,5.85,94.93-.68-1-1.9-2-2-3.1q-3.59-55.82-7-111.64c-.34-5.37-.85-10.73-1.27-16.09Z" fill="#767676"/><path d="M206.65,561.7l1.7-2.4,2.93.33,4.67-2.41.9,1.34L213,561.78l2.36,4.08-2.55,4.59,11.81,14,3.13-1.09,9.72,10.46-2.5.3L212.07,574.5l-2.64-4.1h0L208,567.76h0c-.44-1.14-.89-2.27-1.33-3.4h0C206.66,563.48,206.66,562.59,206.65,561.7Z" fill="#3e3e3e"/><path d="M481.62,75.34c-17.74-.63-35.47-1.57-53.22-1.82-21.19-.31-42.39,0-63.59,0l-.11-.18,6.75-1.27c26.05,0,52.1-.4,78.13.27,18.56.48,37.08,2.44,55.62,3.74,0,.25,0,.51,0,.76L488.3,75.4l-4.12-.08Z" fill="#9c9c9c"/><path d="M426.21,607.57c0,2,0,4.1,0,6.14l-2.71,6-1.41,0c-2.28-1.34-4.89-2.34-6.74-4.12-2.4-2.31-4.2-5.25-6.86-8.71h12.28Z" fill="#131313"/><path d="M609.28,505.65c-.71,2.43-1.43,4.85-2.79,9.46V479.26c.67-6.77,1.34-13.53,2-20.4l2,4.85c0,1.13,0,2.26,0,3.39q-.6,11.89-1.21,23.79c0,3.06,0,6.11,0,9.17,0,1.87,0,3.73,0,5.6Z" fill="#6d6d6d"/><path d="M341.71,74.79l-24.94,1.93L304.48,78l-5.94.14-10.28,1.22-3.24.09-10.28,1.24-4.56.18-1.38-.19.69-1.26,87.15-6.1Z" fill="#a7a7a7"/><path d="M422.1,619.7l1.41,0q1.37,27.32,2.72,54.65,0,9.14-.11,18.29c-.45-5.65-.83-11.32-1.36-17-.3-3.15-.84-6.27-1.27-9.41l0-1.33Q422.77,642.35,422.1,619.7Z" fill="#555"/><path d="M431.54,793.87q-1.32-25.62-2.63-51.25l1.33.69c.93,15.56,1.89,31.12,2.7,46.69C433,791.26,432,792.58,431.54,793.87Z" fill="#6e6e6e"/><path d="M430.24,743.31l-1.33-.69-2.79-49.93q.06-9.15.11-18.29c.84,13,1.72,26,2.49,39C429.31,723.34,429.74,733.33,430.24,743.31Z" fill="#a4a4a4"/><path d="M393.82,652.07l-.12,11c-.86-6.71-1.88-13.41-2.52-20.14-.69-7.24-1-14.52-1.5-21.79.85,2.27,2.22,4.49,2.45,6.82C392.91,636,393.29,644,393.82,652.07Z" fill="#9d9d9d"/><path d="M487.62,605.51l39.87-1.3a97.54,97.54,0,0,1-10,1.18C507.52,605.57,497.56,605.49,487.62,605.51Z" fill="#aaa"/><path d="M505.18,76.82c0-.25,0-.51,0-.76,11,1.56,22,3.11,33,4.75.74.11,1.36,1,2,1.45L516,78l-10.28-1.16-.26,0Z" fill="#b1b1b1"/><path d="M236.39,107.79l19.46-20.38.37.37q-7.91,8.63-15.8,17.24l-.67.75v0l-.71.68v0l-1.3,1.4h-1.35Z" fill="#bbb"/><path d="M196.46,151l.06-1.37L215.34,130l.29.28-19,20.81Z" fill="#717171"/><path d="M609.29,445.47l-2.55.74v-12.3l2.55,2.15Z" fill="#6d6d6d"/><path d="M609.29,490.89q.62-11.89,1.21-23.79Q609.9,479,609.29,490.89Z" fill="#8a8a8a"/><path d="M528.82,604.18l22.3-1.34Z" fill="#aaa"/><path d="M555.93,97.58,543.09,84.77Z" fill="#a4a4a4"/><path d="M269.49,79.44l-.69,1.26-3.48,1.39a1.17,1.17,0,0,0-.55.1l-8.55,5.59-.37-.37Z" fill="#bbb"/><path d="M223.54,121.28l10-9.58.3.29-10.05,9.56Z" fill="#717171"/><path d="M341.71,74.79l14.93-1.45,1.84,0,6.22,0,.11.18Z" fill="#9c9c9c"/><path d="M385.55,613.08q2.06,4,4.13,8l-5.34-8.83C384.74,612.55,385.14,612.82,385.55,613.08Z" fill="#9d9d9d"/><path d="M580.93,590.15l8.81-8.21Z" fill="#353535"/><path d="M609,409l.27-.86c0,3.5,0,7,0,10.5-.08-1.2-.15-2.39-.23-3.59Q609,412.07,609,409Z" fill="#8a8a8a"/><path d="M364.7,73.32l-6.22,0,13-1.24Z" fill="#a7a7a7"/><path d="M597.73,570.44l2.68-8.8a3.25,3.25,0,0,0,.54-.12l.2.17Z" fill="#a1a1a1"/><path d="M236.39,107.79h1.36l-3.92,4.2-.3-.29Z" fill="#717171"/><path d="M205.28,556.25c0,1.59,0,3.18,0,4.77q-.76-3-1.52-6l.42-.31Z" fill="#979797"/><path d="M609.21,428.61q0-3,0-6.09Z" fill="#8a8a8a"/><path d="M551.12,602.84l6.13-1.28Z" fill="#aaa"/><path d="M609.27,505.66c0-1.87,0-3.73,0-5.6C609.28,501.93,609.27,503.79,609.27,505.66Z" fill="#8a8a8a"/><path d="M209.43,570.4l2.64,4.1Z" fill="#979797"/><path d="M218,127.25l2.7-3.35.33.26-2.72,3.4C218.24,127.46,218.13,127.36,218,127.25Z" fill="#717171"/><path d="M385.66,606.9,385.6,611l-1.33-.71a.7.7,0,0,1,0-.53Z" fill="#3e3e3e"/><path d="M558.51,601.43l4.13-1.23Z" fill="#aaa"/><path d="M206.66,564.37c.44,1.13.89,2.26,1.33,3.4C207.55,566.63,207.1,565.5,206.66,564.37Z" fill="#979797"/><path d="M206.65,561.7c0,.89,0,1.78,0,2.67l-1.26-2.77Z" fill="#979797"/><path d="M208,567.76l1.44,2.63Z" fill="#979797"/><path d="M601.8,554.23h.68l-.6,4.82-.27-.25c0-.88.07-1.77.1-2.65Z" fill="#a1a1a1"/><path d="M384.27,610.27l1.33.71c0,.7,0,1.4-.05,2.1-.41-.26-.81-.53-1.21-.8C384.32,611.61,384.29,610.94,384.27,610.27Z" fill="#555"/><path d="M596.39,573.14c.45-.9.9-1.8,1.34-2.7C597.29,571.34,596.84,572.24,596.39,573.14Z" fill="#a1a1a1"/><path d="M215.34,130l1.41-1.3c.09.08.17.17.26.26l-1.38,1.33A4,4,0,0,0,215.34,130Z" fill="#717171"/><path d="M216.75,128.68l1.28-1.43c.1.11.21.21.31.31L217,128.94C216.92,128.85,216.84,128.76,216.75,128.68Z" fill="#717171"/><path d="M222.16,122.6l1.38-1.32.24.27-1.4,1.32Z" fill="#717171"/><path d="M601.88,559.05c-.24.88-.48,1.76-.73,2.64l-.2-.17.12-2.6h0a4.9,4.9,0,0,0,.55-.13Z" fill="#a1a1a1"/><path d="M220.73,123.9l1.43-1.3.22.27-1.31,1.29Z" fill="#717171"/><path d="M197.18,387.55q-.69-19.62-1.37-39.24V269.69l1,2h11.29c.17-.64.41-1.55.64-2.46l0,0,6.93-4.68c-1.94-2.32-2.62-3.12-3.23-3.86,1.61-2.93,3.08-5.61,5.14-9.33.7,2.7,1,3.87,1.31,5-.7.5-1.41,1,0,0-.73,1.51-.35.73,0-.05h5.91l-4.79-5.3,6-.67,4.46,5,5.42-5.06,2.73-3.72,7.19,6.15,1.17-1.4L244.77,247l4-1.12c.25,3.11.45,5.69.65,8.27l2.41-.08V236.62l-.25.11c1.61-8.93,3-16.59,4.38-24.26.42,8.88.83,17.76,1.15,24.59l9,7-1.26,1.3-1.69-2.23c-9.18,2.76-8.36,7.84-3.41,13.72-.34,1.14-.62,2.11-.91,3.08,11.08,3.31,6.35-5.76,8.3-9.9l2.61-.29c.6-.93,1.13-1.78,2.15-3.37.32,2,.49,3.14.81,5.17l4.42-3.06-6.74-8,1.2-.94,8.85,10.24-6.36,3.47-4.22-.63c-.22,2-.41,3.82-.51,4.73l19,3.37-5.77-4.7,4.86-4c-1-1.28-1.86-2.58-2.89-3.76-3-3.4-6-6.75-9-10.12l1.33,0,10.27,5.71-2.51,2.74,4.51-2.61c1.36,2.76,2.63,5.32,4.24,8.57,1.51-2.38,3.14-5,5.24-8.31h2.57c-.61,2-1.23,4-2.12,6.79.18,2.64.41,6.16.62,9.24l10.33-5.51,1.26,2.19-5.07,3.3c.21.77.51,1.87.84,3.1l5.79-3.14,1.62-5.91,5.82,5,5.67-4.73,6.79,9.65c-.7-1.73-.25-.62.61,1.46l5.85-3.73-3.6-4.89,9.73,1-6.83-4.45L331.65,258l-.94-1.11,4.37-5.06,5.43-1.83,6.27,5,3.78-1.38c1.68,2.58,3.27,5,4.58,7,.61-3.42,1.16-6.45,2.11-11.66l4.38,5.19-3.76,1.5,1.69,2,11.28-9.36,5.4.72,2.66-.88c1,1.53,1.84,2.89,2.69,4.21l5.59-2.85-4.12,4.84h-6.28l3.81,4.17,2.53-1.47,4,2.21-.84-4.9,3.49,2.82-2.31,4.7,7.36,5-.62-4.07c1.35-2.46,2.48-4.49,3.6-6.52l-1.15-.74-3.67,3.27c-1-3.12-1.78-5.72-3-9.8l4.7,3,4.21-1.93c1,4.72,2,9.17,3.16,14.27l3.35-2.26,3.38,1.52v-5.57l4.35,4.9c-1.27,2.27-2.17,3.88-3.08,5.49l1.95,1.33,7.18-10.35,2.89,1.42,8.63-9.77,2.54,3.16-4.59,7.92,7.09-3.83c.1,2,.18,3.43.26,5l3.09.27c.79,3.66,1.52,7,2.49,11.5l2.1,1.75c-.4-6.68-.76-12.8-1.09-18.43-.44-2.07-.8-3.71-1.15-5.35l2.59-.48c.7,5.13,1.41,10.26,2.09,15.25h6.22c.05-.93.1-1.9.14-2.61l4.48-5.22-2.15-3.76c.46-1.8.88-3.46,1.61-6.3,1.47,2.85,2.4,4.65,3.48,6.76l3.09,1.11c.43-1.15.75-2,.92-2.5l-4.26-6c.86-.48,1.72-1,2.57-1.45l7.22,14.23,4,2.26-7.2.88c.67,2.12,1.12,3.52,1.94,6.12L463.79,268l-2.4,1.76,4.5,4.76-6.7-.91L457.25,276c-.64.75-1.28,1.49,0,0-.31,1.82-.15.9,0,0l4.5.91,2.12,4,4.05-6.11,6.15,2.65c-.3,1.06-.62,2.21-.86,3.09.72,2.36,1.34,4.42,2.26,7.46l2.14-4.32-2.47-3.17,4.92-7.52V266h3.62l-.9-4.32,5.32-.38-.91,4.58,3.85,6.31,1.11-.48c2.79-4.72,4.36-7.37,6.25-10.58l6.66,4.82.74-1.4,13.84,7.5,1.22-1-7-7.65,6.68-8.18,1.51,1.1-3.48,5.94,5.77,7.12c-.44-3.77-.7-6-1-8.15L529,259c-.2-.45-.39-.89-.59-1.33l-3.55,1-1.51-1.93,8.14-6.26c.82,3.89,1.68,8,2.55,12.13l.72-.2v6.73l-5.63-4.91-5.29,8.91,3.3,1.29c.52-1.91.9-3.32,1.21-4.48l5.63,1.42c.7,1.82,1.48,3.88,2.27,5.93.24,2.43.47,4.86.77,7.88l-.58.77v32.94l-.4-.06q.48,6,1,12l-1,.18c-.25,2.46-.5,4.92-.86,8.4l.93,2c-.38,1-.74,1.9-.51,1.3V356h-.71v65.13l-9.59-6.26c.91,2.32,1.74,4.46,3,7.58L520.2,419l3.32,5.32-2.14,3.1c.48,1.09,1,2.15,1.78,4l-4.58-1.69v4l6,4.81c-.25-2.28-.43-3.87-.48-4.33.75-3.4,1.27-5.78,2.06-9.41l7.18,10.05-8.07,5.74,3.23,1-2.39,5.26-9.6-10.41,1.16,3.41-2.88,3.66,5.62,5.18-4,.71-4.49-6.3-6.12,1.85,4.71-6-7.66-4.18c.25,2.81.35,4,.49,5.56h-4.1c1.29-3,2.37-5.43,3.5-8l3.17,1,4.47-5.28,1.48,1.3-4.5,5.33,5,1.76c1.61-2.92,3.25-5.59,4.53-8.43.51-1.14.21-2.66.28-4h-4.62l3.21-8.17-8.38-6.89,1.64-2.92-3.71,5.15-2.3.84-2.75-2.52L496.08,411l-6.55-6.92-6.56,3.6,5.91,3.45-7.75,11-4.28-1.51-5.29,2c1-3.87,1.73-6.67,2.8-10.77-1.31-1.54-3.54-4.14-5.77-6.73l2.31-3.29-1.46-.95c-1.25,2.36-2.49,4.72-3.95,7.49l-5.57-4.07c-.45,2.73-.76,4.53-1.27,7.56l4.44-2.83c-.21,1.58-.33,2.47-.45,3.36h0l-7.62,6-1.22-3.27-1.23,0v7l-5.82,2.62c.75-3.18,1.22-5.2,1.78-7.63l-14.19,6.48c1.89-6,3.09-9.78,4.3-13.59l1.35.4,2.93-13.11-4.41,6.42v4.13l-7.3-4.56c.5-1.07.94-2,1.6-3.43l-4.55.91-3,3.3,10.25,6.35-6.93,2.41,0-.08-6.19-1.07v4.63l-3.63,2.58c2.06,3.2,4,6.23,5.94,9.26l2.07-1c-.79-2.4-1.58-4.79-2.44-7.43h1.23l8.37-2.76-6,10.2,9.88-2.46-9.34,7-3.3-.39c-.38.76-.77,1.52-1,2l-5.21,2.23,2.31,4.59-9.94-3,7.26-4.2-.06-1.21-12.09,2.14,9.16-8L406,427l-2.34-1.64c.12-.94.25-1.88.47-3.49l-4.86-.3-.49-1.76c1.9,0,4.07-.58,5.63.15s2.74,2.8,4.66,4.94l2.37-2.33-3.52,2.13-7.45-11.94L390,421.88l3.78,3.16q1-10.87,1.94-21.76l6.59,5.83-2.3-4.47,5.55,1.8,4.23-4.68-.92-1.4-5.47,2.6c-1.54-.84-3.66-2-6.4-3.46.4,1.66.64,2.66,1,4l-3.65-2v5.83l-7.56-9.4c-.13,2.31-.18,3.23-.25,4.48l-3,.92c-.39-1.68-.71-3-.92-3.95l11.61-8.62c-1.48-2.25-2.17-3.3-3.48-5.27l-1.51,5.32-16.69,11.49-15.4,2.86-.89-1L354,406l7.12,13.91-2.42,1.85-2.46-4-5.7,6.12-10.45-3.72c-.24-.8-1.09-3.68-2-6.55l-1.27-.07c-.18,2.1-.35,4.19-.53,6.29h0l-5.13-1,4.34-9.27-4-1.44c.29-1,.55-1.95,1.12-4l-6.74,1.7,4.47,6.11-5.07.59v5.55l-6.12-5.44-3.51,2.17c.44-1.76.74-2.95,1-4.13l-5.65-2.07,4.06-2.86-3.92-2.42c.27-1.07.56-2.2,1.18-4.63l-9.2,1.68c3.89,6.93,7.36,13.1,11,19.55l-4,1.85,3.47,3.05-4.88.66-1-3.77H300.6c-.17,1.54-.34,3.12-.58,5.33l-6.27-2.86,5.62-4.67-11,4.23L286,427.38l-3.74-4.19L300,416.68c.37,1,.73,2.08,1.09,3.12l3.44-1.43L296,412.5l-7.89,4.09L285,415.11l-4.26,8.46-3.92-5.69,6.33-4c-.48-1.14-1.27-3-2.33-5.48l-11.11-1.28-.17,2,7.23,1.7-6.32,4.55,4.49,3.46.86,6.15-5.83-.41-2.31,4.1-4.93-10.6.8-.37c-1.24-1.76-2.49-3.51-5.1-7.19l7.66,2.16L267,412l-4.54-9.49L260.59,405l-1.53-.39c.5-2,1-4,1.76-6.94l-1.75-2.21V383.5l1-.7c-.51-6.48-1-12-1.41-17.69l1.57-.95c-.81-5.78-1.52-10.78-2.48-17.64l-.44-.32v-28l.89-1.47-4.41-7.93c-1.09,6.73-1.85,11.42-2.6,16.1l2.46.58c-1.48,6.79-3,13.57-4.26,19.56l-5.32,1-3.87,4.05,1.25,3.15,4.8-2.54,7.26,4.22c-.81,2.37-1.48,4.36-2.31,6.81l-4.31-3.43c-.63,1.54-1.12,2.76-1.71,4.19l4.23,2c.14.73.32,1.69.5,2.65h0l-3,1,4.68,7.89-1.66,2.66-4.09-.36L243,382.48c-.77-2.16-2-3.8-1.6-4.91.58-1.73,2.23-3.1,2.47-6.35l-13.22,9.38c-1.81-4.79-4.32-11.38-6.82-18l2-.93,3,4.89,3.91.36c.68,1.44,1.31,2.8,3.09,6.58.87-4.79,1.57-7.27,1.71-9.78a72.53,72.53,0,0,0-.5-8.3l-5.78,3-1.16-1.23L236,351l-7-2.69-.71,2.9-8.26,8.66c-.16,1.33-.41,3.3-.67,5.41l2,2.62-4.69,7.82c-1.23-4-2.79-6.64-2.65-9.17.26-4.46,1.55-8.87,2.53-13.93-.43-.18,1.4.55,3.85,1.51,2.53-2.88,5.23-6,8-9.19l-3.14-2.76c-.14-1-.29-2.14-.41-3L218,334.4c.2.92.4,1.84.61,2.75l-15.48,4.75,2.53,3.84c-.7,1.08-1.29,2-1.81,2.82,1.66,3.12,3.25,6.13,4.85,9.13h0l-9.24,4.47v-16.6l-2.29.06Zm308.26-109,4.05-2.75-8.72-2.43c.34-2.72.6-4.74.86-6.76l-1.85-.51c-.94,2.08-1.88,4.15-3.06,6.73l-2.93,1.76,5.75,6.43c-.72-3.35-1-4.44-1.47-6.82C501,275.92,503,277.09,505.44,278.52ZM512,280l-1.9,1.63,6.52,9.64,2.16-1.56ZM244.7,257.13l-.21-1.64-7.53-.4v4.58ZM464,261.21l-4.77-.4-2.33,5.65,2.88,1Zm-43.32,10.43,5.84-3.76-8.15-3.44,2.31,3.55Zm-1.73,5.84-1.09-1.72-7,4.52.92,1.39Zm17.62-8.56-1.09,3.24-3.64,3.12.66.87,6.74-3.65ZM505,283.64c-.31.52-.62,1.05-.94,1.57l5.55,3.46,1-1.69Zm-53.42.61-1.24-1.86-4.51,3.5c.39.52.77,1.05,1.16,1.58Zm66.24-7.07-1.87,1.16,3.23,4.72,1.69-1.08Zm3.33,7,.6,1.66,5.5-1.95c-.2-.57-.41-1.14-.61-1.72ZM406,265.73l-2,.27.84,5.19,1.72-.27C406.33,269.19,406.15,267.46,406,265.73Zm18.67,13.12,1.54-.85-2.27-4.62-1.91.91Zm-25.1-9.14c-.47-2.47-.8-4.2-1.46-7.69-.84,3.3-1.25,4.89-1.72,6.75Zm59.79,15.79,1.82-.83L459,280.85l-1.5.79ZM244.08,265.73c2.53,3,3,4,3.82,4.31.58.21,1.53-.62,3.55-1.57Zm212.2,24.44c.12-.66.25-1.31.37-2l-4.94-.65-.22,1.22Zm27.5-19.38-.12,1.55,3.84.35c0-.54.09-1.07.13-1.61Zm-42,13.76,1.11-1.17-2.42-1.76-.83,1.06Zm8.68-7.45c3.1-2.26,4-2.76,4.63-3.47.12-.14-.62-1.08-1.25-2.13C453,272.87,452.45,273.72,450.41,277.1Zm-18.73-10.6.54-1.44-2.6-.59-.33,1.31Zm96.53,12.82,1.16-.16-.3-2.07-1.15.17C528,278,528.12,278.63,528.21,279.32Zm-92.89-1.63-1.37,1.5,1.48,1.09,1.24-1.35ZM251.77,259l-.67.51,1,1.32.66-.49Zm260.74,14.38.34-.86-1.58-.63c0,.6,0,.81-.08,1.26Zm-56.09-5.1c.45,2.43.4,2.13,0,0C456.3,270.4,456.29,270.72,456.42,268.23Zm-29.79,6.07.82.27c.06-.38.12-.75.5-3.23C426.94,273.62,426.79,274,426.63,274.3ZM227.57,260.71Zm202.67,9,.51.15.3-1-.48-.15Z" fill="#3e3e3e"/><path d="M275.58,238.16c3,3.37,6.05,6.72,9,10.12,1,1.18,1.91,2.48,2.89,3.76l-4.86,4,5.77,4.7-19-3.37c.1-.91.29-2.73.51-4.73l4.22.63,6.36-3.47-8.85-10.24-1.2.94,6.74,8-4.42,3.06c-.32-2-.49-3.13-.81-5.17-1,1.59-1.55,2.44-2.15,3.37l-2.61.29c-1.95,4.14,2.78,13.21-8.3,9.9.29-1,.57-1.94.91-3.08-5-5.88-5.77-11,3.41-13.72l1.69,2.23,1.26-1.3-9-7c-.32-6.83-.73-15.71-1.15-24.59l.06-57.36,1.31,0v59.23l2.12.14,1.94-3.91,3.81,2.5c.77-1.29,1.38-2.29,2-3.31l3.36-.5-1.3-3.38-5.69,1.65,3.8-4.53,4.27,2.57c.64,2.88,1.13,5.08,1.85,8.3l1.9-2.09,9.52-5,2.07-.17,2.36,2.75,4.63-3.85-2.13,6.71,6.63-2.8,3.92,8.88,1.35-7.32,5.89-5.33c1.94,2.12,3.81,4.19,5.86,6.44l-2.64,3.42L316,217c.27-1.64.47-2.89.72-4.42h5.37c-.39-1.89-.75-3.59-1.33-6.39l.4-6,1.18,0,.39,4.3,13.42,11.41,8.46-4.39,2,2.53L341,216.91l4.39,4V217l2.09,0V202.13l1.14-.69c4.55,4.47,8.08,7.94,12.53,12.33L351.89,210c1.09,2.2,1.56,3.16,2.13,4.3l-6.3,4.94,6.87.64c.21.33.43.67,0,0,.61.43.29.21,0,0,.44-1.21.87-2.43,1.82-5.11.84,2.64,1.22,3.86,1.85,5.86L362,223c-.27-2.1-.42-3.24-.59-4.5l3-2.5,2.1,2.76h3.59l2.74,2.25h10.54c.15-2.5.24-4.19.36-6.29l4.21,1.46,7.12-4.56-6-3.26,3.07-2.32,7.12,4.59-5,5.6,8.36,5.21,2.12-1,9.09,3.67c-1.39-4.3-2.21-6.84-3.17-9.83l4.8.44,1.09-1.67,7.71,4.76-9.06,2v5.23l11.95-4.31c.57,2.48.89,3.87,1.1,4.8l-1.36,5.26,5.62,3.63,4.64-3.43-6.28-2.81,3.67-5.94-2-4.63c3.56-1.8,7.18-5.07,10.75-5,3.39.06,6.72,3.6,11.78,6.63L440,216l-.21,2.34,13.66,9.39,6.22.48c-.23-.85-.54-2-1-3.73l5,.85-5.34-9.3,3-2.1c.27-1.38.55-2.88.84-4.38H464c-.18,3.47-.35,6.94-.58,11.63l4-2.91c-.08-1.43-.15-2.63-.3-5.38l6.93,4,5.55-4.66c-3.1,6.86-4.94,10.94-7.86,17.42-.39-4.24-.53-5.78-.74-8l-4.59,3.1,3.73,6.28-3.23,1.84-2.28-4.32-3.25,2.59,5.95,4.09,4.84-3,2.48.7,6.13-4.05c-1.4,3.18-1.93,4.4-2.78,6.34l6.64-1.1c-2-4-3.51-7.18-5.21-10.67l6.2,2.75,11.06.74,2.77-1.54L497,230.76h16.55c-.12.44.12-.45.51-1.94,1.85,2.42,3.35,4.38,5.87,7.7.83-2.85,2.08-5.39,1.59-5.78a16.32,16.32,0,0,0-10.67-4.14c-.27-1-.54-2.09-.79-3l-3.76-2.05.45-1.52,10.48,3.16-1.8-5.15,2.39-2.32,5.59,7.14-3.34,1.91,13.05,8.72c.11-.27.6-1.43,2-4.88.61,10.82,1.1,19.42,1.7,30l-.56.84v17.91c-.79-2.05-1.57-4.11-2.27-5.93L528.37,270c-.31,1.16-.69,2.57-1.21,4.48l-3.3-1.29,5.29-8.91,5.63,4.91v-6.73l-.72.2c-.87-4.12-1.73-8.24-2.55-12.13l-8.14,6.26,1.51,1.93,3.55-1c.2.44.39.88.59,1.33l-5.65,2.22c.26,2.17.52,4.38,1,8.15l-5.77-7.12,3.48-5.94-1.51-1.1-6.68,8.18,7,7.65-1.22,1-13.84-7.5-.74,1.4-6.66-4.82c-1.89,3.21-3.46,5.86-6.25,10.58l-1.11.48-3.85-6.31.91-4.58-5.32.38.9,4.32h-3.62V273l-4.92,7.52,2.47,3.17L475.46,288c-.92-3-1.54-5.1-2.26-7.46.24-.88.56-2,.86-3.09l-6.15-2.65-4.05,6.11-2.12-4-4.5-.91h0l1.94-2.32,6.7.91-4.5-4.76,2.4-1.76,4.31,3.44c-.82-2.6-1.27-4-1.94-6.12l7.2-.88-4-2.26L462.14,248c-.85.49-1.71,1-2.57,1.45l4.26,6c-.17.47-.49,1.35-.92,2.5l-3.09-1.11c-1.08-2.11-2-3.91-3.48-6.76-.73,2.84-1.15,4.5-1.61,6.3l2.15,3.76-4.48,5.22c0,.71-.09,1.68-.14,2.61H446c-.68-5-1.39-10.12-2.09-15.25l-2.59.48c.35,1.64.71,3.28,1.15,5.35.33,5.63.69,11.75,1.09,18.43l-2.1-1.75c-1-4.45-1.7-7.84-2.49-11.5l-3.09-.27c-.08-1.61-.16-3-.26-5l-7.09,3.83,4.59-7.92-2.54-3.16L422,260.93l-2.89-1.42-7.18,10.35L410,268.53c.91-1.61,1.81-3.22,3.08-5.49l-4.35-4.9v5.57l-3.38-1.52L402,264.45c-1.13-5.1-2.12-9.55-3.16-14.27l-4.21,1.93-4.7-3c1.26,4.08,2.07,6.68,3,9.8l3.67-3.27,1.15.74c-1.12,2-2.25,4.06-3.6,6.52l.62,4.07-7.36-5,2.31-4.7-3.49-2.82.84,4.9-4-2.21-2.53,1.47-3.81-4.17h6.28l4.12-4.84-5.59,2.85c-.85-1.32-1.72-2.68-2.69-4.21l-2.66.88-5.4-.72-11.28,9.36-1.69-2,3.76-1.5L357.25,249c-.95,5.21-1.5,8.24-2.11,11.66-1.31-2-2.9-4.45-4.58-7L346.78,255l-6.27-5-5.43,1.83-4.37,5.06.94,1.11,6.89-4.38,6.83,4.45-9.73-1,3.6,4.89-5.85,3.73c-.86-2.08-1.31-3.19-.61-1.46L326,254.57l-5.67,4.73-5.82-5-1.62,5.91-5.79,3.14c-.33-1.23-.63-2.33-.84-3.1l5.07-3.3-1.26-2.19-10.33,5.51c-.21-3.08-.44-6.6-.62-9.24.89-2.84,1.51-4.82,2.12-6.79l7.28-4.27c-.26-.46-.52-.92-.77-1.38l-2.47.91h0l-4,4.75h-2.58c-2.1,3.35-3.73,5.93-5.24,8.31-1.61-3.25-2.88-5.81-4.24-8.57l-4.51,2.61,2.51-2.74-10.27-5.71,3.08-2.9a6.29,6.29,0,0,0-4.86.76C274.93,236.1,275.41,237.41,275.58,238.16Zm27-12.17c.32.68.64,1.35,0,0,1.18.89.58.43,0,0v-2.88l-6.17-7.52-1.88,1.3Zm-24.65-6.73,5.48,2.25c1.4-3.35,2.67-6.4,3.95-9.44l-1.27-.93-4.65,6.9-3.78-4.17L276.41,217l-3.84,1.19,2.68,3.53Zm167.24,9.05,6.68,4.1-5.81-9c-2.05,4.2-3.84,6.77-4.44,9.59-.25,1.15,2.07,2.85,3.23,4.29l1.35-1-2.5-4.6Zm-144.31,25.6,1.84,1.17,4.34-7.37,2.34,5.5,2.38-6.26-6.68-1.08ZM477.68,268.5,471,266.59l-1.35,1.91,6,7.62ZM293.62,233.84l2.32-.57a72.41,72.41,0,0,0-2.15-7.73c-.23-.61-1.9-.67-4.2-1.37Zm25-13.53,0,2.16h8.33v-2.16Zm-58.91-1.81,2.19,2.72,3.28-3.66h5.88l-5.34-3.3Zm118.88,9.61-.9,1.53c1.77,1.21,3.41,2.92,5.38,3.46,1.29.36,3-1,5.53-1.9Zm-26.22,18.2-1-5-8.63,5Zm-27,5,3.42,1.79a7.83,7.83,0,0,0-5.49-4.49c-.6-.17-1.68,1.4-3.89,3.38Zm2.52-40.22-6.37,4.07h9.33Zm69.67,12.19-1.75-1.33L391.29,228l1.77,1.31ZM384,224.63c.36.66.73,1.31,1.1,2L391,223l-1.05-1.83Zm18.68,4.11,3.15-3.63-.91-1.52-6,2.39Zm-65-4.68-1.92-1.46q-1.73,2.46-3.47,4.91l1.81,1.36Q335.92,226.46,337.71,224.06ZM363.83,251l1.48-1.32-6-6.75-1,.93ZM364,227.6l-1-1.23-6.64,5.24,1.07,1.33Zm-18.74,1.48-.08-1.31a13.82,13.82,0,0,0-3.84.33,13.92,13.92,0,0,0-3.09,2.25l.77,1Zm-39.76-11.3-1.58,1.59,4.31,4.11,1.32-1.28Zm89.53,26.33,2,1.2,3-5.35-1.21-.84Q396.94,241.61,395.05,244.11Zm-8.66,4.8,1.57-.3-.39-3.1,2.49-4.58c-2.6,1.77-4.12,2.29-4.2,3A20.51,20.51,0,0,0,386.39,248.91Zm-51.78-8.78c1.24,3.3,1.82,4.86,2.55,6.83l3.56-1.33Zm-54.82-18.84c-.52,2.11-1.2,3.31-.86,3.82.72,1.06,2,1.76,5.33,4.48Zm41.07,11.76c2.66-.7,4-.68,4.59-1.32s.3-1.89.55-4.37Zm10.89,16.43.9-1.41-5.11-3.19-.8,1.25Zm18-19.19,3.61-3.79-4.39-1C349.24,227.15,349.41,228.16,349.75,230.29Zm-84.62-2.59,1-1.64-3.56-1.93-.84,1.52Zm151.53,2-1.31-.95-2.58,3.78,1.32.86Zm-131.13-.61-1.24,1.4,2.76,2.12,1-1.3Zm33.9,11-1.81.54,1.68,4.28,1-.31ZM423.18,229l1.36-.69-1.41-2.79-1.36.69ZM260.7,247.56l.19,1.74,3.27-.44-.17-1.49Zm138-14.45,1.15-1.05-2.13-2.32-1.1,1Zm77.17,5.21c-2.18-.47-3-.87-3.55-.68-.35.12-.39,1.16-.86,2.74Zm-99.43,5.38-1.22,0-.2,2.83,1.42.06Zm131.4-6.12,1.31-1-2-2.11-1.06.92Zm-242-1.26-.93,1.22,2.52,1.73.76-1Zm91.37-10.11,1.64-1.55-2.15-2-1.38,1.27Zm-34.61,11.72-.55,1,3.06,1.63.57-1.07Zm70.71,3.52L393.1,240l-2.3.58.2,1.17Zm97,3.68,1.53,1.64c.5-.57,1-1.14,1.47-1.75a12.08,12.08,0,0,0-1.27-1.54Zm34.25-5,.16,1.23,2.22-.28c-.06-.42-.11-.83-.17-1.24ZM459,237.71l-.83.34c.42,1.14.84,2.27,1.27,3.41l.95-.39C459.89,240,459.43,238.83,459,237.71Zm41.39-4.39.11,1.19c.72-.12,1.44-.23,2.16-.38,0,0-.06-.4-.15-1Zm-204.74,6.49.43-1.49-2.25-.4c-.09.42-.19.83-.28,1.24ZM307.81,237l.28-1.42-2.17-.32-.25,1.11Zm36.68-3.67-1.26.55,1,1.94,1-.48C345,234.64,344.75,234,344.49,233.3Zm124.13,15.49.16-1.33-2-.13-.17,1ZM317.81,229.15l1,.16.15-1.83-.76-.1C318.07,228,317.94,228.56,317.81,229.15Zm50.77-.52-.74.61,1.3,1.53.71-.59Zm-86,22.73,0,.45.91.09,0-.49Zm52.81-12.77.46,0,.09-.92-.49,0Zm-59.06-10.92-.74-.27a9,9,0,0,0-.22,1s.47.2.5.15A7,7,0,0,0,276.31,227.67Zm226.12,18.55.45.28.45-.76-.44-.26ZM285,233.8c.24,1.66.2,1.37,0,0C284.76,235.17,284.72,235.44,285,233.8Zm240.31.55-.15.35.72.33.17-.39Zm-237-15.69Zm195.37,18Zm5.41-6.05c.08.38.05.23,0,0Zm-147.2-7.27Z" fill="#313131"/><path d="M605.19,203.11l-.05,6-1.34,1.36-4-10.51H587.24l-10.68-3.3,2.93,6.36-3.36,2c-.61-2.46-1.07-4.3-1.6-6.42l-2.86,1.68-10-5.15a53.33,53.33,0,0,0-2.54-6.56l-1.57.38-.25,4.57c1.48.57,2.51,1,4.36,1.61a6.47,6.47,0,0,0-1.52,1.82L549.5,185.57l-1.72,1.7-2.73-.21-6.09-5v-.68c.57-1.51,1.68-3,1.63-4.53-.43-12.87-.92-25.73-1.68-38.58-.57-9.51-1.58-19-2.34-27.92H516.19l-2.12-3.06-3.45,1.16c.29-.84.59-1.68,1.12-3.16l-3.83.45H493.42L491.76,103l-11.38,6.31-6.48-3.27,3.26-1.41,3.1,1.74c1.69-2,3.05-3.6,5.55-6.57l-16.63,4.88v-5.3l-1.36-.19c-.25,2.35-.5,4.69-.89,8.4l-8.29-4L452,101.84l-3.7,1.49c-1-.94-2-1.8-1.28-1.16H408l-.58.55c-6.34,0-12.44-1.77-16.24.43-5.11,3-8.08,5.32-10.73-2.5-1,1.89-1.53,2.93-2.16,4.12l-5.31.85-2.67-2.54-8.1,2.61-1.45-1.53a39.86,39.86,0,0,1-5.55.62c-2.85-.11-6.31-1.67-8.42-.55-5.11,2.71-9.58,6.28-14.14-.52-.28-.43-1.05-.52-2.27-1.06l3.19,6.59L332,110.29l-3.47-2.78H317.2c.05.53.15,1.46.34,3.35l-12.09.91L302,109l-11.79,7.1-3.74-2.18L280.35,117c-1-.66-1.8-1.15-2.86-1.82.13,1.59.22,2.75.34,4.35l-2.86-.2-1.39-3.8-9.77,2.72c-1.67,4.31-3.39,8.74-5.1,13.17l1.35-12.82c1-2.09,2-4.17,3-6.26l1,.35c.14-1.08.29-2.16.5-3.75l7.55,2.55-2.19-4.7,15.24-1.15.13-2.28,4.5,2.58v-3.64l3.42-.58-.29-1.37,16-3.45c-.1,2.11-.15,3.19-.27,5.72l10.23-5.93,1.5,4.31,4,.4V96l5.47,3.76,5.79-4.87v3.82l2.75.7,1.41-2,8-5.1c.68,1.31,1.42,2.73,1.32,2.55h25l1.4-2.41h8.8l.14-1.79L401.15,92,401,93.36l36.54-2.13.15,2.29,27-2,6,3.54,15.73-3.68c.66,2.53,1,3.68,1.45,5.53L493,94.11l2.61,1.58,2.07-3.12,3.78,3.53,2.28-.87c2.49.75,4.16,1.58,5.89,1.73,6.94.58,14.29-.26,20.68,1.86,3.5,1.16,7.1,7,7.67,11.06,1.78,12.71,2,25.63,3.23,38.43.15,1.47,2.93,2.75,4.56,4,2.82,2.2,5.7,4.34,8.56,6.45l9.94,7.72-1.3,1.73,4.73,3.22c-.18-3.63-.33-6.77-.49-9.91l1.78,0c.59,1.65,1.18,3.3,1.93,5.38l4-3.38V177.7l7.51-3c.55.19,2.21.72,3.77,1.23l1.62,4.58,10.78,2c.43-1.6.89-3.35,2.23-8.45,2,6.5,3.12,10,4.2,13.43l-.81.44ZM345.81,97.68Zm-11.1,4.37c-.08.49-.15,1-.23,1.46l2.72.29.17-1.25Zm216.2,72.23-1.14-.14v2.4l.87.06Zm-65.72-67.54.45-.83-1.26-.74c-.21.32-.27.41-.53.78Zm23.86-5.7-.41-.05-.11.75.44.06ZM359.81,99.52c-.81-1.76-.7-1.51,0,0C359.53,97.87,359.49,97.6,359.81,99.52Zm211,93.94Zm-6.6-11.53ZM394.6,92.49Zm187.89,87.05-.19.06Z" fill="#313131"/><path d="M539,182.1l6.09,5,2.73.21,1.72-1.7L560.19,197c0,.06.51-1,1.06-2.07l10.42,5.4,2.86-1.68c.53,2.12,1,4,1.6,6.42l3.36-2-2.93-6.36,10.68,3.3h12.59l4,10.51q0,13.18,0,26.35h-.69v-16.6L598.91,226c.92,2.84,1.92,5.92,2.94,9l-3.26,1.37c.19,4.07.36,7.73.52,11.25l-3.49,2.08,2.7,3.75-8.68,1,3.51-10.31-7.7,1.18c-.15.78-.36,1.85-.68,3.52l-5.54,1.64,2.44-5.92L572.78,242c2.31-1.68,3.59-2.62,5.38-3.91l-2.61-4.29c-9.36,12.6-12.41-2.69-19.29-2.95.63,4.1,1.31,8.48,2.08,13.39h-5.21c2.71-8.76-1.43-13.84-8.77-17.16.31.56.56,1.14.92,1.66a14.56,14.56,0,0,0,1.26,1.37v2.63l5.89,2.46-7,6.45c-1.69-3.5-3.32-6.91-5.28-11L537.74,229c-.46-1.69-1-3.62-1.34-4.94l16.1,1.07c-.91-2.1-1.29-3-1.45-3.33l-6.56-2c.4-2.19.65-3.58,1-5.34l-5.11-2.15L537,202.78c.89-1.22,1.54-2.11.63-.87Zm44.18,57.43,3,.57q.85-4.22,1.7-8.42l-3-.58C584.27,233.91,583.7,236.72,583.14,239.53Zm-28.92-19.41,2,.42.75-4-1.74-.38Zm14.91,5.18L567.51,224l-2,2.95,1.38,1.05Zm-14-15.42-1.38-1.26-1.69,2,1.25,1.18Zm22.72,17.75.39-.94-2.46-1-.39.94Zm13.94-6.39-.34.51.29.12ZM546.55,210.4Z" fill="#2a2a2a"/><path d="M258.71,131.45c1.71-4.43,3.43-8.86,5.1-13.17l9.77-2.72,1.39,3.8,2.86.2c-.12-1.6-.21-2.76-.34-4.35,1.06.67,1.84,1.16,2.86,1.82l6.09-3.14,3.74,2.18L302,109l3.48,2.8,12.09-.91c-.19-1.89-.29-2.82-.34-3.35h11.35l3.47,2.78,1.54-1.05-3.19-6.59c1.22.54,2,.63,2.27,1.06,4.56,6.8,9,3.23,14.14.52,2.11-1.12,5.57.44,8.42.55a39.86,39.86,0,0,0,5.55-.62l1.45,1.53,8.1-2.61,2.67,2.54,5.31-.85c.63-1.19,1.17-2.23,2.16-4.12,2.65,7.82,5.62,5.46,10.73,2.5,3.8-2.2,9.9-.43,16.24-.43l.58-.55h39.06c-.72-.64.24.22,1.28,1.16l3.7-1.49,6.61,1.78,8.29,4c.39-3.71.64-6.05.89-8.4l1.36.19v5.3l16.63-4.88c-2.5,3-3.86,4.58-5.55,6.57l-3.1-1.74-3.26,1.41,6.48,3.27L491.76,103l1.66,2.75h14.49c-.36,1.1-.71,2.2-1.38,4.29l4.09-1.58,3.45-1.16,2.12,3.06h20.38c.76,8.92,1.77,18.41,2.34,27.92.76,12.85,1.25,25.71,1.68,38.58,0,1.49-1.06,3-1.63,4.53-.45-15-.64-29.94-1.48-44.89-.33-5.82-2.13-11.55-2.91-15.56l-14.71-2-17.35-3.9c1.49-1,.59-.39.3-.19l-62-3.85-1,.87H406.71c0-.61,0-1.22,0-1.84-5.46,1.47-10.89,3.9-16.41,4.15-7,.31-14.09-1.39-21.17-1.76a43.82,43.82,0,0,0-11,1.06c-5.19,1.07-10.27,2.73-15.43,4-1.32.32-2.78,0-4.18,0-7.1,0-14.21,0-21.3.22-4.1.16-8.17.91-12.29,1.4l2.51,2.72c-12.44-6.93-22.16,3.56-33.39,5.68l-9.59-2.6c-1.8,5-3.76,10.53-5.73,16l0-2v-5.44C258.68,132.79,258.7,132.12,258.71,131.45Z" fill="#2a2a2a"/><path d="M603.13,236.81h.69l-1.35,104.67q0,8.73-.07,17.47v3.53c0,1.08,0,2.16,0,3.24a28.65,28.65,0,0,0-.56,4q0,90.56,0,181.1c0,1.14,0,2.28-.05,3.42l-.09,1.92c-.22.93-.43,1.85-.65,2.78h0l-.52.17q.11-63.71.21-127.42c.07-28.65.06-57.3.43-85.95C601.65,309.42,602.47,273.12,603.13,236.81Z" fill="#414141"/><path d="M258.71,131.45c0,.67,0,1.34,0,2v5.44l0,2,0,.66q-.66,6.75-1.33,13.51l-1.31,0c0-6.47-.54-13,.13-19.4.59-5.79,2.49-11.44,3.82-17.15l.08.07Z" fill="#414141"/><path d="M257.34,155.08q.66-6.75,1.33-13.51Q258,148.32,257.34,155.08Z" fill="#313131"/><path d="M600.55,559.09l.52-.17-.12,2.6a3.25,3.25,0,0,1-.54.12C600.46,560.79,600.51,559.94,600.55,559.09Z" fill="#8a8a8a"/><path d="M205.28,556.25l-1.09-1.5q-1.53-36.3-3.08-72.61-.57-13.26-1.16-26.52l3.1.28c-.64-9-1.26-17.57-2-27.66l8.56,6.18-4.86,3c1.15,1.48,2.19,2.81,3.4,4.38-.06,1.21-.14,2.69-.21,4l9.53-4.66-2.88-8.33,1-.42-4-5.51,35.56-6.35-3.74,5.84-5.61-4.24c-2.77,4.74-5.38,9.2-8,13.67l1.09.64-4.12,3.72.63,1.77,7.89-2c0,.15.2,1.37.43,3l2.08.84,6.67-9.61,7.22,4.27c-.21,1.8-.43,3.64-.64,5.47l-6.67.43,2.64-3.62-1.58-1.34-7.72,11.78,9.71,9,1.78-1.4c-.6-1.66-1.21-3.33-1.75-4.81l-4.8-.37V446l9.29,6.05,3.93-.94L249,463.05l3.6.41c0,9.08-.14,17.81.13,26.53.05,1.65,2.28,3.16,2.61,4.89a40.75,40.75,0,0,1,.44,12.2l2.94,17,.47-.08c.21,4,.41,8,.63,12.31l3.34.23c-4.11,13.43-2.19,19.92,6.77,22-.1,1.44-.21,2.94-.51,7.11l20.61,5.92c.07-.31-.17.72-.65,2.87l19.93-1.48,15.53,2.91h-44.2l-8.82-7.39-1.33,2.38-8.45-3.93c-1.28-8.55-6.94-6.27-13.7-2.77h8.18l1.35,5.54H246.15c.32-1.1.06-.2-.37,1.26l-5.3-.3-5.4,3.34c-.26-2.51-.42-4-.63-6l-15.16,2.52,7.2-5.4,4.93,1.75c.05-.93.1-1.86.16-2.8h-13a11.16,11.16,0,0,1-.65-1.19l2.37-2.09c-1.59-3.95-3-7.44-4.56-11.33l-5.91,2.79,2,3L210,558Z" fill="#3e3e3e"/><path d="M426.21,607.57l-5.43-.7c.44-1.62.87-3.23,1.48-5.46l-9.05-1,8.44-3.45-16.12-3.92-.57,2.45,2.6,1.57L400,598.58l.9,1.83L389,606.85c-1.84-1.58-3.59-3.31-5.57-4.7a11.7,11.7,0,0,0-3.35-1.22l10.43-12.71L385.65,585l4.17-4-4-2-2.32,3.35-1.79-2.28-29.84-2.92,10.73-.66v-3.8l3.8-.64-1.3,4.46h14.37c.6-1.79,1.07-3.2.6-1.78l30,2.39.18-1.75,3.53,1.58,5-3.31,1.61,3.12-3.92,2.11,1,1.52,6.46-5.34c1.86,1.59,3.64,3.89,5.95,4.73,1.14.41,3.25-1.88,4.21-4.19l-4.85,1.44c.36-3,.65-5.42,1-7.89L445.85,578c.39-2.29.82-4.81,1.67-9.74.77,3.56,1,4.58,1.4,6.45h20.93l-.06-.31,26.63,1.46c-6.82.41-13.65.74-20.47,1.23-9.77.71-19.54,1.45-29.28,2.43-1.3.13-2.46,1.74-3.89,2.82l-3.34-2-2.69,4.82,9.74-1.89,1.92,1.27-2.17,4.46-5.68,4.4L458,605.55c-9.68,0-17.32-.16-24.95.09C430.76,605.71,428.49,606.9,426.21,607.57Z" fill="#3e3e3e"/><path d="M390.62,411.75l-6.26,13.4-2.07-2.48c.47-2.81.82-4.94,1.26-7.65l-9.94-4.91c-.48,2.4-.83,4.14-1.37,6.8l5.36-2.3,3.3,5-7.36,8.22,4.2,2.85-5.47.26-4.57-7.66h-3.61c0-.61-.24-1.49,0-1.58,1.57-.81,3.22-1.47,5-2.25.79,2.08,1.21,3.19,1.85,4.86l3.1-2.74c-2.29-3-4.3-5.56-6.11-7.9l3.61-6.14c3.09.6,6.2,2.06,8.89,1.5s5.18-3.13,7.74-4.81c2,3,3.72,5.48,5.4,8Z" fill="#3e3e3e"/><path d="M208.75,419.84l1.82,7-9.33-.49,1.26-14.22.89.12q-.24-3.09-.47-6.19l-1,.24c-.41-2.16-.83-4.32-1.65-8.55l9.94,7.91-5.7,4.87,7.93,1.58c.36-2.15.56-3.36.76-4.57l2.44-.29,3.21,16.07-3.37,1.21Z" fill="#3e3e3e"/><path d="M454.21,434.49c-.34-1-.69-2-2-6l4.08,4.69c-.38,4.17-1.7,7.75-.59,8.84,1.88,1.83,5.3,2.07,8.73,1.61-1.78-1.68-3.55-3.37-5.62-5.34l4.19-4.65v2.47l11.13,16.39-5.72-1.32c.2-2,.35-3.5.5-5l-1.75,2.8c-4.43-1.5-9.39-2.26-13.05-4.85-1.74-1.22-1-5.95-1.38-9.09Z" fill="#3e3e3e"/><path d="M224.25,403.62l9.82,15.8-4.69,2.75c-1.54-2.85-3.09-5.7-3.7-6.84L213.79,402l1.47-1.62c2.66,2.55,5.31,5.11,9.91,9.54-.61-4.21-.77-5.26-.92-6.32Z" fill="#3e3e3e"/><path d="M205.09,368.11l2.65-4.43c1.95,2.65,3.19,4.32,4.58,6.2-.32,1-.69,2.14-1,3.17l2.47,6.58-5.48-2.24-5.41,1.69,6.1-5.52v-6.08l-8.43,9.08c-.2-3.79-.34-6.29-.5-9.18Z" fill="#3e3e3e"/><path d="M462.64,412.4c2.62-.62,5.23-1.31,7.89-1.7.22,0,.74,2,.19.45-3.61,6.05-6.08,10.21-8.92,15-.43-2.41-.85-4.77-1.12-6.26.8-3,1.38-5.26,2-7.49Z" fill="#3e3e3e"/><path d="M233.7,402.94c-2.2-1.34-4.41-2.67-8.06-4.87l11.44-2.63,2.24,4.72,3.31,1.63V406c-2.71-1.71-4.67-3-7.12-4.52l-1.81,1.49Z" fill="#3e3e3e"/><path d="M376,433.66l5.86-1.51,2.86-3.39,1.64.72-5.9,17.28-2.11-.52,1.87-10.47Z" fill="#3e3e3e"/><path d="M397.14,437.38l-5.36,4.28-2.46-2.08,7.89-4-9.78-5.24.65-1.38,4.11,1.17,5.19-3,2.39,3.49-2.64,1.46v5.26Z" fill="#3e3e3e"/><path d="M317.27,434.68c-1.38-2.31-2.43-4.05-2.27-3.78l16.52-5.31v4Z" fill="#3e3e3e"/><path d="M205.26,387.49c.49,2.26.77,3.52,1.11,5.09l4.09-1.16,3.32,5.51-4.37,3.43c.4-1.61.59-2.39.75-3l-12.09-6.44Z" fill="#3e3e3e"/><path d="M217.83,386.58l-.93,1.54c.47,2.32.88,4.32,1.28,6.31l-1.3.45c-.66-1.47-1.32-2.93-1.56-3.45l-10.88-9.59,1-1.47Z" fill="#3e3e3e"/><path d="M281.34,435.1l-7.1,10.16-5.77-4.09.55-7.7c1.61,2.64,2.42,4,4.11,6.72l6.72-5.65Z" fill="#3e3e3e"/><path d="M315,452.94l-14.2-2.3,7.81-4.56,7.5,5.82Z" fill="#3e3e3e"/><path d="M509.54,421c.09-1.42.18-2.84.28-4.39l-4.91,2.71-1.62-4.05,6.59-3.47,3.41,3.17-2.51,6.36Z" fill="#3e3e3e"/><path d="M472.46,434.72l-4.73-9.33,8.43,2.68c-1.37,3.94-2.64,7.58-3.9,11.22l-2.45-1Z" fill="#3e3e3e"/><path d="M484.68,453.89c.18-3.2.34-6.22.57-10.22l3.06,2.48,8,.91Z" fill="#3e3e3e"/><path d="M444.21,432.47,440,429.34c-.13-1.81-.24-3.55-.45-6.52L450,429.75Z" fill="#3e3e3e"/><path d="M408.83,460.73l2.47.7,1.84-5.24,6,8.08c-3.14.18-4.93.65-6.51.27s-3.17-1.61-4.74-2.47Z" fill="#3e3e3e"/><path d="M526.65,466.29c.88-1.88,1.89-4.05,3.12-6.66l4.49,3-4.41,1.91c.91,4.29,1.5,7.1,2.1,9.92l-1.53.18C529.22,472,528,469.33,526.65,466.29Z" fill="#3e3e3e"/><path d="M401.48,442.06l8.68-6.77-4.23,8.09,8-4.56-5,7Z" fill="#3e3e3e"/><path d="M247.36,434.73c-1.49-2.76-2.06-3.84-2.8-5.2l4.35-1.7c-.19-1.47-.38-2.94-.64-4.91l5.84-1.28Z" fill="#3e3e3e"/><path d="M341.2,426l3,2.76-4.76,5.61-5.58-4.93Z" fill="#3e3e3e"/><path d="M346.49,577.18l-21.62-1.34Z" fill="#3e3e3e"/><path d="M495.89,422.46l-5.58,7.07-1.92-.87c.46-2.78.92-5.55,1.42-8.51Z" fill="#3e3e3e"/><path d="M226.46,376.72,224,380.63c.12,1.08.23,2.15.34,3.22l-2.29.53c-.46-3.25-.92-6.49-1.59-11.25Z" fill="#3e3e3e"/><path d="M284.35,455.61l-3.43-.57,1.8,3.1-4.36,2.51c-1-2.13-1.81-3.91-2.68-5.8l8.09-2.61.58,3.38Z" fill="#3e3e3e"/><path d="M287.55,434.25,279.72,430l.9-1.63,7,4.24,2.93-8.34,2.52,2.29Z" fill="#3e3e3e"/><path d="M525.38,452.79l2.62-3.46,2.79,1.72c.93-.53,2-1.09,3.49-1.95V458L532,454.17Z" fill="#3e3e3e"/><path d="M274.17,459.86l-9.78-5.63,7.93-2.11C272.82,454.21,273.3,456.24,274.17,459.86Z" fill="#3e3e3e"/><path d="M432.93,439.41l4.84-4.14,2.34,3.44L434,444.13c-.5-2.28-.77-3.5-1-4.72Z" fill="#3e3e3e"/><path d="M451.61,460l2-5,9.13,5.83Z" fill="#3e3e3e"/><path d="M367.8,428c.51,1.95,1,3.84,1.94,7.33L360.41,428Z" fill="#3e3e3e"/><path d="M329.14,442.69l4.66-3.34,1.51,2.29-7.62,4.71-1.52-4.1Z" fill="#3e3e3e"/><path d="M291.08,434.08l3.19-3.67c1.28,2.83,2.22,4.88,3.31,7.29l-4.76,2c.53-1.67.85-2.67,1.24-3.88Z" fill="#3e3e3e"/><path d="M499.27,434.08q-2.68,4-5.36,8L492.13,441l4.65-8.38Z" fill="#3e3e3e"/><path d="M422.69,560.23l5.8,3.34-2.22,4.31-4.93-5.82Z" fill="#3e3e3e"/><path d="M532.07,431c-.79-2-1.57-3.93-3.06-7.65,2.92,1.06,5,1.29,5.18,2,.42,1.71-.05,3.63-.16,5.47Z" fill="#3e3e3e"/><path d="M198.54,418.58q-.64-12.88-1.31-25.77Q197.89,405.69,198.54,418.58Z" fill="#3e3e3e"/><path d="M251.89,410.74c-2.34-1.77-4.3-2.7-4.2-3.27.37-2.12,1.42-4.12,3.36-9.13C251.44,404.09,251.61,406.58,251.89,410.74Z" fill="#3e3e3e"/><path d="M222.1,341.6l-4,4.75-2.95-2.46c.59-1.51.9-3.24,1.87-4.43.53-.65,2.18-.4,3.32-.55C220.92,339.81,221.51,340.71,222.1,341.6Z" fill="#3e3e3e"/><path d="M460,429.82,456,427l-6.56.53c4.05-2,5.37-3,6.79-3.21a4.72,4.72,0,0,1,3.43,1.35C460.21,426.22,459.85,427.67,460,429.82Z" fill="#3e3e3e"/><path d="M199.86,445.65q-.63-10.54-1.27-21.1Z" fill="#3e3e3e"/><path d="M308.6,428.26q2.19,4.42,4.37,8.86l-1.36.89-5.33-8.34Z" fill="#3e3e3e"/><path d="M443.77,442.28l8.45,6.6-3.46,1.22-5.93-6.84Z" fill="#3e3e3e"/><path d="M435.11,557.52l7.28,5.48-1.29,1.69-7.39-5.32C434.18,558.75,434.65,558.14,435.11,557.52Z" fill="#3e3e3e"/><path d="M316.9,457.54l5.8-6.69,2.37,2.2-7.05,5.5Z" fill="#3e3e3e"/><path d="M397.13,437.38l8.09-4.92c.11,1.72.17,2.65.19,3.05l-7.8,3.93-.47-2.06Z" fill="#3e3e3e"/><path d="M296,564.31l-5.52-2,1-2.62,5.44,2.19Z" fill="#3e3e3e"/><path d="M509.6,491c-.34-2.22-.69-4.43-1.16-7.47.22-.35.88-1.38,2.18-3.46v11Z" fill="#3e3e3e"/><path d="M472.74,476.4l7.32-.73c-1.22,2-1.81,3.66-2.26,3.63a29.87,29.87,0,0,1-5.26-1.28C472.61,477.48,472.67,476.94,472.74,476.4Z" fill="#3e3e3e"/><path d="M487,458.75l10.52-2.26-1.31,4.24Z" fill="#3e3e3e"/><path d="M276.12,462.75l7.77,5.55-8.8-1.3C275.4,465.75,275.64,464.74,276.12,462.75Z" fill="#3e3e3e"/><path d="M298.68,437c1.66,4.06,2.69,5.34,2.48,6.38s-1.54,2.17-4.06,5.34C297.73,444.07,298,442.14,298.68,437Z" fill="#3e3e3e"/><path d="M522.43,483q3.27,1.84,6.52,3.71l-1.34,2.08-6-4.51Z" fill="#3e3e3e"/><path d="M447.45,458.91c-1.61,2-3.21,3.93-4.82,5.9l-1.47-1.14,4.59-6.14Z" fill="#3e3e3e"/><path d="M440,470.25l-6.13.56c-.14-.64-.28-1.28-.41-1.92l6.13-1.13C439.74,468.59,439.87,469.42,440,470.25Z" fill="#3e3e3e"/><path d="M496.21,414.83l3.25-2.74c.44,3.05.75,5.19,1.43,9.94Z" fill="#3e3e3e"/><path d="M260.22,430.77c0-1.39-.31-2.89.13-4.12.23-.65,1.77-.83,4.51-2-1.6,3.3-2.35,4.86-3.1,6.42Z" fill="#3e3e3e"/><path d="M226.85,392.87,221,391.14l.77-2.38,5.61,2.09C227.18,391.52,227,392.2,226.85,392.87Z" fill="#3e3e3e"/><path d="M306.21,441l2.48-2.08,4.12,4.52-.7,1.22Z" fill="#3e3e3e"/><path d="M490.19,479.73c-1.44-2.51-2.51-4.39-4.42-7.71l5.59,2.21C491,476.18,490.64,477.61,490.19,479.73Z" fill="#3e3e3e"/><path d="M478.68,430.83c.67-1.64,1.35-3.27,2-4.91l2,.74q-.83,2.49-1.63,5Z" fill="#3e3e3e"/><path d="M237.43,435.42v-6.08l5-.71Z" fill="#3e3e3e"/><path d="M474.14,459c-.65,2.79-.56,4.52-1.27,5-1,.65-2.65.35-5.79.6Z" fill="#3e3e3e"/><path d="M209.53,346.88l3.13,5.35c-2.24-.45-3.69-.34-4-.88-.61-1.08-.59-2.51-.83-3.79Z" fill="#3e3e3e"/><path d="M432.93,439.41,427.51,441l4.74-7.42c.37,3.13.52,4.47.68,5.81Z" fill="#3e3e3e"/><path d="M233.7,402.94c.83,1.31,2,2.53,2.38,4,.27.89-.5,2.1-.81,3.17l-2.63-1.73c.35-1.8.71-3.6,1.06-5.4Z" fill="#3e3e3e"/><path d="M413,503.16l6.15-8.08c-.25,3.54.05,4.94-.51,5.7S416.61,501.7,413,503.16Z" fill="#3e3e3e"/><path d="M401,459.27q-.79,2.79-1.6,5.58l-2-.48,1.5-5.63Z" fill="#3e3e3e"/><path d="M443.4,515.53l3.51-4.53c.65,2.36,1,3.68,1.65,6Z" fill="#3e3e3e"/><path d="M522.83,470.7l-5.92-4.64.78-1.13L524,469.2Z" fill="#3e3e3e"/><path d="M370.81,443l1.32,5-2.08.53-1.44-4.94Z" fill="#3e3e3e"/><path d="M416.13,445.84l-4,3.48v-6.46Z" fill="#3e3e3e"/><path d="M408.77,456.83l-6.41,1.53,4.33-5.34Z" fill="#3e3e3e"/><path d="M466.81,427.79v5.9c-1.52-1.93-2.53-2.64-2.56-3.39,0-.94.72-1.92,1.13-2.88Z" fill="#3e3e3e"/><path d="M208.71,357.69l4.62-.94c.2.54.39,1.09.59,1.63l-3.25,2.48-2-3.17Z" fill="#3e3e3e"/><path d="M472,513l-4.77-3.17.88-1.52,5,2.86Z" fill="#3e3e3e"/><path d="M466.4,476.72c1.64-3.36,2.21-4.5,3.63-7.4.6,2.89,1.21,4.09.92,5C470.75,475,469.33,475.26,466.4,476.72Z" fill="#3e3e3e"/><path d="M360.87,407.94l6.22-1.32-3.15,4.73Z" fill="#3e3e3e"/><path d="M303.48,561.31l-1.9,5.61-1.26-.4c.35-1.93.71-3.85,1.06-5.77Z" fill="#3e3e3e"/><path d="M514.18,453.43l-3.94-5.53,6.34,3.47Z" fill="#3e3e3e"/><path d="M467.65,425.42c-.42-4-.55-5.12-.79-7.45,1.69,1.07,3.08,1.54,3.1,2C470,421,469.22,422,467.65,425.42Z" fill="#3e3e3e"/><path d="M316.75,423.8c.38-1.73.58-2.61,1-4.39l4.27,3.67Z" fill="#3e3e3e"/><path d="M358.74,423.74l.82,4.46-5.39.45Z" fill="#3e3e3e"/><path d="M383.88,444.44q1.26-2.32,2.5-4.66l1.49.67q-1.31,2.37-2.59,4.75Z" fill="#3e3e3e"/><path d="M248.19,394.68c-2,1.43-2.77,2.39-3.52,2.39s-1.54-.95-3.61-2.39Z" fill="#3e3e3e"/><path d="M358.34,436l4.16-1.7c.21.46.43.91.64,1.37L359,437.79C358.79,437.19,358.56,436.6,358.34,436Z" fill="#3e3e3e"/><path d="M489.9,417.79c.09-1.36.19-2.72.28-4.08l1.49.05v4Z" fill="#3e3e3e"/><path d="M501.77,502.64q-1.08,2.06-2.17,4.11l-1.5-.77,2.07-4.09Z" fill="#3e3e3e"/><path d="M238.9,380.73c-.17,1.24-.34,2.48-.52,3.72l-1.72-.2.36-3.76Z" fill="#3e3e3e"/><path d="M312.39,457.46l3,3.12-1.64,1.74-3.22-3Z" fill="#3e3e3e"/><path d="M424.6,449.62l4.74.27-.15,1.8-4.71-.58Z" fill="#3e3e3e"/><path d="M498.2,428.12,496.42,425l1.51-.87,1.81,3.09Z" fill="#3e3e3e"/><path d="M302.28,433l-3.59.64-.38-1.63,3.5-1Z" fill="#3e3e3e"/><path d="M224.25,403.61l-3.51-3.95,2-1.18c.51,1.71,1,3.42,1.54,5.14Z" fill="#3e3e3e"/><path d="M505.62,456.36c-.38,1.27-.77,2.54-1.16,3.81l-1.61-.62,1.28-3.66Z" fill="#3e3e3e"/><path d="M277.47,483.85l3.19,2-.76,1.4-3.4-1.65C276.83,485,277.15,484.44,277.47,483.85Z" fill="#3e3e3e"/><path d="M431.23,484.47l3.22-2.21c.3.42.6.83.91,1.24L432.2,486Z" fill="#3e3e3e"/><path d="M281.22,567.37l1.32-3.2,1.58.57L283.07,568Z" fill="#3e3e3e"/><path d="M370.66,437.23,369.32,441l-1.47-.47c.39-1.28.78-2.56,1.16-3.84Z" fill="#3e3e3e"/><path d="M477.26,435.73l3.24-1.5.73,1.4-3.15,1.8C477.81,436.86,477.53,436.3,477.26,435.73Z" fill="#3e3e3e"/><path d="M379.22,402.65l-3,.45c-.09-.54-.17-1.09-.25-1.63l3-.44Z" fill="#3e3e3e"/><path d="M289.33,452.23l2.9-3.15,1.12,1-2.78,3.27Z" fill="#3e3e3e"/><path d="M305.3,494.62l1.81,3.18-1.25.79-2-3.1Z" fill="#3e3e3e"/><path d="M476,439.5l3.21,1.43-.63,1.53-3.29-1.27C475.52,440.63,475.75,440.06,476,439.5Z" fill="#3e3e3e"/><path d="M466.72,497.25c-.46-1.11-.91-2.23-1.37-3.35l1.34-.64c.58,1.06,1.16,2.12,1.73,3.18Z" fill="#3e3e3e"/><path d="M484.44,439l5.38-2.69-1.73,4.1Z" fill="#3e3e3e"/><path d="M319.85,445.58,324,446c0,.34-.05.67-.08,1h-4.19Z" fill="#3e3e3e"/><path d="M401.56,516.67l1.79-2.74,1.28.83-1.77,2.75Z" fill="#3e3e3e"/><path d="M273.45,470.9l3.13,2-.75,1.28-3.26-1.93Z" fill="#3e3e3e"/><path d="M454.93,492.57l-3.16-.58.19-1.42,3.24.4Z" fill="#3e3e3e"/><path d="M287.62,461.18l2.75-.78.46,1.42-2.6,1C288,462.29,287.82,461.74,287.62,461.18Z" fill="#3e3e3e"/><path d="M454,450l3.09.46-.12,1.32-3.15-.16Z" fill="#3e3e3e"/><path d="M460.59,465.75h-2.84l-.09-1.22,2.84-.3Z" fill="#3e3e3e"/><path d="M502.2,448.09c-.36-1.25-.73-2.51-1.1-3.76l1.19-.38c.45,1.26.91,2.52,1.37,3.78Z" fill="#3e3e3e"/><path d="M263.85,434.2l3-2.59.64.6-2.26,3.31Z" fill="#3e3e3e"/><path d="M455.38,565.76c-.13-.89-.25-1.78-.38-2.66l1.44-.31c.22.9.45,1.8.68,2.7Z" fill="#3e3e3e"/><path d="M348.27,430.63l2.14,1.92L349,434l-2.33-1.88Z" fill="#3e3e3e"/><path d="M341.6,463.3l1.83,1.62c-.27.38-.55.75-.83,1.12l-2.1-1.43C340.87,464.18,341.24,463.74,341.6,463.3Z" fill="#3e3e3e"/><path d="M425.07,469.13l1.8-1.92,1,.8-1.54,2.17Z" fill="#3e3e3e"/><path d="M467,455.53l-4.39-2.06c1.8-.61,2.68-1.2,3.12-1S466.34,453.77,467,455.53Z" fill="#3e3e3e"/><path d="M504.06,428.16l1.18-2.79,1.13.38c-.3,1-.61,2-.92,3Z" fill="#3e3e3e"/><path d="M373.2,464.87c.11-.85.23-1.71.34-2.57l1.08.08v2.7Z" fill="#3e3e3e"/><path d="M479.21,464.61l1.27,2.16-1.16.77-1.49-1.94Z" fill="#3e3e3e"/><path d="M455.05,472.92l-3.14-.76.29-1.22,3.14.76C455.25,472.11,455.15,472.51,455.05,472.92Z" fill="#3e3e3e"/><path d="M243,388.25l-2,2.89-1-.66,2-3Z" fill="#3e3e3e"/><path d="M437.12,454.87l-1.92-1.17.56-1.05,2.13,1Z" fill="#3e3e3e"/><path d="M306.62,433l1.84,1.63-1.59,1.68L305,434.72C305.52,434.16,306.07,433.59,306.62,433Z" fill="#3e3e3e"/><path d="M354,439.9l-2.42,1.92-.75-.89,2.3-2.06Z" fill="#3e3e3e"/><path d="M302.78,480l1.26-2.26,1,.51-1,2.49Z" fill="#3e3e3e"/><path d="M486.29,563.38c-.28.87-.55,1.74-.82,2.61l-1.34-.41.78-2.61Z" fill="#3e3e3e"/><path d="M298,568.56l-.15,2.59-1.27-.07.15-2.59Z" fill="#3e3e3e"/><path d="M347.35,466.61l-.93,2.68-1.27-.43.93-2.69Z" fill="#3e3e3e"/><path d="M262,473.86l2.29.21,0,1.07h-2.3Z" fill="#3e3e3e"/><path d="M298.67,456.51l1.76,1.86-.8.86-1.95-1.61Z" fill="#3e3e3e"/><path d="M437.32,449.06c-.07-.76-.14-1.53-.2-2.3l1.2-.1c.07.77.13,1.53.19,2.3Z" fill="#3e3e3e"/><path d="M343.49,461.13l-1.63-2.28,1-.72,1.7,2.24Z" fill="#3e3e3e"/><path d="M340.72,568.13l-2-3.25.82-.56,2.11,3.26Z" fill="#3e3e3e"/><path d="M450.26,561.27,450,563.7l-.89-.05v-2.49Z" fill="#3e3e3e"/><path d="M421.21,446.67l.56,2.13-1.06.38-.87-2Z" fill="#3e3e3e"/><path d="M456.86,522.29l-.36,2.34-1.19-.11.16-2.48Z" fill="#3e3e3e"/><path d="M533.83,484.67l-.44,2.14-1.15-.23.45-2.15Z" fill="#3e3e3e"/><path d="M334.29,460l-2-.73.29-1.1,2.17.41Z" fill="#3e3e3e"/><path d="M248.55,416.56c-.31-.68-.63-1.37-1-2.05l1-.54c.39.66.79,1.31,1.19,2Z" fill="#3e3e3e"/><path d="M501.58,526.32c.19-.7.39-1.41.58-2.12l1.12.21-.27,2.22Z" fill="#3e3e3e"/><path d="M280.63,560c-.26.78-.51,1.57-.76,2.35l-1.11-.27.45-2.45Z" fill="#3e3e3e"/><path d="M294.72,482.16c-.19.71-.39,1.42-.58,2.12l-1.12-.21.27-2.22Z" fill="#3e3e3e"/><path d="M323.26,570.06l2.39,1.67-.58.92-2.57-1.51Z" fill="#3e3e3e"/><path d="M523.5,459.62l2.21.35-.19,1.2-2.21-.35Z" fill="#3e3e3e"/><path d="M335.71,562.13l-3.3-1.91.35-.72,3.56,1.67Z" fill="#3e3e3e"/><path d="M397.9,449.83l1.11,1.93-.88.59-1.37-1.79Z" fill="#3e3e3e"/><path d="M477.34,449.11c-.15.8-.31,1.59-.46,2.39l-1.09-.14c.07-.83.15-1.66.22-2.49Z" fill="#3e3e3e"/><path d="M378.14,566.57l.49,2.32-1,.27c-.23-.75-.46-1.51-.7-2.26Z" fill="#3e3e3e"/><path d="M336.35,419.82l1.5,4.24-1.49.28v-4.52Z" fill="#3e3e3e"/><path d="M423.65,489.54l-1.24-1.86.85-.65,1.46,1.71Z" fill="#3e3e3e"/><path d="M363.38,491.85l-2.19,1.72-.69-.79,2.08-2Z" fill="#3e3e3e"/><path d="M448,470.71l-1.85.93a6.2,6.2,0,0,1-.42-.88c.54-.42,1.1-.81,1.65-1.21C447.6,469.93,447.8,470.32,448,470.71Z" fill="#3e3e3e"/><path d="M443,434.8h2.13l.09,1-2.13.33Z" fill="#3e3e3e"/><path d="M302.6,474l-.85-2,1-.51,1.09,1.88Z" fill="#3e3e3e"/><path d="M295.15,473.3l-2,.81-.49-1,1.9-1.07Z" fill="#3e3e3e"/><path d="M326.43,435.18l-1.83,1.32-.66-.93,1.84-1.3Z" fill="#3e3e3e"/><path d="M338.83,444.29l-1.94-.85.42-1,2,.79C339.13,443.58,339,443.94,338.83,444.29Z" fill="#3e3e3e"/><path d="M381.67,450.49l1.77-.9c.19.32.38.64.58,1l-1.63,1.18Z" fill="#3e3e3e"/><path d="M374,485.81l1.21-1.38,1.35,1.37-1.32,1.27Z" fill="#3e3e3e"/><path d="M498.41,466.17c.2-.68.41-1.36.61-2l1,.24-.33,2.11Z" fill="#3e3e3e"/><path d="M468.87,455.89l2.09.68-.27,1-2.15-.43Z" fill="#3e3e3e"/><path d="M515.08,483.48l1.83,1-.39.93-2-.75Z" fill="#3e3e3e"/><path d="M503.06,498.78c.07-.7.13-1.39.19-2.08l1.14.1-.18,2.08Z" fill="#3e3e3e"/><path d="M322,436.23l-.33,2.15-1.06-.09v-2.22Z" fill="#3e3e3e"/><path d="M415.73,485.71l1.35,1.23-1.24,1.35-1.47-1.09Z" fill="#3e3e3e"/><path d="M437.3,474.25,436,475.49l-.69-.63,1.11-1.45Z" fill="#3e3e3e"/><path d="M503.17,575.84h0Z" fill="#3e3e3e"/><path d="M365,479l2.14.39-.09.92-2.23-.11Z" fill="#3e3e3e"/><path d="M444,454.68l2.14.4-.1.92-2.22-.12Z" fill="#3e3e3e"/><path d="M276.25,565.38l1.08,2-.88.5-1.1-2Z" fill="#3e3e3e"/><path d="M506.36,475.7c-.16.72-.33,1.45-.49,2.17l-.94-.14.29-2.21Z" fill="#3e3e3e"/><path d="M501.14,423.05h2l.09.92-2,.33C501.22,423.88,501.18,423.47,501.14,423.05Z" fill="#3e3e3e"/><path d="M431.63,493.33v1.54l-.79.14-.36-1.63Z" fill="#3e3e3e"/><path d="M302.53,462.7l-.63-1.6,1-.38c.21.53.41,1.07.62,1.6Z" fill="#3e3e3e"/><path d="M394,531.42l.27-2.15.79.05v2.25Z" fill="#3e3e3e"/><path d="M274.54,434.22l1.07-2.25,1,.47c-.35.75-.71,1.5-1.07,2.25Z" fill="#3e3e3e"/><path d="M287.46,448.39l-2.12-.72c.32-.51.48-.86.54-.85.65.18,1.29.41,1.93.63Z" fill="#3e3e3e"/><path d="M355.56,474.69l1.42-1,1,1.17-1.16,1.23C356.43,475.64,356,475.16,355.56,474.69Z" fill="#3e3e3e"/><path d="M462.8,484.52l-1.48,1.28-.71-.7,1.31-1.48Z" fill="#3e3e3e"/><path d="M406.85,513h1.84v.74h-1.84Z" fill="#3e3e3e"/><path d="M284.35,455.62c.86.62,1.72,1.25,0,0,1.08,1.83.54.91,0,0Z" fill="#3e3e3e"/><path d="M416.42,564.8l.39-1.77.76.1-.14,1.82Z" fill="#3e3e3e"/><path d="M487.36,433.66l-1.31-.9.4-.79,1.54.7Z" fill="#3e3e3e"/><path d="M445,485.56l-.9-1.31,1.28-1.2.79,1.6Z" fill="#3e3e3e"/><path d="M470.62,504.76c-.49-1.5-.59-1.79-.74-2.23l1.69-.76Z" fill="#3e3e3e"/><path d="M495.89,497.9l3.74,1.35-4-.45Z" fill="#3e3e3e"/><path d="M285.2,492.27l-.11,1.62-.73,0c-.07-.57-.14-1.15-.2-1.72Z" fill="#3e3e3e"/><path d="M405.22,466.52l-.92-1,.55-.89,1.24,1.3Z" fill="#3e3e3e"/><path d="M460.06,564.27v-1.74h.68v1.74Z" fill="#3e3e3e"/><path d="M279.59,448.17H284l-4.35.87Z" fill="#3e3e3e"/><path d="M387,461c0-.57-.06-1.15-.1-1.72l.68-.09c.12.56.25,1.12.38,1.68Z" fill="#3e3e3e"/><path d="M326.93,460.37l-1.37-.71c.09-.25.19-.5.28-.76l1.5.48C327.21,459.71,327.07,460,326.93,460.37Z" fill="#3e3e3e"/><path d="M417,452l1.74.56-.17.84-1.86-.29Z" fill="#3e3e3e"/><path d="M485.77,424.15l-1.31-1,.52-.69,1.29,1Z" fill="#3e3e3e"/><path d="M289,483.33c.06.57.13,1.15.2,1.72l-.8.09c-.07-.57-.14-1.15-.2-1.72Z" fill="#3e3e3e"/><path d="M260.86,454.68l3.75,1.35-4-.45Z" fill="#3e3e3e"/><path d="M356.18,568.68l-1.61-.56.17-.65,1.71.28Z" fill="#3e3e3e"/><path d="M331.52,435l1.42-.56.39.71L332,436Z" fill="#3e3e3e"/><path d="M308.34,475.08l-1.69-.45.13-.88,1.83.14Z" fill="#3e3e3e"/><path d="M417.58,479.14l1.81.12v2.18Z" fill="#3e3e3e"/><path d="M369.9,513.89c-.15-.45-.3-.9-.42-1.28l.86-.59c.23.64.41,1.17.59,1.69Z" fill="#3e3e3e"/><path d="M444.72,557c.47.26.93.53,1.39.8l-.29.65-1.54-.51Z" fill="#3e3e3e"/><path d="M368.1,500.82v1.43h-.61v-1.42Z" fill="#3e3e3e"/><path d="M454,506.64c-.35-.4-.69-.8-1-1.19l.55-.59,1.25,1.07Z" fill="#3e3e3e"/><path d="M266.86,500.28l2.61-1.1c-.1.78-.15,1.22-.2,1.66Z" fill="#3e3e3e"/><path d="M306.86,456.71l1.57-.69.29.55-1.44.91Z" fill="#3e3e3e"/><path d="M247,384.13l2.66-.24-1.23,1.59Z" fill="#3e3e3e"/><path d="M264.69,483.92h3.79l-3.71.85C264.74,484.49,264.71,484.2,264.69,483.92Z" fill="#3e3e3e"/><path d="M497.4,443.36l.35,1.22-.85.6-.49-1.65Z" fill="#3e3e3e"/><path d="M361.07,445.24l.69-1.56.67.3-.69,1.56Z" fill="#3e3e3e"/><path d="M478.68,524.46l1.32-.64.42.63-1.23.91Z" fill="#3e3e3e"/><path d="M368.85,461.7l-1.36-.08,0-.65,1.35.1Z" fill="#3e3e3e"/><path d="M431.44,557l-.8,1.38L430,558l.66-1.57Z" fill="#3e3e3e"/><path d="M415.72,479.16h-1.66l-.05-.63,1.63-.24C415.67,478.58,415.7,478.87,415.72,479.16Z" fill="#3e3e3e"/><path d="M335.14,451l-.12,1.35-.64-.06.13-1.34Z" fill="#3e3e3e"/><path d="M527.59,458.31c0-.41-.09-.82-.39-3.58l1.25,3.41Z" fill="#3e3e3e"/><path d="M525.16,478.53l1.35-.83.35.47-1.24,1.06Z" fill="#3e3e3e"/><path d="M283.53,476.54c.07.41.14.81.59,3.52l-1.44-3.31Z" fill="#3e3e3e"/><path d="M463.6,498.31l1.74,1.56-.36.44-1.82-1.37Z" fill="#3e3e3e"/><path d="M512.62,423.87c-.53.57-1.06,1.13,0,0-1.42.54-.7.27,0,0Z" fill="#3e3e3e"/><path d="M403.89,487.36c.46-.75.91-1.49,0,0,1.41-1,.7-.5,0,0Z" fill="#3e3e3e"/><path d="M291.6,467.06l1.31-.68c.11.18.23.36.35.53l-1.17.93C291.92,467.58,291.76,467.32,291.6,467.06Z" fill="#3e3e3e"/><path d="M487.32,460.91l1.25-.34.15.54-1.25.35Z" fill="#3e3e3e"/><path d="M402.49,451.35l.17-1.19.6.08-.15,1.2Z" fill="#3e3e3e"/><path d="M284.44,464.43l-3.19.8,2.84-1.63Z" fill="#3e3e3e"/><path d="M420.82,544.88,422,545l-.06.58-1.22-.12Z" fill="#3e3e3e"/><path d="M460.31,530.29l-2.91-1.84,3.31,1.11C460.57,529.8,460.44,530.05,460.31,530.29Z" fill="#3e3e3e"/><path d="M437.84,544.38l-.81-1,.7-.71.9.86Z" fill="#3e3e3e"/><path d="M364.69,455.8l-3.27-.3,3.25-.54Z" fill="#3e3e3e"/><path d="M343.18,474.67c-.3-.37-.6-.74-2.75-3.44l3.41,2.85Z" fill="#3e3e3e"/><path d="M298.67,470.42c-.15-.36-.31-.72-1.31-3.09,1.55,2.05,1.8,2.37,2,2.7Z" fill="#3e3e3e"/><path d="M419.51,470.29l-3.42.81,3.1-1.64Z" fill="#3e3e3e"/><path d="M518.82,474.1l-2.77-1.78,3.23,1.1C519.13,473.65,519,473.88,518.82,474.1Z" fill="#3e3e3e"/><path d="M313.37,471.2l-.85.92-1.2-1.2.87-.9Z" fill="#3e3e3e"/><path d="M423.41,556.23l.83.31-.19.48-.82-.33Z" fill="#3e3e3e"/><path d="M342.41,436.55Z" fill="#3e3e3e"/><path d="M442.21,476.58l.35,1.08-.55.18-.36-1.07Z" fill="#3e3e3e"/><path d="M439.45,553.33l1.66-2.82c-.69,2.39-.79,2.77-.9,3.14Z" fill="#3e3e3e"/><path d="M377.16,470.23c-1-1.79-.88-1.54,0,0Z" fill="#3e3e3e"/><path d="M492.46,463.85l-.61.65-.36-.32.58-.67Z" fill="#3e3e3e"/><path d="M394.42,501.66Z" fill="#3e3e3e"/><path d="M381,465.1c0-.5,0-.25,0,0Z" fill="#3e3e3e"/><path d="M496.89,470.12l-1.56,1.09-.31,0-.33-.48Z" fill="#3e3e3e"/><path d="M372,473.91l.71-.29.16.41-.72.27Z" fill="#3e3e3e"/><path d="M455.89,470Z" fill="#3e3e3e"/><path d="M288.49,486.58c-.3,1.63-.26,1.37,0,0C288.67,488,288.7,488.25,288.49,486.58Z" fill="#3e3e3e"/><path d="M283.72,484.13Z" fill="#3e3e3e"/><path d="M274.93,430.59Z" fill="#3e3e3e"/><path d="M422.92,507.68Z" fill="#3e3e3e"/><path d="M305.61,467Z" fill="#3e3e3e"/><path d="M411.15,450.81Z" fill="#3e3e3e"/><path d="M456.73,513.78c.29-.4.15-.2,0,0Z" fill="#3e3e3e"/><path d="M233.66,384.4c-.27,1.64-.23,1.38,0,0Z" fill="#3e3e3e"/><path d="M320.34,473.19l.09-.76.43.06c0,.25-.08.5-.11.76Z" fill="#3e3e3e"/><path d="M349.52,475Z" fill="#3e3e3e"/><path d="M441.65,570.26Z" fill="#3e3e3e"/><path d="M284.94,468.9Z" fill="#3e3e3e"/><path d="M293.47,495.91l-.43.15c-.05-.09-.11-.18-.39-.61Z" fill="#3e3e3e"/><path d="M328.9,569.62l.62,0-.11.29Z" fill="#3e3e3e"/><path d="M436.82,461.75c.3-.4.19-.26,0,0Z" fill="#3e3e3e"/><path d="M375.11,453.94l-.19.25-.29-.12c.09-.14.19-.27.29-.41Z" fill="#3e3e3e"/><path d="M370.39,535.24h0C370.38,536.08,370.38,535.71,370.39,535.24Z" fill="#3e3e3e"/><path d="M325.52,420.37l.63.05-.12.29Z" fill="#3e3e3e"/><path d="M390.25,425.25l.06-.62.28.11Z" fill="#3e3e3e"/><path d="M319.23,441.15l-.51.57-.86-.85.52-.58Z" fill="#3e3e3e"/><path d="M283.34,441.21l-.43.15c-.05-.09-.11-.18-.39-.62Z" fill="#3e3e3e"/><path d="M513.52,463.12Z" fill="#3e3e3e"/><path d="M341.9,490.12h0C341.72,489.55,341.76,489.69,341.9,490.12Z" fill="#3e3e3e"/><path d="M492,522.07Z" fill="#3e3e3e"/><path d="M249.91,367.15c.39.11.78.21,0,0,.65.46.32.23,0,0Z" fill="#3e3e3e"/><path d="M277,478.65Z" fill="#3e3e3e"/><path d="M405.44,556.76l.26-.16c.05.15.08.29.12.44C405.69,557,405.56,556.86,405.44,556.76Z" fill="#3e3e3e"/><path d="M509.89,468.32c.08.29.05.2,0,0Z" fill="#3e3e3e"/><path d="M432.53,457.91h0C432.38,457.34,432.41,457.48,432.53,457.91Z" fill="#3e3e3e"/><path d="M298.37,464.33Z" fill="#3e3e3e"/><path d="M302.74,439l.06-.29c.1,0,.23,0,.28.08s0,.18,0,.27Z" fill="#3e3e3e"/><path d="M403.89,487.36c-.16.35-.31.7,0,0Z" fill="#3e3e3e"/><path d="M198.54,421.19v0Z" fill="#3e3e3e"/><path d="M260,118.56c-1.33,5.71-3.23,11.36-3.82,17.15-.67,6.4-.14,12.93-.13,19.4L256,212.47c-1.38,7.67-2.77,15.33-4.38,24.26l.25-.11V254l-2.41.08c-.2-2.58-.4-5.16-.65-8.27l-4,1.12,2.16,4.45-1.17,1.4-7.19-6.15-2.73,3.72-5.42,5.06-4.46-5-6,.67,4.79,5.3h-5.91l0,0c-.3-1.17-.61-2.34-1.31-5-2.06,3.72-3.53,6.4-5.14,9.33.61.74,1.29,1.54,3.23,3.86l-6.93,4.68v-6.36l-1.17-.1-1.38,4.79c1,.64,1.78,1.14,2.57,1.65-.23.91-.47,1.82-.64,2.46H196.79l-1-2v78.62c-.61-16.95-1.63-33.9-1.76-50.86-.29-38.68-.15-77.35-.18-116,.41-4.75.83-9.51,1.37-15.68,2.11,2.46,3.22,3.74,4.55,5.28l2.63-1.09c-.6-2-1.11-3.66-1.73-5.73l3.07-2.54c1.62,2.69,2.92,4.88,4.23,7.07l1.38-.8-1.71-4.71,5.87-1c-.75-1.9-1.18-3-1.78-4.52l4.33-2.34c.27-1.13.56-2.32.9-3.73l5.7,4.27c-.17-3-.25-4.6-.37-6.63l2.38-.82,1.46,4,6.7-4.26,5.4,3c1.37-6.38,2.64-12.27,4.11-19.13l7.47,3.86-6,4.61c1.16,1.23,2.31,2.43,5.54,5.8l5.25-17.16-1.42-.41q2.19-5.61,4.39-11.23l-.61-.18,1.74-6.11Zm-55.54,148-1.18-1-1.85,2.29,1.06.93Z" fill="#5b5b5b"/><path d="M258.69,111.19,257,117.3l.61.18q-2.19,5.63-4.39,11.23l1.42.41-5.25,17.16c-3.23-3.37-4.38-4.57-5.54-5.8l6-4.61L242.36,132c-1.47,6.86-2.74,12.75-4.11,19.13l-5.4-3-6.7,4.26-1.46-4-2.38.82c.12,2,.2,3.61.37,6.63l-5.7-4.27c-.34,1.41-.63,2.6-.9,3.73l-4.33,2.34c.6,1.51,1,2.62,1.78,4.52l-5.87,1,1.71,4.71-1.38.8c-1.31-2.19-2.61-4.38-4.23-7.07l-3.07,2.54c.62,2.07,1.13,3.75,1.73,5.73L199.79,171c-1.33-1.54-2.44-2.82-4.55-5.28-.54,6.17-1,10.93-1.37,15.68q1.29-15.22,2.59-30.44l.17.08c.9,0,2.18.31,2.64-.16,14.57-14.88,28.93-30,43.64-44.73,6.34-6.36,13.4-12,20.54-18.35-1.08,5.9-2.25,12.27-3.42,18.63C259.58,108,259.14,109.61,258.69,111.19Zm-22.9,32.33-.85.08c.1.45.2.89.85,3.73Zm-9.55.63.51.34.12-.29Z" fill="#717171"/><path d="M260,106.45c1.17-6.36,2.34-12.73,3.42-18.63-7.14,6.34-14.2,12-20.54,18.35C228.2,120.92,213.84,136,199.27,150.9c-.46.47-1.74.13-2.64.16q9.51-10.4,19-20.8l1.38-1.32,1.33-1.38,2.72-3.4,1.32-1.29,1.4-1.32L233.83,112l3.92-4.2h0l1.3-1.4v0l.71-.68v0l.67-.75q7.91-8.61,15.8-17.24l8.55-5.59c.44,1.61.88,3.22.73,2.65l35.85-3.75.23.36h20.28l-2.29-2.14,15.28,2.61.65.35,4.51-2.1c.62,1.59,1.13,2.88,1.72,4.37l6.12,1c-.61,1.47-1,2.4-.74,1.78l-40.45,4.82-.25-.13-18.72,2-.09-.71-17.68,3-8.43,4.3c.43.7.86,1.41,1.3,2.11l5.33-3.39c-2.42,3.59-3.39,5-4.39,6.53Zm52.4-21.56.79-1.48-2.92-1.57c-.27.51-.55,1-.82,1.54Zm-.06,5.26-.13-.27-.67.3.14.3Z" fill="#515151"/><path d="M505.18,76.82l.25.05.26,0,8.91,1.39,3.82,2.92-45.13-3.31c0-.64,0-1.29-.07-1.93l8.4-.56,2.56,0,4.12.08Z" fill="#141414"/><path d="M304.48,78l12.29-1.3Z" fill="#515151"/><path d="M274.74,80.71,285,79.47Z" fill="#515151"/><path d="M288.26,79.38l10.28-1.22Z" fill="#515151"/><path d="M514.6,78.22l-8.91-1.39L516,78Z" fill="#9c9c9c"/><path d="M265.32,82.09l3.48-1.39,1.38.19Z" fill="#515151"/><path d="M363.68,603.42h19.1l0,1.36h-19.2Z" fill="#3e3e3e"/><path d="M383.47,589.54l-3.47-.83.37-1.58,3.49.77Z" fill="#3e3e3e"/><path d="M248,572.86l1.66,3.07-1.16.78-1.94-3Z" fill="#3e3e3e"/><path d="M220.91,573.41l1.05,1.86-.92.61c-.44-.56-.88-1.13-1.31-1.7Z" fill="#3e3e3e"/><path d="M242.69,582.92l-.57-2,1.08-.33.62,2Z" fill="#3e3e3e"/><path d="M241.07,576.86l-.91-1.41.5-.38,1.13,1.25Z" fill="#3e3e3e"/><path d="M228.83,569.84Z" fill="#3e3e3e"/><path d="M376.28,582.08c-.4-.29-.2-.15,0,0Z" fill="#3e3e3e"/><path d="M217.36,571.13l0-.63.29.12Z" fill="#3e3e3e"/><path d="M423.46,665l0,1.33-1.35,10.11c.17,9.89.39,19.77.4,29.66,0,1.16-1.17,2.32-1.79,3.48h-.65q-.83-8.89-1.64-17.78l.39-.08c-.34-4.46-.4-9-1.08-13.39-2.19-14.25-4.86-28.43-6.73-42.72-.41-3.15,1.39-6.81,2.92-9.86.46-.91,3.48-.53,5.31-.74l1.5,8.24Q422.11,649.1,423.46,665Z" fill="#131313"/><path d="M465.48,605.63l-4-.77,1.53-4.33,1.73,0c.24,1.71.47,3.43.7,5.15Z" fill="#3e3e3e"/><path d="M476.12,603.2H483v.66h-6.83Z" fill="#3e3e3e"/><path d="M446.35,593.14,448.1,592l1.09.9-1.44,1.67Z" fill="#3e3e3e"/><path d="M467.83,586.56l1.52,3.38-2.28-3Z" fill="#3e3e3e"/><path d="M542.21,585.8l-.68-1.07.83-.75.8.94Z" fill="#353535"/><path d="M603.82,236.82q0-13.17,0-26.35l1.34-1.36c0,8.14,0,16.28-.12,24.42C605,234.64,604.24,235.73,603.82,236.82Z" fill="#414141"/><path d="M609,409q0,3,0,6.05l-2.43,1.56c.38-1.75.63-2.87.87-4-.3-1.16-.6-2.31-1.09-4.23Z" fill="#6d6d6d"/><path d="M606.59,454.93l1.21-1.26,1.1,1-1,1.44Z" fill="#6d6d6d"/><path d="M607,430Z" fill="#6d6d6d"/><path d="M420.1,709.56h.65c-.13.79-.25,1.57-.37,2.36l-1.15-.33Z" fill="#303030"/><path d="M601.85,550.81q0-90.55,0-181.1a28.65,28.65,0,0,1,.56-4q0,82.15,0,164.31C602.43,537,602.05,543.88,601.85,550.81Z" fill="#7a7a7a"/><path d="M602.4,362.49v0Z" fill="#7a7a7a"/><path d="M488.3,75.4l-4.12-.08Z" fill="#414141"/><path d="M239,106.4l-1.3,1.4Z" fill="#717171"/><path d="M240.42,105l-.67.75Z" fill="#717171"/><path d="M239.76,105.75l-.71.68Z" fill="#717171"/><path d="M601.06,558.93c.22-.93.43-1.85.65-2.78,0,.88-.06,1.77-.1,2.65A4.9,4.9,0,0,1,601.06,558.93Z" fill="#8a8a8a"/><path d="M505.44,278.52c-2.44-1.43-4.42-2.6-7.37-4.35.51,2.38.75,3.47,1.47,6.82l-5.75-6.43,2.93-1.76c1.18-2.58,2.12-4.65,3.06-6.73l1.85.51c-.26,2-.52,4-.86,6.76l8.72,2.43Z" fill="#313131"/><path d="M512,280l6.78,9.71-2.16,1.56-6.52-9.64Z" fill="#313131"/><path d="M244.7,257.13,237,259.67v-4.58l7.53.4Z" fill="#5b5b5b"/><path d="M464,261.21l-4.22,6.24-2.88-1,2.33-5.65Z" fill="#313131"/><path d="M420.66,271.64V268l-2.31-3.55,8.15,3.44Z" fill="#313131"/><path d="M418.93,277.48l-7.2,4.19-.92-1.39,7-4.52Z" fill="#313131"/><path d="M436.55,268.92l2.67,3.58-6.74,3.65-.66-.87,3.64-3.12Z" fill="#313131"/><path d="M505,283.64,510.6,287l-1,1.69L504,285.21C504.36,284.69,504.67,284.16,505,283.64Z" fill="#313131"/><path d="M451.56,284.25,447,287.47c-.39-.53-.77-1.06-1.16-1.58l4.51-3.5Z" fill="#313131"/><path d="M517.8,277.18l3.05,4.8-1.69,1.08-3.23-4.72Z" fill="#313131"/><path d="M521.13,284.17l5.49-2c.2.58.41,1.15.61,1.72l-5.5,1.95Z" fill="#313131"/><path d="M406,265.73c.17,1.73.35,3.46.53,5.19l-1.72.27L404,266Z" fill="#313131"/><path d="M424.65,278.85,422,274.29l1.91-.91,2.27,4.62Z" fill="#313131"/><path d="M275.58,238.16c-.17-.75-.65-2.06-.45-2.17a6.29,6.29,0,0,1,4.86-.76l-3.08,2.9Z" fill="#1d1d1d"/><path d="M399.55,269.71l-3.18-.94c.47-1.86.88-3.45,1.72-6.75C398.75,265.51,399.08,267.24,399.55,269.71Z" fill="#313131"/><path d="M459.34,285.5l-1.83-3.86,1.5-.79,2.15,3.82Z" fill="#313131"/><path d="M244.08,265.73l7.37,2.74c-2,.95-3,1.78-3.55,1.57C247.12,269.77,246.61,268.7,244.08,265.73Z" fill="#5b5b5b"/><path d="M456.28,290.17l-4.79-1.4.22-1.22,4.94.65C456.53,288.86,456.4,289.51,456.28,290.17Z" fill="#313131"/><path d="M483.78,270.79l3.85.29c0,.54-.09,1.07-.13,1.61l-3.84-.35Z" fill="#313131"/><path d="M441.73,284.55l-2.14-1.87.83-1.06,2.42,1.76Z" fill="#313131"/><path d="M450.41,277.1c2-3.38,2.56-4.23,3.38-5.6.63,1.05,1.37,2,1.25,2.13C454.39,274.34,453.51,274.84,450.41,277.1Z" fill="#313131"/><path d="M431.68,266.5l-2.39-.72.33-1.31,2.6.59Z" fill="#313131"/><path d="M528.21,279.32c-.09-.69-.19-1.37-.29-2.06l1.15-.17.3,2.07Z" fill="#313131"/><path d="M435.32,277.69l1.35,1.24-1.24,1.35L434,279.19Z" fill="#313131"/><path d="M457.24,276c-.15.91-.31,1.83,0,0-1.27,1.48-.63.74,0,0Z" fill="#313131"/><path d="M218.83,256.38c-.37.78-.75,1.56,0,.05-1.37,1-.66.47,0,0Z" fill="#5b5b5b"/><path d="M251.77,259l1,1.34-.66.49-1-1.32Z" fill="#5b5b5b"/><path d="M512.51,273.33l-1.32-.23c0-.45.05-.66.08-1.26l1.58.63Z" fill="#313131"/><path d="M456.42,268.23c-.13,2.49-.12,2.17,0,0C456.82,270.36,456.87,270.66,456.42,268.23Z" fill="#313131"/><path d="M426.63,274.3c.16-.34.31-.68,1.32-3-.38,2.48-.44,2.85-.5,3.23Z" fill="#313131"/><path d="M227.57,260.71Z" fill="#5b5b5b"/><path d="M430.24,269.69l.33-1,.48.15-.3,1Z" fill="#313131"/><path d="M277.94,219.26l-2.69,2.46-2.68-3.53,3.84-1.19,1.26-3.13,3.78,4.17,4.65-6.9,1.27.93c-1.28,3-2.55,6.09-3.95,9.44Z" fill="#1d1d1d"/><path d="M445.18,228.31l-1.49,3.41,2.5,4.6-1.35,1c-1.16-1.44-3.48-3.14-3.23-4.29.6-2.82,2.39-5.39,4.44-9.59l5.81,9Z" fill="#1d1d1d"/><path d="M300.87,253.91l4.22-8,6.68,1.08-2.38,6.26-2.34-5.5-4.34,7.37Z" fill="#3e3e3e"/><path d="M477.68,268.5l-2.09,7.62-6-7.62,1.35-1.91Z" fill="#3e3e3e"/><path d="M293.62,233.84l-4-9.67c2.3.7,4,.76,4.2,1.37a72.41,72.41,0,0,1,2.15,7.73Z" fill="#1d1d1d"/><path d="M318.65,220.31h8.29v2.16h-8.33Z" fill="#1d1d1d"/><path d="M302.59,226l-8.06-9.09,1.88-1.3,6.17,7.52V226Z" fill="#1d1d1d"/><path d="M259.74,218.5l6-4.24,5.34,3.3h-5.88l-3.28,3.66Z" fill="#1d1d1d"/><path d="M378.62,228.11l10,3.09c-2.49.93-4.24,2.26-5.53,1.9-2-.54-3.61-2.25-5.38-3.46Z" fill="#1d1d1d"/><path d="M352.4,246.31h-9.66l8.63-5Z" fill="#3e3e3e"/><path d="M325.41,251.3l-6,.68c2.21-2,3.29-3.55,3.89-3.38a7.83,7.83,0,0,1,5.49,4.49Z" fill="#3e3e3e"/><path d="M327.93,211.08l3,4.07h-9.33Z" fill="#1d1d1d"/><path d="M397.6,223.27l-4.54,6L391.29,228l4.56-6.05Z" fill="#1d1d1d"/><path d="M384,224.63l5.9-3.44L391,223l-5.85,3.57C384.75,225.94,384.38,225.29,384,224.63Z" fill="#1d1d1d"/><path d="M402.7,228.74,398.91,226l6-2.39.91,1.52Z" fill="#1d1d1d"/><path d="M337.71,224.06q-1.8,2.4-3.58,4.81l-1.81-1.36q1.74-2.44,3.47-4.91Z" fill="#1d1d1d"/><path d="M363.83,251l-5.56-7.14,1-.93,6,6.75Z" fill="#3e3e3e"/><path d="M364,227.6l-6.57,5.34-1.07-1.33,6.64-5.24Z" fill="#1d1d1d"/><path d="M345.28,229.08,339,231.3l-.77-1a13.92,13.92,0,0,1,3.09-2.25,13.82,13.82,0,0,1,3.84-.33Z" fill="#1d1d1d"/><path d="M305.52,217.78l4.05,4.42-1.32,1.28-4.31-4.11Z" fill="#1d1d1d"/><path d="M395.05,244.11q1.89-2.51,3.8-5l1.21.84-3,5.35Z" fill="#3e3e3e"/><path d="M386.39,248.91a20.51,20.51,0,0,1-.53-5c.08-.69,1.6-1.21,4.2-3l-2.49,4.58.39,3.1Z" fill="#3e3e3e"/><path d="M334.61,240.13l6.11,5.5L337.16,247C336.43,245,335.85,243.43,334.61,240.13Z" fill="#3e3e3e"/><path d="M301.24,244.23l4-4.75h0l2.48-.91c.25.46.51.92.77,1.38l-7.28,4.27Z" fill="#3e3e3e"/><path d="M279.79,221.29l4.47,8.3c-3.34-2.72-4.61-3.42-5.33-4.48C278.59,224.6,279.27,223.4,279.79,221.29Z" fill="#1d1d1d"/><path d="M320.86,233.05l5.14-5.69c-.25,2.48,0,3.79-.55,4.37S323.52,232.35,320.86,233.05Z" fill="#1d1d1d"/><path d="M331.75,249.48l-5-3.35.8-1.25,5.11,3.19Z" fill="#3e3e3e"/><path d="M349.75,230.29c-.34-2.13-.51-3.14-.78-4.82l4.39,1Z" fill="#1d1d1d"/><path d="M265.13,227.7l-3.38-2,.84-1.52,3.56,1.93Z" fill="#1d1d1d"/><path d="M416.66,229.66l-2.57,3.69-1.32-.86,2.58-3.78Z" fill="#1d1d1d"/><path d="M285.53,229.05l2.54,2.22-1,1.3-2.76-2.12Z" fill="#1d1d1d"/><path d="M319.43,240l.88,4.51-1,.31-1.68-4.28Z" fill="#3e3e3e"/><path d="M423.18,229l-1.41-2.79,1.36-.69,1.41,2.79Z" fill="#1d1d1d"/><path d="M260.7,247.56l3.29-.19.17,1.49-3.27.44Z" fill="#3e3e3e"/><path d="M398.74,233.11l-2.08-2.36,1.1-1,2.13,2.32Z" fill="#1d1d1d"/><path d="M475.91,238.32l-4.41,2.06c.47-1.58.51-2.62.86-2.74C473,237.45,473.73,237.85,475.91,238.32Z" fill="#1d1d1d"/><path d="M376.48,243.7v2.84l-1.42-.06.2-2.83Z" fill="#3e3e3e"/><path d="M507.88,237.58l-1.71-2.19,1.06-.92,2,2.11Z" fill="#1d1d1d"/><path d="M265.9,236.32l2.35,1.91-.76,1L265,237.54Z" fill="#3e3e3e"/><path d="M357.27,226.21l-1.89-2.33,1.38-1.27,2.15,2Z" fill="#1d1d1d"/><path d="M322.66,237.93l3.08,1.6-.57,1.07L322.11,239Z" fill="#1d1d1d"/><path d="M393.37,241.45l-2.37.26-.2-1.17,2.3-.58Z" fill="#3e3e3e"/><path d="M490.33,245.13l1.73-1.65a12.08,12.08,0,0,1,1.27,1.54c-.44.61-1,1.18-1.47,1.75Z" fill="#1d1d1d"/><path d="M524.58,240.16l2.21-.29c.06.41.11.82.17,1.24l-2.22.28Z" fill="#1d1d1d"/><path d="M459,237.71c.46,1.12.92,2.24,1.39,3.36l-.95.39c-.43-1.14-.85-2.27-1.27-3.41Z" fill="#1d1d1d"/><path d="M500.36,233.32l2.12-.16c.09.57.16,1,.15,1-.72.15-1.44.26-2.16.38Z" fill="#1d1d1d"/><path d="M295.62,239.81l-2.1-.65c.09-.41.19-.82.28-1.24l2.25.4Z" fill="#1d1d1d"/><path d="M307.81,237l-2.14-.63.25-1.11,2.17.32Z" fill="#1d1d1d"/><path d="M344.49,233.3c.26.67.52,1.34.79,2l-1,.48-1-1.94Z" fill="#1d1d1d"/><path d="M468.62,248.79l-2-.48.17-1,2,.13Z" fill="#1d1d1d"/><path d="M317.81,229.15c.13-.59.26-1.18.4-1.77l.76.1-.15,1.83Z" fill="#1d1d1d"/><path d="M368.58,228.63l1.27,1.55-.71.59-1.3-1.53Z" fill="#1d1d1d"/><path d="M302.58,226c.6.45,1.2.91,0,0,.63,1.32.31.65,0,0Z" fill="#1d1d1d"/><path d="M282.56,251.36l.91,0,0,.49-.91-.09Z" fill="#3e3e3e"/><path d="M335.37,238.59l.06-.91.49,0-.09.92Z" fill="#3e3e3e"/><path d="M276.31,227.67a7,7,0,0,1-.46.91s-.51-.12-.5-.15a9,9,0,0,1,.22-1Z" fill="#1d1d1d"/><path d="M502.43,246.22l.46-.74.44.26-.45.76Z" fill="#1d1d1d"/><path d="M285,233.8c-.27,1.64-.23,1.37,0,0C285.19,235.17,285.23,235.46,285,233.8Z" fill="#3e3e3e"/><path d="M525.3,234.35l.74.29-.17.39-.72-.33Z" fill="#1d1d1d"/><path d="M288.27,218.66Z" fill="#1d1d1d"/><path d="M483.64,236.68Z" fill="#1d1d1d"/><path d="M489.05,230.63Z" fill="#1d1d1d"/><path d="M354.58,219.92c.32.23.64.45,0,0,.41.64.19.3,0,0Z" fill="#1d1d1d"/><path d="M341.85,223.36Z" fill="#1d1d1d"/><path d="M305.27,239.48h0Z" fill="#1d1d1d"/><path d="M562.17,195.42l-4.82-1.85.25-4.57,1.57-.38Z" fill="#2a2a2a"/><path d="M510.62,108.49l-4.09,1.58c.67-2.09,1-3.19,1.38-4.29l3.83-.45C511.21,106.81,510.91,107.65,510.62,108.49Z" fill="#414141"/><path d="M334.71,102.05l2.66.5-.17,1.25-2.72-.29C334.56,103,334.63,102.54,334.71,102.05Z" fill="#414141"/><path d="M550.91,174.28l-.27,2.32-.87-.06v-2.4Z" fill="#2a2a2a"/><path d="M485.19,106.74l-1.34-.79c.26-.37.32-.46.53-.78l1.26.74Z" fill="#414141"/><path d="M509.05,101l-.08.76-.44-.06.11-.75Z" fill="#2a2a2a"/><path d="M359.81,99.52c-.32-1.92-.28-1.65,0,0C359.11,98,359,97.76,359.81,99.52Z" fill="#414141"/><path d="M570.76,193.46Z" fill="#2a2a2a"/><path d="M564.16,181.93Z" fill="#2a2a2a"/><path d="M394.6,92.49c-.2.23-.1.11,0,0Z" fill="#414141"/><path d="M582.49,179.54l-.19.06Z" fill="#414141"/><path d="M345.81,97.68Z" fill="#414141"/><path d="M345.81,97.68Z" fill="#414141"/><path d="M583.14,239.53c.56-2.81,1.13-5.62,1.69-8.43l3,.58q-.84,4.2-1.7,8.42Z" fill="#1d1d1d"/><path d="M554.22,220.12l1-3.93,1.74.38-.75,4Z" fill="#1d1d1d"/><path d="M569.13,225.3,566.86,228,565.48,227l2-2.95Z" fill="#1d1d1d"/><path d="M555.11,209.88l-1.82,1.93L552,210.63l1.69-2Z" fill="#1d1d1d"/><path d="M577.83,227.63l-2.46-1,.39-.94,2.46,1Z" fill="#1d1d1d"/><path d="M591.77,221.24l0,.63-.29-.12Z" fill="#1d1d1d"/><path d="M546.55,210.4c-.29.4-.19.27,0,0Z" fill="#1d1d1d"/><path d="M258.67,138.9v0Z" fill="#313131"/><path d="M208.72,269.21c-.79-.51-1.59-1-2.57-1.65l1.38-4.79,1.17.1v6.36Z" fill="#3e3e3e"/><path d="M204.44,266.58l-2,2.19-1.06-.93,1.85-2.29Z" fill="#3e3e3e"/><path d="M235.79,143.52v3.81c-.65-2.84-.75-3.28-.85-3.73Z" fill="#5b5b5b"/><path d="M226.24,144.15l.63,0-.12.29Z" fill="#5b5b5b"/><path d="M312.43,84.89l-2.95-1.51c.27-.52.55-1,.82-1.54l2.92,1.57Z" fill="#414141"/><path d="M312.37,90.15l-.66.33-.14-.3.67-.3Z" fill="#414141"/></svg>