<svg id="Layer_1" data-name="Layer 1" xmlns="http://www.w3.org/2000/svg" viewBox="0 0 800 800"><path d="M514.84,766.34V769c-2.58,2.23-3.69,5.88-7.39,7.92-3,1.63-5.86,2.87-9,2.9-18.83.18-37.66.09-56.49.09-6.35-1.86-12.87-1-19.31-1.11-6.59-.1-13.3.74-19.75-.19-11.17-1.62-22.41.24-33.43-1.18-9.7-1.25-19.39.23-28.91-1.09-8.93-1.24-17.8-.54-26.68-1-2.12-.11-4.22-1.05-6.31-1a14.43,14.43,0,0,1-6.17-1.58,19.64,19.64,0,0,1-11.05-11.06c-.39-1-.94-1.88-1.56-3.1.58-15.14-1.67-30.55-1.24-46.07s1-31.32-.18-46.87c-.93-12.5-.54-24.94-.79-37.41s-.06-24.85-.06-37.28V553.11q0-83.05,0-166.11a15.62,15.62,0,0,1,1.11-5.74,14.17,14.17,0,0,1-1.08-3.49c-.15-3.39-.56-6.87,0-10.15,2.22-12.07.83-24.19,1-36.28.27-25.8-.07-51.6.15-77.4.09-11.33,1.38-22.63,1.12-34s-.86-22.67.2-33.87c.81-8.56.32-17,1-25.54.21-2.83.91-5.8,3.3-7.88.05,2-.49,4.07,1.46,5.68-1,1.14-1.83,2.08-2.67,3,.45,2.72-.34,5.4,1.06,8.14a7.29,7.29,0,0,1,0,6c-1.53,2.57-.56,5.06-1,7.53s-1.12,5-1.05,7.43c.12,4-1.12,8.13,1,12a1.77,1.77,0,0,1-.05,1.61c-1.79,1.51-1,3.49-1,5.24-.06,17.69,0,35.37-.09,53.06,0,1.57.85,3.4-.81,4.73.08,5.53.15,11.07.28,16.6a2.11,2.11,0,0,0,.52,1c-1.9,4.25-1,8.38-1,12.37,0,3.79.7,7.58,1,11.38.36,4-.86,8.12,1.13,12-1.68,3.18-1.68,3.18,1.61,5.12l1.68-1.3v5.07L293,330.56c2,3.86,1.26,8.2,4.75,10.18.72,3.68-3,6.94-.24,10-.29,1.14-1,2.27-.74,3.11,1.75,5.6,2.12,11.32,2.27,17.15.12,4.92-1.09,9.94,1,14.81a8.35,8.35,0,0,1,0,4.47c-1.22,6.58-1.56,6.69.14,10.89,1.23,3,.56,6.95,3.91,9.09,2.32.61,5.24-1.17,6.94,1.32-1.65,5.12-.26,10.14-.83,14.55,1.49,2.11,2.73,3.87,4,5.64,2.59,3.73,2.95,4.1,6,5.67.24.12.68-.12,1.19-.23v-2.82L318,432l4.28-4.28,5.86-1.65,2.93-9.29c2.1,1.15,3.08-.18,4-1.32.66-.8.88-2.31,1.65-2.62,3.9-1.56,7.41-4.56,12.07-3.62.27.06.62-.29,1-.49l-.21-1.69h-5.41c-.52-1.32-1-2.61-1.53-3.95a28.09,28.09,0,0,0,4.63-2.15,33.28,33.28,0,0,0,3.83-3.74v-4.57l9.85-1.12c1.89,1.34,2.13,5.35,5.64,5.74l1.67,7.17c1.84.34,3.74.34,5.34,1,4,1.75,7.66,4.17,12.38,5.95,1.2-.23,3.35,1,5.2-1.2,3,5.36,8.59,5.94,13.62,7.15,1,1-.67,2.94,1.5,3.19,1.74,2.27,1,4.89,1.09,7.39l-1.66,1.65c-4.83,0-9.71,0-14.59,0-.14,0-.29-.21-.82-.62v-7.09H386V429c-.7.65-1.21,1.14-1.41,1.33l-3.44-.82c.8,3,2.7,4.37,4.39,5.59s1.27,4.94,5,4.51v-4.44c4.89,0,9.39-.07,13.88,0a8.15,8.15,0,0,0,6.6-3.09,27,27,0,0,0,2.25-3.72c-.37-2.26-.84-5.08-1.3-7.91,1.55-1.13,1.55-2.25,0-3.39V410l-2.26-1.88,1.05-.53-1-1.36,2.29-.79c-1-.6-1.82-1.51-2.7-1.56-1.37-.07-3.22-1.52-4.14.85a6,6,0,0,0-4.52-1.13c1.16-1,2.33-1.91,3.45-2.82-.08-.93.15-1.93-.25-2.34a22.7,22.7,0,0,0-3.24-2.44l.13-2.25c3.88-.33,6.79-3.8,10.95-2.42l5.12-5.54h5.67c-1.64,3.8-4.71,5.29-7.83,6.41a4.29,4.29,0,0,0-2.73,2.29c-.92,1.81-1.68,3.57-.54,6.13,2.12-.91,4.1-2.31,6.21-2.54,2.74-.3,3.86-3.08,6.44-3.34l1.61,1.75c-.63,2.21-.37,5.2-.2,8s2.22,4.52,2.81,7.51l.65-1.59c3.3,0,5.42,3,8.73,3.46.16-.68.28-1.19.41-1.76l-2.16-1v-3.85l2.06-.7V399l2.13,1.24,2.2-5.19,4.5,4.29c-.76,2.33-1.41,4.31-2,6.29a2.08,2.08,0,0,0,0,.56l1.22,1.63c-1.24,2.27-2.17,4.34-.16,6.58.25.28-.54,1.49-.86,2.31l2.06,2.63-2.68,2.39c2.55,2.8,6.27,2.57,9.14,5,.16-1.25.24-1.89.32-2.47l-2.1-.74v-3.86l1.93-.66v-4l-4.35-.44V412.8l4.53-.45v-.65l-4.55-.52c.06-.77.08-1.13.13-1.71l4.66-.62-.62-1.86-5.27,1.08v-2.26h9c.3,3.42,4.66,3.41,5,6.48l1.78-.83c.45.38.87,1,1.35,1.08a41.06,41.06,0,0,0,4.3,0v1.13h-4l-1.55,1.65v5.89l2,.71-3,2.91,3.37,1.81-3.11,1.44,1.77,1.41a6,6,0,0,0-1.13,4.52v1.13c-.27,1-.53,1.95-.85,3.11l.94.95,6.69-1.05v-1.88c.11-3.17-.1-6.2-3.39-7.91l2.43-2-.89-3.28c.29-.62.5-1.09.72-1.55L473,419c.09-3.05-.51-6.06,1.69-8.63l3.8,3.62,5.12-1.67,2.64,3.65h2.33l2.75,3.44h5.43c.5,1.35,1,2.82,1.58,4.3l2.59,1.08.87-.87c2.77,1.93,2.36,5.25,2.68,7.8.76,6.19-.23,12.5,1.19,18.75.7,3,.12,6.38.12,9.58l-3.87-1.2c-2,2.59-5.07,2.26-8.13,2.37-2.27.09-4.73-.85-6.76,1-.66-.65-1.31-1.31-1.72-1.72l-10.49-2a14.84,14.84,0,0,0,2.47-8.82l-1.95,1.65-1.19-3.69v-2.09c-1.47,0-3-1.16-3.39,1l-1.61,2-4.66-2.24c-1.12,2.34-.41,4.11.62,5.85v1.13H464l-3.08.26c.33,1.26.57,2.2.82,3.13a2.8,2.8,0,0,0,0,4.52v1.13l-1.41,1.1c2.12,2.42,4.58,2.39,7.06,2.29-.1,1.69-1.41,1-2.26,1.13a19.94,19.94,0,0,0-3.19.05c-.49.08-.89.7-1.33,1.08H455l-.14-2.91,5.36-4.5-3-1.95c.4-.78.63-1.19.81-1.62,0,0-.26-.21-.79-.63-.76.81-1.55,1.66-2.35,2.49s-1.5,1.56-2.25,2.34v2.13l-5.76-1.09c-2.47,1.24-2.16,3-2.16,4.61V468c-2.36.22-.18,2.73-1.68,3.36L441,467.92l-4.12,3.44c-1.15,2.86-3.09-.17-4.76.73l1.28,2.21c-1,1.59-3.7-1-4.43,1.58a5.38,5.38,0,0,0,1.43,1.09c.77.26,1.95-.34,2,1.17-.09,1.93-.24,3.89,2.26,4.52v1.13l-3.12.74c-.42-.25-.74-.44-1.64-1,.31,1.35.46,2,.59,2.52h1.91v1.13l-1,1.7,1,1.69c.38.76.76,1.51,1.13,2.26l-2,2.71c-.22-1.65-.35-2.66-.51-3.8-2.43,2.47-2.43,2.47-.91,5.61-.12.31-.24.63-.54,1.39l-4-5.91c-.61-1.93,1.07-3.35,1.15-5.15.28-6.12-1.36-11.39-6.39-15.19-1.4,0-2.89-.41-4,.08a9.25,9.25,0,0,0-5.48,6.36c-.82,3.18-1.81,6.31-2.71,9.43-1-.06-1.72-.08-2.45-.16-.15,0-.27-.25.23.25-1.2-3.92-2.16-7.09-2.84-9.29l-4.5-3.4c-2.17.87-5.12-1-7.52,1.21-1.24-4.47-1.24-4.47-5.06-3.94,0,3.56.21,7.13-.05,10.67-.36,5,1.24,8.88,5.71,11.39.28.38.56,1.07.87,1.08,1.84.11,3.7,0,5.55.07a8.33,8.33,0,0,1,1.63.4v2.83L403,503H386v5.65c.49.37.95,1,1.47,1.08,2.52.26,5.11-.28,8,.44-1.06,2.38-3.14,2.51-4.72,3.36-.18,1-.37,2.05-.55,3l-5.86-1.37-1.7,2.52H372.38l.28,5.65h19v3.7l-2.26,3.08c-.18,5.27.77,10.65-1.55,15.69H378V530.29h-5.3v21a69.83,69.83,0,0,0,7.12,1.35c2.61.23,5.26.05,7.89.05h7.34c-1.16,1.83-2.92,2.34-5.41,2.24l-2.94,3.66h-6.31v2.79c4.39,2.75,4.9,8.26,7.78,12.3.49.68-.31,2.28-.56,3.77.45,1,1.67,2.36,1.69,3.79.07,5.75,3.91,9.72,6,14.56l2.52-1.92c.44,1,.83,1.9,1.73,4,0,1.84,0,1.84-1.08,4,2.23,2.37,5,4.3,5.64,7.84l-.87,1c.49,1.49.92,2.81,1.24,3.77l4.87,1.76c.57,1.74,1.4,3.22,1.45,4.73s-.62,3.33-1,5.15c2.11.44,3.75-2.69,5.49-.52-.43,2-.83,3.89-1.23,5.78l8.16,6.62c-.51,1.74-.94,3.22-1.24,4.28,3.69,3,6.84,5.67,10.2,8.08,1.52,1.08,3.47,1.57,5.36,2.38l1.87,3h5.12l3.56,6.29c3.75.53,7.13,1.33,10.52,1.39a32.34,32.34,0,0,1,7.44,1.25c1.38.34,2.56,2.2,4.25.15.33-.39,2.33.87,3.58.89,1.48,0,3.23-1.08,4.42-.6,3.12,1.26,6.24.29,9.32.67,1.93-.09,3.89-.24,4.52,2.26-10.17,0-20.34.19-30.5,0s-20.09,1.17-30-1.08c-23.19-.54-46.38.79-69.58-1-12.54-.95-25.22-.1-37.83-.21-3.62,0-7.39.95-10.83-1.09H292.22a23.83,23.83,0,0,0,8.27,2.2c14.33.63,28.69-.72,43,1,7.23.88,14.67,0,22,.19s14.83-.94,22.12,1.09c19.8.48,39.59-.24,59.42.88s39.9.25,59.85.25a12.58,12.58,0,0,1,1.08,3.48q.17,10.43,0,20.85a5.69,5.69,0,0,1-.84,2.29c.37,2.13.91,3.69.84,5.23-.24,6,.9,12.19-.9,18.41.2.32,1,1,.89,1.5-.4,3.24,1,6.54-.83,9.8a6.34,6.34,0,0,0-.08,5.43c1.37,2.18.9,4.28.91,6.39a24.09,24.09,0,0,1-.86,8.06c-.94,2.88-.21,6.32-.21,9.56,1.24,1.71,2.5,3.47,3.65,5.07Zm-126.68-304H372.38c.11,2.16.2,3.92.27,5.47h38.76c2-1.09,1.92-2.69,1.65-4.11a8,8,0,0,0-1.53-2.51c-6.21,2.23-12.33.59-18.12,1.22-3.74-3.95-3.91-4.36-3.83-8.62,2.17-2.94,5.28-3.75,8.58-3.85,4.5-.13,9,0,13.52-.05a6.12,6.12,0,0,0,1.45-.4v-3.55l-2-2c-2.65.44-5.63,1.14-8.65,1.37-3.17.25-6.38,0-9.57.07a7.7,7.7,0,0,0-6.87,4.44c-1.32,2.43-2.09,4.89-.08,7.54C386.94,458.66,387.34,460.42,388.16,462.32Zm60.69-31.63c-1.53.79.7,4.12-2.76,3.15-.06-.51-.09-1-.2-1.56s-.29-1-.44-1.48L445,431v5.49h7.12l-1.85,2.35h-5.38V444h9l-.27-1.76-4-.76,4.29-3.57c-.12-1.41-.23-2.64-.33-3.84H451Zm-19.78,35.95h8.77l-.67-.86,2.14-.47-.48-.59-4.14-.34c-.73-4.81-1.88-5.34-5.62-2.78ZM438,421.76v-2.95c-4.41-2.05-4.41-2.05-8.94-.16v3.73C432,422.74,434.7,425.67,438,421.76ZM379.7,508.63c1.85-1.44,2.36-2.79,1.42-4.24a3.43,3.43,0,0,0-3.76-1.4c-3,1.07-3.06,2.71-2.46,4.07C375.85,509.2,378,508.67,379.7,508.63ZM463.9,444l-3.18.62.11.5h8.69l.06-.6-4.51-.59.25-1.85,6.24-.34-4.35-2.14-3.31,2Zm-26.08,11.57v-5.44h-5.57l.3,1.83,4.42.43-.32,1.82-4.33.44v.67Zm1.66,3.26c-2.76-3.65-6.11-1.57-8.78-2.24l-2.21,2.24Zm-1.27-22c-1.87-.66-3.33-1.22-4.81-1.67-.25-.08-.62.26-.76.32l2.35,2.34-2.63,1.22v1.2C436.54,439.22,436.54,439.22,438.21,436.9Zm-5.67,8.31v3.45h2.78c.33-.78.6-1.43,1-2.43.48,1.18.74,1.8,1.13,2.74,1.26-2.41.16-3.61-1.43-5l-1.88,2.5Zm12.21,7.51,4.33.88.68,3,.44-.22c.18-1,.36-2,.49-2.79l2.32-.85-2.41-.9c-.16-1.07-.31-2-.45-3h-.61c-.16,1-.32,2.08-.47,3.09Zm-6.94-21.11v-.94c-1.45,0-2.91-.1-4.35,0s-3-.53-5.14.91Z" fill="#353535"/><path d="M502.41,139.09c4.73.68,7.28,3.84,9,7.91-.48,1.43-2,2.65-.69,4.43,1,1.4-1.58,2.9-.21,4.18,1.21,1.12.89,2.36.89,3.6,0,12.2-.11,24.4.05,36.6s.17,24.08.84,36.15c1,18,.25,36,.25,54-.37.3-1.06.58-1.08.88q-.13,3.64,0,7.28c0,.31.71.59,1.08.88V482.66h-3.39v-4.85c0-1.5-.61-3.55.14-4.4,1.41-1.6-.15-2.52-.19-3.7-.33-8.88-1.17-17.72-1.2-26.64,0-10.57,1.34-21.23-1-31.73.88-13.06-1.53-26-1.14-39.07.11-3.95,0-7.91,0-11.86,0-.31-.34-.61-.52-.92h-2.59l-1.84-2.33h-4.48c-3.06-1.58-1.16-4.53-2.19-6.76L486.51,347v-5.14l-5.86-4.4c.33-2.13.63-4,1-6.42l-4.08-3.69c1.27-2.81,1.27-2.81.54-4-.56-.9-1.61-1.78-1.62-2.68-.05-4-2.43-6.77-4.18-10-1.14.58-1.91,1-2.68,1.39v-1.13c-.46-.38-.89-1.05-1.37-1.08-1.8-.13-3.61-.05-5.41-.05l-1.93,1.37c.33,1.29.56,2.22.8,3.15v1.13l-3.16-2.58c-.75-2.52.68-3.33,1.63-4.41.13-.15,0-.51,0-.88L457.88,306c-2,4.38-1.62,9.26-4.4,12.84h-4.19V315.4l4.55-.22c-.5-.88-.83-1.46-1.15-2V312c1.55-.28,1.37-1.11.7-2.13-.27-.41-.47-.84-.7-1.26,1.55-.28,1.37-1.11.7-2.14a14,14,0,0,1-.7-1.26c.36-1.32.73-2.65,1.1-4l-1.53-1.54h-3.72c-2.58,3.91-1.85,5.18,3,5.51v2.49l-4.4-1-1.25,1.88-1.13,2.26L443.64,312v1.76l-2.6,1.29-3.05-.79-1.13-1.13v-2.26c1.85-2.05,1.76-2.41-1.13-4.53l2.34-3.34c-.09-.83-.17-1.51-.34-3.05L434.6,303v-4.59l3.28-.32c-2.23-.58-4.41-1.24-7-.26l1.45.58,1.09,1.87-2.08.73V305l4.38,1.37v3.29h-3c-.31-.72-.62-1.41-1.34-3.05l.91,5.42c-.17.85.56,2.16-1.13,2.26-2.4-.77-.4-2.95-1.35-4.18-1.5-1.65-1.5-1.65-1.69-3.52l1.71.72c.17-.25.34-.5.52-.74l-3-3.62-1.43,1.24c-.17-.65-.31-1.15-.44-1.63l3.59-2.29a19.25,19.25,0,0,1-4-1.81c-1.73-1.34-.13-2.8.28-4.37l-7.14-3.67h-3.28l-1.27-2.72c-2.42,1.57-4.19,2.72-6,3.88-4.18,1.16-8.29-2.46-13-.45l1.28,2.21-3.19,2.26c3.61,4,8,2.58,11.87,2.88l2.12-2.12h4.32c.39,1.3.76,2.59,1.29,4.36H393.92l-3.11-1.49-1.42-3.06c.95-1.92,1.7-3.46,2.57-5.23l-4.69-2.64-2.4,4.51L383.12,295l-1.66-3.27c.83-1.7,1.66-3.41,2.53-5.23l-1.88-.67c-1.76-4.26-3.42-8.27-5.15-12.47l-10.46,1.45c-1.27-2.38-3-3-4.79-3.68l-3.7,4.45,6.43.34,7.93,5.27,1,2.11v6.24l-8.68,3.11-4.66-1.41-1.58,2.59-3.73.35,2.88,5.51-6.16,1.81,6.79,7.33-1.64.92c-3.31.14-6-1.65-8.71-2.53-.39-1.64-.77-3-1-4.4-.55-3-1-5.93-1.56-8.9v-1.5l2.26-1.89h4.52a19.81,19.81,0,0,0,3.18,0c.49-.08.9-.7,1.34-1.08,5,.85,9.63-1.75,14.57-1.1.28-2.3-.84-3-2.36-3.42-5.94-1.51-11.93-2.87-17.82-4.57-3.48-1-7.51-.76-9.71-3.32-1-5.93-1.7-11.27-2.95-16.47-.59-2.46-2.26-4.68-3.5-7-.12-.22-.64-.22-1.48-.46-.31.6-.74,1.44-1.46,2.87.46,1.83-.37,4.68.43,7.7,1.41,5.28,3.24,10.62,2.75,16.5-2.88,2.41-5.95,4.74-8.74,7.37s-5.65,5.68-9.29,7.52l-1.12-.57.95-1c-.46-1-.9-1.88-1.53-3.19l-6.77,1.38-2.26-2.65,4-6.71c.33-1.88-.59-4.18-2.48-6.06-3.13-3.1-4.1-7-4.47-10.73l4.47-5.82V253.4l-4.06-3c-.5-4-1.18-7.72-1.42-11.52-.7-11.13,1.24-22.35-1.17-33.43V161.9c1.62-2.79,2.77-4.77,3.61-6.23l4-3a50.55,50.55,0,0,0,5.34,0c1.74-.18,3.7-.32,5.12-1.19,1.92-1.16,3.83-1,5.81-1,1.69,0,3.4-.1,5.08,0s3.36-.72,5.34-.24c1.5.38,3.49-1.21,5.53-2a3.73,3.73,0,0,0,1.07.75c2.63.79,19.73.05,22.68-.39,3.19-.47,6.22-2.16,9.56-1.48,1.22.25,2.4,1.41,3.59,0,4.84.79,9.45-1.34,14.22-1.07,1.62.1,2.73-1,4.06-1.09s2.68.73,4.05,1c.7.14,1.83.24,2.14-.15,1.22-1.47,2.76-.84,4.17-.94,6.62-.48,13.23.54,19.91-.95,4.49-1,9.39,0,14.08-.24s9.09-.9,14.07-1.42l2.48-2.31,3,2.65c4.66,0,9.21-.31,13.69.08,4.69.42,9.06-1.44,13.67-1.23,2.44.11,4.93-.23,7.34.08,2.81.38,4.46-2.18,7-2.32ZM438,293.49c-1.71-2.37-4.36-2-6.72-3.22v2.13l2.16.84c-.77.85-1.48,1.66-2.2,2.46l.39.61c2.11-.93,4.23-1.87,2-5.67l4.59-3.06-2.13-4.07L435,287.93c-.39-2.13-.57-3.16-.74-4.09-1.08.56-2,1-2.83,1.44C430,287.9,432.94,288.72,438,293.49Zm-39.78-15V262.31c-6.08-.29-10.58,1.84-13.23,7.08v9.39c6.28,7.88,9.14,7.74,14.57,7.15,6-.66,10.36-3.92,12.32-10v-8.18l-2.66-5.19H404c2.31,4.68,2.37,5.06,2.29,13.11l-6.1,4.78C399.61,279.83,399.21,279.44,398.25,278.48Zm71.87,22.87-2.72-1.09,2.17-2.48-.39-.59-3.05,1.2-3.61-1.6c.54,1.84.83,2.81,1.11,3.78l-4.42.45L461,302.8C463.61,300.8,466.75,302.54,470.12,301.35Zm-3.73,7.85,3.84-4.41-2.24-.85c-.56,1-1,1.82-1.62,2.93l-3.71-3.35c.29,1.83.17,3,.68,3.75S465,308.38,466.39,309.2ZM448,294.12l-.72,0v4.09h5.54l-.29-1.84-4.16-.37C448.16,295.13,448.06,294.63,448,294.12Zm-16.63-11.35c1.87-.52,3.7.42,6.45-1.08h-3.49l-3-2.82Z" fill="#1c1c1c"/><path d="M452.69,312v1.13h-5.77l.43,2.26h1.94v1.13c-2.15.25-.52,2.19-1.34,3-.22.22-.63.26-1.44.56l-1.06-3.59-1.64.08c-.24,2.27-.84,4.57,2.13,5.62l6.72-1.67c-.63-1.57-3.16.6-3.37-1.75h4.19c2.78-3.58,2.43-8.46,4.4-12.84l2.34,1.58c0,.37.11.73,0,.88-.95,1.08-2.38,1.89-1.63,4.41l3.16,2.58,1.16.67c1.7-.28,2.9-.47,4.08-.68,1.91-.32,2.9-1.37,2.67-3.38.77-.41,1.54-.81,2.68-1.39,1.75,3.24,4.13,6,4.18,10,0,.9,1.06,1.78,1.62,2.68.73,1.19.73,1.19-.54,4l4.08,3.69c-.38,2.41-.68,4.29-1,6.42l5.86,4.4V347l7.65,3.44c1,2.23-.87,5.18,2.19,6.76h4.48l1.84,2.33h2.59c.18.31.52.61.52.92,0,3.95.12,7.91,0,11.86-.39,13.05,2,26,1.14,39.07,2.35,10.5,1,21.16,1,31.73,0,8.92.87,17.76,1.2,26.64,0,1.18,1.6,2.1.19,3.7-.75.85-.14,2.9-.14,4.4v4.85h3.39V494c0,1.81-.07,3.62.06,5.41,0,.48.7.92,1.07,1.38v3.39c-.32.13-.91.24-.92.4-.12,1.66-.2,3.34-.19,5,0,1.86-.54,4.18.36,5.45,1.39,1.94-1.86,2.84-.38,4.35.39.38.74.8,1.09,1.19-.36.42-1,.79-1,1.26-.95,5.13,1.72,10.26,0,15.45-.17.54.82,1.45.93,1.62-.46,1.63-.81,2.61-1,3.63-.86,4.64,1.21,9,1.17,13.64-.14,16-.08,32,0,48a47.06,47.06,0,0,0,.78,5.83s-.81.61-.75,1.13c.56,4.91-1.4,10,1,14.8a3.91,3.91,0,0,1,0,2.78c-.48,1.3-2,2.64-.79,3.91,1.46,1.59-1,2.39-.33,3.75a19.73,19.73,0,0,1,1.11,3.58,7,7,0,0,0-.61,6.57,8.64,8.64,0,0,1,.65,2.54c.24,2.56-.2,5.35.71,7.62,1.18,3-.32,5.24-.67,7.81-.08.56-.26,1.36,0,1.66,1.8,1.9,1,4.21,1.06,6.34.08,10.16.13,20.32,0,30.48,0,3.42,1,7-1,10.28a1.74,1.74,0,0,0,0,1.63c2.22,2,.55,4.64,1.1,6.49-.91,1.72-1.64,3.11-2.42,4.61l2.71,3c-.34,1.23-.73,2.41-1,3.63s-.91,3.05-.35,3.66c1.72,1.87.94,3.91,1,5.84.11,6.58,0,13.17,0,19.76a19.83,19.83,0,0,1-.05,3.18c-.08.49-.7.89-1.08,1.34h-4.26c-1.15-1.6-2.41-3.36-3.65-5.07,0-3.24-.73-6.68.21-9.56a24.09,24.09,0,0,0,.86-8.06c0-2.11.46-4.21-.91-6.39a6.34,6.34,0,0,1,.08-5.43c1.79-3.26.43-6.56.83-9.8.07-.54-.69-1.18-.89-1.5,1.8-6.22.66-12.36.9-18.41.07-1.54-.47-3.1-.84-5.23a5.69,5.69,0,0,0,.84-2.29q.15-10.43,0-20.85a12.58,12.58,0,0,0-1.08-3.48h6.68V668h-8.94l2.26-3.09V563.78c0-1.5.07-3-.05-4.5,0-.33-.7-.6-1.08-.9v-1.13a58.43,58.43,0,0,0-.05-6.21c-.18-1.78,1-3.3.22-5.34s-.17-4.46-.17-6.72V526.55c0-2.07-.05-4.14,0-6.21s-.21-4-.32-5.82.54-3.52.35-5.31a61,61,0,0,1-.05-6.2V460.06c0-3.2.58-6.54-.12-9.58-1.42-6.25-.43-12.56-1.19-18.75-.32-2.55.09-5.87-2.68-7.8l-.87.87-2.59-1.08c-.54-1.48-1.08-3-1.58-4.3h-5.43L488.59,416h-2.33l-2.64-3.65L478.5,414l-3.8-3.62C472.5,413,473.1,416,473,419l-3.37,2.62-4.6-1.71c.12-1.22.25-2.54.44-4.4,1.15,2,1.21,4.32,3.67,3.75.52-1.85,1-3.5,1.41-5.16a5.67,5.67,0,0,0-.92-.39v-1.13c0-1.5-1.16-1-2-1.14-1.82-.37-2.81-1.41-2.54-3.38H468l1.55-1.62v-3.87h-3.86c-2.53,1.56-1.94,3.49-.51,5.49-2.2.53-.72,2.28-1.15,3.39l-1.78.83c-.34-3.07-4.7-3.06-5-6.48-.26-2.15-2.18-.56-2.9-1.21l-1.59-4.29h-4.33a32.76,32.76,0,0,0-1.29,4.07c-.07.39.69.95,1.06,1.43v2.26c-.37.29-1.06.56-1.08.86-.09,2.2-.05,4.4-.05,7l4.2,1.73c-.73,2.31-2.59,1.64-4.2,1.71L445,416.74c.32-.82,1.11-2,.86-2.31-2-2.24-1.08-4.31.16-6.58l-1.22-1.63a2.08,2.08,0,0,1,0-.56c.63-2,1.28-4,2-6.29l-4.5-4.29-2.2,5.19L438,399c-.37-1.13-.75-2.26-1.13-3.39,1.69-.1,1-1.41,1.13-2.26,1.59-.38,1.92-1.69,2.55-3,.43-.87,3.26-.44,1.21-2.92L438,390l-3.84-1.47c-1.12,1.56-2,2.78-3.11,4.36l-1.85-3.45v5h2.5c1.64-.92,2.35-3.28,4.64-3.4.89,1.12-.53,1.18-.58,1.75-.07.94,0,1.88,0,2.82h-3.91l.67.68-3.41,1.84v6.59h7.69l.08.64-7.9,3.07v1.87l-.65,1.59c-.59-3-2.65-4.73-2.81-7.51s-.43-5.76.2-8l-1.61-1.75c-2.58.26-3.7,3-6.44,3.34-2.11.23-4.09,1.63-6.21,2.54-1.14-2.56-.38-4.32.54-6.13a4.29,4.29,0,0,1,2.73-2.29c3.12-1.12,6.19-2.61,7.83-6.41h-5.67l-5.12,5.54c-4.16-1.38-7.07,2.09-10.95,2.42l-.13,2.25a22.7,22.7,0,0,1,3.24,2.44c.4.41.17,1.41.25,2.34-1.12.91-2.29,1.86-3.45,2.82V406l-19.51-7.76,6.61-3.66,5.35,5.35h2.94v-2.7l-3.94-4a20.78,20.78,0,0,1,2.8-2.13,24.44,24.44,0,0,1,5.26-2.23c3.1-.75,5.36-3.31,8.72-3.59,1.15-.1,2.16-1.83,3.16-2.75-.11-1.84-.2-3.45-.31-5.38L371.55,396v5.28c4.65.55,8.46,3,12.31,4.79,5.06,2.35,10.41,3.93,15.42,6.38,4,2,8.2,3.9,12.72,4.67,1.55,1.14,1.55,2.26,0,3.39a7.18,7.18,0,0,0-1.3-.71c-1.56-.5-3.17-1.15-4.35.71-2.17-.25-.53-2.2-1.5-3.19-5-1.21-10.57-1.79-13.62-7.15-1.85,2.16-4,1-5.2,1.2-4.72-1.78-8.39-4.2-12.38-5.95-1.6-.7-3.5-.7-5.34-1l-1.67-7.17c-3.51-.39-3.75-4.4-5.64-5.74l-9.85,1.12v4.57a33.28,33.28,0,0,1-3.83,3.74,28.09,28.09,0,0,1-4.63,2.15c.51,1.34,1,2.63,1.53,3.95h5.41l.21,1.69c-.39.2-.74.55-1,.49-4.66-.94-8.17,2.06-12.07,3.62-.77.31-1,1.82-1.65,2.62-.95,1.14-1.93,2.47-4,1.32L328.15,426l-5.86,1.65L318,432l3.4,2.43v2.82c-.51.11-1,.35-1.19.23-3.08-1.57-3.44-1.94-6-5.67-1.23-1.77-2.47-3.53-4-5.64.57-4.41-.82-9.43.83-14.55-1.7-2.49-4.62-.71-6.94-1.32-3.35-2.14-2.68-6-3.91-9.09-1.7-4.2-1.36-4.31-.14-10.89a8.35,8.35,0,0,0,0-4.47c-2.06-4.87-.85-9.89-1-14.81-.15-5.83-.52-11.55-2.27-17.15-.26-.84.45-2,.74-3.11-2.73-3.05,1-6.31.24-10-3.49-2-2.77-6.32-4.75-10.18l2.46-1.22v-5.07l-1.68,1.3c-3.29-1.94-3.29-1.94-1.61-5.12-2-3.85-.77-8-1.13-12-.34-3.8-1-7.59-1-11.38,0-4-.91-8.12,1-12.37a2.11,2.11,0,0,1-.52-1c-.13-5.53-.2-11.07-.28-16.6,1.66-1.33.81-3.16.81-4.73.08-17.69,0-35.37.09-53.06,0-1.75-.78-3.73,1-5.24a1.77,1.77,0,0,0,.05-1.61c-2.14-3.85-.9-8-1-12-.07-2.46.66-4.95,1.05-7.43s-.57-5,1-7.53a7.29,7.29,0,0,0,0-6c-1.4-2.74-.61-5.42-1.06-8.14.84-.94,1.66-1.88,2.67-3-2-1.61-1.41-3.7-1.46-5.68.59-.77,1.18-1.54,1.75-2.32,3.08-4.13,7.68-5.37,12.33-5.49,8.49-.21,16.9-2,25.43-1.23,6.68-2.15,13.68-.12,20.32-1.31,5.72-1,11.35-.69,17-1,4.48-.2,9,.39,13.18-.29-.25-1.24-.43-2.12-.63-3.09h1.64l1.05,2.25h13c1.11-.43,2.86,1.05,3.39-1.13.58-.74,1.17-1.49,1.89-2.39,1.45.14,3.49-.25,4.58.59,2.05,1.58,3.28.1,4.83-.46l1.2,3.75c2.05-1,4.2.79,5.58-1.49h2.26c.42.23.86.44,1.26.7,1,.67,1.85.85,2.13-.7,1.75-.28,3.79.8,5.22-1.2,3.22,1.87,6.82,1.57,10.12.85a20,20,0,0,1,4.15-.76q27.1,0,54.21,0c1,0,2.76-1.12,3.15,1.08h-.56c-2.52.14-4.17,2.7-7,2.32-2.41-.31-4.9,0-7.34-.08-4.61-.21-9,1.65-13.67,1.23-4.48-.39-9-.08-13.69-.08l-3-2.65-2.48,2.31c-5,.52-9.51,1.19-14.07,1.42s-9.59-.76-14.08.24c-6.68,1.49-13.29.47-19.91.95-1.41.1-2.95-.53-4.17.94-.31.39-1.44.29-2.14.15-1.37-.27-2.73-1.1-4.05-1s-2.44,1.19-4.06,1.09c-4.77-.27-9.38,1.86-14.22,1.07-1.19,1.43-2.37.27-3.59,0-3.34-.68-6.37,1-9.56,1.48-2.95.44-20.05,1.18-22.68.39a3.73,3.73,0,0,1-1.07-.75c-2,.82-4,2.41-5.53,2-2-.48-3.57.36-5.34.24s-3.39,0-5.08,0c-2,0-3.89-.14-5.81,1-1.42.87-3.38,1-5.12,1.19a50.55,50.55,0,0,1-5.34,0l-4,3c-.84,1.46-2,3.44-3.61,6.23v43.58c2.41,11.08.47,22.3,1.17,33.43.24,3.8.92,7.57,1.42,11.52l4.06,3v6.35l-4.47,5.82c.37,3.74,1.34,7.63,4.47,10.73,1.89,1.88,2.81,4.18,2.48,6.06l-4,6.71,2.26,2.65,6.77-1.38c.63,1.31,1.07,2.22,1.53,3.19l-.95,1,1.12.57c-1.45,1.76-2.91,3.51-4.37,5.27l1.56,1.45c4.08-2.33,21.9-8.58,25-8.81l2.86,15.8c-2.42,3.2-5.72,4.91-7.33,8.56,4.13,1.18,6.38-2.22,9.43-3.05l2.87,1.33L348,313h10.14l-1.55-3.25,1.64-.92-6.79-7.33,6.16-1.81-2.88-5.51,3.73-.35,1.58-2.59,4.66,1.41,8.68-3.11V283.3l-1-2.11-7.93-5.27-6.43-.34,3.7-4.45c1.83.64,3.52,1.3,4.79,3.68L377,273.36c1.73,4.2,3.39,8.21,5.15,12.47l1.88.67c-.87,1.82-1.7,3.53-2.53,5.23l1.66,3.27,1.75-2.21c-.17,3.72.31,7.09,4.44,8.48l-4.44,1.84v4.37l-1.8,2.27c3,0,5.2-.06,7.37,0s4.66-.37,6.84.31c.29,3.49-3.81,2.52-4.31,4.94l.95.39c-.3.37-.61,1.09-.89,1.08-4.11-.23-6.85,1.51-8.06,5.16v8.71l2.76,4h7l-3.83-3.15c-.72-2.49-1.2-4.18-1.55-5.37l2.77-3.58h3.55c2.09,4.28,2.69,9.29,6.76,12.32h6.65l2.88-2.76v-7.37c1.39-.07,1.39-1.07.91-1.83a7.55,7.55,0,0,0-2-1.56,8.56,8.56,0,0,0,0-9c.3-.26.91-.67.87-.76-.45-.91-1-1.77-1.53-2.63q-11.7,0-23.36,0c-.81,0-2,.4-2-1.12h26.91v-5.65c-5.43,0-10.65,0-15.86,0-.82,0-2,.42-2-1.12h18.45c-.53-1.77-.9-3.06-1.29-4.36h-4.32l-2.12,2.12c-3.88-.3-8.26,1.1-11.87-2.88l3.19-2.26-1.28-2.21c4.7-2,8.81,1.61,13,.45,1.81-1.16,3.58-2.31,6-3.88l1.27,2.72h3.28l7.14,3.67c-.41,1.57-2,3-.28,4.37a19.25,19.25,0,0,0,4,1.81l-3.59,2.29c.13.48.27,1,.44,1.63l1.43-1.24,3,3.62c-.18.24-.35.49-.52.74l-1.71-.72c.19,1.87.19,1.87,1.69,3.52.95,1.23-1.05,3.41,1.35,4.18v2.26h-1.69a8.15,8.15,0,0,1-5.22,5.17l3.52,2.74c.49.37,1,1.06,1.46,1.08,2.63.11,5.27.06,7.91,0,.25,0,.49-.39.91-.74l-4.46-1,4.43-3.79-1.19-2.19,1.11-3.58,3.05.79,2.6-1.29V312Zm12.43,18.08h-2.58l1.32,1.62c-.29.45-.59.93-1.11,1.77,2.3,0,4.15,0,6-.05.31,0,.59-.7.89-1.08l2.25-2.88-2.25-2.77v-2.87l-3.85-1.9-3.14,3.67c1,1.33,1.72,2.35,2.47,3.36Zm0,62.16-2.66,2.34c1.87,1.77,2.87,4.13,5.94,3l2.32-3.88-2.21-1.48c1-1.75,1.75-3.53.56-5.94l-3.24-1.15c-1.2,1.42-2.24,2.63-3.17,3.74Zm-6.06-50.74c3.33,3.57,7.82,2.42,11.3,4.89.21-1.07.33-1.7.52-2.71-4.07.06-7.37-2.49-2.09,2.41h-4.9c-.58,1.54-1.11,3-1.51,4l-2.54,1.16H470C469.51,349.27,469.12,347.56,459.06,341.51Zm-46.28,9a16,16,0,0,0-2.88-2.33c-5.43-2.34-10.82-4.79-16.4-6.71-2.45-.85-4.51-3.2-7.49-2.37a10.07,10.07,0,0,0-1,.42v4c4.7,2.68,10.05,4.12,15.26,7-4.38,2-8.14,3.74-11.86,5.55-2.17,1.06-4.15,2.36-3.46,4.86,4.67,3.31,10.22,3.82,15.2,7.31l-15.26,7c0,1.42,0,2.36,0,3.28s.23,1.62.37,2.5c4.87-1.67,8.67-4.56,13.28-5.91s8.11-4.78,12.9-5.66c.77-.14,1.31-1.55,2.18-2.66l-18.15-7.19C400.87,355.54,407.35,354.6,412.78,350.54Zm38.33-22.61L447,326.49v5l-3.76,2.85,5.61.63c-.8,1.55-1.14,2.87-2,3.62s-2.07.7-3.25,1c2.55,3.17,5.79,1.12,7.83,1L455,339.5l-5.53-.63v-4.1l4.05-.42c-.78-3.37-3.62-1.24-5.28-2.35v-2.09l5.1,1.19c.32-3.33.34-3.34-.74-5-.13-.19-.5-.22-.77-.33Zm-104.52-4.31c1.1,3.47,2.31,7.25,3.45,10.82h3.08c.59-4.78-1.45-8.72-3.22-12.71-.17-.39-.84-.55-1.71-1.07Zm30.49,60.53c1.72.51,3.06,1,4.41,1.29.27.07.64-.24,1-.4v-2.51c-3.23-2.07-3.95-7.06-8.71-8.64v5.65C374.57,380.82,376.92,381.54,377.08,384.15ZM361,352.69c0-4.75-2.25-8.54-4.66-12.48l-3.17.29c.43,4.9,2.83,8.54,5.2,12.19Zm3.25,4.33c-1.88,1.69-2.68,2.85-1.43,4.74,1.76,2.66,3.16,5.57,5.59,7.74.22.19.69.1,1.25.17l1.9-2.18Zm63.68,13.56h9.86c-.74-3.31-3.77-1.34-5.62-2.57l3-1.41-4-2.61h6.73v-2h-9.46l3,4.44ZM429.06,383h8.84v-4.81L436,376a15.82,15.82,0,0,1-3.22,1.47,17.81,17.81,0,0,1-3.73.06Zm24.63-40.31h-8.54l-1.7,1.7,4.47,3.36-3.73,3.72c2.85,0,6,0,9.13,0,.13,0,.31-.23.38-.39s-.12-.26-.37-.78h-5.57l1.68-3.65L448,345.11C449.92,344.23,452.77,345.82,453.69,342.71ZM451,356.11a8.17,8.17,0,0,0-7.25,2.67v2.52a8.27,8.27,0,0,0,9.87,0C454.63,358.77,452.48,357.75,451,356.11Zm13.25,19.39-1.57,1.75,1.39,2.77-.91,1.33c.5,1.2.83,2,1.12,2.71h5.44l-.36-1.87c-1.49.69-2.78,2.1-4.29.35,0-.38.05-.74.09-1.35l4.48-.55-.15-1.68-4.35-.59,0-.52,4.49-.66-.24-1.69ZM452,370.77h-4.36L443,374l2.2,2.32h7C454.21,374.59,454.62,372.93,452,370.77Zm-20-35,3.25-4.12c.37,1.79.59,2.89.85,4.15l1.86-1.76v-2.73l-3.86-1.77L431,333.42l-2.72-2.77C427.92,335.11,427.91,335.13,432,335.81Zm32.78,28.49,4.92-1.37c-.14-1.89-.24-3.25-.34-4.66-3.2.27-6.07-.26-9.3.42C461.75,360.67,463,362.15,464.81,364.3Zm-33.63-7.8,3.27,4.53,3.43-1.65v-3.49c-1.28-2.86-3.31-1.94-5.4-2Zm2.9-16.27c-3.69,2-3.72,2.1-1.32,5.57h3.62c2.19-1.5,1.77-3.44,1.13-6.18L435,342.29Zm-5.86,6.93a44.06,44.06,0,0,1,4.57,5.51h3.53l1.51-1.51v-4Zm16.94,17c-2.51,3.75-2,4.9,2.9,5.58l2.77-3.23a14.86,14.86,0,0,0,2.11.87c.24,0,.58-.34,1.05-.64l-4-2.58Zm27.64-24,.09-.74-3.16-.45c.07-2.67-.56-4.61-3.08-4.35-1.46,1.24-2.58,2.18-3.82,3.21,0,.7.09,1.58.14,2.33Zm-7.41,25.16-2.88,3.57.52.78,2.89-.8,2.05,1.94,1.52-1.51v-4Zm-2.89-10.5,2.69,2.81,1.43-1.27,3.08,1.18c-.11-2-.19-3.42-.26-4.77h-2.69l-1.09,2.35-1.12-2.34Zm7.23-33.3c-.21-2,.42-3.45-1.28-4.41a5.71,5.71,0,0,0-.75-.28l-1.81,1.82-2.9-1v3.6l4.18-.8Zm-20.19,67-3.79,3.95,3.19,3.08c1.52-1,1.33-3.59,4.65-3.63-1.64-.58-2.46-.65-2.9-1.09A8.67,8.67,0,0,1,449.54,388.42Zm21.23-13.88c-1.17-4.23-4.75-1.41-6.43-3.67-.45-.61-2.39-.1-3.65-.1l-.12.92Zm-42.47-2.85c3.29,3.94,7.44,2.81,10.71,4.52v-1.69ZM445,380c2.9.73,5.81,1.39,8.64,0Zm-9.53,7.73V384.2l-2,.41c.1,1.14.19,2.15.27,3.12Z" fill="#282828"/><path d="M513.71,504.14v-3.39c0-1.81.08-3.62-.05-5.42,0-.48-.7-.91-1.08-1.37V286c0-18,.74-36.08-.25-54-.67-12.07-.68-24.1-.84-36.15s0-24.4-.05-36.6c0-1.24.32-2.48-.89-3.6-1.37-1.28,1.24-2.78.21-4.18-1.3-1.78.21-3,.69-4.43,1.74,2.95,2.2,4.15,2.26,6.08.38,12.27,1,24.54,1.08,36.82.16,30.7.05,61.4.05,92.09,2.27,14.68.83,29.45,1.08,44.17.25,14.88.05,29.76.05,44.64V505.27Z" fill="#3a3a3a"/><path d="M413.13,136.83c-1.55.56-2.78,2-4.83.46-1.09-.84-3.13-.45-4.58-.59-.72.9-1.31,1.65-1.89,2.39l-2.7-4.21,3.79-.57-1.17-1.88c.7-1.33,1.42-2.72,1.91-3.66-.39-2-.73-3.67-1-5.21-.81-.91-1.52-1.68-2.13-2.37l1-1.7c-.55-3.43,1.11-6,.07-8.38l-2.2-.76,2.29-1.06v-2.74l-2.83-.94,3.19-2-.34-.73h-4.34v-2.26c1.64,0,3.38.29,4.33-1.59L398.44,95h2.16v-7.3L398,85.9l4.06-2.72c-.47-2.13-.93-4.19-1.39-6.25h6.78v3.63c1.56,2.34,2.94,2.5,4.65,1.34l-1.61-3.84h2.61l3.39,1.13V87.1l-1-.62-2.66,1.12,1.54,3.16L413,92.69c2.18,2.85.91,5.86,1.28,8.24-1,1.36-1.77,2.35-2.51,3.32l1.34,1.48-1.25,1.39,1.33,2.68-1.34,2.42,2.53,2.81c-1.15,2.31-2.25,4.44-.13,6.58-.13.13-.33.24-.39.4-1.08,3.12-1,9.54.2,12.89C414.36,135.85,414.57,136.72,413.13,136.83Z" fill="#393939"/><path d="M395.05,140.22h-9.63L384.37,138h-1.64c.2,1,.38,1.85.63,3.09-4.18.68-8.7.09-13.18.29.48-.38,1-1.07,1.45-1.08,3.16-.1,6.32-.05,9.85-.05V129.51c0-11.23.09-22.47-.05-33.71A10.11,10.11,0,0,1,385,87.56c-.72-2.23.38-4.2,1.55-5.94.85-1.27,1.88-2.94,4-2.43h2.12c.49,3.21-1,5.15-2.85,7-.14.14-.05.51-.08.92a8.05,8.05,0,0,0,1.6-.24,4.81,4.81,0,0,0,1.07-.8c1.47,2.57-.78,3.68-2,5.29l4.09.63-3.09,4.36,2.88,1.47-5,4c2,0,3.44-.06,4.9,0,.33,0,.6.71.9,1.08-1,.79-2,1.57-2.92,2.39-.17.14-.15.5-.21.75l2,.67v2.36L390,111.53l3.88.82c.21,2.65-2.14,2.6-3.84,4.17h5L393,120.45l2,1.69-1.81,2.29c.31,2,.57,3.6.81,5.16l-2.32.82c2.84-.37,1.71,2.85,3.29,3.56l-1.1,1.18C395,137.23,395,137.23,395.05,140.22Z" fill="#707070"/><path d="M513.71,504.14l2.26,1.13c0,13.54.09,27.08,0,40.61-.06,6.84,1.67,13.52,1.26,20.42-.43,7.12-.09,14.28-.09,21.43V755.85c0,1.69,0,3.38-.06,5.07,0,.32-.7.6-1.08.9,0-6.59.07-13.18,0-19.76,0-1.93.75-4-1-5.84-.56-.61.11-2.42.35-3.66s.62-2.4,1-3.63l-2.71-3c.78-1.5,1.51-2.89,2.42-4.61-.55-1.85,1.12-4.44-1.1-6.49a1.74,1.74,0,0,1,0-1.63c2.06-3.27,1-6.86,1-10.28.15-10.16.1-20.32,0-30.48,0-2.13.74-4.44-1.06-6.34-.28-.3-.1-1.1,0-1.66.35-2.57,1.85-4.85.67-7.81-.91-2.27-.47-5.06-.71-7.62a8.64,8.64,0,0,0-.65-2.54,7,7,0,0,1,.61-6.57,19.73,19.73,0,0,0-1.11-3.58c-.71-1.36,1.79-2.16.33-3.75-1.18-1.27.31-2.61.79-3.91a3.91,3.91,0,0,0,0-2.78c-2.41-4.81-.45-9.89-1-14.8-.06-.52.76-1.14.75-1.13a47.06,47.06,0,0,1-.78-5.83c-.06-16-.12-32,0-48,0-4.61-2-9-1.17-13.64.19-1,.54-2,1-3.63-.11-.17-1.1-1.08-.93-1.62,1.67-5.19-1-10.32,0-15.45.09-.47.69-.84,1-1.26-.35-.39-.7-.81-1.09-1.19-1.48-1.51,1.77-2.41.38-4.35-.9-1.27-.35-3.59-.36-5.45,0-1.66.07-3.34.19-5C512.8,504.38,513.39,504.27,513.71,504.14Z" fill="#353535"/><path d="M416.52,87.1V79.19a13.09,13.09,0,0,0,1.81,2.22,10.63,10.63,0,0,0,2.4,1.12c.5,2.74,1,5.35,1.44,8H420c.86,2,1.57,3.62,2.53,5.82l-2.94-1.43,1.45,3.68-1.2,2.15c.78,1.48,1.48,2.79,1.89,3.55l-1.45,6.4,1.76,3.12-2,2c.39.71.77,1.43,1.1,2.06l-1.35,1.83c1.64,3.64,1.64,6.75.08,9.86,2.53,2.26.53,4.58-.13,6.87l2.38,1.6v1.13h-2.26l-3.38-.26c.47-.85.8-1.43,1.12-2V126.66l.72-4.45-1.85-1.2.91-1.75a35.38,35.38,0,0,1-.87-5.19C416.48,105.08,416.52,96.09,416.52,87.1Z" fill="#656565"/><path d="M422.17,138l-2.38-1.6c.66-2.29,2.66-4.61.13-6.87,1.56-3.11,1.56-6.22-.08-9.86l1.35-1.83c-.33-.63-.71-1.35-1.1-2.06l2-2-1.76-3.12,1.45-6.4c-.41-.76-1.11-2.07-1.89-3.55l1.2-2.15-1.45-3.68,2.94,1.43c-1-2.2-1.67-3.83-2.53-5.82h2.16c.77,1.56,1.54,3.13,2.36,4.78-.35.42-1.06.92-1,1.23,2.32,9-.33,18.3,1.49,27.77-.1.41-.36,1.4-.61,2.39l-2.08-.91c-.1.38-.22.59-.17.71.35.79.74,1.55,1.29,2.69-1.61,1.36-2.11,3.09-.19,4.84C421.71,135,422.24,136.55,422.17,138Z" fill="#3d3d3d"/><path d="M395.05,102.92c-.3-.37-.57-1-.9-1.08-1.46-.11-2.94,0-4.9,0l5-4-2.88-1.47L394.44,92l-4.09-.63c1.26-1.61,3.51-2.72,2-5.29a4.81,4.81,0,0,1-1.07.8,8.05,8.05,0,0,1-1.6.24c0-.41-.06-.78.08-.92,1.83-1.82,3.34-3.76,2.85-7h-2.12a9,9,0,0,1,6.78-2.26l-1.46,3,2.61,2-3.56,5.31,2.71,1.53c-.71,1.4-1.17,2.31-1.54,3L398.44,95l-3.28,1.58c.65,1.4,2.79,2,2.15,4.07v2.26Z" fill="#adadad"/><path d="M398.44,95l-2.37-3.23c.37-.71.83-1.62,1.54-3l-2.71-1.53,3.56-5.31-2.61-2,1.46-3h3.39c.46,2.06.92,4.12,1.39,6.25L398,85.9l2.57,1.81V95Z" fill="#707070"/><path d="M422.17,138c.07-1.41-.46-3,1.11-4-1.92-1.75-1.42-3.48.19-4.84-.55-1.14-.94-1.9-1.29-2.69-.05-.12.07-.33.17-.71l2.08.91q.57,6.21,1.13,12.43c-.28,1.55-1.11,1.37-2.13.7-.4-.26-.84-.47-1.26-.7Z" fill="#1c1c1c"/><path d="M413.13,78.06h-2.61l1.61,3.84c-1.71,1.16-3.09,1-4.65-1.34V76.93a40.9,40.9,0,0,1,4.29,0C412.26,77,412.68,77.68,413.13,78.06Z" fill="#989898"/><path d="M506.93,662.36v2.56L504.67,668H491.11c-.63-2.5-2.59-2.35-4.52-2.26.4-1.55-.51-2.55-1.61-3.26-2.07-1.34-4.24-2.52-6.42-3.79v-6.56l-3.31.22,1.58,2.92-2.4.3-.6-3.69-3.69,1.69-2.69-4.23c.33-.36.86-.71,1-1.18s-.13-1-.22-1.54l-4.1-.21V641.3l2.14-2.14c-.08-1.57-.17-3.32-.26-5H463.2c-.7,1.88-1.41,3.79-2.29,6.13-1-.91-2.45-1.59-2.46-2.3-.05-2.82-1.19-4-4-3.93-.52,0-1.07-.95-1.68-1.53V629l3.94-4.07-5-3.6v-3.79c1.08-.55,3-.33,1.6-2.78h-6.51c.52-2.9,1.5-5.42,1.24-7.79s-1.8-4.46-2.8-6.73c-2.71-.1-2.58-2.38-3.11-5l-5.34-5.32V586l-2.28-2.28V570.75L430.13,567v-3.59l2.05-2c.15-1,.3-2,.48-3.22h2.93v-4.51l-4.87-4.81,5.55-4.2-3.68-6.29c1.54-2.81,4.84-4,6.66-6.92l-3.12-9.28L433.47,520c1.86-.24,3.83.45,5.7-.4-.8-1.62-3.21.47-3.44-1.86H439c.13-1.27.23-2.15.28-2.66l9-7.76,3,2.57c1-3.06,5.55-2.71,6.07-6.84H455l-4.48-.48,3.35-2.92.26.68,2.16-2.15c2,1,4.13-.81,5.49,1.47H460.6c-2.1.78-1,2.14-.7,3.4,2.28,0,4.46,0,6.63-.05.3,0,.57-.71.85-1.08l3.33-1.66-.14-.64h-4.22v-2l4.31-.63c-2.36-.75-4.64-1.24-6.67.37v-2.26l6.78-1.58V491.7H474c.14-1.27.24-2.16.33-3a9.9,9.9,0,0,1,10.25-.39l2.29-1.39,3.35,4-3.41,1.81c4.72.28,7.08-2,8.83-3,1.84-3.31,3.19-5.73,4.53-8.16,0-5.89,0-5.89,3.11-8.83.66,2.54,1.32,5.08,2,7.62a2.3,2.3,0,0,0,.54,0V503l-1.6-2h-2.6c-.35,3.26-.68,6.28-1.06,9.73l.71.77-1,1.11,1.19,1.66c-1.82,2.64-1.83,5.11.22,8.55l-4.1,2.67c2.53,2.6,1.42,5.1.16,7.47l5.57,2.7H499.8l-2.88,4.25,1,1.06-2.07,1,3.45,2.44-7.12,4.19.34.78,2.29-.75,2.16,1.24c-.58,1.5-1,2.56-1.63,4.17l2.25-1.1,1.66,1.9-1.37,2.44h3.43c-.09,1,.5,2.34-1.39,2.32-.29,0-.58.7-.87,1.07h-2a12.74,12.74,0,0,1-.28,2,18.82,18.82,0,0,1-.87,2.09l.78,1.09-1.39,1.39c-.86-1-1.71-2.07-2.95-3.57l2.69-1.31-2.18-5.25c-.74,2.12-1.31,3.77-1.89,5.42-.69,2-1.87,3.92-2,5.92a13.39,13.39,0,0,1-2.3,7.58c-1,1.36-1.16,3.27-1.55,4.47l-5.63,3.33c2.2.32,3.27.83,3.78.49,2.63-1.72,6-2.74,6.58-6.24l5.37-1.62.67,1.85,5.39,2.82-3.58,1.48c.3,2.64.62,5.43.94,8.2l-5.07,3.09v3.72l5,3.76c.7,2.86,1.2,4.74,1.59,6.64.07.35-.3.78-.95,2.3-.82-1.56-1.3-2.49-2.27-4.36v5l2.44,1.09c-.39,3.28-.73,6.14-1.12,9.39l.92,1.17-1.49,3.09,2.24.79a4.75,4.75,0,0,1,.25,1c0,1.3,0,2.6,0,3.77-.79.8-1.46,1.46-2.13,2.13v3.72c2.61,1.34,2.61,1.34,3.26,3.76l-2-1.17v9c1,.86,2.05,1.84,3.22,2.88l-2.34,1.11c1.61,1.48,1.68,2.85.21,4.36-.27.28-.11,1-.14,1.45l2.09.76-.87,1.51,3.13,3.17Z" fill="#4f4f4f"/><path d="M433.47,520l2.66,2.18,3.12,9.28c-1.82,2.93-5.12,4.11-6.66,6.92l3.68,6.29-5.55,4.2,4.87,4.81v4.51h-2.93c-.18,1.19-.33,2.21-.48,3.22l-2.05,2V567l4.35,3.74v12.94l2.28,2.28v3.95l5.34,5.32c.53,2.62.4,4.9,3.11,5,1,2.27,2.54,4.42,2.8,6.73s-.72,4.89-1.24,7.79h6.51c1.4,2.45-.52,2.23-1.6,2.78v3.79l5,3.6L452.75,629v3.5c.61.58,1.16,1.55,1.68,1.53,2.83-.08,4,1.11,4,3.93,0,.71,1.44,1.39,2.46,2.3.88-2.34,1.59-4.25,2.29-6.13H466c.09,1.71.18,3.46.26,5l-2.14,2.14v5.12l4.1.21c.09.53.36,1.1.22,1.54s-.68.82-1,1.18l2.69,4.23,3.69-1.69.6,3.69,2.4-.3-1.58-2.92,3.31-.22v6.56c2.18,1.27,4.35,2.45,6.42,3.79,1.1.71,2,1.71,1.61,3.26-3.08-.38-6.2.59-9.32-.67-1.19-.48-2.94.63-4.42.6-1.25,0-3.25-1.28-3.58-.89-1.69,2.05-2.87.19-4.25-.15a32.34,32.34,0,0,0-7.44-1.25c-3.39-.06-6.77-.86-10.52-1.39l-3.56-6.29h-5.12l-1.87-3c-1.89-.81-3.84-1.3-5.36-2.38-3.36-2.41-6.51-5.12-10.2-8.08.3-1.06.73-2.54,1.24-4.28L414,631.36c.4-1.89.8-3.77,1.23-5.78-1.74-2.17-3.38,1-5.49.52.39-1.82,1.06-3.5,1-5.15s-.88-3-1.45-4.73l-4.87-1.76c-.32-1-.75-2.28-1.24-3.77l.87-1c-.6-3.54-3.41-5.47-5.64-7.84,1.09-2.18,1.09-2.18,1.08-4-.9-2.06-1.29-2.94-1.73-4l-2.52,1.92c-2.07-4.84-5.91-8.81-6-14.56,0-1.43-1.24-2.84-1.69-3.79.25-1.49,1.05-3.09.56-3.77-2.88-4-3.39-9.55-7.78-12.3v-2.79h6.31l2.94-3.66c2.49.1,4.25-.41,5.41-2.24h2.26l1.45,2c2.26-.34,3.94-.61,5.63-.85.81-.12,1.95.36,2-1.14h6.47v-7H393.94c-.11-5.34.09-10.51-.11-15.63H389.4l2.26-3.08v-3.7h19.65c2.27-1.69,1.9-3.51,1.59-5.65H382.61l1.7-2.52,5.86,1.37c.18-1,.37-2,.55-3,1.58-.85,3.66-1,4.72-3.36-2.86-.72-5.45-.18-8-.44-.52-.05-1-.71-1.47-1.08h26.84V503H403l-3.25-3.54v-2.83a8.33,8.33,0,0,0-1.63-.4c-1.85,0-3.71,0-5.55-.07-.31,0-.59-.7-.87-1.08h6.93l3.24-2.26c1.79,1.79,4.43,2.81,5.12,5.79,1.08-2.1,3-1,4.8-1.32l1.88,2.37,3-.2c-.54-.93-.89-1.52-1.23-2.12h6.31l3.86-4.52,4,5.91c.3-.76.42-1.08.54-1.39h3.11a18.73,18.73,0,0,1,1.45-2.63c.34-.45,1.05-.64,1.8-1.06.32,1.46.56,2.54.86,3.93,2.18-3,2.3-3.74,1-5-1.5-1.47-2.91-1.16-4.25.26-.09.1-.36,0-.55,0-.37-.75-.75-1.5-1.13-2.26H438l1.47-4.43c-3,2.18-5.08,3-7.15,1v-1.13c2.22-.14,4.51.35,6.76-.34-1.12-2.21-2.86-1.93-4.5-1.92v-1.13h3.14v-4.47l-.54-.06-.61,3.27c-3.1.78-2.36-2.81-4.25-3.26,0-1.51-1.19-.91-2-1.17a5.38,5.38,0,0,1-1.43-1.09l7.76.74,2.44-1.47-2.07-.74c0-1,2.41-2.22-.22-3.05l4.12-3.44,2.11,3.41c1.5-.63-.68-3.14,1.78-3.69.09,2.91.09,5.49.09,9.18.75-1.69,1.06-2.38,1.38-3.08l7.69-.34c-.27-1-.41-1.47-.59-2.13h-6.2a29.08,29.08,0,0,0-2.37-3.63c-.1-.05-.1-.42-.1-.8h2.57l-.7-.87c.29-.94.56-1.8.8-2.56l6.23,4.1c-.2-2.59,1.29-4.63-1-6.32.75-.78,1.51-1.55,2.25-2.34s1.59-1.68,2.35-2.49c.53.42.81.59.79.63-.18.43-.41.84-.81,1.62l3,1.95-5.36,4.5L455,468h5.56c3.77.34,7.19,2.91,11.57,2-2.36-1.76-5.34-1-7.05-3.17.85-.17,2.16.56,2.26-1.13l4.21,1.16a5.69,5.69,0,0,0-2.55-2.31c-2.23-1.48-5.18-.53-7.31-2.24v-1.13l3.07.79c1.39-2,4.13.16,6.35-1.59l-8.26-.94c.05-.37.14-1,.21-1.56,2.68-.35,5.18.34,7.5-1.22h-8.87c-.25-.93-.49-1.87-.82-3.13l3.08-.26c2.45,1.49,3.22,1.52,7.22,0h-6.09v-1.13l3.33-1,4.58,1.31v-4.83h1.13l1.19,3.69,1.95-1.65a14.84,14.84,0,0,1-2.47,8.82l10.49,2c.41.41,1.06,1.07,1.72,1.72,2-1.82,4.49-.88,6.76-1,3.06-.11,6.17.22,8.13-2.37l3.87,1.2V480.4a2.3,2.3,0,0,1-.54,0c-.68-2.54-1.34-5.08-2-7.62-3.11,2.94-3.11,2.94-3.11,8.83-1.34,2.43-2.69,4.85-4.53,8.16-1.75.93-4.11,3.25-8.83,3l3.41-1.81-3.35-4-2.29,1.39a9.9,9.9,0,0,0-10.25.39c-.09.84-.19,1.73-.33,3h-3.21c-.1-1.69-1.41-1-2.26-1.13l2.26-1.78v-1.61a10.39,10.39,0,0,1,.86-1.12c.43-.42.93-.76,1.4-1.14l1.56-.8-3.7-.56c-.1-1.12-.19-2-.26-2.84l-2.18-.75,1.75-1.9c-.48-1.62-.82-2.74-1.17-3.95l-2.11,1.56-2.72-1.27v3.35l2.11,2.22-2.2.8c.38,1.36-1.38,3.2,1,4.14L464,487.18c-.34.59-.68,1.18-1,1.79,1.87,1.41,1,3.11.25,4.46l.77,1.66v4.52h-2.26c-1.36-2.28-3.51-.45-5.49-1.47l-2.16,2.15-.26-.68,1-1.69c-.41-.58-.8-1.16-1.13-1.64l1.53-2.65-3.51-3.27-2.58,1.55-1.6-1.33-3.06,3.51,3.48,2.89,1.14-.87,3.45,1.79-1.64,1.9c-2.1-.76-4.36-2.91-6.12.69v3.65c.3.37.58,1.06.89,1.08,2.42.09,4.85.09,7.27,0,.31,0,.59-.71.89-1.08L455,503h2.38c-.52,4.13-5.09,3.78-6.07,6.84l-3-2.57-9,7.76c-.05.51-.15,1.39-.28,2.66h-3.22q-1.12-2.26-2.26-4.52c1.87-.23,3.83.44,6.5-.73-1.83-.7-2.94-1.06-4-1.56a7.49,7.49,0,0,1-1.38-1.1,5.43,5.43,0,0,1,1.43-1.1c.77-.25,2,.35,2-1.16,2.39-.93.62-2.78,1-4.06-1.53-2.11-3.44-1.81-5.18-1.31-2.38,1.87-1.47,3.62-.34,5.37v1.13c-.37.44-1,.84-1.08,1.33a21.18,21.18,0,0,0-.05,3.19c-1.18,1.68-3.55,2.6-3.29,5.15l1.58,1.63Zm12.84-37.5h6c2.32-2,1.89-3.63-.1-5.35h-5.82C444.41,478.82,444,480.49,446.31,482.46Zm6.94,7c2.25-2.89,2.25-2.89-.18-5.46-.26.64-.51,1.29-.76,1.93l-5.68-1.1c-1.8,1.61-2.75,2.89-1.22,4.71l1.71-.38-1.21-1.45,2.17-1.8Z" fill="#444"/><path d="M491.11,668h22.5v2.26h-6.68c-19.95,0-40,.88-59.85-.25s-39.62-.4-59.42-.88c-7.29-2-14.74-.93-22.12-1.09s-14.78.69-22-.19c-14.35-1.76-28.71-.41-43-1a23.83,23.83,0,0,1-8.27-2.2h20.12c3.44,2,7.21,1,10.83,1.09,12.61.11,25.29-.74,37.83.21,23.2,1.75,46.39.42,69.58,1,9.94,2.25,20,.85,30,1.08S480.94,668,491.11,668Z" fill="#161616"/><path d="M447,419.37c1.61-.07,3.47.6,4.2-1.71l-4.2-1.73c0-2.6,0-4.8.05-7,0-.3.71-.57,1.08-.86l5.27-1.08.62,1.86-4.66.62c-.05.58-.07.94-.13,1.71l4.55.52v.65l-4.53.45v1.79l4.35.44v4l-1.93.66v3.86l2.1.74c-.08.58-.16,1.22-.32,2.47-2.87-2.42-6.59-2.19-9.14-5Z" fill="#c8c8c8"/><path d="M469.64,413.72a5.67,5.67,0,0,1,.92.39c-.41,1.66-.89,3.31-1.41,5.16-2.46.57-2.52-1.73-3.67-3.75-.19,1.86-.32,3.18-.44,4.4l4.6,1.71c-.22.46-.43.93-.72,1.55l.89,3.28-2.43,2c-.86.17-2.17-.56-2.26,1.13l-1.77-1.41,3.11-1.44-3.37-1.81,3-2.91-2-.71v-5.89l1.55-1.65Z" fill="#c8c8c8"/><path d="M429.07,466.64v-5c3.74-2.56,4.89-2,5.62,2.78l4.14.34.48.59-2.14.47.67.86Z" fill="silver"/><path d="M438,421.76c-3.29,3.91-6,1-8.94.62v-3.73c4.53-1.89,4.53-1.89,8.94.16Zm-6.67-.32h4.31v-1.87h-4.31Z" fill="#c9c9c9"/><path d="M465.12,429.54c.09-1.69,1.4-1,2.26-1.13,3.29,1.71,3.5,4.74,3.39,7.91h-2.26c.4-2.49-1.74-3.06-2.74-4.41L464,434.06A6,6,0,0,1,465.12,429.54Z" fill="#c8c8c8"/><path d="M461.73,462.32c2.13,1.71,5.08.76,7.31,2.24a5.69,5.69,0,0,1,2.55,2.31l-4.21-1.16c-2.48.1-4.94.13-7.06-2.29Z" fill="#b7b7b7"/><path d="M439.48,458.85h-11l2.21-2.24C433.37,457.28,436.72,455.2,439.48,458.85Z" fill="#b4b4b4"/><path d="M409.74,408.07l-4.52-3.39c.92-2.37,2.77-.92,4.14-.85.88.05,1.72,1,2.7,1.56l-2.29.79,1,1.36Z" fill="#282828"/><path d="M434.6,483.79c1.64,0,3.38-.29,4.5,1.92-2.25.69-4.54.2-6.76.34h-1.91c-.13-.56-.28-1.17-.59-2.52.9.56,1.22.75,1.64,1Z" fill="#bebebe"/><path d="M464,434.06l1.78-2.15c1,1.35,3.14,1.92,2.74,4.41-.33,2.1-1.89.83-2.7,1-.65-.76-1.24-1.45-1.82-2.15Z" fill="#6e6e6e"/><path d="M465.12,466.84c1.71,2.15,4.69,1.41,7.05,3.17-4.38.87-7.8-1.7-11.57-2,.44-.38.84-1,1.33-1.08A19.94,19.94,0,0,1,465.12,466.84Z" fill="#afafaf"/><path d="M464,411.46c.43-1.11-1.05-2.86,1.13-3.39-.25,2,.74,3,2.56,3.38.8.16,1.95-.36,2,1.14a41.06,41.06,0,0,1-4.3,0C464.86,412.49,464.44,411.84,464,411.46Z" fill="#cbcbcb"/><path d="M473,447.63c-.1-1.69-1.41-1-2.26-1.13.44-2.12,1.92-.93,3.39-1v2.09Z" fill="#282828"/><path d="M434.6,298.44V303l3.13-3.07c.17,1.54.25,2.22.34,3.05l-2.34,3.34L431.35,305V301l2.08-.73-1.09-1.87Z" fill="#c3c3c3"/><path d="M470.12,301.35c-3.37,1.19-6.51-.55-9.12,1.45L459.21,301l4.42-.45c-.28-1-.57-1.94-1.11-3.78l3.61,1.6,3.05-1.2.39.59-2.17,2.48Z" fill="#bebebe"/><path d="M433.7,290.64c-.76-1.92-3.7-2.74-2.24-5.36.82-.41,1.75-.88,2.83-1.44.17.93.35,2,.74,4.09l1.13-4.42,2.13,4.07Z" fill="#c1c1c1"/><path d="M469.64,310.88V312a16.69,16.69,0,0,1-2.1,1.49,5.4,5.4,0,0,1-2.4.7,4,4,0,0,1-1.67-.73l-1.74.8c-.24-.93-.47-1.86-.8-3.15l1.93-1.37,1.67,2.31C466.09,310.14,468,311.14,469.64,310.88Z" fill="#282828"/><path d="M434.6,313.14,432.34,312l-.91-5.42c.72,1.64,1,2.33,1.34,3.05h3v-3.29c2.89,2.12,3,2.48,1.13,4.53Z" fill="#c4c4c4"/><path d="M438,293.49l-6.37,2.82-.39-.61c.72-.8,1.43-1.61,2.2-2.46l-2.16-.84v-2.13C433.67,291.53,436.32,291.12,438,293.49Z" fill="#c1c1c1"/><path d="M466.39,309.2c-1.36-.82-2.51-1.16-3.05-1.93s-.39-1.92-.68-3.75l3.71,3.35c.61-1.11,1.06-1.93,1.62-2.93l2.24.85Z" fill="#c1c1c1"/><path d="M444.77,310.88l1.13-2.26,1.78,1c1.29-1.85,3.31-.72,5-1,.23.42.43.85.7,1.26.67,1,.85,1.85-.7,2.13-.46-.38-.91-1.06-1.39-1.08C449.13,310.81,447,310.88,444.77,310.88Z" fill="#626262"/><path d="M448,294.12c.11.51.21,1,.37,1.85l4.16.37.29,1.84h-5.54v-4.09Z" fill="#acacac"/><path d="M461.73,314.27l1.74-.8a4,4,0,0,0,1.67.73,5.4,5.4,0,0,0,2.4-.7,16.69,16.69,0,0,0,2.1-1.49c.23,2-.76,3.06-2.67,3.38-1.18.21-2.38.4-4.08.68l-1.16-.67Z" fill="#c7c7c7"/><path d="M449.29,315.4h-1.94l-.43-2.26h5.77c.32.58.65,1.16,1.15,2Z" fill="#ababab"/><path d="M431.32,282.77v-3.9l3,2.82h3.49C435,283.19,433.19,282.25,431.32,282.77Z" fill="#cbcbcb"/><path d="M512.58,286v9c-.37-.29-1.06-.57-1.08-.88q-.13-3.63,0-7.28C511.52,286.59,512.21,286.31,512.58,286Z" fill="#282828"/><path d="M469.64,310.88c-1.65.26-3.55-.74-5.11,1.18l-1.67-2.31c1.8,0,3.61-.08,5.41.05C468.75,309.83,469.18,310.5,469.64,310.88Z" fill="#bdbdbd"/><path d="M434.6,313.14l2.26-2.26v2.26c-2.31.23-.27,2.58-1.95,3.48C434.8,315.36,434.7,314.25,434.6,313.14Z" fill="#282828"/><path d="M345.32,293.92c-2.33-.38-.27-2.12-2.26-3.39h4.52l-2.26,1.89Z" fill="#282828"/><path d="M352.1,290.53c.44-.37.85-1,1.34-1.08a21,21,0,0,1,3.18-.05c-.44.38-.85,1-1.34,1.08A19.81,19.81,0,0,1,352.1,290.53Z" fill="#282828"/><path d="M501.28,557.25h-3.43l1.37-2.44-1.66-1.9-2.25,1.1c.63-1.61,1.05-2.67,1.63-4.17l-2.16-1.24-2.29.75-.34-.78,7.12-4.19-3.45-2.44,2.07-1-1-1.06,2.88-4.25h3.49l-5.57-2.7c1.26-2.37,2.37-4.87-.16-7.47l4.1-2.67c-2.05-3.44-2-5.91-.22-8.55l-1.19-1.66,1-1.11-.71-.77c.38-3.45.71-6.47,1.06-9.73h2.6l1.6,2a61,61,0,0,0,.05,6.2c.19,1.79-.46,3.46-.35,5.31s.39,3.87.32,5.82,0,4.14,0,6.21V539c0,2.26-.58,4.75.17,6.72s-.4,3.56-.22,5.34a58.43,58.43,0,0,1,.05,6.21l-1.81-2.1Z" fill="#6b6b6b"/><path d="M501.28,557.25l2.71-2.1,1.81,2.1v1.13c.66,2.3-.7,3.77-2.43,5.2l2.22.81v94.78L502.2,656c-.58-2.13,1.07-2.88,2-4,.15-.18.13-.51.24-1l-2.06-1.61,1.14-1.37-2.06-.8,2.28-4.46-2.47-1.94,2.21-1.49c-1.55-3.55-1.5-9.56,0-12.65-2-1.59-1.07-3.82-1-5.73s.94-3.82,1-5.74-1.13-3.91-.73-5.62c.47-2-.71-3.5-.45-5.39s-.5-3.81-.83-5.86c2-1.61.78-3.36-.24-5a3.68,3.68,0,0,0,.09-5.35c-.14-.18.11-.67.19-1l2-.71-1.27-2.18,2.44-2.58-2-2c-.19-1-.37-2-.52-2.87l-1.71-.4,1.51-1.51,1.52-8.05-2.25-.79c.25-1.69.51-3.48.76-5.23H499c.29-.37.58-1.08.87-1.07C501.78,559.59,501.19,558.24,501.28,557.25Z" fill="#929292"/><path d="M501.28,640.89l2.47,1.94-2.28,4.46,2.06.8-1.14,1.37,2.06,1.61c-.11.48-.09.81-.24,1-.94,1.1-2.59,1.85-2,4l3.39,3.13V564.39l-2.22-.81c1.73-1.43,3.09-2.9,2.43-5.2.38.3,1.06.57,1.08.9.12,1.49.05,3,.05,4.5v98.58L504.58,664l-3.13-3.17.87-1.51-2.09-.76c0-.47-.13-1.17.14-1.45,1.47-1.51,1.4-2.88-.21-4.36l2.34-1.11c-1.17-1-2.27-2-3.22-2.88v-9Z" fill="#6b6b6b"/><path d="M417.65,126.66v1.13c-.38.29-1.07.57-1.08.88q-.13,3.63,0,7.28c0,.3.7.58,1.08.88-.32.57-.65,1.15-1.12,2l3.38.26c-1.38,2.28-3.53.46-5.58,1.49l-1.2-3.75c1.44-.11,1.23-1,.9-1.93-1.17-3.35-1.28-9.77-.2-12.89.06-.16.26-.27.39-.4-2.12-2.14-1-4.27.13-6.58l-2.53-2.81,1.34-2.42-1.33-2.68,1.25-1.39-1.34-1.48c.74-1,1.49-2,2.51-3.32-.37-2.38.9-5.39-1.28-8.24l1.38-1.93-1.54-3.16,2.66-1.12,1,.62c0,9,0,18,0,27a35.38,35.38,0,0,0,.87,5.19l-.91,1.75c0,1.43-.09,2.87.05,4.29C416.62,125.78,417.27,126.21,417.65,126.66Z" fill="#1c1c1c"/><path d="M397.31,102.92h4.34l.34.73-3.19,2,2.83.94v2.74l-2.29,1.06,2.2.76c1,2.42-.62,5-.07,8.38l-1,1.7c.61.69,1.32,1.46,2.13,2.37.31,1.54.65,3.23,1,5.21-.49.94-1.21,2.33-1.91,3.66l1.17,1.88-3.79.57,2.7,4.21c-.53,2.18-2.28.7-3.39,1.13a8.17,8.17,0,0,1-1.2-4c.2-4.3.07-8.62.07-12.92-.14-2.33.66-4.82-1.24-6.76l1.34-2.44L396,112a4.93,4.93,0,0,0,.77-6.07C397,104.62,397.14,103.77,397.31,102.92Z" fill="#707070"/><path d="M410.87,312h-3c-.19,1-.38,2-.64,3.39H393.92L393,315c.5-2.42,4.6-1.45,4.31-4.94-2.18-.68-4.54-.23-6.84-.31s-4.35,0-7.37,0l1.8-2.27c0,1.52,1.17,1.12,2,1.12q11.67,0,23.36,0c.52.86,1.08,1.72,1.53,2.63C411.78,311.34,411.17,311.75,410.87,312Z" fill="#1c1c1c"/><path d="M451.11,327.93l.76-2.15c.27.11.64.14.77.33,1.08,1.65,1.06,1.66.74,5l-5.1-1.19V332c1.66,1.11,4.5-1,5.28,2.35l-4.05.42v4.1l5.53.63-3.59,1.09c-2,.16-5.28,2.21-7.83-1,1.18-.34,2.49-.37,3.25-1s1.18-2.07,2-3.62l-5.61-.63,3.76-2.85v-5Z" fill="#bbb"/><path d="M397.31,123.27c0,4.3.13,8.62-.07,12.92a8.17,8.17,0,0,0,1.2,4h-3.39c-.05-3-.05-3-1.13-5.07L395,134c-1.58-.71-.45-3.93-3.29-3.56l2.32-.82c-.24-1.56-.5-3.2-.81-5.16l1.81-2.29Z" fill="#c6c6c6"/><path d="M427.9,370.58l3.5-4.17-3-4.44h9.46v2h-6.73l4,2.61-3,1.41c1.85,1.23,4.88-.74,5.62,2.57Z" fill="#ccc"/><path d="M453.69,342.71c-.92,3.11-3.77,1.52-5.66,2.4l1.41,1.55-1.68,3.65h5.57c.25.52.4.69.37.78s-.25.39-.38.39c-3.14,0-6.28,0-9.13,0l3.73-3.72-4.47-3.36,1.7-1.7Z" fill="#c7c7c7"/><path d="M451,356.11c1.44,1.64,3.59,2.66,2.62,5.21a8.27,8.27,0,0,1-9.87,0v-2.52A8.17,8.17,0,0,1,451,356.11Zm-5,4.7c1.92-.68,3.88.56,5.61-.77-.14-.66-.21-1-.31-1.5H446Z" fill="#c5c5c5"/><path d="M432,335.81c-4.12-.68-4.11-.7-3.74-5.16l2.72,2.77,3.12-3.84,3.86,1.77v2.73l-1.86,1.76c-.26-1.26-.48-2.36-.85-4.15Z" fill="#c6c6c6"/><path d="M464.81,364.3c-1.82-2.15-3.06-3.63-4.72-5.61,3.23-.68,6.1-.15,9.3-.42.1,1.41.2,2.77.34,4.66Zm1.11-.72c.94-1.24,2.36-1.22,2.15-3l-3.32.3C465.18,361.84,465.42,362.42,465.92,363.58Z" fill="#cacaca"/><path d="M431.18,356.5l1.3-2.61c2.09.06,4.12-.86,5.4,2v3.49L434.45,361Zm5.58-.12h-3.43c.17.81.27,1.32.49,2.4Z" fill="#c7c7c7"/><path d="M434.08,340.23l1,2.06,2.47-2.67c.64,2.74,1.06,4.68-1.13,6.18h-3.62C430.36,342.33,430.39,342.21,434.08,340.23Z" fill="#c5c5c5"/><path d="M428.22,347.16h9.61v4l-1.51,1.51h-3.53A44.06,44.06,0,0,0,428.22,347.16Zm4,2.86,2.69,1.77,1.95-2-2.59-2.18C433.5,348.58,432.94,349.24,432.25,350Z" fill="#c7c7c7"/><path d="M431.21,316.53c.6,2.22,2.37,2.48,4.71,3l-2.77,1.26-3.83-1.14c-.56,1.8-1,3.29-1.5,4.79l-3.52-2.74a8.15,8.15,0,0,0,5.22-5.17Z" fill="#1c1c1c"/><path d="M465.15,408.07c-1.44-2-2-3.93.5-5.49h3.86v3.87L468,408.07Z" fill="#cbcbcb"/><path d="M465.12,329c-.75-1-1.49-2-2.47-3.36l3.14-3.67,3.85,1.9v2.87a15.9,15.9,0,0,1-2.11,1.5A15.73,15.73,0,0,1,465.12,329Zm0-2.56h2.4c-.17-.81-.27-1.32-.42-2l-2,.41Z" fill="#c7c7c7"/><path d="M462.5,354.75l2-2,1.12,2.34,1.09-2.35h2.69c.07,1.35.15,2.73.26,4.77l-3.08-1.18-1.43,1.27Z" fill="#c6c6c6"/><path d="M465.12,329a15.73,15.73,0,0,0,2.41-.76,15.9,15.9,0,0,0,2.11-1.5l2.25,2.77-2.25,2.88a5.17,5.17,0,0,1-4.52-2.26Z" fill="#1c1c1c"/><path d="M468.51,392.25l2.21,1.48-2.32,3.88c-3.07,1.11-4.07-1.25-5.94-3l2.66-2.34v3.46l3.39-.29Z" fill="#c7c7c7"/><path d="M469.73,321.45l-2.56-1.08-4.18.8v-3.6l2.9,1,1.81-1.82a5.71,5.71,0,0,1,.75.28C470.15,318,469.52,319.48,469.73,321.45Z" fill="silver"/><path d="M459.06,341.51c4.45-.31,7.75,2.24,11.82,2.18-.19,1-.31,1.64-.52,2.71C466.88,343.93,462.39,345.08,459.06,341.51Z" fill="#a2a2a2"/><path d="M449.54,388.42a8.67,8.67,0,0,0,1.15,2.31c.44.44,1.26.51,2.9,1.09-3.32,0-3.13,2.67-4.65,3.63l-3.19-3.08Z" fill="#bdbdbd"/><path d="M470.77,374.54l-10.2-2.85.12-.92c1.26,0,3.2-.51,3.65.1C466,373.13,469.6,370.31,470.77,374.54Z" fill="#c5c5c5"/><path d="M428.3,371.69,439,374.52v1.69C435.74,374.5,431.59,375.63,428.3,371.69Z" fill="#afafaf"/><path d="M465.12,330.09a5.17,5.17,0,0,0,4.52,2.26c-.3.38-.58,1.06-.89,1.08-1.85.1-3.7.05-6,.05.52-.84.82-1.32,1.11-1.77l-1.32-1.62Z" fill="#b4b4b4"/><path d="M438,393.38V390l3.76-2.5c2.05,2.48-.78,2.05-1.21,2.92C439.91,391.69,439.58,393,438,393.38Z" fill="#353535"/><path d="M435.44,387.73h-1.75c-.08-1-.17-2-.27-3.12l2-.41Z" fill="#a3a3a3"/><path d="M512.58,494c.38.46,1,.89,1.08,1.37.13,1.8.05,3.61.05,5.42-.37-.46-1-.9-1.07-1.38C512.51,497.58,512.58,495.77,512.58,494Z" fill="#353535"/><path d="M412,324.44l-1.13-3.39a7.55,7.55,0,0,1,2,1.56C413.39,323.37,413.39,324.37,412,324.44Z" fill="#1c1c1c"/><path d="M397.31,100.66c.64-2.07-1.5-2.67-2.15-4.07L398.44,95l3.2,4.06C400.69,101,399,100.67,397.31,100.66Z" fill="#707070"/><path d="M397.31,123.27l-2.26-1.13-2-1.69,2.06-3.93h-5c1.7-1.57,4.05-1.52,3.84-4.17l-3.88-.82,3.89-2.44v-2.36l-2-.67c.06-.25,0-.61.21-.75.94-.82,1.94-1.6,2.92-2.39h2.26c-.17.85-.33,1.7-.57,3A4.93,4.93,0,0,1,396,112l1.44,2.12-1.34,2.44C398,118.45,397.17,120.94,397.31,123.27Z" fill="#c5c5c5"/><path d="M417.65,136.83c-.38-.3-1.07-.58-1.08-.88q-.13-3.64,0-7.28c0-.31.7-.59,1.08-.88Z" fill="#393939"/><path d="M417.65,126.66c-.38-.45-1-.88-1.08-1.36-.14-1.42-.05-2.86-.05-4.29l1.85,1.2Z" fill="#393939"/><path d="M499,560.64h2.9c-.25,1.75-.51,3.54-.76,5.23l2.25.79-1.52,8.05-1.51,1.51,1.71.4c.15.82.33,1.85.52,2.87l2,2-2.44,2.58,1.27,2.18-2,.71c-.08.35-.33.84-.19,1a3.68,3.68,0,0,1-.09,5.35c1,1.69,2.21,3.44.24,5,.33,2.05,1.08,4,.83,5.86s.92,3.42.45,5.39c-.4,1.71.76,3.74.73,5.62s-1,3.82-1,5.74-1,4.14,1,5.73c-1.54,3.09-1.59,9.1,0,12.65l-2.21,1.49c-.65-2.42-.65-2.42-3.26-3.76v-3.72c.67-.67,1.34-1.33,2.13-2.13,0-1.17,0-2.47,0-3.77a4.75,4.75,0,0,0-.25-1l-2.24-.79,1.49-3.09-.92-1.17c.39-3.25.73-6.11,1.12-9.39L496.9,611v-5c1,1.87,1.45,2.8,2.27,4.36.65-1.52,1-1.95.95-2.3-.39-1.9-.89-3.78-1.59-6.64l-5-3.76v-3.72l5.07-3.09c-.32-2.77-.64-5.56-.94-8.2l3.58-1.48-5.39-2.82-.67-1.85-5.37,1.62c-.6,3.5-4,4.52-6.58,6.24-.51.34-1.58-.17-3.78-.49l5.63-3.33c.39-1.2.59-3.11,1.55-4.47a13.39,13.39,0,0,0,2.3-7.58c.09-2,1.27-4,2-5.92.58-1.65,1.15-3.3,1.89-5.42l2.18,5.25-2.69,1.31c1.24,1.5,2.09,2.54,2.95,3.57l1.39-1.39-.78-1.09a18.82,18.82,0,0,0,.87-2.09,12.74,12.74,0,0,0,.28-2Z" fill="#6b6b6b"/><path d="M460.6,499.61v1.14c.45.37.89,1,1.37,1.07,1.79.13,3.6.06,5.41.06-.28.37-.55,1.06-.85,1.08-2.17.09-4.35.05-6.63.05C459.62,501.75,458.5,500.39,460.6,499.61Z" fill="#444"/><path d="M401.83,492.83l1.57-2.33,4.45,4.31,1.67-3.21c.84.42,1.16.48,1.34.68,1.54,1.66,1.91,4.37,4.53,5.07.34.6.69,1.19,1.23,2.12l-3,.2-1.88-2.37c-1.84.36-3.72-.78-4.8,1.32C406.26,495.64,403.62,494.62,401.83,492.83Z" fill="#353535"/><path d="M465.12,484.92H473c-.47.38-1,.72-1.4,1.14a10.39,10.39,0,0,0-.86,1.12l-3.39,1-3.39-1Z" fill="#818181"/><path d="M433.47,513.18h-1.13a21.18,21.18,0,0,1,.05-3.19c.08-.49.71-.89,1.08-1.33l1.13,1.13a7.49,7.49,0,0,0,1.38,1.1c1,.5,2.16.86,4,1.56C437.3,513.62,435.34,513,433.47,513.18Z" fill="#bebebe"/><path d="M397.31,552.73h9c0,1.5-1.15,1-2,1.14-1.69.24-3.37.51-5.63.85Z" fill="#353535"/><path d="M444.77,504.14h9.05c-.3.37-.58,1.06-.89,1.08-2.42.09-4.85.09-7.27,0C445.35,505.2,445.07,504.51,444.77,504.14Z" fill="#4f4f4f"/><path d="M434.6,509.79l-1.13-1.13v-1.13H438c0,1.51-1.19.91-2,1.16A5.43,5.43,0,0,0,434.6,509.79Z" fill="#4f4f4f"/><path d="M414.26,481l2.75-2.76c1.82-.34,3.47,0,4,1.93,1,3.74,2.31,7.55-.25,11.25l-3.6,1.61-2.89-3.64Z" fill="#3d3d3d"/><path d="M391.09,487.12c-1.07-2.18.28-4.26,1.85-6.5H397l2.49,2.81v4.48l-3.32,2.54H393.1Z" fill="#3a3a3a"/><path d="M431.84,397.9h3.31c1.34,1.1,2.37,2.31,1.45,4.35h-6.1C429.36,400.74,430,399.43,431.84,397.9Z" fill="#373737"/><path d="M431.32,421.44v-1.87h4.31v1.87Z" fill="#262626"/><path d="M449.69,405.22c-.2-1.13-.32-1.76-.48-2.61h4.06Z" fill="#464646"/><path d="M392.1,268.06h2.72v12.48l-5.25-3.64C389,273.44,389.45,270.53,392.1,268.06Z" fill="#1e1e1e"/><path d="M407.48,327.71l-3.19,1.5c-2.68-1.45-3.93-3.72-4.91-6.73,1.16-.11,2.17-.25,3.19-.29s2.22,0,3.18,0l1.73,1.68Z" fill="#242424"/><path d="M430.38,377.66l2.4,2.94-2.4.48Z" fill="#5e5e5e"/><path d="M446,360.81v-2.27h5.3c.1.5.17.84.31,1.5C449.89,361.37,447.93,360.13,446,360.81Z" fill="#292929"/><path d="M451.49,373.67l-4,2-1.08-3.15C446.8,371.47,448.82,371.44,451.49,373.67Z" fill="#454545"/><path d="M465.92,363.58c-.5-1.16-.74-1.74-1.17-2.72l3.32-.3C468.28,362.36,466.86,362.34,465.92,363.58Z" fill="#343434"/><path d="M436.76,356.38l-2.94,2.4c-.22-1.08-.32-1.59-.49-2.4Z" fill="#151515"/><path d="M432.25,350c.69-.78,1.25-1.44,2.05-2.36l2.59,2.18-1.95,2Z" fill="#585858"/><path d="M447.87,367.38h-1.64c-.12-.57-.25-1.19-.41-2l2.05-.41Z" fill="#424242"/><path d="M465.22,350.79v-2.42h3.2C468.69,351.72,466.46,349.83,465.22,350.79Z" fill="#565656"/><ellipse cx="466.81" cy="338" rx="2.23" ry="1.35" fill="#4d4d4d"/><path d="M468.51,392.25v3.17l-3.39.29v-3.46Z" fill="#2c2c2c"/><path d="M468.41,387.92v1.87h-3.19v-1.87Z" fill="#333"/><path d="M465.12,326.4v-1.64l2-.41c.15.73.25,1.24.42,2Z" fill="#191919"/><path d="M452.67,495h-2c-.11-.58-.21-1.08-.32-1.67C451.84,492.46,452.77,492.48,452.67,495Z" fill="#535353"/><path d="M468.56,490.44c-.06.81-.12,1.49-.21,2.72L464.17,491Z" fill="#3d3d3d"/><path d="M433.38,515.27v3.32l-1.95.38c-.09-1.12-.17-2.12-.27-3.27Z" fill="#767676"/><path d="M467.38,501.88c-1.81,0-3.62.07-5.41-.06-.48,0-.92-.7-1.37-1.07,1.8,0,3.61-.08,5.41.05C466.49,500.83,466.92,501.5,467.38,501.88Z" fill="#4f4f4f"/><path d="M466.54,481.53h1.64c.12.57.25,1.2.42,2l-2.06.41Z" fill="#373737"/><path d="M452.65,479.8c-2.95,2.34-3.37,2.36-6.51.27C450,477.76,450,477.76,452.65,479.8Z" fill="#626262"/><path d="M433.07,504.69l3.51-2.17v4.4Z" fill="#545454"/></svg>