<svg id="Layer_1" data-name="Layer 1" xmlns="http://www.w3.org/2000/svg" viewBox="0 0 800 800"><path d="M602.89,118.19c9,1.17,18.11,1,26.63,4.73,1.4.61,3.26,0,4.87.29s3,1,4.46,1.16c8,.76,15.61,3.26,23.35,5.2,2.08,2.44,5.69-.26,7.74,2.31,4.45-1.31,7.64,3.43,12,2.5,4.2,3,9.41,3.38,13.88,5.48,2,.95,4.51-.44,6.09,1.94,1.39,2.09,4.11,1.95,6.24,2.82,2,.8,3.57,2.42,5.93,2.2,2.45,3,6.41,3.69,9.26,6.31,3.5,3.23,6.44,6.94,9.62,9.9.95,2.47,1.78,4.61,3,7.71.32,7.43,2.14,15.85,1.39,24.43,2.61,11.34.73,22.86,1.16,34.29.08,2.27.94,4.21,1.28,6.32.76,4.85-1.08,9.47-1.69,14.2-.12.94-.77,1.88-.71,2.78.86,12.31-1.75,24.48-1.37,36.78.29,8.95-2,17.83-1.16,26.83-2.51,7.59-.85,15.4-1.19,23.1-.21,4.83-1.8,9.47-1.39,14.41s.83,10.08-.13,14.86c-.88,4.45-.28,8.92-1.2,13.16-.82,3.8-.85,7.7-2.18,11.49a30,30,0,0,1-11.37,14.79c-2.51,1.8-5.26,3.27-7.92,4.87-1.33.8-2.69,1.58-4.5,2.63h-2.49a4.3,4.3,0,0,0-1.85-1.28,4.3,4.3,0,0,1,1.85,1.28c-1.17,2.78-4.05,3.51-6.26,4.91-4.94,3.14-10,6-14.38,10a49.06,49.06,0,0,1-9,6.53c-3.61,2.05-6.09,5.23-9.07,7.91a29.23,29.23,0,0,1-2.35,1.75c-1.57.37-3.08,1.34-5.29.1-1.81-2.25-3.91-5-7-6.84-1.92-1.13-2.88-2.94-1.58-5.24,2.66-2.76,5.41-1.23,8,.07,4.63,2.39,8.08,1.59,11.24-2.72,5.6-7.63,13.44-13.37,18.2-21.81,1.74-3.09,5.59-4.18,9-5,3.74-.92,6.45-3,7.68-6.58,2.85-8.31,8.37-12,17.16-10.53a5.24,5.24,0,0,0,1.85-.07,2.24,2.24,0,0,0,1.1-.54c.31-.3.64-.67.6-1.05-1.21-9.91-14.07-20.7-23.45-22.11-9.6-1.44-19.34-2-28.78-3.83-8.28-1.6-16.46-.61-24.66-1.42-9.86-1-19.66-2.69-29.63-3-23.35-.65-46.59-3.89-70-3.48a69.15,69.15,0,0,1-10.57-.46c13.4.45,26.1,5.67,39.47,6,11.12.27,21.58,3.36,32.21,5.88,2.84.67,5.39,1.46,5.48,4.83s-2.6,4.29-5.28,5.12c-2.85.88-5.78,1.32-8.55.25-5.8-2.23-11.72-2-17.76-1.82-5.7.2-10.31.48-14.37,6.1-3.3,4.55-10,4.25-15.57,2.31-7.89-2.72-9.43-2.24-13.36,4.92-3.59,6.54-8.8,11.87-13.87,18.68-11,1.49-22.64,3.68-32.55,8.71-2.34,1.66-2,4.11-3.86,5.05-3.16,1.28-6.22.26-9.3-.34-1.88-.65-2.53-2.69-4.3-3.8-3.66-.49-7.81-.18-11.22-4.35-.19-5.39-2.86-10.58-6.41-15.59a11.66,11.66,0,0,1-.78-12.72c-9-12.26-19-14.71-29.76-11.67-4.34,1.23-7.54.67-10.82-2.18s-7.87-3.6-11.63-5.79c-1.75-1-4-1.27-4.59-3.92.53-3.53,3.47-3.37,6.09-3.72,12-1.59,24.07-2.4,36.08-3.86a62.18,62.18,0,0,1,11.09.05c22.43,1.29,44.28-4.2,66.5-5.15.7-.13,1.39-.27,2.07-.45,12.23,1.66,24.56,2.76,36.82,1.5,16-1.64,31.91.18,47.85-.68,10.39-.57,15.6-6.36,18.45-15.45,3.21-5.35,2.58-10.43-.92-15.44-1.58-2.24-2.76-4.85-.75-7.44a6,6,0,0,1,7.14-2.26,4.68,4.68,0,0,0,3-.32,5.14,5.14,0,0,1,4.85.05c2.52,2.54,1.68,5.22.74,8.23s-1.91,6.12-2.49,8.19c.92-4.28,4-9.17,3.19-14.92-.36-5.54-.8-10.88-5.37-15.12-1.66-1.54-.78-4.42,1.1-6.15a11.17,11.17,0,0,0,3.63-8.91,5.75,5.75,0,0,1,1.23-4.09c5.51-6,5.28-13.7,5.82-21.09.47-6.37-.15-12.7,1.56-19.11,1.32-5-2.73-9.62-3.46-14.78-1.08-7.56.87-10.49,8.34-8.67,6.28,1.54,12.22,1.78,18.19-.86a297.31,297.31,0,0,1,45.94,14.87c2.79,1.71,6,2.71,7.73,4.48-3.43-3-8.6-4.53-13.37-6.9a372.16,372.16,0,0,0-38.26-12.06c-9.42-2.33-18.82-4.67-28.53-5.52A681.4,681.4,0,0,0,564.26,191c-14.76-1.34-29.52-2.66-44.33-3.29-3.75-.16-7.66-.2-10.78-2.91a3.56,3.56,0,0,1-.14-3.53,4.8,4.8,0,0,1,4.83-1.94c5.12.66,10.3.67,15.39,1.6,9.66.19,19.28,1,28.91,1.48,8.59,3.53,17.78,1.73,26.67,2.8,13.12,1.58,26.15,3.89,39.34,4.89,4.49.34,9.13.55,12.17-3,1.52-4.15-2.35-5.43-3.43-9.09,1.87-8.94-2.74-17-7.89-24.88-1.5-2.82-7.52-2.78-5.6-7.24,1.49-3.09,4.21-2.79,5.51-4.75.63-2.91-1.49-4.52-3.55-5.74-6-3.55-11.69-7.83-19-8.52-2.69-.26-4-1.77-4-3.72C599,120,601.67,119.81,602.89,118.19Z" fill="#cfcfcf"/><path d="M178.43,125.66c6.73-1.33,13.34-3.19,20.21-3.8,2.88-.26,5.68-1.25,8.52-1.9a16.83,16.83,0,0,1,2.27-.51c4.8-.45,9.66-.53,14.38-1.4a53.9,53.9,0,0,1,7-1.16c2.33-.12,4.6.35,7.06-1,1.92-1,5.15.5,7.28-.37,3.77-1.52,7.84,0,11.22-1.44,3.91-1.64,7.78.09,11.42-1,4.58-1.34,9.32-.42,13.77-1.33,5.26-1.09,10.64-.13,15.63-1.3,5.31-1.24,10.49-.64,15.71-1,2.24,3.28.29,5-2.48,6.14-1.65.69-3.69.5-5.21,2.47,4.45,5.35,11,7,17.08,8.73,4.36,1.23,8.57,2.91,12.81,4.34,4.63,1.56,4,5.95,2.8,9.7,5.94-3.32,8.29-1.69,14.09,10.11,4.11,2.81,9.43,4.5,10,9.83-.57,3.15-3.16,3.66-3.81,5.22a16.74,16.74,0,0,0,4.92-6.57c2.35-1.33,4.18-1,5.12,1,2.1,4.42.1,8-3.73,10.94,2.88,2.43,7.1,2.84,6.88,7a3.71,3.71,0,0,1-3.42,3.78c-28.87,1.24-57.74,2.49-86.45,5.59-7.16.78-14.88,0-21.6,3.84a33.12,33.12,0,0,1-8.64,1.21c-.68,0-1.35,0-2,0a24.24,24.24,0,0,0-15.06.46c-14-.28-27.72,2.42-41.46,4.68a55.86,55.86,0,0,0-9,1.85c-5.08.53-10.16,1.25-15.29,1.09-8.23-2.62-10-6.22-7.17-14.48,1-2.9,1.08-6,1.58-9,1.71-9.82,6.95-18.13,10.21-27.23,2.39-6.66,8-11.25,11.88-16.94C184.21,129.51,177,131.19,178.43,125.66Z" fill="#828282"/><path d="M368.88,180.43l.91-1.94-1.47-3h-2.49l-2.4,3.78-.79-.35c.33-1,.66-1.94,1-3-2.42-2-3.84.86-5.89,1.84.86-1.91.51-4.34,3.39-5.43v-4.05l4.77-1.95c-1-2.1,1.45-4.31-.07-7.21a45.81,45.81,0,0,1-2.79,4.09c-1.2,1.41-2.61,2.66-4,4,.36.59.72,1.21,1.2,2l-5.14,4.27v2.81l-2.11.65c-.16-1.93-.31-3.67-.43-5.09,1.4-2.05,3.29-3.71,3.66-5.65.48-2.55,2.3-2.93,3.85-3.55.32-2.4-.29-3.94-2.7-4.73l-3.12,2.63c-.13-.67-.45-1.28-.32-1.78.34-1.29.87-2.54,1.68-4.82l-5,3.4-.72-4-1.36,2.1h-4.27c0-.35,0-.73.1-.91,1.48-1.86,3-3.69,4.52-5.53-2-3.24-4.54-2.46-7.06-1.12l-1.5-1.5,4.35-5.24c-4.28-1-5.15,3.45-8.62,2.7.92,1.58,1.27,2.2,1.89,3.27l-3.5,3.66-1.87-2.26c.94-2.08,1.86-4.11,3-6.65l-3.78,1.47c-.19-.93-.3-1.49-.41-2l4.36-1.66v-6.29h-2.45L331.08,137c-.75-5.53-5.14-5.35-7.53-7.38L316.86,133l-1.58-1.92c.51-1.27,1-2.46,1.61-4h-4.82c-3.15-1.74-6.25-2.44-7.33-4.3-1.45-2.48-4.21-2.57-5.05-4.61l-4,1.24-.6-.88,3.25-4c3.64-.18,7.46.76,10.15-2.52l1.5,1.36c1.95-.55,3.2-1.58,2.9-3.85,2.28.47,4.92-1.08,7,1.28l.86-2.49c6.65,0,13.41,0,20.17,0,.43,0,.85.73,1.38,1.21.3-.82.55-1.54.91-2.53,10,0,20-.14,30.11,0,9.76.17,19.4-2.19,29.19-1.28,4.07,1.73,8.56-.42,12.71,1.21.43,3.76-2.89,4.16-5,5.79,2.85,1.29,5.73,2.43,4.31,5.58,5.51-1.79,9.41,3,14.21,4,2.2,5.72,5.69,10.59,4.34,16.76,6.84-2.65,11.33.63,11.95,8.87.29,4-.92,7.76-1.75,11.5,3.6-2.77,12.85-.4,14.07,3.94.93,3.3,0,5.83-4.32,5.15a2.41,2.41,0,0,0-1.94-.81c.89-.15,1.42.41,2,1,2,3.63,2,3.63.78,8.13-2,1.78-5.07,2.12-6.91,3.9-6.11.6-11.91-.2-17.67.53-5.32,1.34-10.6.34-15.94.12-12.13-.48-24.23,1.65-36.39.84C374.16,182.08,371,183.29,368.88,180.43Z" fill="#939393"/><path d="M143.58,451.78h-1.83c-4.68-4.25-9.26-8.58-14-12.67-1.89-1.61-4.3-2.6-6.38-4-2.31-1.57-4.5-3.3-7.47-5.49h-1.51a51.78,51.78,0,0,0-14.79-9.07A38.14,38.14,0,0,1,87.47,415c-2.64-2.17-5.31-4.29-7.81-6.6-3.27-3-5.67-6.52-5.84-11.24a15.52,15.52,0,0,0-1.19-3.83c1.45-8.54,8.19-10.81,15.14-13.19,8.93-3.06,17.89-5.79,27.38-6.34,15.27-2.84,30.75-3.46,46.16-4.9,12.67-1.18,25.41-1.48,38-3.1a13.39,13.39,0,0,1,4.09-.24c2.34.41,4.41,1.24,4.71,3.95a4.28,4.28,0,0,1-3.15,4.8c-4.5,1.29-7.93,4.44-12,6.39-5.93,2.83-7.47,7.66-6.19,13.4,1.8,8.05,4.13,16,8,23.34,3.43,6.48,1.23,12.45-5.89,13.49-8.66,1.27-16.47,4.71-24.42,7.89A108,108,0,0,0,143.58,451.78Z" fill="#d1d1d1"/><path d="M429.87,179.18c3,.54,3.7-2.61,6-3.8.18,1.3.35,2.43.5,3.47,3.38,1.74,6.81-3.33,10.16.92l1.11-2.57,4.68-1.77V168a6.8,6.8,0,0,0,2.27-.49,3.7,3.7,0,0,0,1.41-1.86,8.39,8.39,0,0,0,.05-2.48h-6.84l-2.09,2.09c.45-2.35.88-4.57,1.44-7.43-2.68,1.44-2.67,5.26-6,4.56v5.37l-3.86.3c.89-2.43,1.64-4.5,2.44-6.67L440,160c.71-4.68,2.69-9.25,2.24-14.64l-3.79,1.35c.49-2.57.93-4.9,1.54-8.11l-6.57,3.54,1.21,1.4c-.46,1-1,2.07-1.55,3.24h-2.55c-.4.84-.81,1.68-1.22,2.52h-1.7c-.11-1.71-.22-3.48-.35-5.67l2-1.09c.55-2.63.93-4.5,1.37-6.61l-2.12-.71c.46-1.18.92-2.34,1.54-4l-2.63-1.08v-5.3l-8.07-3.1-2.75,3.81c-.8-2.5-.54-4.93-.11-7.68a40.12,40.12,0,0,1-3.61,4,55.29,55.29,0,0,1-5.11,3.54l-.41-3.3,6.16-3.19v-3.75L409.05,118c-.33-.56-.84-1.42-1.48-2.48l-6.39.91c.48-3.74,3.37-5.76,5.87-8.43l2.54,1.46,5.3-1.76c-3.36-.82-6.78-.63-10.18-.72-.9,0-2.2.48-2.22-1.23,17.8,0,35.61-.13,53.41.06,8.11.08,16.38-.07,24.28,1.44,7,1.32,13.79.44,20.65,1,.27,4.21-2.94,3.73-4.51,4-1.84.17-1-.76-1.2.06,0,.15.16.1.55.14,2.74.31,4.56-2.12,7-2.41,3.44.47,3.32,4.15,6.05,6,11.09,1.85,8.68,12.4,11.71,19.09.51,8,10.48,6.23,11.7,12.77-.79,5.1-6,7.87-6,13.25,3.2,3.15,7.08,6.15,4.93,11.27.94,2.58,3.66,4,3.17,6.07-.63,3.41-2.74,3.84-4.75,4.4-3.5,0-7.05-.33-10.51.09s-6.17-1.66-9.4-1.34c-6.16,3.76-13,2.19-19.37,1.63-17.79-1.57-35.57-.57-53.35-1.08C434.29,182.14,430.7,183.54,429.87,179.18Z" fill="#ababab"/><path d="M115,375.85a84.79,84.79,0,0,0-15.24,3.74c-7.45,2.49-14.89,5-22,7.43l-3.22,6.26H72.63c-.42-3.14-1-6.27-1.2-9.43s.69-6.85-.22-9.88c-1.28-4.24-.28-8.52-1.21-12.56-1.38-6.05-.27-12.22-1.32-18.11-.87-4.86-.21-9.75-1.19-14.4-1.28-6.08-.07-12.28-1.31-18.11-1.31-6.13-.53-12.14-1.05-18.17-.25-2.95-1-5.86-1.17-8.81s.76-6.11-.23-8.62c-1.59-4.05-.72-8-1-12-.13-1.64,0-3.31,0-5-.06-1.4.13-3-.5-4.13-1-1.71,1.29-2.66.54-4.17a17,17,0,0,1-1.16-10.64c2-11.62,0-23.38,1.4-34.89,1-8,.23-15.88,1.11-23.73.63-5.59,2.08-11.16,6.71-15.21,3-2.63,5.32-6.11,9.35-7.45,4.08,1,5.43,3.36,3.94,7.37a14.21,14.21,0,0,0-.54,7.37,110.62,110.62,0,0,1,1,32.09c-.5,4.17-1.1,8.64,1.48,13,9.19.13,16.42-6.89,25.46-6.92,1.26-.12,2.53-.45,3.73.25a3.45,3.45,0,0,1,1.76,2.14c0,4-3.44,4.3-6,5.14-12.17,4.07-24,8.88-34.21,15.68,3.22-.8,5.51-5.46,10.25-4.23,3.59,1.06,4.71,3.75,4.72,7.15,0,10.55,0,21.09-.31,31.66-.38,12.35,1.42,24.7,2.17,37.06,1,16.52,4.09,32.84,4.2,49.44.08,10.85,3.51,13.71,14.39,13.9,14.32.25,28.17-3.52,42.32-4.57,4.64-.35,9.41-1.78,13.82,1.09.16,4.36-3.7,3.28-5.62,3.44-10.17.83-20.22,2.58-30.34,3.67A91.78,91.78,0,0,0,115,375.85Z" fill="#b7b7b7"/><path d="M602.89,118.19c.54,3-2.59,3.72-4.2,6.62,2.06-.6,3.26-1,4.49-1.28s2.76-.32,4-.45l2.38,2.38,4.77.52-1.65,1.92h4.82l3.21,4c3.7-.21,5.1,1.81,6.07,4.48L631.4,138v5.82l-1.65,1.65h-9c-.19.74-.34,1.29-.59,2.28,3.88.65,8.25-.46,11.45,3.63l-2.46,1.28v3.66l4.76,3.21c.66,6.21,4.61,12.18,1.16,19.23,2.72.25,5,1.22,6.55,4-.18.78-.43,1.91-.83,3.67l2.32,2.68c-.65.79-1.25,1.54-1.86,2.29-4.31.55-8.58,1-12.65,2.54a4,4,0,0,1-3,.14c-3-1.74-6.4-.57-9.43-1.31s-5.89-.79-8.81-1.26a60.86,60.86,0,0,0-7-1.16c-2.32-.11-4.61-.94-6.94-1.13s-5.2.59-7.4-.2c-3.58-1.28-7.3-.34-10.68-1.25-5-1.35-10-.88-15.05-1.14-.34,0-.65-.78-1-1.2,1.11-4.3,3.4-8.18,4.48-12.53-.86-1.62-3.06-2.23-3.51-4.31.66-6,6.83-13.06-2.46-16.42-2.49-5.35,1.35-7.09,3.56-9.44,0-6.87,0-6.87-16.54-22.15-13-1.66-15.3-3.09-14.27-9,2.34-2.17,5.26,1.43,7.58-.81,6.55-.87,12.87,1.66,19.39,1.24,3.61,1.92,7.52,1,11.31,1.29a52.25,52.25,0,0,1,5.71,1.2c1.72.34,3.67-.75,5.21,1,.36.42,1.56.09,2.36.21,2.38.34,4.94-.89,7.15.73,2,1.5,4.59-.3,6.91,1.54C597.61,119.1,600.61,118.19,602.89,118.19Z" fill="#bbb"/><path d="M115,212.79h-3.73c-3.43.32-3.17-2.06-2.63-4,3.44-12.57,2.57-25.37,2.24-38.13-.11-4.09,1.82-7.61,2.68-11.32-1.47-5.11-3.79-9.83-4.78-15q11.4-3.74,22.79-7.47c4.18-1.38,8.17-3.36,12.64-3.73,1.5-2.12,3.74-.95,5.64-1.25A28.91,28.91,0,0,0,161,129.39c0-1.71,1.32-1.1,2.22-1.25l5.82-.95,3.76,1.36,1-2.89h4.64c2.57,2.62,5.87,2.53,8.42,2.5l5,5-4.83,4,.84.88h-4c-1.91,3.79-2,9.14-7.47,9.58-.49,2.55-.86,4.43-1.34,6.87l1.08,5.43-7.24,2.88c-.64,5.87-1.25,11.42-1.9,17.25l-3.57.67,2.68,3.16c-.56,2-1.13,4.07-1.74,6.24l-3.94.61c2.38,3.11,3.84,6.28,6.78,8.34.47,2.34-1.26,2.8-2.87,3.18C148,206.1,132,211.85,115,212.79Z" fill="#969696"/><path d="M571.78,628.54a36.28,36.28,0,0,0-3.24,2.65,97.16,97.16,0,0,1-13.88,11.46c-3.13,2.15-5.73,5.06-8.78,7.36a190.29,190.29,0,0,1-17.07,11.16c-7.12,4.29-14.53,7.94-21.93,11.61-5.29,2.63-10.91,4.62-16.44,6.77a106,106,0,0,1-11.92,4.19c-5.79,1.5-11.39,3.59-17.3,4.87-6.57,1.41-13.29,2.48-19.8,4.48-4.31,1.33-9.22.56-13.7,1.51-10.77,2.29-21.63.45-32.41,1.23-3.32.24-6.28-1-9.42-1.32s-6.49.91-9.45-1.2c-.41-.3-1.23,0-1.83-.06-2.37-.34-4.9.85-7.14-.76-2-1.46-5,.84-6.74-1.71-5.38,1.23-9.89-2.44-15.11-2.64-3.37-.14-6.7-1.67-10-2.66-2.21-.65-4.37-1.44-6.55-2.17-3.32-1.93-.4-3.85,0-5.73-7.15-8.44-3-14.43,4.69-17,4.53-1.51,9-3.35,13.7-3.87,8.93-1,16-6.08,23.7-9.93,7.54.15,12.62,5.76,19,8.58,10.44,5.26,21.64,8,33.09,9.89a8.66,8.66,0,0,1,3.27,1c2.28,4.06.38,6.55-3.5,7.27-10.94,2-21.68,5-33.06,4.77-8.87-.15-17.78.8-26.64.85,52.73,8.36,103.46.1,152.91-18.83a63,63,0,0,1-16.27,5.24c-2.57.53-4.64-.64-5-3.34-.33-2.29.95-3.59,3.36-4.3,17.65-5.16,32.84-15.54,49.18-23.47,2.06-1,3.72-2.81,6.31-2.1,1.14.5,1.71,1.7,2.63,2.4,3.85-1.88,6.44-5.16,9.85-7.36S569.46,625.24,571.78,628.54Z" fill="#9c9c9c"/><path d="M143.58,451.78v-3.11l6-6c2-1,3.39-1.71,4.79-2.3,1.23-.52,2.57-.8,3.78-1.35,1.4-.63,2.72-1.43,4.07-2.16,12.17-1,23.29-5.79,34.77-9.35A100.45,100.45,0,0,1,222,423.24c4.35-.22,8.76-.52,12.88-2.23,4.61.56,9.36-1.86,13.79.26,2.32,2.62.43,7.71,5.84,8.31-.11-3-4.43-2.67-4.16-5.59.13-3.51,3.11-4.39,5.58-4.52,12.75-.67,25.34-3.37,38.16-2.92a10.12,10.12,0,0,1,3,.64c2.2,1.75,3.32,4.11,4.07,7.31-3.11,6.35-9.19,10.08-14.89,14-9.49,6.57-19.42,12.25-26.09,22.44-5.66,8.65-23.34,5.19-27-4.74A22.89,22.89,0,0,0,231,451.3c-4.23-6.37-7.81-6.74-12.78-1.19a4.84,4.84,0,0,1-1.65,1.42c-2.27,1-4.33.19-6.07.06-1.89,1.29-1.66,3.12-2.07,4.67-.68,2.52-2.24,4.11-4.89,3.78-3-.36-4-2.52-4.07-5.34,0-2.42,1.08-4.85.17-7.31-1.64,0-1.59,1.27-1.91,2.12-2.9,7.8-6.42,8.91-13.53,4.6-2.94-1.79-5.55-4.47-9.38-4.44-6.05,1.47-8.25,4-9.24,10.66-.84,5.62.31,11.13,1,16.65,1.34,11.09,2.82,22.15,6.52,32.77.08,12.94,5.07,24.56,10,36.1A266.85,266.85,0,0,0,199.77,579c4.15,6.82,9.22,13.15,14.15,19.5a23.84,23.84,0,0,1,3.75,5.65c.62,1.58.76,3.35-1.89,3.27-3.67-1.46-4.76-5.31-7.06-8-3.79-4.39-6.59-9.63-9.82-14.5-1.83-2.77-3.92-5.39-5.48-8.3-4-7.44-8-14.91-11.57-22.55-2.53-5.35-4.27-11.07-6.69-16.48s-3.84-11.28-5.42-17c-1.49-5.4-2.32-11-4.37-16.21-1-2.46.81-5.47-1.87-7.3-.42-4-.82-7.94-1.25-11.91-.39-3.56-1-7.1-1.2-10.67s0-7.4,0-11.3C154.5,460.33,147.89,457.76,143.58,451.78Z" fill="#aaa"/><path d="M647.71,435.6c.76,1.88,2.77,1.67,4.16,2.51,2,1.23,3.92,2.62,5.67,3.8.1,1.81.18,3.2.29,5.16l3.17-1.24c.11.27.25.62.4,1l-10,7.47c-1.48,1.08-3.08.89-4.69.63-4-3.55-3.55-11.34-10.82-11.52-3.16,1.8-2.56,4.74-2.54,7.32a110.14,110.14,0,0,1-1.33,20.44c-.37,2-.21,4.2-2.07,5.67-2.25.88-4.23,3.2-7,1.28-3.31-5-1.59-10.54-1.88-15.86.87-6.91-1.4-13.23-3.56-19.61-1.37,6.58.83,12.83,1.38,19.23,3,20.62-.23,40.8-4.16,60.93-5.41,22.12-13.81,43-26.47,62-5.45,8.19-12.41,15.11-18.82,22.49-1.64,1.83-3,4-4.89,5.53-2.09,1.7-4.19,2.79-6.33.05-1.23-2.87.54-4.75,2.32-6.48,6.4-6.26,11.25-13.83,17.28-20.4a284.55,284.55,0,0,0,21.81-41.2c1.55-3.72,1.5-7.64,2.2-11.47,4.83-7.93,4.82-17.07,6.46-25.79,1.57-8.05,2.12-16.13.16-24.71-4,4-5,13.35-14,8.72-2.52-3.23-2.83-7.21-3.59-11a71.46,71.46,0,0,0-24.83-42.07c-2.26-8.42-10.75-8.79-16.44-12.77-2.41-1.69-6.27-1.53-7-5.69,1.83-4.57,6.07-3.66,9.5-3.41,20.87,1.47,41.75,2.91,62.33,7,9.15,1.82,18.36,3.36,27.16,6.58C644.3,431.15,647.36,431.93,647.71,435.6Z" fill="#c2c2c2"/><path d="M538.17,110.72l-1.15,2-5.86-.83c-1.55,3.36,2.07,2,2.32,3.52l3.82-1.16,4.64,4.64c1.11-1.33,1.93-2.32,3.17-3.79l-4.37-1c0-.58-.06-1-.12-1.84l4.7-.35c.16.77.28,1.33.45,2.13l2,.67c-.35,1.37-.7,2.77-1.16,4.59l7.91,3.46c-.36.7-.78,1.53-1.21,2.35l7.13,2v4l3.84,3v4.5l3.75,2.3-2.43,1.47v6l-5.68-1.47-3,4,5.64-1.61c1.41,2,2.87,4,4.43,6.22-.27.49-.54,1-.95,1.77,3.11,5.11-3.05,7.27-3.8,11.71L565,171.3c.53-3.21,1.25-5.69,3.11-6.59l3.08,1.84-2.95,3.18v3.67L564,177.58l5.29,2.35a2.72,2.72,0,0,1-2.94,2.9c-2.89-.27-4.68,1.83-7.06,2.57-1,0-2.05,0-3.07,0-8.65.36-17.17-2.14-25.85-1.31-.28,0-.64-.77-1-1.18v-1.87l4.35-2.5L530.34,177c-1.62,1.12-4.27,1.5-7.53.39,2.47-3.28,4.79-6.36,7.34-9.73-1.11-.47-1.62-.66-2.09-.9s-1-.59-1.65-1c-1.82,1.19-3.75,1.74-5.1-.24.34-2.59.64-4.84,1-7.49l8.46-11.2a7.9,7.9,0,0,0-1.7-1,14.18,14.18,0,0,0-2.57-.4l-3.45,4.17c-2.78-2.41-2.78-2.41-1.2-5.72l-3.22-4.68H513c.71-2.7,1.34-5,2.07-7.8l3.2,1.88c-.16-1.05-.14-2.29-.39-2.34-2.88-.64-3.93-3.31-6.35-5l3.08-3.73c-.56-2.49-2.17-3-4.38-2.79-2.15,1.4-2.66,5.23-6.32,4.92,0-2.21.23-3.08,1.71-5.81L502,115c.72-1.85,1.09-2.79,1.46-3.73l-.82-.48-2.91,4L484.33,113l1.77-3.64c3.36.58,6.79-.86,10,1,1.21-1.49,3.89.23,4.69-2.16,2.68,0,5.37-.15,8,0,4,.27,7.9,1,11.87,1.16s7.83,0,11.75,0C534.48,109.46,536,111.38,538.17,110.72Z" fill="#b9b9b9"/><path d="M215.78,607.38l1.8-1c-2.31-2.85-4.44-5.44-6.52-8.08a43.54,43.54,0,0,1-3.5-4.77,135.34,135.34,0,0,0-8.91-12.45c-1.69-2.23-2.36-4.86-3.89-7.16-3-4.45-5.2-9.42-7.59-14.24s-4.75-9.64-6.86-14.57c-2-4.75-3.89-9.6-5.58-14.49-1.82-5.27-2.43-10.9-4.93-16-.57-1.17-.08-2.86-.08-4.31,4.13-1.3,4.84,1.75,5.83,4.53,4.48,12.63,8.7,25.36,14,37.67a192,192,0,0,0,18,32.71c3.95,5.74,8.31,11.17,12.5,16.67a136.75,136.75,0,0,0,16.81,18c5.87,9.55,15.75,14.48,24.43,20.68a117.44,117.44,0,0,0,23.93,13c6.31,2.58,12.65,5.23,19.82,4.84,2.41-.14,4.6-.24,6-2.17,7-9.63,16.62-17.32,21.7-29.84.11-2-3.75-5.18-.44-8.6,2.76-1.93,5.14-.75,6.72,1.46,1.95,2.73,4.58,4,7.55,5,3.69,2.13,4.91,7,9.3,8.37,3.69,3.66,7.15,7.59,11.79,10.16,2.1,1.36,4.22,2.71,3.73,5.74v2.25c-3.41.19-6,2.13-8.61,4.28a18.09,18.09,0,0,1-8.4,3.58c-7,1.23-14.16,2-20.53,5.59a15,15,0,0,1-3.71.93l-2.56,5.32c2.31,5.18,7.45,5,11.34,7.17v2.8a44.74,44.74,0,0,1-5.61,1.64c-1.8.3-3.35-2.49-5.38-.67l1.14,2c-2.76-.83-5.48-2.14-8.29-2.37-3.16-.25-5.07-2.67-7.94-3.44-4.78-1.28-9.1-3.93-13.84-5.5-2.48-.83-4.19-3.22-7.15-3.8a14.55,14.55,0,0,1-7-3.8c-3.31-3.27-7.71-4.59-11.46-7-6.39-4.16-12.7-8.34-18.85-12.91a253.4,253.4,0,0,1-29.52-26C221.6,615,218,611.8,215.78,607.38Z" fill="#c6c6c6"/><path d="M108.73,144.33c.32.41.63,1.16,1,1.19,1.86.12,3.73,0,6.05,0l2,2.32-3.93,4.54v3H117l.84-2.18c.27.18.8.41.78.51-.55,2.24-1.05,4.52-1.79,6.7s-2,4.19-2.52,6.4c-.46,1.85-.83,4.11-.18,5.77a9.44,9.44,0,0,1,.09,6.82c-.56,1.77-.19,3.87-.07,5.81.06.94.81,1.88.71,2.76-.2,1.72-1.14,3.41-1.08,5.08s1,3.3,1.5,4.88l-3,3.3c1.89,4.14,1.89,4.14-2.53,10.77l1.39.78c-.28,2.38-2.32.72-3.38,1.46-2.37,1.65-5.45,1.39-8,3.35-2.1,1.65-5.4,1.74-8.11,2.68s-5.31,2.13-8,3.11a28.77,28.77,0,0,1-3.68.77c0-1.23-.33-2.27.05-2.74,1.58-1.95,1.21-4.18,1.16-6.34,0-2-.48-4-.49-6a39.21,39.21,0,0,1,.54-5.39,28.38,28.38,0,0,1,.86-5.19c1.11-3.56.86-7.52-2.66-10.53l2.91-3.23c-1.49-6.51-2.87-12.9-2.26-19.92L82.82,162c-1-1.41-1.85-2.68-2.72-4,4.07-2.49,7.91-5.56,12.28-7.32C97.79,148.52,103.13,146.07,108.73,144.33Z" fill="#a7a7a7"/><path d="M624.06,477.92a16.87,16.87,0,0,1,2.32-1.65,16.69,16.69,0,0,1,2.65-.84c3.31,1.55,2.91,4.67,2.83,7.39a48.15,48.15,0,0,1-3.23,16c-.58,14.81-6.2,28.36-9.54,40.12,1.77-3.84,7.53-7.56,10.66-13.37,1-1.81,3.43-4.54,5.51-.33-2.18,7.17-4.42,14.31-7,21.37-3.26,9.1-7.93,17.48-12.44,25.94a208.18,208.18,0,0,1-16,25.15c-8.22,11.21-17.69,21.12-27.46,30.84-.11.11-.41,0-.61,0l-1-1.84c-4.65,4-9,7.71-13.61,11.63-3-.57-5.21,3.73-9.49,2.16,1-1.26,1.53-2.85,2.48-3.12,2.2-.61,3.26-2.09,4.21-3.85-1.41-2.82,1-3.81,2.51-5.22a266.13,266.13,0,0,0,24.9-23.77c2.22-2.44,4.51-4.74,6-7.72.22-2.8-2.2-5-1.69-7.77,6.28-11,13-21.77,17.84-33.65a192.35,192.35,0,0,0,13.28-48.63c.32-2.47,1.54-4.73,1.39-7.26.5-4.69,1-9.38,1.32-14.09C620.07,482.3,620.42,479.16,624.06,477.92Z" fill="#aeaeae"/><path d="M635.26,525.22l-.59-1.44-3.12,4.28v4.41h-2.94c-5.92,5.79-9.89,12.76-14.72,20.4-1.95-5-.5-8.28.84-11.38s2.66-6,3.11-9.24c.42-3.06,2.45-5.65,2.55-8.87a10.52,10.52,0,0,1,1.29-5,19.21,19.21,0,0,0,2.46-8.31c.27-2.72,1.58-5.29,1.23-8.17-.06-.47.76-1.05,1.18-1.58,5.17-6.31,6.63-14.33,9.89-21.51,1-2.24,1.52-4.7,2.94-6.75a3.63,3.63,0,0,1,4.3-1.58c1.74.58,2.83,1.72,1.54,3.7-.14,2,.3,4.3-.56,5.92-1,1.86-.38,3.55-.68,5.29-.33,1.9.82,4.09-1.21,5.7-.3.24,0,1.18,0,1.8a48.9,48.9,0,0,1-.05,5.55c-.17,1.5-.88,2.93-1.18,4.42a195.47,195.47,0,0,1-5.22,21.91C636.2,525,635.61,525.08,635.26,525.22Z" fill="#ccc"/><path d="M645.22,474.19v-2.26l-3.25-.27c-2,5.26-2.76,10.57-5.34,15.42-2.49,4.69-4.1,9.86-7.07,14.68l-3-1.43c0-2.57-.15-5.05,1.12-7.57,1-2,.13-4.46,1.09-6.94,1.17-3.05.27-6.89.27-10.39.42-6.24,1-12.48,1.2-18.73s0-12.82,0-19.44c3.51-1.6,5.85,1.41,8.42,2.61,2.83,1.33,5.14,3.76,7.22,5.36.76,3.31,1.37,6,2.07,9h3.45l-5,3.5c0,4.23,0,9.24,0,14.26C646.44,472.92,646.87,474.18,645.22,474.19Z" fill="#dfdfdf"/><path d="M161,129.39h2.3l.12.85a56.46,56.46,0,0,1-7,1.56A12.26,12.26,0,0,0,152.6,133c-.72.32-2.58,1-2.8-1.13.65-.41,1.25-1.08,1.94-1.2C154.82,130.16,157.92,129.81,161,129.39Z" fill="#828282"/><path d="M647.71,435.6c-4-1.32-8.31-2.14-12-4.13-2.62-1.42-5.37-.33-8-1.87a11.33,11.33,0,0,0-7.46-1.58c-1.38.23-2.94-.78-4.45-1.11s-3,.21-4.65-.86c-2.29-1.49-5.26-.36-8.1-1.39-4-1.46-8.69-1-13.07-1.53-2.75-.3-5.48-.75-8.2-1.24s-5.77,1.3-8.23-1.2c-.2-.21-.8-.06-1.21,0-9,.85-17.88-1.41-26.87-1.25a2.93,2.93,0,0,0-2.47,1c2.05.92,4.05,2,6.16,2.71,2.36.81,4.3,2.39,7,2.76,2,.27,2.81,4.13,6.3,3.34l6.78,7.63c-3.68,3.8-6.71,1.28-9.59-1.11a35.39,35.39,0,0,0-21.22-8.33c2.41,8.07,8.48,14,10.67,20.54a11.12,11.12,0,0,0,5,2.59,14.54,14.54,0,0,1,4.7,2.95c2.38,2,5,17.93,3.64,21.16-2.39,1.56-4.25.32-6.06-1.15-4.43-3.61-9-7.07-13.44-10.63-3.94-3.5-9.22-5.25-12.49-9.63-4.08-4.34-9.28-7.53-12.94-12.31-1.28-4.32-4.76-5.35-8.4-5.51-6.42-6.78-6.29-7.31,3.94-17.25,2.88-.58,5.93.39,8.61,0-10.3-.32-20.92,1.36-31.6.75-1.25-.28-2.45-.65-3-2v-4.38a8.69,8.69,0,0,0,2.53-1.33c2.74-3,5.85-4.6,10.09-4.37,2,.12,4.08-1,5.06-1.29l6.56-6.54c1,1.57,1.72,2.72,2.82,4.44l8.91-1.6v-5.48l5.73-1.9c1.48-2.67.89-6.8,5.33-7.65.31-6.44,6-9.11,9.58-13.56,4.64.71,6.75,6.16,12.66,5.69,1.48-1.37,4.42-.38,7.44-.7l1.75-2.11v-7.73c2.1.44,3.92,1,5.78,1.17a54.8,54.8,0,0,0,5.59,0c2.07,0,4.16.15,6.22-.05,1.51-.16,3.1-1.36,4.44-1.08,3.61.73,7.55.58,10.73,2.5a6.45,6.45,0,0,0,4.54,1.06,62.25,62.25,0,0,0,7.35-1.74c.52-.15.89-.84,1.4-1.35l-2.1-1.85c-6.61.92-12.7-2.08-19-4.23a6,6,0,0,0-2.18-.69c-9,.94-17.85-2.22-26.56-1.19l-7.41-3.93c-9.2,1.37-18.33-2.22-27.74-3.7-.81-.12-1.47-1.15-2.69-2.16,4.06-.64,7.62-.35,11.15-1.29s7.82-.22,11.76-.22c3.74,0,7.47-.12,11.2,0,3.58.15,7.3-.76,11.73,1.2.92-.1,2.56-2.64,5-.34.89.85,3.16.49,4.76.31,7.38-.82,14.54,1.84,21.88,1.28,2.15,1.65,4.08,1,6.51.21,1.78-.6,4.34-1.05,6.47.58.81.63,2.36.58,3.51.42,5.75-.81,11.22,1.62,16.92,1.33.66,0,1.34.82,2.06.94,2.37.38,4.8.89,6.84-1A21.65,21.65,0,0,0,647,355.9c1.71.36,3.45-.33,5.2,1.13,1,.82,3.6.79,4.78,0,4.42-2.83,8.48-.3,12.67.29.91.13,1.76,1,2.65,1,3.73.12,7.48-.16,11.2.1,3.56.26,7.08,1,11.37,1.63l2.1,2.69,7.6-4.18c1.63,3.06,4.34,5.13,7.71,6.69,1.57.73,2.23,3.23,3.63,4.57,1.93,1.85,3.45,4,5.47,5.83,1.74,1.55,2.24,4.41,3.58,6.51.77,1.2,2.12,2,3.79,3.57.5,1.36-1,2.49-2.07,4s-1.21,3.18-1.73,4.69h-4.29c-.66-1.06-1.36-2.2-2.15-3.46h-6.68c-4.23,1.89-7.07,4.84-6.91,9.95a3.28,3.28,0,0,1-1.22,2.52c-2.5,1.53-3.21,4.75-5.92,6-6.44-2.75-12.43,1.65-12.72,9.34l-3.3,3.3h-2.18c-2.45,2.8-4.48,5.3-6.71,7.6s-4.1,4.29-5.28,7.16c-.85,2.06-4.3,4.09-7.87,5.06C656.49,438.66,652.93,435.47,647.71,435.6Z" fill="#d6d6d6"/><path d="M235.69,424.4c-3,.46-6.06-.94-9,.83-2.42,1.48-5.37-.4-8.12,1.48-1.88,1.28-5.19-.73-7.42,1.42-6,.75-12.13.9-17.69,3.74-6.85-.28-12.49,4.1-19,5-2.11,2.22-5,2.83-8.1,3.89-.19-1.22-.37-2.34-.61-3.89h-3.49c2.7-2.24,6.27-2.32,9.27-3.76s6.95-.92,9.84-3.37c.74-.64,2.35-.2,3.55-.36,2.3-.3,4.59-.69,6.54-1l2.83-5.86c-.46-.91-.78-2.38-1.69-3.14-3.62-3-4.7-6.87-4.14-11.25-4.94-9.95-5.32-8.9-5-21.62l-3.3-3.56c1.7-.9,2.81-2,4-2,4.12-.24,7.09-3,10.54-4.62,1.2-.58,1.74-2.52,2.67-4h6l4.84-2.74-6-2.35c-1.9.74-4,1.67-6.2,2.37a5.07,5.07,0,0,1-2.3-.36c-1.14-.25-2.45-1.08-3.36-.75-6.38,2.28-13,.59-19.41,1.19-2.74.25-5.45,1-8.19,1.17s-6.07-.7-8.65.21c-4,1.43-8,.73-12,1.11-2.54.24-5,.77-7.57,1.22s-5-.2-7.7.92c-3.54,1.46-7.82,1.12-11.79,1.56.82-2.36,3.81-.5,4.82-2.49,4-.41,7.92-1,11.9-1.18,3-.14,5.65-2,8.81-1.37s5.69-1,8.42-2.07a7.58,7.58,0,0,1,3.58-.32c5.3.64,10.37-1.06,15.55-1.51.18,0,.3-.66.45-1l.68-.87c6.39-1.91,13-2.16,19.61-2.68,11.35-.92,22.58-2.82,34-3.53,7.77-.49,15.21-3.74,23.16-3.5,9.55.38,19-1.93,28.54-1.24,24.44,1,48.73-2.3,73.14-2.78,17.31-.34,34.68-1.31,52-2.42,26.23-1.68,52.52-1.77,78.74-3.87,11-.88,22.25-2.11,33.33-.1,2.38.43,6.17-.79,6.63,3.57-4.55,0-9.11.17-13.66-.05-5.08-.24-9.89,2.21-15,1.29-6.2,3-12.86,2.49-19.45,2.52a6.89,6.89,0,0,0-2.85.58,7.19,7.19,0,0,1-6.32,0,7.14,7.14,0,0,0-2.84-.61c-3,0-6.05-.52-8.8,1.22-2.6-1.23-5.52-1.91-8.14-1.14-5.2,1.53-10.45.8-15.66,1.23-2.43.2-4.77,1.42-7.17,2.08-3.24.89-6.42,1.94-9.92,1.62a39.29,39.29,0,0,0-9.77.47c4.25.48,8.3,1.16,11.15,4.86l2.31-1.78,3.64,1.64,2,4.29,3.68,1.88,2.87-2.7c3.23-.2,6.37.34,9.53-1.13,2.31-1.07,4.44,1,7.19,2.41h6.21c2.54,8,11.5,8.54,16.08,14.19l-1.87,3.3c-1.06.7-4.45-1.47-5.37,2.16l3.09,7.78c7.28,2.15,5.3,8.71,5.56,14.07l3.07,3.29h7.73l2.88,3.71c-1.11,2.51-3.31,2.57-5.56,2.49-18.51-2.41-37.13-1.78-55.73-1.89-3.28,0-6.63.52-9.5-.5-2.28-1.31-2.64-3.5-3.52-5.44-10.41-3-18.39-12.22-29.94-10.89-2.73-1.12-4.27-3.11-5.94-4.93a9.33,9.33,0,0,0-6.5-3.25c-10.46-.59-21-1.38-31.36-2.08-11.87-.81-24,1.89-35.67-1.87-2.59-.83-5.38.08-7.57-.42-3.45-1.29-3.53-4.35-4.76-6.65-.55-1.08-1.46-1.94-2-3-.83-3.28-3-5.37-6-6.84-6.31-3-12.47-6.34-18.17-8.3-3.14-.14-4.87,1.55-7,1.22s-4.28-.67-6.35-1.3c-4-2.35-5.27.56-5.84,3.39-1,5,.89,9.27,4.88,12.58-2.48-3.16-3-7.08-4.17-10.72-1-2.9-.49-5.36,3.18-6a11.13,11.13,0,0,1,4.83,2.78c3.05,7.91,6.14,15.82,8.91,24.18A48.56,48.56,0,0,1,238.76,400c-5.65,2.61-11.56,4.63-16.36,8.78-1.74,1.5-3.59,2.94-3,6,2.66,4.23,7.78,2.41,11.65,4C233.83,419.86,237,420.13,235.69,424.4Z" fill="#cacaca"/><path d="M668.87,210.3a8.39,8.39,0,0,0-2.29.47c-4,2.1-8.15,3-12.31.73-2.68-1.48-5.45-1.1-8.45-1.22l-2.37,2.18,4.18,4.79c-.46,1.92-1,4-1.42,5.86l5.18,5.19v4.23l-3.68,3c0,5.49.17,10.47-.05,15.44-.24,5.22-.87,10.43-1.4,16.43l-6.16,7.69,1.51,4.7-3.08,6.08L634,288.1c0,.49-.12,1.11.09,1.27,2.73,2.14,5.59,4,6.67,7.75.37,1.31,2.75,2,4.3,3.09v4.22c-.29,0-.64.16-.87.05-1.52-.73-3-1.53-4.73-2.41-.27,1-.42,1.52-.56,2l2.57,2a3.52,3.52,0,0,1-5,0l-3.73,1.24a8,8,0,0,0-7.71-2.1c-3.71.91-5.65,3.63-3.93,7,2.74,5.34,6.42,10.22,3.37,16.65,0,.11.54.56.8.88v6.14l-7.53,11c-3.06.56-5.74,1.17-8.45,1.51-2.54.33-5.08.56-7.6,1-3.33.56-7.24,1.58-10.68-.84-.84-.59-2.54.23-3.64-.18-3-1.12-5.95,3.44-8.92.07h-59c-.74-2.59,1.22-3.48,2.94-3.76a216.36,216.36,0,0,1,28.74-2.86c4.32-.12,8.7.16,12.72-1.86,3.29-1.65,6.06-4.25,6.28-7.9.29-4.76,3.06-6.87,6.73-8.61,1.4-2.77-.18-5.26-1-7.68-2.22-6.61-2.34-6.57,2.55-11.24-3.05,2.6-5.56,2.51-7.32-1.26-.3-2.51,1.2-4.53,1.08-6.83,7.14-7.07,5.87-15.32,4.91-24.38-.75-7.06,5-13.14,9.26-18.89,1.09-1.46,3-2.27,3.48-4.46-1.18-2.79-4.45-4.22-5.61-8,3.29-12.9-4.55-25.94-2.52-39.31,4.17-4.23,8.5-4.74,13-2.46a47.53,47.53,0,0,1,21.64-1.29c7.32.7,14.36,3.14,21.74,3.48,8.61,2.38,17.66,2.37,26.18,5.09C666.4,206.86,669.2,206.92,668.87,210.3Z" fill="#cacaca"/><path d="M581.73,326.06c-.53.42-1,1.15-1.6,1.19-2.38.18-4.77.15-8,.21,1.48,2,2.4,3.23,3.6,4.82l-8.87,10.89c-2.49.56-4.74,1.15-7,1.54-2.11.36-4.51-.77-6.45,1.45a9.94,9.94,0,0,0-9-.87,8.32,8.32,0,0,1-3.43.64c-6.93-.81-13.65,1.43-20.53,1.35-.32,0-.65.77-1,1.19h-1.25c-.33-.42-.61-1.14-1-1.19-1.6-.21-3.93.42-4.72-.44-1.76-1.9-2.15,1-3.6.52-1.8-.58-3.49-1.91-5.66-1.42-1.9.43-3.95-.52-5.8,1.16-.59.53-2.5-.39-4.67-.81a6.68,6.68,0,0,1-2.88.87c-13.54-.85-26.95,1.65-40.48,1.4-6.86-.12-13.73.9-20.61,1.11s-14.22-.87-21.07.28c-8.18,1.36-16.38-.14-24.34,1.19-9.4,1.57-18.86-.16-28.05,1.29-8.6,1.35-17.18-.09-25.58,1.21-6.92,1.06-13.89.06-20.6,1.23-11.66,2-23.3.41-34.92,1.07-.23-2.32,1.42-2.91,3.11-2.94,5.39-.12,10.65-1.56,16.07-1.4,16.68.48,33.2-1.83,49.76-3.27,8.62-.76,17.21-1.89,25.88-.78,5.42.69,10.71-.82,16.08-1,13-.47,26-1.71,39-1.79,7.59-.05,15.14-.74,22.71-.61,17.89.29,35.61-1.94,53.38-3.4,4.76-.39,9.53-.05,14.27-.61,8.86-1,10.62-2.95,11-11.64a29.17,29.17,0,0,0-.22-6.8c-.44-5.5,1.81-9.89,5.23-13.57,11.06-.56,11.59-.27,11.93,6.29a46.22,46.22,0,0,0,3.47-8.95c-3.85,4.11-8.16,2.63-12,1.92-3.4-2.71-1.37-6.26-2.5-9.06-3.77-3.35-3.25-7.16-3.3-12-.09-8.75,4.2-16.31,4-23.94,1-2.59,2.75-3.56,4.11-5.09-.06-3.25.24-6.53,2.58-9.15-1.43-6.13-.19-12.11.48-18,.56-4.92-.38-8.68-4.31-11.4s-5.29-6.13-4.18-10.69a11.2,11.2,0,0,0-.19-5.51c-1.57-6.15,1.8-11.37,8.32-11.33,9.46.05,19-1.26,28.41.35q21.12,1.55,42,5c2.39.4,5.6,0,5.94,3.83-2.29.45-4.92-1.05-6.92,1.17l-2.2-2.2c-4.36-1.25-7.94,1.61-12.32,2.5l-3.08-2.89-6.4,3.16v10.28l2.29,2.3a65,65,0,0,1-.05,7.1c-.33,3.1.06,6.39,1.5,8.7,1.9,3.06.48,5.26-.25,7.79-.19.66-1,1.15-1.21,1.41l6.54,6.54,6.65-3a28.74,28.74,0,0,0-1.7,3.57,18.61,18.61,0,0,0-.42,2.75c-2.66,1.41-5.49,2.42-7.66,4.22s-3.9,4.55-5.84,6.92V265l-5,4.61c.53,3.22,1.05,6.35,1.71,10.3l2,1.53v6c-1.51,2.21-2.38,4.5-4.05,5.68s-3.71,2.16-4.66,4.27c-5.52,4.71-5.48,12-8.64,18.07,5.39-4.06,8.64-3.47,10.72,2.15C577.56,320.91,578.83,324,581.73,326.06Z" fill="#bfbfbf"/><path d="M615.34,200.34c-.14-.35-.23-1-.44-1-2.47-.58-5.24.41-7.47-1.47-5.51,1-10.75-1.5-16.23-1.32-2.3.07-4.63-.72-6.93-1.18s-5,1.17-6.93-1.23H565.55c-11-.55-21.84-3.06-32.95-1-5.64,1-11.47.3-17.22.32-7.69.11-15.26-2.18-22.77-2.13-9.83.08-19.64-1.5-29.47-.35-18.58-1.51-37.26-4.27-55.79-2.12-16.46,1.91-33,1.15-49.39,3.31-12-1.82-23.82-.13-35.62,1.9-5.73.71-11.55-.57-17.27.78a5.49,5.49,0,0,1-2.28-.17c-10-1.78-19.69.92-29.48,1.94-6.15.64-12.34.43-18.47,1.25a5.1,5.1,0,0,1-5-1.81,4.39,4.39,0,0,1,.78-5.63c2.4,0,4.8.08,7.19,0,.53,0,1-.78,1.52-1.19,11.94-2.77,24.2-2.36,36.3-3.63,19.26-2,38.69-2,58-3.77a44.52,44.52,0,0,1,6.22-.05c20.48,1,40.89-2,61.4-1,8.45.4,16.94.72,25.42.42,7.72,1.22,15.49.29,23.23.58,11.91-.79,23.7,1.9,35.61,1.28a5.48,5.48,0,0,1,4,1.21c3.35.42,6.69,1,10.06,1.2s7.25-.7,10.51.23c4,1.16,8.15.21,11.93,1.21,5.67,1.51,11.3.73,16.93,1.13,2.54.19,5,.89,7.57,1.18s5.28-.61,7.59,1.25c.25.2.81.07,1.22,0,6.75-.85,13.27,1.63,20,1.32,1.88-.08,3.78.86,5.7,1.14a33,33,0,0,1,5.15,1.06c3.53,1.14,7.48.89,11.22,1.5,5,.81,10.21.63,14.77,3.29L644,200.34c-.45,4.12-.5,4.14-6.22,2.49-2.77,0-5.45,0-8.17-1.14-2.26-1-5,.58-7.58-1.16C620.43,199.49,617.6,200.34,615.34,200.34Z" fill="#3d3d3d"/><path d="M447.3,181.67h-38c-4.77,0-9.54.05-14.31,0s-9,1.81-13.81,1.35c-4.52-.44-9.12-.09-13.68-.09-4.77,0-9.7-.77-14.28.16-8.36,1.69-16.81,0-25,1.29-6.73,1-13.48.15-20,1.22-5.68.94-11.47.08-16.89,1.29-6.34,1.41-12.57.49-18.82,1.05-2.13.19-4.21,1-6.34,1.16s-4.56,0-6.84,0h-6.06c0-.28,0-.57-.05-.85.82-.13,1.64-.33,2.46-.39,6-.43,12.23-.13,18.05-1.48,4.48-1,8.91-.21,13.17-1.14,5.63-1.22,11.42-.21,16.84-1.37,4.47-1,8.81-.6,13.19-1,8.09-.74,16.16-1.68,24.32-1.3.84,0,1.72-.76,2.94-1.34a4.83,4.83,0,0,0,5.89,1.25c3.58-1.62,7.15-.89,10.72-1.07,2.69-.13,5.38,0,8.07,0,6.57-.14,13.14-.27,19.71-.45.3,0,.59-.52,1-.89,3.09,1.34,6.22,2.42,9.57.4a6.4,6.4,0,0,1,3-.3c4.56,0,9.11-.07,13.67,0a29.17,29.17,0,0,1,4.68,1l1.88-1.09,1.94,1c1.39-1.43,3.53-.77,5.58-.88.43,2.42,2.32,1.18,3.46,1.19,15.26.09,30.52,0,45.78.11,5,.05,10,.94,15,1.14,5.15.21,10.31,0,15.47,0v2.49c-4.35,0-8.7.16-13,0s-8.76-1-13.15-1.15c-4.54-.21-9.1,0-13.65,0-5.23-1.36-10.54-.26-15.8-.64C451.7,182.12,449.41,182.86,447.3,181.67Z" fill="#bbb"/><path d="M637.75,202.83H644v-2.49c2.27,0,5.35-.91,6.62.21,2,1.78,4.2.86,6.2,1.69,3.52,1.47,7.65,1.5,11.74,2.16,1.61,1.53,3.82,1.84,6.23,2.29a102.75,102.75,0,0,1,15,4.05c5,1.78,10.34,2.76,15.15,5.3l.34,1.73c1.74,0,3.36-.07,5,.06.36,0,.65.77,1,1.18,1.36,2,5.09,1.55,5,5h-4.29c-2.16-3.56-6.7-3.25-10.35-4.83-5.73-2.48-12-3.81-17.84-6-1.82-.68-4.23.75-5.48-1.61-3.29.84-6.13-1.57-9.34-1.25-.32-.41-.69-1.22-1-1.19-3.26.42-6.1-1-9-2-.53-.18-1.07-.6-1.59-.56-4.8.35-9.33-2.12-14.2-1.33A5,5,0,0,1,637.75,202.83Z" fill="#666"/><path d="M472.2,415.68h6.22a40.35,40.35,0,0,1,4.92.05,21.34,21.34,0,0,1,3.79,1.2h3.74c3.09,1.11,1.48,2.83.59,4.46-6.21,3.87-12.71,5.52-19.87,2.68a6.94,6.94,0,0,0-6,.1c-5.71,3.23-12.38,4.62-17.43,9.39-2.59-.28-5.2.22-7.82,0a5.41,5.41,0,0,1-2.92-2.2c-.13-3.74-.13-3.74,5.79-10.38-2.06-2.24-7-.06-7.47-4.62.3-1.46,1.44-1.18,2.42-1.27C449.5,415.44,460.87,414.28,472.2,415.68Z" fill="#666"/><path d="M648.28,334.83c-3.81-.1-5.94-2.18-7.93-4.3a28.48,28.48,0,0,1,3.73-18.26c1.33-2.17,3.89-3.58,5.94-5.38l6,2.75c.5,2.37,1.89,5,1.37,7.18C654.53,328.78,654.37,328.74,648.28,334.83Z" fill="#454545"/><path d="M625.3,329.8c-1.58.06-3.34-.51-4.63,1.55-1.88-2.85-7.12.37-8-5a34.41,34.41,0,0,1,4.79.05,36.3,36.3,0,0,1,4.68,1.31l2.11-4.95c-2.06-3.34-4-6.49-6.48-10.55-.29-2.42.82-5.45,2.79-8.38h11c.34,1,.75,2.31,1.17,3.57-2.18-.05-4.48.53-6.47-1.85L623,310.28c1.21,2.39,2.86,5.64,4.74,9.38v6.84Z" fill="#424242"/><path d="M671.87,313.74h1.61c0,2.17-5,21.56-6.34,24.57-.09.2-.74.14-1.35.24-1.61-4.41-2.14-9-2-14.78l-4.72,4.52a14,14,0,0,1-.52,3.64A22.76,22.76,0,0,1,656,336c-.61-2.3.37-6.88,2.26-12.52,1.39-4.12,2.47-8.35,4.05-13.74,1.3,2.46,2.45,3.81,2.71,5.31.7,3.9,1,7.88,1.49,12l2,.33C669.64,322.83,670.74,318.32,671.87,313.74Z" fill="#4d4d4d"/><path d="M636.5,306.15h5c-2.15,8.15-4.3,16.31-6.5,24.68h-5.13c1.29-4.36,2.64-8.32,3.62-12.37S637.07,310.63,636.5,306.15Z" fill="#434343"/><path d="M716.17,224l-6-4.56,1-.42c6,1.6,16.29,8.61,19.9,13.66.1.13,0,.4,0,.8-2.23,1.6-4.07-.71-4.9-1.6C723.23,228.69,719.52,226.59,716.17,224Z" fill="#535353"/><path d="M702.49,415.31l-7.3,3.18c-.09-1.29-.16-2.24-.24-3.36L698,412C701.07,411.74,702.63,412.78,702.49,415.31Z" fill="#d6d6d6"/><path d="M115,212.79c2.21-3.37,6.4-1.85,9.21-3.73,5.25.45,9.79-2.21,14.68-3.34,2.64-.6,5.31-1.08,8-1.65,4.73-1,9.44-2.07,14.17-3,1.54-.32,3.14-.37,4.66-.72.59-.14,1.07-.79,1.6-1.2l16.18-1.25c1.79-.19,1.62.83,1.22,2-2.36,2.31-5.52,2.45-8.49,3.14-17.72,4.13-36,5.83-53.24,12.1-1.76.64-4.86,1.63-6.7-1.05Z" fill="#a7a7a7"/><path d="M184.66,199.1l-1.25-1.25c.15-.35.25-1,.44-1,3.93-.54,7.87-.94,11.79-1.5,1.91-.27,3.78-.84,5.68-1.21,1.71-.33,3.76.79,5.09-1.2.07-.1.39-.08.58-.05,4.9.86,9.52-1.24,14.35-1.32,4.37-.08,8.74-.76,13.11-1.18a2.6,2.6,0,0,1,.11,2.38c-2.51,4-6.63,2.29-10.1,2.86-11.37,1.86-22.75,3.69-34.24,4.76C188,200.58,186.21,200.88,184.66,199.1Z" fill="#969696"/><path d="M250.63,190.38v5c-3.16,4-7.27,3.76-11.59,2.66-2.25-2.22-3-4.49-.22-6.87a24.65,24.65,0,0,1,10.56-.77Z" fill="#080808"/><path d="M249.38,190.38a42.24,42.24,0,0,1-5,1.2,38.43,38.43,0,0,1-4.92,0c-1.66,1.06-3.32,1.63-5,0v-1.25c2.25-.41,4.48-1,6.75-1.2a43.3,43.3,0,0,1,6.64,0C248.38,189.23,248.87,190,249.38,190.38Z" fill="#bbb"/><path d="M451,172.13l-5.67,3.9c-.27-2-.48-3.45-.61-4.35l5.83-6.05,1.81,1.8C450.11,168.62,451.55,170.91,451,172.13Z" fill="#ababab"/><path d="M463.48,187.89c7.61,0,15.22.12,22.83,0,4.83-.1,9.38,1.88,14.3,1.39,4.69-.47,9.45-.13,14.18-.05.33,0,.65.78,1,1.19-1.31,3.27-4.32,2.89-6.9,3-6.84.17-13.68.28-20.52-.22-7.73-.58-10.71,3.12-8.8,10.56.77,3,1.25,6.05,3.57,8.47a7.54,7.54,0,0,1,1.25,8.22c-2.69,6.61-.55,12.21,2.91,17.58,3.34,5.18,4.47,9.53-.37,15-3.08,3.49-4.22,8.65-3.82,14,.49,6.5-2.35,12.93-.69,19.67,2.35,9.57,1.74,18.82-3.89,27.45-1.77,2.71-1.05,5.89.5,8.9,5.16,10,0,19.7-11.07,20.49-17.66,1.25-35.38,1.65-53.05,2.69-12.77.76-25.56,1.06-38.33,2-11.68.87-23.48,1-35.22,1.44-14.71.56-29.31,2.49-44,2.75a175.58,175.58,0,0,0-27,2.26c-7.94.51-15.94.23-23.83,1.55a6.79,6.79,0,0,1-2.09.4c-12.93,1.44-25.78,3.46-38.68,5.07-12.4,1.55-24.83,2.94-37.25,4.27-3.31,0-6.65-.22-9.93.07-2.73.25-5.29,1.49-8.19,1.24a29.3,29.3,0,0,0-8.22.94c-3.43.71-7,.67-10.18,2.51a2.71,2.71,0,0,1-1.15.22c-10.55.47-21.06,2.18-31.82,1a20.52,20.52,0,0,1-4-10.68c-.13-1.55.36-3.09-1-4.61-.66-.73-.39-2.85.16-4a8.65,8.65,0,0,0,0-8c-.17-.34-.46-.74-.4-1.06.88-5.12-1.37-9.93-1.36-15,0-6.45-1.87-12.82-1.16-19.34-2-3.8-.49-8-1.41-11.86a31.71,31.71,0,0,1-1-8.84,14.81,14.81,0,0,1,1-3.39c-1-3.87-2-8-3-12,.6-2.8,1.74-5.8,1.81-8.83.24-10.32.09-20.66.09-31.52l-3.73-1.22a2.8,2.8,0,0,1,1.74-3.54c9.55-3.56,18.43-9,28.83-10.17a12.25,12.25,0,0,1,4.92,3.6c1.15,2.41.92,4.89.47,7.33-1.82,10-3,20.09-2.27,30.15.78,10.81-1.69,21.54-.61,32.2,2,19.55,2,39.18,3.44,58.73.86,11.49,2.68,12.12,14.3,13.23,14.53,1.38,28.62-1.64,42.87-3.06,4-.4,7.56-3.58,12-2.74q19.81-1.72,39.51-4.61c11.23-1.65,22.43-3.69,33.89-3.72,4.48,0,9-1.34,13.54-1,6.18.38,12.19-1.88,18.39-1.25a10.89,10.89,0,0,0,5-.86c5.92-.37,11.83.16,17.81-.14a491.54,491.54,0,0,0,53.9-5.78c4.5-.72,9.05-.9,13.57-1.6a24.71,24.71,0,0,0,16.15-9.13c1-3-1.83-4.64-2.14-8.12,3.88-7.84,2.63-16.81.71-25.8-.87-4.08.87-7.71,2.25-12.1-5-4.39-2.28-11-4-16.61a4.88,4.88,0,0,1,1.44-5.17c4.47-3.74,4.12-9.33,5.53-14.17.93-3.2-.57-6.42-2.06-9.5-3.93-8.08-9.4-15.31-12.43-23.94-1.59-4.52-2.06-9.31-4.18-13.42a33.13,33.13,0,0,1,2.77-9.44,5.51,5.51,0,0,1,4-2.11C417.4,187.15,440.43,186.5,463.48,187.89Z" fill="#a4a4a4"/><path d="M115,220.26c-3.41,1.12-6.77,3-10.24,3.21-5.19.34-8.85,4.91-14.15,4.38-1.42,1.82-4.35,1.35-5.48,3.61-3.56.67-6.13,3.23-9.16,4.9a61.84,61.84,0,0,0-6.64,4.82l-1.63-1.63c2.49-2.37,4.59-5.1,7.86-6.66A27.14,27.14,0,0,0,80,230.2c6.88-5.1,15-7.9,22.54-11.66,4.25-2.11,9.09-3,13.67-4.51,4.84-1.31,9.72-2.52,14.52-4s9.24-3.06,14.11-3.43c1.3-.1,2.23-1,3.24-1.18,4.78-1.1,9.68-1.65,14.49-2.65,3.41-.71,6.85-1.22,10.25-2.22,3.76-1.11,7.88-1,11.85-1.47,2.52-.42,5-.87,7.57-1.24,2.33-.34,4.58-.1,7-1,3.44-1.3,7.51-.78,11.21-1.54,4.43-.91,9-.6,13.37-2.23,1.81-.69,4.11-.38,6.14-.12,1.79.23,3.05-.65,4.47-1.31h5c-.44.81-.89,1.63-1.35,2.49.46.86.91,1.67,1.35,2.49-1.52,3.38-4.74,3.78-7.78,4.17-13.08,1.67-26.13,3.68-39.34,4.23-4,.17-7.11,3.94-11.41,3.5-12,1.79-23.73,5-35.94,5.59-4.13.19-7.48,3.35-11.56,4.15C127.33,219.61,121.33,221.64,115,220.26Z" fill="#484848"/><path d="M371.37,648.45c-1.62-1.3-4.34-1.12-5-3.73-2.42-7.79-5.5-15.61-3.93-23.89,4.89-25.74-2.16-48.78-15.85-70.13-4.33-6.76-6-15-12-20.69-8.63,2-8.63,2-12.27-7.54-5.55,10.59-6.77,11.26-11.42,6.23,0-9.89,4.51-18.75,6.41-28.2.77-2.3,3.21-3.18,4.58-5.38.83-8.74,4.65-16.79,8.51-24.79,1.36-2.81,3.56-5.66,7.3-4.1,3.48,1.44,2.71,4.68,2.06,7.58-1.42,6.27-2.26,12.65-3.48,19.59,2.48-.91,4.89-1.47,7,.28,1.84,1.56,2.38,3.84,3.08,6,5.81,17.7,14.22,34.45,19.08,52.5a7,7,0,0,0,2.53,4.23c2.05,0,2.22-1.78,2.3-3,.62-9.37,3.7-18.23,5.73-27.29.77-3.43.31-8.31,5.69-9.17,3.8,1.76,2.18,4.84,1.78,7.56-1.59,10.82-3.65,21.55-2.94,32.64,1.84,28.61,15.26,49.56,40.32,63.43C440,631.16,460.4,634.48,482,632c7.26-.84,14.62.1,21.76-2.91,4.47-1.88,7.6-5.76,12.29-7a30.59,30.59,0,0,0,18.43-10.92c2.64-1.26,4.9-3.15,7.41-4.65,3.35-1.84,5.23-6.91,10.41-4.73a3.88,3.88,0,0,1,1,1.66c.71,4.23-2.9,5.65-5.29,7.63-13.72,11.32-28.8,20.28-45.86,25.65-5.46,1.11-10.79,2.66-16.14,4.16-6.86,1.93-14.39,1.09-21.58.57-13.77-1-27.31-3.3-40.42-8-6.74-2.42-13.13-5.18-18.87-9.53-3.56-2.7-7.11-5.77-12.64-5.67-4.1,6.76-5.62,14.46-7.17,22-.65,3.13,2.46,5.11,5,6.49,6.86,3.71,13.67,7.62,21.72,8.24,3.88,1.92,8.07,2.64,12.31,3.2A5.28,5.28,0,0,1,429,663c-1.91,3.35-5.18,2.48-7.42,2.08-9-1.57-18.05-3.2-26.42-7.06-2.16-1-4-1.92-6.33-.82-3.66-.13-6.55-2.45-9.39-4.14C376.77,651.47,374,650,371.37,648.45Z" fill="#6f6f6f"/><path d="M558.08,629.78a8.19,8.19,0,0,1-.93,1.24c-.91.86-1.86,1.67-2.8,2.5-2.33,0-4.06,1.29-5.74,2.64-2.35,1.88-4.44,4.92-7,5.41-2.9.56-4.36,3.78-7.47,3.15-5,3.74-11.29,5-16.36,8.56-.28.2-.78.11-1.31.17-1,2.09-1.92,4.41-5.05,3.73-1.7,2.3-4.24.67-5.7,1.17L500.9,661c-.72-.4-1.55-.88-2.78-1.59l-2.84,3c.91.5,1.45,1.05,1.82,1,6.17-1.57,12.49-2.59,18.34-5.25,2.45-1.11,4.82-2.37,7.31-3.37.83-.33,1.91-.05,3.42-.05l-1.66,1.86.44.46-4,4-13.43,6.06c-4,0-3-.48-10.42,4.51l-6.62-1c-1.28,1.53-2.47,2.94-3.19,3.81-5.8.07-10,4.51-15.63,2.2-.61,1.27-1.16,2.42-1.34,2.78-3.73.22-6.89-.48-8.86.74-2.44,1.51-5.54-.85-7.27,1.95-2.09-2.14-4.53-1.48-6.76-.66a46.63,46.63,0,0,1-18.59,3.22c-4.09-.21-8.44-.66-12.25.45-4.15,1.22-8.1.39-12.12.67a103.09,103.09,0,0,1-12.43,0c-3.36-.17-6.69-1-10.06-1.15s-7.24.66-10.52-.22c-4.4-1.19-9-1.07-13.32-2.74l-1.61-4.44-4.84-.24-.25-2.1c2.05-.27,4-1,5.62,1a3.31,3.31,0,0,1,4.38-1.11c2.92,1.72,5.92,1,8.88,1.09s6.23.16,9.33,0c1.94-.11,3.8.3,5.91-.73,1.86-.91,4.63,0,7,.19.55,0,1.2.7,1.59.54,5-2.09,10.7-.35,15.61-2.85.52-.26,1.08-.88,1.51-.79,4.54.94,8.66-1.94,13.61-1.14l1.28-3.89c1.66-2.52,4.33-2.23,6.79-2.35a93.66,93.66,0,0,1,14.41,0,17.1,17.1,0,0,0,16-6.37c5.4-1.42,11.11-1.76,16.19-4.38,4.8-1.48,9.32.2,14.57,1.37-.58-3.52,1.24-5.3,4.29-6.73,13.82-6.5,28.09-12.33,39-23.69a5.47,5.47,0,0,1,4-1.47c2.55,1,5.2-.82,7.76.22a3.28,3.28,0,0,1,1.12,1.35,4.63,4.63,0,0,1,0,2.06c5,.31,6.6-10,14-4.5C563,626.27,560.51,628,558.08,629.78Z" fill="#797979"/><path d="M464.73,660.9c-.27,2.41-2.5.41-3.51,1.89l.68,1a14.28,14.28,0,0,1-7.86,3.38c-9.3,0-18.6,0-27.9,0-13.3-.13-25.33-5-37.34-10,.4-1.26.81-2.51,1.25-3.88,3.23,1.92,6.36,2.62,9.11,4.57s6.43,2.29,9.78,3,6.71.56,9.93,1.4,6.41,1.56,9.94.87c-1.37-2.22-4.37.65-5.16-2.21,1.52-3,4.18-2.72,6.81-2.28,2.37.39,4.69,1.22,7.12.31,6.94,0,13.88.42,20.8-.44C460.85,658.19,463.36,658.12,464.73,660.9Z" fill="#4e4e4e"/><path d="M472.2,415.68H436.1c-1.75,3-4.78,2.83-7.62,3-6.55.32-13.13-.23-19.66.78-10.33,1.19-20.53-1.31-30.91-.86-10.77.48-21.5,1.42-32.26,2-6.76-2.5-13.46.29-20.2.24a103.33,103.33,0,0,1-13.63.21c-5.12.17-10.5,2.77-15.13-1.62-3.72,0-7.46-.22-11.15.07-2.73.22-5.29,1.47-8.17,1.24s-5.61-.57-8.19,1.12c-.58.38-1.62.07-2.45.06-5.41-.12-10.81-.16-17.13,2.19h12c.93,6.35-2.41,9.41-7.22,11.54l-6.2-3c-.49-1.79-1.09-4-1.76-6.5L249.6,423l-13.91,1.44L234.11,422l-15.63-1.8-5.32-5.53c1.35-3.32,3.14-6.5,7.08-7.84,3.07-4.94,9-5.38,13.34-8.24,1.71-1.12,4-1.37,7.22-2.41l2.3-3.17c0-.41.16-1.95.31-3.75l5.09,1.84,3.19-5.16a49.41,49.41,0,0,1-2.25-5.94c-.7-2.61-2.53-4.66-2.76-7.62-.17-2.25-2.27-4.35-3.52-6.53,4.44-1.8,7.89-.58,9.85,4.59,2,5.36,4.68,10.47,6.3,16,1,3.53,2.37,7,6.18,9.28,4.7-1.4,9.84-1.56,14.46-2.81,3.28-4.59.6-10.49,4.29-14.61.41.33,1.16.63,1.19,1,.13,1.61.05,3.24.05,5.18,1.22,0,2.49.4,3.12-.07,2.46-1.85,4.62-1.24,7.26-.24a20.55,20.55,0,0,0,9.28,1.68c3.49-.33,7-.07,11-.07.54-.74,1.25-1.74,1.73-2.41,2.56-.07,4.43-.4,6.11,1.54,2.15,2.49,5.3,2.39,7.78,2.05l4.92-2.52,7.84,2.22,6.85-1.05c3.81,2,6.66,4.14,10.53,1.69,2.3-1.46,4.48.59,6.11,1.09l5.95,8.26,9.2-1.24,3.32,4.08h6.7l5.67,7.22c4.24,1,7.41-.62,11.5-3.53-.61,2.71-.61,4.1-1.21,5.14-1.42,2.44-1.54,2.38-1.62,6.09h4.74c18.83,0,37.66,0,56.49.06C469.87,414.51,471.76,413.26,472.2,415.68Z" fill="#bebebe"/><path d="M296.69,419.42c5.09.92,9.88-1.69,14.93-1.25,3.17,2.76,3.83,6.26,1.21,9.33-3.87,4.54-7.38,9.33-12.31,13.05-7.74,5.86-13.36,14.1-21.23,20-2.64,2-5,4.38-7.68,6.31-5.85,4.23-10.22,9.26-12.5,16.42-1.92,6.05-5.41,7.19-11.18,4.71-3.87-1.65-7.69-2.83-12-2.61-2.85.14-6-1.63-11.85-5.39-1.35-1.51-1.76-3.54-2.18-5.57a4.92,4.92,0,0,1,1.48-3.47c2.56-2.28,3.48-5.52,4.63-8.54,1.24-3.25.53-6.07-3.27-7.79-7.46.3-6.71,6.43-7.6,11.41a6.27,6.27,0,0,1-2.4,3c-7,3.91-14.31,2.56-21.36.45-6-1.8-11.88-3.54-18.23-2.65-3.44-6.5-3.08-15.5.79-20a27.63,27.63,0,0,1,13.12,7.35c3.21.66,3.93-1.84,5.52-2.95.24-1.74-.36-3.5,1.12-5.21.59-.68-.57-2.86-1.1-5l4.46-2.53c-.63-.26,0-.15.41.2,1.42,1.19,2.77,2.46,4,3.53-.47,4.43.63,8.49-1.25,12.42-.79,1.64,0,3.55,1.85,4.59l1.77-1.77V447.32l5.67-4,2.43,8.43c1.46-2,2.67-3.09,3-4.38a13.56,13.56,0,0,1,4.76-6.93l8.55,4.28c1.66,3.24,3.52,6.41,4.92,9.76s4,5.36,7,6.91,6,2.64,9.45.49c1.69-1.05,4.11-.92,5.59-1.2,3.12-4.71,5-9.1,9.5-12.37s9.8-5.6,13.28-10.19c7.77-2.79,13.15-8.8,19-14C298.21,422.44,297.45,420.93,296.69,419.42Z" fill="#979797"/><path d="M175.94,446.8c0,5.92,0,11.83,0,17.74,0,.9-.44,2.17,1.23,2.18,2.52,1.09,2.46,3.43,2.71,5.62,1.1,7.87,1.35,15.87,3.51,23.59,2.81,13,5.66,25.94,10.77,38.27-.16,3.27,1.41,6.35,1.16,9.64-3.3,2.93-2.5,6.32-.89,9.62,11.86,24.19,26.4,46.51,46,65.29,1.83,1.75,3.67,3.59,1.74,6.4-3.84,1.31-4.59-2.25-6.45-4.08-3.44-2.77-7-5.4-9-9.56a4.21,4.21,0,0,0-2.17-2.15c-3.93-1.11-5.31-4.77-7.2-7.57a26.84,26.84,0,0,0-5.75-6.81c-2.55-2-4.62-4.45-4.51-7.88-3.37-4.32-6.67-8.55-9.93-12.8-.2-.27.06-.85-.09-1.2-2.41-5.46-5.72-10.48-8.16-15.87-2.77-6.1-5.71-12.11-8.41-18.24-.77-1.75-.76-3.85-1.15-6l-2.06-2.05V527l-1.76-1.37c-.92-3-1.56-4.86-2-6.74-.51-2.08-.66-4.27-1.36-6.28-.33-.95-1.57-1.58-2.4-2.35-2.41-6.37-2.72-13.28-5-19.68.89-4.31-1.22-8.3-1.31-12.53-.1-5.22-1.47-10.33-1.28-15.65.22-6.11,1.81-11.32,6.62-15.31.48-.4.88-.87,1.63-1.61C172,446.27,174.36,444.3,175.94,446.8Z" fill="#e0e0e0"/><path d="M561.82,474.19c-.07-1.59.07-3-1.21-4.51a19.71,19.71,0,0,1-4.13-8.48l2.64-1.69c-.45-3.95-4-4.14-5.39-6.8l-9.92,1.7,3-6.18-5.69-.31c-1.39-2.36.6-2.22,1.9-2.74v-4.32c-3.6-1.68-4.19-6.6-8.46-8.4V427.3l-2-.57c-1.44-1.68-.59-3.12,1.17-4.63h3.92l7.08,2.3a28.85,28.85,0,0,1,3.81,1.27c2.07,1,3.9,2.35,6.41,2.62,1.54.16,3,1.75,4.33,2.89,1.57,1.34,2.95,2.9,4.2,4.14l5.88,1.53c1.66,1.66,3.33,3.3,5,5,.25.25.21.88.47,1,5.95,3,6.67,10.4,11.68,14.22.5,2.65,3.17,4.48,2.82,7.48-.06.57-.07,1.55.23,1.7,3.32,1.71,1.95,5.38,3.32,7.95,1.22,2.28.54,5.51,1.53,8,1.1,2.74,1.08,5.41,1.13,8.18-2.75,5.53-7.8,2.18-11.76,3.06-1-.05-2-.42-3-.42-7.48,0-13.87-1.47-15.49-10.32-.15-.83-1.5-1.3-2.33-1.89C560.59,478.89,560.13,476.71,561.82,474.19Z" fill="#e1e1e1"/><path d="M611.61,507.8a42.71,42.71,0,0,0-1.2,5.06c-.21,1.62.23,3.35-.1,4.93-.86,4.15-1.54,8.44-3.21,12.27-.75,1.71,1.16,4.3-1.72,5.12a11,11,0,0,0-4.2,5.64c-5.69,14.28-14.7,26.59-23.59,38.94-1.94,2.69-4.51,4.42-7.89,1.84-2.51-3.93.45-6.89,2.25-9.57a130.79,130.79,0,0,0,14.39-29.52,2.83,2.83,0,0,1,.45-1.15c8.26-7.82,9-18.54,11.43-28.72a45.84,45.84,0,0,1,6.17-14.16c1.55-2.41,3.47-4.79,7.45-3.2C612.31,499.38,612.75,503.58,611.61,507.8Z" fill="#7a7a7a"/><path d="M611.61,507.8V495.11a18.6,18.6,0,0,0-7.5,11.38,6.51,6.51,0,0,1-1.29,3.15c-2.6,2.53-2.62,5.67-2.39,8.14L596.74,525c0,4.61-.32,9.54-5,14,0,1.65.39,4.56-2.49,6.19-3.73-2.11-2.41-5.24-1.59-8.21,2.75-10,4.88-20.11,4.71-30.56-.06-3.76-.7-7.12-5.28-7.83-3.23-.59-6.67,0-9.69-1.39-2.06-.94-4.9-1.49-4.73-5.22,3.37-1.52,6.84-1.26,10.36-.32,2.88,0,5.77.13,8.64-.05a16.6,16.6,0,0,0,3.81-1.19c3,.36,5.31-1.06,7.42-3v-4.08l3.78-3.26v-4l4.44-3.07h1.15c1.19,1.17.79,9.11-.62,12.2.41,1.05,1.18,2.1,1.2,3.17.11,6.17.07,12.34,0,18.51C612.8,507.15,612,507.47,611.61,507.8Z" fill="#a4a4a4"/><path d="M558.08,629.78c1.47-1.67,3-3.31,4.37-5,.41-.51.48-1.3,1.07-3-3.29,1.48-6.15,1.6-6.87,5.2-5.1,1.18-8.5,7-15.68,6.18,3.22-3.19,5.81-5.75,8.37-8.31,3.42-2.29,5.46-5.14,8.12-7.33-2.8,2.32-5,5.36-8.12,7.33a9.77,9.77,0,0,0-2.67.9,50.64,50.64,0,0,0-4.14,3.72l-.63-3.38a2.31,2.31,0,0,1,.21-2.61c4.62-2.32,7-7.18,11.27-9.93,1.89-1.22,3.54-2.94,6-1.15.14.34.27.69.43,1.09l8.28-7.32c5.83-2.85,9.58-7.88,13.61-12.69,1.51-1.81,2.71-5.09,6.31-3.49v2.37l5.93-2.84c.16,1.77.28,3.12.41,4.58-2.11,2.62-4.75,5-6.2,7.93s-4.29,4.34-6.36,6.55c-2.35,2.52-4.46,5.31-7,7.6-2.37,2.13-4.16,4.75-7.23,6.39s-5.06,4.78-7.54,7.25Z" fill="#959595"/><path d="M559.33,612.36,544.54,624.8h-1.39c-2.19-2.62-4.53-1.4-6.62,0-9,5.91-19.38,9.18-28.93,14-2.67,1.36-5.12,1.57-7.11-1.17-.51-1.53.54-2.2,1.58-2.88,1.31.22,2.16-.64,3.23-1.16,6.34-3.07,12.93-5.65,19.19-8.86,6.79-3.48,13.29-7.5,18.73-13,2.76-2.81,5.75-5.39,8.64-8.07,5.35-7.18,12.42-12.6,19.19-18.27,4.32-3.62,6.67-2.77,8.19,2.09-1.38,4-4.77,6.57-6.92,10-3.23,5.19-8,9-12.12,13.4A8,8,0,0,0,559.33,612.36Z" fill="#444"/><path d="M579.24,587.46l-2.12-2.89c-7.86,5.73-15.72,10.8-22,17.78a3.35,3.35,0,0,1-3.21,1.29V602.4c-1.24-1.89-.7-3.54.68-5.07,4.43-4.94,8.52-10.17,13.05-15,1.44-1.55,3-2.2,4.94-1.07,2,.53,3.21-.93,4-2.24,2.67-4.32,6.35-7.94,8.51-12.63.81-1.76,2.61-3,3.63-4.73,4.1-6.79,8.33-13.52,12-20.54,1.57-3,4.25-4.61,6.09-7.43l.62,1.51c-1.1,2.69-2.46,5.14-2.67,8.29s-1.74,6.28-3.09,9.23c-2.49,5.41-5.37,10.64-7.9,16s-6.6,10-8.88,15.61C582.31,585.65,580.48,586.43,579.24,587.46Z" fill="#5d5d5d"/><path d="M588,590A105.11,105.11,0,0,1,568,608.7v-2.57a49.45,49.45,0,0,1,3.53-4.1,37.33,37.33,0,0,0,7.69-9.85c1.39-2.66,4-4.31,5.58-7,4.07-6.78,8-13.62,12-20.47,3.67-6.36,6.33-13.11,9.24-19.76,2.79-6.36,5.1-13,5.61-20,0-.35.78-.66,1.19-1,2.36-8.59,3.59-17.38,4.75-26.27,2.54-.53,3.89-.21,2.72,2.62a49.12,49.12,0,0,1-1.31,7.51c-1.84,5.57-1.63,11.46-3.35,17.14-1.61,5.29-3.07,10.74-4.47,16.15a48.41,48.41,0,0,1-3.26,9.17,38.12,38.12,0,0,0-3.12,8.59c-.69,3.25-3.34,5.75-3.16,9.24-3.47,5.34-5.55,11.58-10.08,16.22C589.92,586,590.36,588.88,588,590Z" fill="#4b4b4b"/><path d="M620.32,500.33v-2.16l-2.07-.37c-.58,4.8-1,9.34-1.7,13.84-.38,2.47-.62,5.25-1.94,7.19-1.17,1.72,1.12,4.32-1.76,5.15a33.31,33.31,0,0,1,1-7.57c.89-3.56,2.37-7.27,1.46-11.16,2.24-6.71.79-13.65,1.28-20.47.2-2.73,1.69-5.69,1-8.06a26.46,26.46,0,0,1-1-7.58c-.05-2.88,0-5.76,0-8.64,2.49-3.69,5-3,7.47,0v17.42c-.42,2.67-.9,5.32-1.23,8s.49,5.41-1.14,8.07c-.73,1.17,0,3.18-.18,4.78C621.45,499.32,620.74,499.81,620.32,500.33Z" fill="#898989"/><path d="M624.06,460.5l-3.33-.91c-.86,1.43-2.61.81-4.14.91-2.74-4.46-2.66-9.43-2.46-14.22a9.82,9.82,0,0,1-2.35-9c3.11-2.24,3.11-2.24,8.17-.31a71.74,71.74,0,0,1,2.8,7.36c.65,2.47-.21,5,.74,7.72S623.92,457.67,624.06,460.5Z" fill="#a6a6a6"/><path d="M177.19,472.94V460.77a7.15,7.15,0,0,1,6,1.16,25.76,25.76,0,0,0,12.89,4.9c3.63.25,7.19,1.55,11.28,2.49,1.61-1,3.06-3.64,5.93-2.6,2.23,1.62,1.32,5.27,4.19,6.45,2.18,1.45,4.92-1,7,1v3.12l10.65,5.36,6.27-1.11,11.79,5.5c3.46-2.85,3.55-6.61,4.89-9.78.9-2.11,1.66-4.28,2.69-6.33a4.15,4.15,0,0,1,2.17-2.14c4.06-.88,6-4.61,9.14-6.5s5.16-5.25,8.23-7.08c3.58-2.14,6.15-5.24,9.07-8,1.58-1.5,3.23-2.91,4.06-5.14a5.65,5.65,0,0,1,3-3c7.19-2.46,9.48-10.09,15.17-13.8v-7.09h13.69c4,3.3,2.73,7-.2,9.65C314,437.73,307,450.87,298,462.39c-6.38,8.15-11.21,17.81-15.57,27.42-2,4.44-1.18,8.84,1.74,12.92,3.74,5.22,7.28,10.58,12.3,14.71,2.89,2.37,5.79,4.77,9.69,4.15,3-1.18,3.49-3.69,4.05-6.12,3-12.7,6.05-25.37,7.25-38.41.63-6.81,2.34-8.48,7-7.3,1.51,2.46,1.4,5.18.94,7.81-1.38,7.77-2.12,15.74-6.28,22.76-.41,2.27-.77,4.56-1.26,6.82s-1.09,4.44-1.64,6.66c-1.25,5-3.45,9.83-3.32,15.15,1.81,6-1.33,11.19-2.64,16.68-.46,1.94-2,3.75-.4,6.21,3.11-.53,3.31-3.13,3.66-5.44.59-3.82,1.14-7.75,6.05-8.06,4.62-.3,5.52,3.56,6.77,6.86a10.38,10.38,0,0,0,2.52,4.52c7.36-.91,10.22,5.07,13.28,10.8a22.4,22.4,0,0,0,1.9,3.21c8.92,11.5,11.8,25,12.3,39,.2,5.61,1,11.11,1.52,16.67s1.14,11.16-3.89,15.3l-8.71-7.47c-10.54-10-10.56-24.68-16.59-36.68-2.76-5.49-5.24-11.16-9.24-16.08-5.6,1-11.08.41-16.27,1.49-6.92,1.46-13,2.51-14.26-6.55-12.45-1.69-27.82,13.79-29.77,29.46,5.53,2.12,8.91-3.25,13.55-4,10,2.26,15.1,7.83,16.21,17.63-2.11,5.55-7.1,3.72-11.16,4.31a18.5,18.5,0,0,0-4.33,1.05c-6.6-1.7-12.76-1.72-17.49,4.32-.6.77-1.79.88-2.83.91-9.52-1.31-16.53-6.56-21.87-14.22-2.31-3.31-6-5.46-7.69-9.21.22-4.11-.89-7.92-2.07-11.86-3.78-12.58-3.67-24.71,5.28-35.56,3.29-4,6.13-8.36,10-11.84,7.37-6.64,10.16-15.83,14.2-25.19-2.41.43-3.71,2.63-5.49,2.27-1.82-.17-3.49-.76-3.87-2.12-1.58-5.69-6.26-7.89-10.86-10.29a17.35,17.35,0,0,1-5.36-4.19c-10.65-12.72-24.95-19.38-40.26-24.37A31.27,31.27,0,0,1,177.19,472.94Z" fill="#959595"/><path d="M278,614.85h6.86l1.74-1.78c-1.22-8-6.14-12.77-13.86-15.7-4.58,4.2-10.65,6.07-16.9,7.52-3-2.27-3.55-3.32-2.09-6.17s3.42-5.69,5.58-9.21c0,.53-.12.07,0-.29a75.3,75.3,0,0,1,5.55-11.33c1.86-3.11,5.32-5.57,8.56-7.49A110.22,110.22,0,0,1,287,564.18c2.28-.95,3.27-.52,6.13,1.65v9.58c7-3.66,14.31-2.81,21.73-2.89l4-4.83H321c2.28,5.11,4.06,10.48,7,15.13,1.79,2.83,2.67,6.09,4.63,8.65s2.2,5.76,3.3,8.61c1.31,3.38.89,7.25,3,10.6,1.19,1.88,1.23,4.48,2.1,8,1.72,1.7,4.73,4.26,4.24,8.6a74.48,74.48,0,0,1-6.22-4.44,29.69,29.69,0,0,1-3.41-4.27h-2.82c-4.06,4.88-9.7,1.83-14.53,2.84-5.27-.62-10.7.47-15.82-1.6-5.75-.51-11.54-.37-17.28-.87C282.29,618.7,278.77,619,278,614.85Z" fill="#b1b1b1"/><path d="M353.94,634.76c.46-2.72-.22-5.39,1-8.29.9-2.17,1.29-5.6-.63-8.2a2,2,0,0,1-.32-1.1c0-3.19.05-6.32-1.12-9.47-.5-1.34,1.34-3.78.68-4.8-1-1.64-.63-3.12-.81-4.67-.44-3.75-1-7.51-1.2-11.28-.18-4.06-2.1-7.41-3.82-10.85-1.64-3.26-3.49-6.43-5.37-9.57-2.28-3.82-4.92-7.46-6.95-11.41a4,4,0,0,0-4.4-2.5l-2.62,5.17c-1.68-3.18-4.05-5.7-4.41-9.51-.27-2.78-1.77-5.43-2.7-8.09h-3.1a38.09,38.09,0,0,0-1.48,5.32c-.33,2.34-.32,4.61-1.07,7a12.13,12.13,0,0,1-2.9,4.58L306,558.74l-2.05-2c.49-3,1-6.26,1.65-10,.6-.46,1.56-1.22,1.39-1.09,1.59-5.15,2.44-9.18,4.15-12.81.59-1.25-.85-3.61,1.75-3.88l.87,1.56c2.9-1.31,3.59-3.73,4.1-6.24a29.57,29.57,0,0,1,5.52-12.83c1.67,3,1.61,6.36,3,9.32s-1.37,6.62,1.83,9.19c2.25-.62,1.79-2.57,2.33-4.17s2.05-2.81,3.23-4.32c2.95-.24,3.42,3,3.79,4.47.71,2.85,2.22,4.91,3.65,7.27,1.34,2.21,3.64,4.28,2.93,7.54-.18.84,1,2,1.62,3,3.35,5,7,9.93,10,15.16,1.7,2.94,2.41,6.45,3.62,9.68,1.48,3.95,3.25,7.8,4.49,11.83,1.13,3.71,1.56,7.63,2.61,11.37.68,2.44,2.15,4.69,0,7.11-.3.35,0,1.21,0,1.83,0,2.79,2.06,5.26,1.26,8.2-.68,2.48-1.53,4.86-1.37,7.58.13,2.07-1.07,4.21-1.06,6.32,0,3.77.55,7.54.83,11l5.32,5.28-5,1.87v3.77h-2C361.77,640.61,356.29,639.36,353.94,634.76Z" fill="#848484"/><path d="M317.85,618.58h14.93c.44,1.47.88,2.94,1.39,4.67l6,2v2.87c-4.42,1.33-7.32,4.24-9.62,8.16-3.46,5.88-6.49,12.21-13,15.63a11.32,11.32,0,0,0-2.17,1.93v5.17l-1.85,1.85c-3.64,0-7.37.26-11.05-.08a23.17,23.17,0,0,1-8.38-2.12,14.59,14.59,0,0,0-7-1.53c-2.24-1.12-3.57-2.23-5-2.41-3.26-.4-4.95-3.45-8.31-4.1a13.1,13.1,0,0,1-7.83-4.93,2.91,2.91,0,0,0-1.44-1c-4-1.21-7.22-3.82-10.38-6.31-5.81-4.59-12.35-8.3-17.15-14.14-.85-1-1.45-1.9-1.26-3.22a22.75,22.75,0,0,1,3.1,2.55,3.25,3.25,0,0,0,3.13,1.18,3.9,3.9,0,0,1,2.59.1c4.43,4.17,9.81,6.84,15.15,9.58a17.72,17.72,0,0,0,7.95,5.25c5.16,3.56,8.93,9.26,15.71,10.3,5.66.87,11.1,4.22,18.12,1.59-3.32-10.41-3.77-20.33,6.59-27.23a27.93,27.93,0,0,1,5.33-.15c.33.76,0-.47.61.07,0-.06,0,0-.07,0-2.82-1-2.82-1-3.66-4.35C312.53,618.14,315.53,620.23,317.85,618.58Z" fill="#dadada"/><path d="M561.82,474.19l2.49,5c2,5.95,5,11.47,7,17.4,1.17,3.42,2.24,6.94,5.5,8.54a7.44,7.44,0,0,1-.33,5.74,29.05,29.05,0,0,0-7.89,8.7c-3.17,5-4.6,10.61-2.91,16,3.11,9.83,0,18.38-3.68,28.08.2,8.49-2,11.28-12.32,14.18-3.29-.34-4.07-2.84-4.69-5.47.63-5.66,5.21-9.52,6.62-15,2.14-8.34,6.52-16,6.79-25,.14-4.52-2.19-8.65-.91-12.74-1.54-2.77-3.82-4.27-5.68-6.16-1.56-2.07-1.44-4.9-3.15-6.9-3-3.2-3.72-7.69-6.9-10.88-8.54-8.56-18.8-12.72-30.73-13.33-1.45-.07-3,.19-4.43-.62-1.52-1.34-2.13-3-1.4-5.7,8.75-5.28,18.58.35,28.68-2.42,1.11-3.31,4.45-2.49,8-1.23-6.23-2.39-2.36-6.43-2.39-9,1.49-2.47,3.41-2.16,4.86-2.85C550.94,464.12,556.07,469.55,561.82,474.19Z" fill="#a4a4a4"/><path d="M544.39,460.5l-2.17,3.1c-.52,2.37-1.09,5-1.82,8.29l4.71-2.47,1.77,1.61-1.61,1.82h6.4c.07,1,.1,1.54.16,2.35h-3l-3.64,4.92c-.45-1.84-.69-2.86-1.08-4.43l-3.57-3.06-.81.48c.15.5.31,1,.61,2l-2,.75c-.25-.42-.92-1.59-2.13-3.7-.22,1.43-.35,2.29-.49,3.15l-.91-.87-.28.44c2.68,1.11,1.79,4.31,3.56,6.15l-1.51,1.64c-.3-.13-.74-.18-.84-.4-1.06-2.24-2.06-4.51-3-6.67H529l2.91,4.79-7.23-1.67-.36-1.76a8.33,8.33,0,0,1-2.78.88,14.69,14.69,0,0,1-3.55-1.16,9,9,0,0,1-1.18.79,17.41,17.41,0,0,1-1.76.63c-.3-.87-.54-1.59-.79-2.31-1.69-1-2.87,0-4.34.77-1.1.54-2.69.11-3.83.11l1,3.73c-.78,1.8-2.54,2-4.07,2.25-9.91,1.69-18.7,6.26-27.62,10.51-5.34.22-8.24-2.43-9.53-7.86,9-6.33,19.44-8,29.07-11.65,2.27-.92,2.24-3.85,4.82-5.26,2.65-1.6,4.9,1.58,7.52,1.75a2.81,2.81,0,0,0,2.2-2.8c-12.28-5.06-13.9-12.07-6.53-16.79,8.85-2.65,17.65,1,26.48.17a5.06,5.06,0,0,1,2.55,1A79.51,79.51,0,0,1,544.39,460.5Z" fill="#909090"/><path d="M489.62,419.42l2.66-1.94-1.41-.55c.53-.42,1.06-1.19,1.6-1.19,6.84-.08,13.77-.75,20.48.17a156,156,0,0,0,15.82,1l2.77,2.24H514.59l-1.89,6.3-5.59.92c-1.19,2.07,1.11,3.36,2.43,4.82l-1.27,1.27,2.83,2.41c1-2.55,1.78-4.64,3-7.81.27,2.37.41,3.66.58,5.19.86,1.19,1.88,2.61,3.14,4.38l2.58.42c-.34,1.3-.62,2.39-.89,3.48-2.87,2.91-6.1,2.13-9.36.93a12,12,0,0,1-1.51-1.15c-3.83-2.94-8.64-4.67-11-9.45s-10.54-.28-11.38-7.08C486.44,421.4,488.15,420.51,489.62,419.42Z" fill="#cacaca"/><path d="M510.78,438.09c2.29-.61,3,1.53,4.45,2.49h4.27c.22,2,1.83.93,2.46,1.13l6.76,7.69,1.36-1.35c.65,1.29,1.26,2.51,1.86,3.73h-2.49c-4.44,1.49-8-1.16-11.89-2.46-2.46-2.43-3.51-6-6.72-7.92C509.94,440.87,510,439.23,510.78,438.09Z" fill="#aeaeae"/><path d="M270.55,353.45c.32-.42.64-1.18,1-1.2,9.78-.48,19.57-.81,29.34-1.33,4.19-.22,8.36-.95,12.55-1.16s8.52.79,12.39-.24c6.52-1.73,13-1.07,19.43-.89,5.35.14,10.36-1.75,15.67-1.47s10.53.9,15.51-.12c9.19-1.88,18.35-.68,27.51-1,4-.13,7.77-1.91,11.93-1.41,3.89.45,8.07.87,11.77-.08,6.91-1.77,13.86-.18,20.66-1.19,7.78-1.14,15.81-.88,23.35-3.62,1.26-.46,2.5-.95,3.88-1.48,2.54-3.18.91-7.61,3.44-11.3l-7.07-5.5c1.37-3.61,2-8,4.38-11,3.92-5,4.93-10.26,4.63-15.77l-2.75-5.21c3.11-3.77.61-7.17-.91-10.52l3.85-11.19h-3.9c.25-1.55.15-3,.75-4,.7-1.19,1.75-2,1.86-3.65.08-1.17,1.47-2.26,2.35-3.51a12.51,12.51,0,0,0,0-2.92,13.54,13.54,0,0,0-1.46-2.85l3.48-3.08,1.7,1.39,2.88-2.39c-1.34-2.43-2.23-5.19-4-7.05-2.89-3-4.27-6.21-3.68-10.27l-5.81-4.13L482,220v-6.11c-.83.62-1.29,1.21-1.87,1.36a11.84,11.84,0,0,1-2.71.05V204.74L470.72,199l6.22-4.39v-2.15l3.37-3.25c5.83-.87,11.46,1.75,17.42,1.29s12-.11,18-.11c3.08,0,6.16.1,9.23,0,8.69-.32,17.24,2.16,26,1.26,4.4,1.94,9.07,1.05,13.63,1.3.35,0,.65.77,1,1.19-4.76,0-9.72.83-14.23-.23-4.68-1.1-9.22-.69-13.83-1.06l-6,6.32,4.38,3.18c-1.12,3.86-2.15,7.4-3.27,11.23,6.37,2.48,9,8.22,13.39,12.94l-4.21,3c.71,3.31-1.06,6.9,1.22,10.12l-2.41,2.52c.07,1,.13,2,.2,3l6.62-1.65c-2.07,5.09-5.69,7.19-9.19,9.28l5.18,6.87-8.8,2.07c1.26,4.53,1.26,4.53-1.4,8.93,1.62,1.48,1.71,2.91.28,4.72a54.82,54.82,0,0,0-3.5,5.79l5.42,4.9v5.63l-5.19-3.26c-2.07,2.65.63,4.21.8,6.46,1.66,0,3.29-.07,4.9.06.36,0,.67.77,1,1.19-7.52,4.72-8.44,13-11,20.41-.57,1.61,1.09,2.47,2.31,3.24.15,1.18.23,2.38.46,3.55.15.74,1,1.66.72,2.12-2.33,4.48,1.37,8.89-.37,14.08-.47.34-1.62,1.21-2.76,2.07l.33.33c-.17.09-.36.26-.51.24-3.89-.61-7.54,1-11.32,1.22-9.57.54-19.24.19-28.69,1.52-6.53.92-12.95.83-19.43,1s-13.28-.13-19.91.08c-5.64.18-11.27.84-16.91,1.14-1.08.06-2.2-.55-3.81-1-.68.22-1.95.69-3.25,1a8.85,8.85,0,0,1-1.86,0c-12.69.41-25.42.35-38,1.46-5.44.48-10.85,1-16.31,1a18.42,18.42,0,0,1-4.14-1.08,13,13,0,0,1-2.92,1.08c-1.42.21-2.9,0-4.35.07-1.18.07-2.7-.11-3.47.54-1.64,1.38-2.05-1.16-3.62-.68a27.61,27.61,0,0,1-9.41,1.48c-3.13-.15-6.5-1-9.47,1.09-.41.3-1.21,0-1.83,0-9.58.41-19.16.8-28.73,1.28a12.28,12.28,0,0,0-3.15,1.17,10.06,10.06,0,0,0-7.93-.46c-3.35,1.13-7.32.38-11,.51-.9,0-2.21-.49-2.23,1.23-3.51,0-7.25-.78-10.49.16-6.07,1.76-12.11.63-18.14,1.08-.85-.41-.85-.83,0-1.24,5.94-2,12.17-1.23,18.25-1.87C266.11,353.83,268.42,354.65,270.55,353.45Z" fill="#b7b7b7"/><path d="M276.77,368.38h1.43c1.42,1.72,2.76,3.17,3.89,4.77a10,10,0,0,1,.9,2.7c.56,5.95-.61,11.77-2.28,17.33-1.83,6.1-13.11,6.36-17.69.63a20.28,20.28,0,0,1-3.73-7.66,59.3,59.3,0,0,0-3.39-8.62c-1.27-2.93-2.85-5.73-4.27-8.51,1.54-3.21,4.08-2.42,6.5-2a2.43,2.43,0,0,1,1.14.36C268,374.09,268,374.09,276.77,368.38Z" fill="#7b7b7b"/><path d="M258.1,369.63c-2.13-1-3-1.08-6.09-.76,2.69,2.28,6,4.11,6.09,8.29,3.4,4.12,3.68,9.64,6.25,14.12,1.17,2,2.65,3.89,3.89,5.7h8l2.87-3.27c1-5.8,1.81-12,3.87-17.86,1.87.11,1.06,1.55,1.25,2.49.88,5.71-1.59,11.17-1.26,16.83l-6,3.08h-12.3a67.6,67.6,0,0,1-5.25-4.36c-1.08-1.07-2.48-2.6-2.43-3.87.19-5.16-3.53-9-4.19-13.83a45.12,45.12,0,0,0-1.47-5.21c-2.05-1.74-4.44-4.43-8.17-5.09-.32-.41-.64-1.19-.95-1.18-2.09,0-1.43-1.47-1.54-2.55-.76-1.42.53-1.81,1.25-2.49h7.46c1.77,1.09,4.11.68,5.73,1.81C257.88,363.4,261.26,365.4,258.1,369.63Z" fill="#a0a0a0"/><path d="M258.1,369.63a13.74,13.74,0,0,0-.84-2.66c-.82-1.49-3.1-2-2.94-3.88l-4.94-3.42a63.45,63.45,0,0,0,6.76,0c4.62-.51,8.15,1.21,11.06,4.91h5.26l4.31,3.84,1.35,2.55c-1.62,3.61-5.37,4.39-8.28,6-2.11,1.19-4.71-.25-6.5-1.63C261.32,373.79,259.82,371.56,258.1,369.63Z" fill="#5b5b5b"/><path d="M241.92,359.67l-1.25,2.49c-2.06.23-.91,1.87-1.36,3.16l2.59,1.93v4.83c2.63,4.26,5,8.07,7.42,12l-1.78,1.55c-4.45-1.48-4.45-1.48-14.06-12.58-1.4-5.86,1.09-10,5.5-13.37Z" fill="#d1d1d1"/><path d="M245.65,355.94v1.24a18.51,18.51,0,0,0-7,1.16c-2,.61-4.16.42-6.36,1.1a41.84,41.84,0,0,1-12.46,1.36c-2.7,0-5.07.83-7.57,1.36-2.31.48-4.92-1.05-7,1.1-.31.32-1.18.2-1.77.13-6.75-.84-13.35.94-20,1.53-5,.44-10,.88-15,1,.14-.35.26-1,.43-1,5.37-.53,10.75-.93,16.11-1.5,3.51-.38,7.21-.46,10.42-1.71,1.88-.72,3.52-.53,5.26-.72,2.54-.28,5.05.24,7.59-1.16,2-1.08,4.46.19,7-1.11s5.74-.87,8.66-1.29C231.08,356.34,238.4,356.35,245.65,355.94Z" fill="#b7b7b7"/><path d="M581.73,326.06h-4.32c-3.45-2.84-3.12-7.34-4.83-11-3.66.17-3.63.18-4.55,3-.71,2.16-1.5,4.3-2.29,6.53h-6.56c.75-2.19,1.39-4.14,2.09-6.07,2.55-7,5.11-13.92,7.75-21.09h5.25l-1,7.42a7.83,7.83,0,0,0,2.36-.72c2.09-1.51,4-3.33,6.13-4.71,1-.62,2.42-.48,4.53-.82-2.81,4.82-6.68,7.33-9.53,10.82-1,3.37,3.72,4.49,3.18,8C579.46,320.36,582.25,322.92,581.73,326.06Z" fill="#373737"/><path d="M589.2,303.66v-3.42h6.23v14.25c1.76-1.37,3-1.95,3.68-2.93,2.28-3.38,4.34-6.89,6.56-10.46l3.88.38c-5.41,9-9.69,18.15-15.93,25.95-1.32-.45-3,.68-3.17-1.37-1.59-5-.13-10.12-.63-15.16C589.58,308.49,590.44,306,589.2,303.66Z" fill="#434343"/><path d="M614.51,300.94l2,2.06c-2.51,8.34-5,16.74-7.64,25.34h-6.32c2.78-8.68,5.46-17,8.19-25.56Z" fill="#444"/><path d="M589.2,303.66c1.68,0,1.23,1.28,1.23,2.18,0,6.74,0,13.48,0,20.22l-2.14-1.42c.32-2.72.78-5.16.85-7.61C589.3,312.58,589.2,308.11,589.2,303.66Z" fill="#bfbfbf"/><path d="M528.21,319.84l-1.91,2.3h-6.72c3.47-8.5,6.94-17,10.62-25.95h6.72c-1.19,3.05-2.92,6-2.38,9.71h7c2.93-2.2,2.63-6.4,4.59-9.6h5.35c.13,4.76-5.67,20.66-9.81,26.94-2.14.56-4.29.95-5.7-1.2,1.64-4,3.23-7.77,5-11.93h-8.6C529.5,312.47,529.37,316.38,528.21,319.84Z" fill="#303030"/><path d="M554.45,323.43h-6.52c1.12-4.71,3.56-8.66,4.82-12.9s3.58-8.11,4.4-12.82h5.9c.15,3.22-1.15,6.11-2.59,8.68-1.55,2.76-1.12,6-3,8.7C555.81,317.51,555.36,320.75,554.45,323.43Z" fill="#353535"/><path d="M179.68,205.32c.14-.35.25-1,.44-1,4.54-.54,9.09-.94,13.63-1.5,2.11-.27,4.19-.84,6.29-1.22s4.52.93,6.33-1.16c.1-.11.38-.07.58-.09,4.57-.41,9.15-1.22,13.71-1.1,2.74.08,5-1.15,7.52-1.44,2.32-.26,4.78,1,7-1.08.78-.72,2.78-.11,4.23-.11a53.1,53.1,0,0,1,5.65-1.2,48.9,48.9,0,0,1,5.55,0c3.13-.41,6.25-1,9.39-1.2s6.83.71,9.84-.22c4.63-1.43,9.39-.05,13.72-1.24,6.89-1.88,13.74-.52,20.57-1.07,1.08,3.72-1.32,4.9-4.2,5.26-4.41.55-7.83,3.67-12.18,4.38-1.37.22-2.51,1.4-3.57,3,1.14,1.7,3.81,1.15,5.32,2.48,1.09,12.57,13.2,14.49,20.08,21.48.71.72,2.32,1,2.45,1.79,1.35,8.46,8.91,13.12,13,20.14-4.31,5.32-4,11.58-6,18,8.55,4,3.49,12,4.37,18.07,8.24,6,9.39,7.93,4.95,16.8-4.26,8.53-1.82,15.95,1,23.74.94,1.49,2.77,1.79,4,2.94,4.26,4.14,2.79,8.5-2.42,11.38-7.35,4.07-15.36,2.95-23,3.94-17.65,2.29-35.44,3.41-53.14,5.35-26.85,2.94-53.61,6.67-80.65,7.67-6.69.24-10.28-3.44-9.41-9.7,2.06-14.83,5-29.64,4.24-44.67-.48-9.81,2.86-19.18,2.11-29-.35-4.63,3.09-8.44,7.45-9.77,2-3.6.9-6.79.42-9.7-1.35-8.13.33-15.13,6.19-21,6.28-6.29,6.73-14.23,6.89-21.44C189,207.24,182.1,210.36,179.68,205.32Z" fill="#7a7a7a"/><path d="M179.68,205.32h7.76c3.76,2.15,7.2,4.24,11.18.83,1,1.1,1.76,1.94,2.9,3.19L196,212.07c-.45,1.2-1.11,3-2,5.31l4.38.65c-.33,1.26-.29,2.82-1.06,3.61s-2.42,1-3.37,1.4c-1,4-2.06,8-3.08,11.92-.91.1-1.49.15-2.06.24s-1.13.23-1.69.35L190,239.4c-2.53,1.75-5.89-.68-7.69,2.71-.52,2.32.64,5.22-1.06,7.68,1.92,2.36.81,5.13.89,7.69.1,3.27,2.4,5.27,4.05,7.58-2.42,3.95-6.07,3.87-9.65,3.72l-3.36,7,2.84,5.4-2,3.9c-2.52,9.53-1.57,18.75-1.8,27.91,0,.86-1,1.71-1,2.56s1.09,1.79,1,2.63c-.26,2.74-.83,5.46-1.34,8.52l3,2.15-5.39,5.07c.56,4.18,1.1,8.31,1.67,12.55l-2.85,2.24V353c2.75,2,6.11,3.82,9.22,2.65a16.51,16.51,0,0,1,5.8-.93c6-.13,12,.11,18.05-.09,6.26-.22,12.63-.2,18.73-1.42,3.62-.73,7.51,0,10.64-1.24,4.83-2,9.8-.43,14.71-2,4.53-1.43,9.86-.29,14.83-.32.79,0,1.81.05,2.31-.39,3.07-2.77,6.85-1.59,10.34-2.17,6.86-1.15,13.88-1.14,20.64-2.76,1.06-.26,1.46-.52,2.28.23a2.07,2.07,0,0,0,1.77.09c4.09-1.59,8.57-.35,12.5-1.45,3.67-1,7.17-.73,10.75-1,1.23-.09,2.47,0,2.78,0l11-5-1.25-6L330.6,331c-.19,1.23-.38,2.37-.58,3.64H327a44.41,44.41,0,0,1-1.58-6.15c-.28-2.24-.07-4.54-.27-6.64-.24-2.95-3.13-3.24-4.88-5.26,2.27-6.05,4.61-12.3,7.44-19.83v-5.7l-5.43,1.72-3.18-4.57c.1-.94.32-3.3.63-5.66a6,6,0,0,1,.67-2.2,7.56,7.56,0,0,0-.39-8.79,17.6,17.6,0,0,0-3,1.28,13.49,13.49,0,0,0-2.05,2h-5c1-1.87,1.38-3.67,2.5-4.72,4-3.76,5.36-6.14,5.38-10.86,0-2.06,0-4.11,0-6.66l4.81-1.74c-1.35-1.84-2.39-4.19-4.2-5.47-1.62-1.14-4.07-1.12-6.3-1.65-1.34-2.18-2.73-4.43-.63-7.28.58-.78.09-2.35.09-3.63-3.92-1.59-7.95-2.72-8.37-7.3-4.94-.4-8.7-1.35-10.6-6-.73-1.77-2.82-3-4.5-4.67V208l-3.71-.21c-.13,1.3-.22,2.28-.35,3.51h-3.2l-5.71-5.75,3.31-4h4.09c1-1.57,2.14-3.21,3.23-4.84,1.86,0,3.75-.84,5.55,1.5.76-1.81,1.4-3.34,2.19-5.19.17,0,.88-.36,1.29-.13,2.4,1.31,4.94,1.38,7.72,1.08l1.59-2.37c5.73-1.57,11.72.58,17.43-1.25,6-.41,12.06-1,18.1-1.2s12,0,18,0c1,3.31-.92,4.71-3.68,5-3.66.38-6.69,2-9.62,3.82a8.34,8.34,0,0,0-1.64,7.51c4.48,3.23,6.31,9.11,10.49,12.42,1.47,3,.06,5.85.69,7.58,1.13,2.72,3,3.43,4.44,4.55,3.83,3,5.49,6.63,4,11.45-1.44,4.58.29,9.57-2.48,14.26,5.86,4.4,6.5,10.07,4.89,16.35a7.69,7.69,0,0,0,.85,6c3.84,5.84,3.28,10.83-3.4,15.14,9,5.7,4.42,13.78,3.84,20.17-.59,6.58-.08,12.13,2.87,17.47-.58,3.16-.71,6.09-2.61,9-9.14,3.61-19.23,3.56-29.08,4.82-11.83,1.52-23.79,1.68-35.56,3.72h-5c-6.18,1.15-12.52-.13-18.68,1.24-7.34-.67-14.47,2.2-21.83,1.25-3.4,1.75-7.37.33-10.58,1.47-3.48,1.25-6.77.58-10.11,1.05-1.72.24-3.37.86-5.08,1.2-4.13.81-8.4.84-12.48,1.5a121.31,121.31,0,0,1-12.56,1.05,13.33,13.33,0,0,0-5.64,1.29c-2.9,1.65-5.88,1-8.85,1.15-15,2.14-30,3.1-45.09,4.11-8.18.55-12-4.07-11.73-12.29s.56-16.51,2.62-24.6a15.28,15.28,0,0,0-1.57-11.44c-1.48-2.64-2.39-5.49-1.52-8.33,2.14-7,.17-14,.44-20.94.4-10.19-1.58-20.42,2.11-30.57,2.67-7.33,2.93-15.41,4.35-23.14.69-3.79,3.91-7,2.74-11.19-2.76-3.67-9.07-.77-10.85-6,.14-.35.26-1,.43-1a32.29,32.29,0,0,0,11.84-2.73c5.89,1.08,11-2.5,16.83-2.82A73.54,73.54,0,0,0,179.68,205.32Z" fill="#8c8c8c"/><path d="M301.66,348.47a67,67,0,0,1,7.93-2.49c6.25-.42,12.52-.6,18.73-1.37,2.29-.28,4.53-1.09,6.95-1.19s4.59.51,7.07-1c1.83-1.09,5.06.4,7.27-.38,2.54-.9,5-1,7.4-1.74l7.92-2.4c.19-1.8.42-3.92.77-7.22-.87-1.52-2.38-4.13-4.28-7.42v-7L363.9,314v-3.17c-.66-1.65-3.46-2.43-2.14-5.73l3.36-2.73V299l-7.4-2.06V293l-2.9-1.19,2.69-1.29,1.49,1c2.06-2.65,6.21-3.06,7.79-7.35l-5.75-.71c2.87-4.28,1-7.29-1.82-10l3.43-3.21v-6.62l-1.92-3.72-4,1.08v-8.11l2.51-1.74c-.59-2.65-1.58-5-1.44-7.19.12-2,1.59-3.85,2.3-5.83a7.06,7.06,0,0,0,0-2.29l-4.25-4.25-4.39-.22-2.86-5.52,3.51-6-8.45-5.08c.63-1.5,1.14-2.69,1.8-4.24h-5.61c-2.22-1.85-3.33-3.59-1-5.77l-1.5-2,3-3.44c-.51-1.77-1-3.64-1.66-5.82l2.55-2.15,4,3,4.55-4.23,5.76,1.71,2-2.76c.22-2.08,1.85-1.2,2.85-1.21,11.59-.06,23.28.9,34.75-.31,10.45-1.1,20.8-.68,31.19-.92s20.71,0,31.06,0c1.66,0,3.32-.07,5,.06.36,0,.66.77,1,1.18-14.51,0-29-.07-43.54.07-2.72,0-5.47-.67-8.28,1-2,1.23-5.14-.78-7.56,1.31a3.62,3.62,0,0,1-3.52-.12c-2.06-1.89-4.28-.52-6.8-1.28-1.18,3.88-2.27,7.48-3.39,11.18l2.23,2.22c-1.3,5.7,2.37,10,4.91,15.68v4.91c1.34.38,2.63.71,3.89,1.12s2.49.94,3.95,1.5c-.69,2.32-1.25,4.18-1.76,5.9l3.48,5.24,3.19-1.58L412.5,237l-3.86,3.88c.49,1.54.93,2.82,1.31,4.11s.71,2.56,1.23,4.48l-4.08,3,2.78,2.11c0,.41.07,1.21.14,2.47-.6.17-1.44.15-1.89.56-2.24,2.1-3.32,5.36-6.54,6.52-.21.08-.35.71-.31,1.07a3.39,3.39,0,0,0,.53,1.06l1.32-1.2,1.81,1.82c-.86,3.09-1.73,6.24-2.76,9.93l4.23,2.4.81-.75,3.22,2.49-6.66,8.75v6c.63.49,1.44,1.13,2.65,2.06-.49,2.46-1,4.91-1.5,7.56l2.85,3.17c-1.54,4.35-3.07,8.69-4.51,12.74,2.23,2.22,4.62,4.62,7,7l-3,5.19h-5.4c-1.67,2.28-3.21,4.36-4.45,6-2.56.87-4.78-.42-6.92,1.41-1.31,1.12-4-.79-5.75,1a1.43,1.43,0,0,1-1.08.33c-5.74-.88-11.2,1.49-16.9,1.32-6.28-.19-12.43,2-18.77,1.19-3.8,2.1-8,.5-11.9,1.35-5.84,1.3-11.85.24-17.5,1.38S307.3,348.08,301.66,348.47Z" fill="#8d8d8d"/><path d="M447.3,181.67c6.74,0,13.48,0,20.22,0,.9,0,2.18-.45,2.19,1.23-6.74,0-13.49,0-20.23,0C448.59,182.9,447.31,183.34,447.3,181.67Z" fill="#ababab"/><path d="M321.58,190.38c-.39,2.38-2.21,1-3.36,1.21-2.05.37-4.39-.68-5.73.84l-8.34-.8c0-1.66,1.28-1.22,2.17-1.23C311.41,190.37,316.5,190.38,321.58,190.38Z" fill="#7a7a7a"/><path d="M408.71,415.68H436.1c.53.42,1,1.18,1.59,1.19,4.33.1,8.67.05,13,.07,1,0,1.91.14,3.9.29-3.44,3-6,5.74-9.32,7a5.29,5.29,0,0,0-3.36,3.72l-3.32.35v2.3a2.84,2.84,0,0,1-1.18,2.73c-9.86,5.46-16,15-24.19,22.21-2.73,2.4-4.88,5.29-5,9.19-1.23,5.43-5.26,9.1-8.6,13.1-2.34,2.8-3.71,5.58-3.36,9.18-1.49,4.07-4.74,1.1-7.09,1.68a8,8,0,0,0,.65,1.74c.2,1.9-.49,3.65-.72,5.47-4.86,10.87-9.32,21.92-13.62,33-1.08,2.77-1.71,5.31-5.07,5.48-3.66.18-5.66-2-6.74-5.31-2.64-8-2.84-16.31-3.94-24.51-.91-6.79-1.33-13.58-6.27-19.12-2.28-2.55-1.61-5.49,1.09-7.62,4-3.18,4.63-7.28,4.56-12.18a32.42,32.42,0,0,1,5.53-19.37c5.71-8.15,12.2-15.72,18.53-23.4,3.88-4.71,8.65-7.39,15.17-6.72C401.71,416.53,405.31,417,408.71,415.68Z" fill="#464646"/><path d="M489.62,419.42l-2.18,3.12,1.5,3.08L499.05,424a39.38,39.38,0,0,1,1.07,5.37c.18,2.83,2.86,4,3.83,6.22l1.48-1.36a6.63,6.63,0,0,1,4.11,3.89c-1.28,3.74-3.7,1.88-5.8,1.11-2.31-.85-3.92-3.7-7-2.44a6.38,6.38,0,0,1-3.4-.44c-4.27-3-9-1.56-13.62-1.45-.57,0-1.13,0-1.7,0-1.9-.17-3.33-1.57-5.27-2.07a22.64,22.64,0,0,0-7.37,2.63c-2.34,1.3-5.14.67-7.53,1.8-3.8,1.66-8.59.19-11.81,3.72a3.74,3.74,0,0,1-2.19,1.39c-1.58.28-3.15-.79-4.95.09-1.75,1.85-2.68,4.72-5.29,6.1-2.79,1.13-5.54,4.66-8.49.14-.45-2.93,1.68-5,2.67-7.38,2.93-5.24,8.1-7.31,13.27-9.39,1.77-2.24,3.61-1.35,5.57-.28a22.78,22.78,0,0,1,2.11-3,32.35,32.35,0,0,1,3.83-2.79h3.93c2.85-3.51,8.32-3.09,9.84-8.48,3.61,3.64,8.13,3.75,11.37,5.49l8.14-1.35C486.59,421.07,487.29,418.75,489.62,419.42Z" fill="#aeaeae"/><path d="M441.08,431.87c-1.33,2.87-3.8,4.58-6.51,5.78a8.51,8.51,0,0,0-4.7,4.17,19.72,19.72,0,0,0-5.76,7c-2.86,6.07-8.36,10.12-12.52,15.22-1.46,1.8-3.5,2.17-5.37.21.08-1.57-.17-3,1.22-4.48,2.3-2.42,3.29-5.89,6.47-7.74.89-.52,1-2.4,1.44-3.7,4.15-.1,6.1-3.45,8.2-6.24,1.2-1.6,3.19-2,4.19-3.67.89-1.51,1.72-3.33,3.09-4.21,2.37-1.52,5.15-2.41,7.76-3.57Z" fill="#686868"/><path d="M646.71,314l2.74-2.68H654a49.79,49.79,0,0,1-5,19.6h-4.54C642.17,325,646.38,319.88,646.71,314Z" fill="#c9c9c9"/><path d="M132.38,215.28c2.18.05,4.48-.54,6.66,2.1.76-1.44,1.35-2.54,2-3.75l9.83,6.67L144,229.83c-1.64,10-3.12,19-4.71,28.69-2.89,1.44-2.41,5.39-2.94,8.4-.48,2.74,1.38,5.89,2.31,9.22-.82,1.63-1.78,3.51-2.83,5.58.49,1,1.48,2.09,1.41,3.08-.45,6.54.88,12.93,1.52,19.37l-2.51,2.16v5.58a14.43,14.43,0,0,1,4.59,10.95,19.76,19.76,0,0,1-1.22,7.48c-2.9,6.4-2.07,13-2.34,19.57-.08,1.73.89,3.75-1,5.16.69,4.42,4.9,4.92,8.16,7.09,2.87,0,6.29.57,9.44-.12,6.25-1.36,12.69-.17,18.74-1.37s12.14-.54,18.18-1c-.14.35-.23,1-.45,1-2.47.57-5,.76-7.51,1.24-5.9,1.13-12,1-18.07,1.5-2.94.25-5.86.88-8.8,1.2s-6.09-.75-8.79,1.26c-7.46,0-14.91.12-22.36-.07-1.85-.05-3.69-1.07-6.07-1.81.22-1.71-.68-3.78.89-6.26,1.24-2-.72-4.51-1.6-6.58-1-2.33-1.13-4.15.29-5.73a42.69,42.69,0,0,1-.93-6c-.09-8.48-.07-17,0-25.45,0-5.4-1.9-10.29-3.65-15.35a15.1,15.1,0,0,0,1.1-3.7c.14-4.35-.07-8.7.1-13,.08-2.12-.84-4.38,1.07-6.43.62-.66.28-3-.46-4-1.28-1.57,1-1.78.66-3s.23-3-.33-4.21c-1.38-2.93-1.2-5.49,0-8.51a9.8,9.8,0,0,0-.15-6.54c-1.51-3.85-.9-7.35.45-10.93.27-.72,1.1-1.29,1.17-2,.48-4.77.83-9.56,1.27-14.88L115,220.26c.88-3,4.46.28,5.48-2.37,3.4,0,6.39-1.44,9.48-2.57A7.53,7.53,0,0,1,132.38,215.28Z" fill="#969696"/><path d="M270.55,353.45c-.53.41-1,1.17-1.57,1.19-3.05.11-6.36-.69-9.12.22-4.76,1.57-9.48.76-14.21,1.08,1.34-2.36,3.59-2.51,5.94-2.5C257.91,353.46,264.23,353.45,270.55,353.45Z" fill="#b7b7b7"/><path d="M278,349.71c.53-.41,1-1.16,1.59-1.19,2.66-.12,5.34,0,8-.07,2.14-.06,4.36.56,6.34-1.13.43-.36,2.52-.92,2.74,1.15-1.42.65-2.68,1.4-4.44,1.32C287.51,349.57,282.76,349.71,278,349.71Z" fill="#8d8d8d"/><path d="M518.25,624.8c-.14.36-.21.94-.45,1-2.9,1-5.63,3.21-8.35,3.64-3.06.48-5.32,2.39-8.22,2.85s-6.13.95-8.92,2.43c-.17.09-.41,0-.62,0-9.79-.1-19.48,2.19-29.29,1.21-2.73-.27-5.28-1.63-8.19-1.25a16.61,16.61,0,0,1-7.58-1.1c-2.57-.88-5.56-.54-8.11-1.44a92.62,92.62,0,0,1-12.09-5.29,114.39,114.39,0,0,1-16-9.44,93,93,0,0,1-18.31-17.1c-3.88-4.61-6.2-9.86-8.57-15.14a58.8,58.8,0,0,1-3.37-11c-.31-1.37-.89-2.58-1.23-3.84a28,28,0,0,1-1.45-8.78c.15-2.93.88-6.05-1.09-8.83-.39-.55-.17-1.64,0-2.44.35-2.12.82-4.21,1.22-6.32.36-1.91-.91-4.16,1.21-5.73.2-.15.06-.8,0-1.21a39,39,0,0,1,3.53-18.88c0-.06-.25-.34-.43-.41a1.75,1.75,0,0,0-.61,0,2.43,2.43,0,0,1-.75-1.55c2.33-5.51,3.86-11.29,5.77-17a11.18,11.18,0,0,1,1.09-1.56c1.75-2.08,1.39-5.23,3.79-7.26a45.19,45.19,0,0,1,6.26-1.66,23,23,0,0,1,3.92.83c3.73,1.08,4,3.45,2.59,6.61A119.85,119.85,0,0,0,399.13,510c-3,3.6-3,8-3.34,12.33-1.14,16.75,0,33,9.55,47.6,5,7.72,11.54,14.21,17.85,20.86A63.39,63.39,0,0,1,437,602.14c10.26,10.71,23.2,15.45,37.68,16.62a2.32,2.32,0,0,0,2.22-.93c8.2-9.23,18.55-13.79,31.26-13.2,2.44-11.57,14.94-9.67,19.86-16.83,4.65.9,7.43,2.78,9.22,6.08,0,3.54-2.57,6.56-2.06,10.2-1.15,3.4-4.51,4.65-6.76,7-8.12,1.41-13.67,8.46-21.86,9.92-3.34.6-6.84,1.44-9.84,4.21,2.14,1.91,4.3,1.14,6.3.45,3.11-1.07,6.32-1.79,9.48-2.69C514.84,622.28,517,622.09,518.25,624.8Z" fill="#9d9d9d"/><path d="M381.33,516.51v1.24c-1.79,3-3.71,8.71-3.73,11.14a23.45,23.45,0,0,1-1.15,8.21c-1.69,4.61-2.08,9.56-2.67,14.45s-1.22,10.05-3.76,14.67c-2.93-1.11-4.06-3.69-4.73-5.84-1.6-5.14-5.3-9.58-5.12-15.28-3.74-6.76-4.14-14.76-8.25-21.45-2.48-4-2.44-9.33-5.46-13.24-2.65-3.42-2-7.84-3.69-11.52A50.84,50.84,0,0,1,341,493.6c-4.56,2.41-4.59,7.83-8.64,10.85-.31-1.2-1.09-2.62-.72-3.06,1.52-1.79.81-3.86,1.21-5.76.84-4,1.46-8.09,2.1-12.09.56-3.48,1.31-7,1.74-10.58.24-2,1.79-3.91.52-6.39L332.69,472a10,10,0,0,1-1.4,4.56,55.11,55.11,0,0,0-7.63,19.94l-4.57,3.8a17,17,0,0,1,1.17-6.91c.69-2-.89-4.5,1.31-6.25.1-.08,0-.4,0-.6q.62-8.69,1.25-17.36c-1.67-1-1.87-2.53-1.89-4.28-.21-12.86,2.08-25.06,8.34-36.52,3.59-6.59,8.5-10.62,16-11.48,3.94,0,8,.68,11.78-.14,8.53-1.85,17.08-.87,25.61-1.06,8.69-.2,17.39-.05,26.09-.05,0,1.72-1.33,1.22-2.23,1.23-4.94,0-9.88,0-14.71,0l-2,4.54a10.31,10.31,0,0,0-5.9,5.44c-1.26,2.83-4.28,4-5.52,7-1,2.43-3.77,4-5.21,6.53a29.27,29.27,0,0,1-6.12,7.38c-2,1.78-1.58,4.42-3.13,6.22.85,3.62-1.53,6.4-2.77,9.62l2.63,5.12c-1,2.85-2,5.75-3.32,9.57l-7.08,3,7.66,8.06c1.92,13.64,2.55,27,5.53,39.46l4.06,3.78c.4-.38,1.38-.91,1.77-1.73,1.42-3,3.1-5.8,4.66-8.67S378.8,516.1,380,513a78.08,78.08,0,0,0,3.84-12.1c.08-.4-.13-.95.07-1.21,1.18-1.48,2.44-2.9,3.67-4.34,1.13,1.24.87,2.49,0,3.73C384.85,504.67,384.25,511,381.33,516.51Z" fill="#666"/><path d="M500.83,637.25h3c5.59-2.68,10.46-5.39,15.61-7.35,3.05-1.16,5.85-2.79,8.87-4,2.83-1.1,5.29-3.14,7.92-4.77s5.34-3.89,8.95-3.85c1.63,3.17-1.31,5-2,7.48l-1.25,1.25a2.85,2.85,0,0,0-3.53,1.79c-.82,2.56-3,3.32-4.74,4.86-4.77,4.21-10.63,6.64-15.68,10.35-1.82,1.33-4.13,2-6.25,2.89-.53.23-1.33,0-1.74.28a38,38,0,0,1-14.07,6.59c-.53.13-.95.73-1.14,1.85l7-1.31.25.84-11,4.55-3.51-2.87-6.55,1.3c-2.24-3.47,2.84-4.72,2.28-7.76-.5-1.35-1.81-1.59-3-1.52-9.47.53-18.86-1.81-28.43-.24-9,1.47-10.2,1.87-12.23,10.87a7.06,7.06,0,0,1-2.17,3.63l-13.69-1.25c-4.15.65-7.94-1.66-12-1.5-.12,0-.27-.64-.41-1-2.74-1-5.27-2.36-6.88-6.16,3.9-6.64.16-18.11,12.6-21.42,18.25,7.36,37.6,9.6,57.31,9.52,7.87,0,15.43-2.29,23.12-3.56C498.62,636.58,499.77,636.31,500.83,637.25Z" fill="#2d2d2d"/><path d="M570.53,581.24c-2.64,2.85-5.76,5.39-7.8,8.62-2.63,4.16-6.46,7-9.58,10.64a21.11,21.11,0,0,0-1.29,1.9c-3.61,1.08-6.8,2.75-8.71,6.22-4.32-.43-5-1.82-2.74-5.48s5.86-6.68,8.92-9.83a41,41,0,0,0,11.34-20.79c.37-1.84,1.8-3.25,2.22-5.1,3.41-9,7.53-17.7,9.42-27.38,2.06-10.58,1.83-21.33,3.79-31.86.37-2-.84-3.42-1.87-5-1.44-2.25-2.85-4.78-.63-7.71,5-1.92,10.49.42,15.6-1.35h4.39c.54.57,1.1,1.17,1.84,1.94,0,6,.53,12.18-.16,18.27-.64,5.76-1.06,11.64-3,17.26-1.12,3.24-1.6,6.69-3,9.89-.45,1-.07,2.44-.07,3.68-1.68,0-1,1.33-1.26,2.18-2.36,7.86-7.07,14.65-10.07,22.22-3.57,2.22-4,6.7-6.88,9.46C570.54,579.44,570.67,580.48,570.53,581.24Z" fill="#ececec"/><path d="M500.83,637.25c-5.41,1.06-10.9,1.8-16.29,2.76-8.59,1.52-17.07.6-25.59.89-3.32.11-6.67-.9-10-1.11s-6.65.27-9.91-.15c-2.61-.33-5.13-1.51-7.66-2.4-3.49-1.24-6.84-3-10.76-2.54-1.26.14-2.6-.39-4.32-.69l-4.71,1.86c-.68,3.75-1.3,7.22-2,11l-3.27,6.35,4.9,5.16a6.51,6.51,0,0,1-2.46,0c-8-3.61-16.68-5.91-23.91-11.19a64,64,0,0,1-4.88-4.39c.76-5.29,4.41-9.21,5.22-14.29.77-4.81,3.25-9.34,2.36-14.08l2.11-2.38A45.75,45.75,0,0,1,403,618.59a137.73,137.73,0,0,0,19.29,11.9c3.19,1.55,6.73,1.58,9.8,3.33s6.39,1.7,9.58,2.46c2.78.66,6,.05,8.47,1.93a2.13,2.13,0,0,0,1.11.28c8.52.42,17,1.18,25.55,1.11,4.42,0,8.84-1.48,13.24-2.39.71-.14,1.28-1.05,2-1.16,3.33-.51,6.68-.87,10-1.29C501.65,635.59,501.24,636.42,500.83,637.25Z" fill="#4e4e4e"/><path d="M518.25,624.8c-2.13-.67-3.74,1-5.67,1.33a51.08,51.08,0,0,0-7.15,2.17c-.9.3-1.75.71-3.57,1.46-3.92-.06-9,.8-13.25-2.77,1.14-4.23,4-5.82,8.15-6,2.48-.1,4.62-1.78,7-2.6,7-2.45,14.93-3.46,20.08-9.77H527c1.35.82.82,2.76,2.08,3.58,2.65.61,5.84-2.22,7.88,1.4-.28.49-.44,1.18-.86,1.44q-8,4.94-16,9.73C519.6,625,518.86,624.8,518.25,624.8Z" fill="#b8b8b8"/><path d="M536.92,613.6c-3.95,1-8,1.65-10.88,5.35l-5.51-2.05,6.43-8.28c1.19-2.77,4.3-3.13,6.23-5,1.87-2.08,2-5.33,4.65-6.91a18.84,18.84,0,0,0,4.41-2.59c7.61-6.3,11.79-15.39,18.33-22.55,1.35-1.48,2.11-4,5-2.8v4.49c-4.09,2.53-4.76,7.49-7.26,11.22a72.76,72.76,0,0,1-5,7.22c-4.39,5.16-8.56,10.5-13.26,16.31l3.13.59C542,611.39,538.85,611.76,536.92,613.6Z" fill="#d3d3d3"/><path d="M437.34,662.15c.22-2.41-2.65-4.75-1.06-6.79s.44-4.34,1.26-6.38l2.43-2.54c3.3-.65,6-1.23,8.68-1.71s5.36,0,8.24-1a11.94,11.94,0,0,1,9.44.58c1,.53,2.35.35,3.55.36,6,0,11.94,0,17.74,0l4.87,3.1-11.58,9.35c-2.84,1.09-5.53,2.63-8.75,2.51-2.54-.09-4.74,2.1-7.43,1.22-4.58.42-9.16,1-13.75,1.2S441.89,662.15,437.34,662.15Z" fill="#171717"/><path d="M345.23,416.93c-.36,2.66-3.35.18-4.36,2.3-.57,1.21-2.74,1.57-3.67,2.73-2.06,2.58-4.4,5.21-5.43,8.23a22.12,22.12,0,0,1-2.41,4.61c-.87,1.42-1,3.27-1.57,4.9-.62,1.8-1.37,3.56-2.39,6.18.24,5.68-2.15,12.16-1.41,18.9.15,1.42-.75,3-1.16,4.43a41.6,41.6,0,0,0-2.51,8.54c-.27,2.58.84,5.35-.76,7.75-1.39,2.08.86,5-1.71,6.74.88,5.52-1.92,10.44-2.62,15.72-.74,5.55-2.48,11-3.84,16.68-3.1,2.63-6.24,2-9.89,0a34.44,34.44,0,0,1-8.59-6.24c-2.82-3-5.81-5.86-8.61-8.65.26-5-5.73-5.79-6.1-10.15-.13-4.45-.69-9.09,2-13.27,1.87-2.93,3.55-6,5.29-9,1.91-3.33,4.41-6.21,5.48-10.18a15.43,15.43,0,0,1,5-7.87,30.75,30.75,0,0,0,7.65-9.82c2-3.81,5.15-7,7.75-10.47a24.31,24.31,0,0,0,2.18-3.44,10.19,10.19,0,0,1,4.63-5.07c2.28-1.15,4.16-3.36,5.79-5.44,1.49-1.91,1.56-4.43,1.37-6.86,3.34-.41,6.67-1,10-1.2S341.93,416.93,345.23,416.93Z" fill="#828282"/><path d="M382.69,414.22l13.88-4.66c1.08,2.05,5.91-.19,5.93,4.66Z" fill="#cacaca"/><path d="M224.49,474.19l-3.21,3.93-7.47-1.18c-1.23-2.9-2.34-5.51-3.39-8l2.87-2.26c1.86-.11,1.05-1.55,1.24-2.49,3.89-8,5.81-9.25,12.37-7.92,2.89,3.41,3.79,7,.49,10.86a8.69,8.69,0,0,0-1.66,4.53Z" fill="#848484"/><path d="M225.73,471.7l-2.22-3.06,4.65-3.43V461l-3.49-2.85h-3.28l-6.86,6.12-1.36-.76c1.51-2.73,2.77-5.32,4.31-7.74s3.25-4.46,4.75-6.48c4,.05,6.36,2,8.48,4.46V465C227.89,466.29,228.19,470,225.73,471.7Z" fill="#959595"/><path d="M177.19,472.94c1.73-.74,3-1.57,5.38-.48,5.21,2.36,11,3.39,16.31,5.57,3.53,1.46,6.42,4.57,10,5.8a27.5,27.5,0,0,1,7.73,3.93,12.67,12.67,0,0,1,1.76,1.75c4.55,4.92,8.91,10.08,14.65,13.74a8,8,0,0,0,1.53.8c6.11,2.32,6.47,2.63,10,8.7-.34.53-.74,1.18-1.24,2l1.55,1.67a16.21,16.21,0,0,1,2.15-3,15.63,15.63,0,0,1,3.29-1.77,6.4,6.4,0,0,1,3.61-6.12c3.06,2.14,1.13,5.31,1.75,7.77-3.13,3.37-2.23,8.7-6.39,11.29.87,4.46-1.13,7.67-4.19,10.68-2.86,2.81-5.33,6-7.94,9.09s-5.17,6.12-7.64,9.05c0,1-.09,1.78-.12,2.5-6,3.17-6.75,5.2-4.76,13.7l-2.95,1.74c.36,3.64.5,6.86,1,10,1,5.78,3.16,11.37,3,17.36-3.22,1.58-4.47-1-5.88-2.91a251.6,251.6,0,0,1-25.41-42.64c-1.31-2.76-2.78-5.92-1.07-9.22.48-2.29-1-4-1.65-6-.29-.9-.56-1.8-.84-2.7,3-2,5-.6,6.87,1.75a34.59,34.59,0,0,0,7.61,7.28c2,1.37,4.17,2.89,6.88,1.27,2-2.55.85-5.3-.09-7.65-6-15.05-12.32-30-26.82-39.24-1.39-.89-2.56-2.16-4.41-2-.34-.14-.94-.21-1-.43-.67-2.39-.66-4.88-1.25-7.36C177.46,483.69,177.6,478.25,177.19,472.94Z" fill="#848484"/><path d="M193.37,543.89c.58,1.62,1.11,3.25,1.74,4.84,2.25,5.7,5.8,10.74,8.23,16.35,3.38,7.79,8.48,14.59,12.62,21.94,4.39,2.93,5.54,8.58,9.77,11.64,4.39,5,8.58,10.22,13.23,15a21.18,21.18,0,0,0,14.16,6.19c5.43.33,10.8-1.78,16.26-.47,3.24-.2,6,1.69,9.18,2,5.28-.93,9.12,2,12.18,5.44A32.3,32.3,0,0,1,297.9,641c1.84,7.8-.68,10.68-8.83,10.16-7-.46-13.16-3.27-19.23-6.45-1.46-.77-2.9-1.56-4.27-2.46a18.61,18.61,0,0,1-7.47-5c-5.46-3.09-10-7.43-14.94-11.2l-1.24-1.25c-1.32-1.52-2.59-3.07-3.95-4.55-4.94-5.39-10.12-10.57-14.8-16.18A112.9,112.9,0,0,1,212,587.71c-1.48-2.58-3.78-4.69-6-7.35-.59-3.87-3.59-6.78-6.3-9.69-.07-4.38-3.12-7.53-4.34-11.39-1.17-3.67-3.9-7-5.15-11.58.23-.72.72-2.28,1.2-3.81Z" fill="#e9e9e9"/><path d="M180.92,496.59v-5c1,.13,1.76,0,2.09.3,5.88,5.37,11.75,10.75,17.5,16.26a16.46,16.46,0,0,1,3.9,5.19,116.32,116.32,0,0,0,7.51,14.92c3.29,5.51,3.66,12.11,6.24,17.92.41.93-.58,2.48-.94,3.79h-9.51a54.46,54.46,0,0,0-6.29-4.78c-2.85-1.62-4.57-4.31-6.29-6.72-1.24-1.74-2.79-2.28-4.25-3.3-1-2.88-2.17-5.72-3-8.65-1.58-5.55-3-11.14-4.45-16.73C182.31,505.45,180.44,501.24,180.92,496.59Z" fill="#6f6f6f"/><path d="M565.55,568.79c-1.49,2.12-3.09,4.17-4.47,6.37a90.65,90.65,0,0,1-16.46,20.14,8.62,8.62,0,0,1-1.47.87c-4.38-2.6-2.5-6.39-1.43-9.64a66,66,0,0,1,3.1-6.8c1.69-2.91,4.42-1.79,5.8-3.47-.45-.85-.89-1.7-1.54-3l3.77-2.68c.1.54.3,1.68.58,3.24a15.57,15.57,0,0,0,2-.61c-.41-2.23,1.94-1.57,2.64-2.57-.39-.44-.79-.87-1.37-1.53l4.12-.71c-.67-1.3-1.25-2.41-1.74-3.37l-2.67,1.41c-.4-.39-.7-.61-.67-.68.77-1.72,1.14-4.2,2.47-4.95,2.4-1.35,2.74-4.14,5.24-5.24l-1.69-2.92,1.4-2.54-1.64-2.83,4.14-4.14-2.81-1.07,1.25-2.72-2.36-2.5c.63-2.82-1-6,1-8.42l-1.24-3.85,2.41-1.21c-.38-2.27-.64-3.81-1-6.12l1.93,1.52c3.8-3.55,4.27-4.48,4.78-9.43l3.17-1.33c.25.71.67,1.87,1.1,3l1.35-.87c.13-1.47.25-2.93.41-4.66h-3.38c-.73-2.12-1.42-4.09-2.14-6.17l-2-.72v-6.45c-3-.86-5-3.3-7.48-5.08l5.33-2.42-2.65-1.59,1-3.95c1.94,1.08,3.76,2.17,3.81,4.86,0,.81,1.13,1.55,1.55,2.41.5,1,.79,2.15,1.42,3.93,2.85,0,6.27,0,9.69,0,.9,0,2.19-.46,2.2,1.22h-9.85v2.49H589.2c-.53.42-1.06,1.18-1.6,1.19-4.31.1-8.63.06-13.51.06.52,2.35.53,4.63,1.54,6.31,1.15,1.92.93,3.8,1.16,5.76.29,2.53,1,5,1.16,7.56a32.35,32.35,0,0,1,0,8c-1.07,6.17-.46,12.64-3.17,18.53a3,3,0,0,0-.45,1.66c1.24,5.88-2.89,10.46-3.94,15.8-.53,2.67-2.91,5-4.34,7.49A7.83,7.83,0,0,0,565.55,568.79Z" fill="#b1b1b1"/><path d="M549.35,624.49c3.22-2.9,5.37-6.74,9.8-8.85C555.61,621.17,552.65,623.87,549.35,624.49Z" fill="#797979"/><path d="M278,623.56c-2.39,0-4.8.07-7.19-.06-.52,0-1-.77-1.52-1.19.66-2.78,2.67-4.89,3.74-7.46h5c.32.41.59,1.12,1,1.18a18.22,18.22,0,0,0,3,.06c3.66,0,7.33.06,11,0,3.37-.07,6.42,2.19,9.88,1.26,2.74,2,1.66,3.81-.42,5.34a12.46,12.46,0,0,1-8.68,2.46C288.55,624.55,283.23,624.53,278,623.56Z" fill="#dadada"/><path d="M273,614.85l1.6,2.38,4.44.24c0,.71.31,1.53,0,1.79-2.75,2.61-6.2,3.13-9.82,3-5.37.8-10.45-1.61-15.76-1.49-.14,0-.28-.65-.42-1h3.27c.95-2.35,1.93-4.77,3-7.36,2.31,1.59,4.7,1.44,6.85,1C268.8,613,270.65,615.06,273,614.85Z" fill="#b1b1b1"/><path d="M278,623.56c7.29.09,14.42-2.46,21.3-1l4.84-3-1.24-2.14c5,0,9.85,2.12,14.94,1.25-.33.41-.63,1.17-1,1.19-2,.11-4.05.05-6.25.05,2.38,2.92,4.6,3.69,9.55,3.73l2.84,1.69-.4.81h-8.5c-1.71-1.49-3.8-1.16-5.82-1.26-1.81-.08-.45.78-.4,1.26-2.89,3.46-3.67,8-5.95,11.82-1.54,2.57.74,5.61,1.83,8.27,1.27,3.13,2.85,6.14,4.57,9.78-5.75,0-10.88.23-16-.11-2-.13-3.8-1.78-5.81-2.34-7.32-2-13.7-5.92-20.11-9.77-.43-.27-.6-1-.89-1.47a50.15,50.15,0,0,1,10.74,4.06c6.17,3,12.48,2.23,18.85,1.77.47,0,.88-.83,1-.95-.85-7.89-4.69-14.3-9.38-21.43l-6.54-.88C279.34,624.68,278,625.27,278,623.56Z" fill="#e0e0e0"/><path d="M307.89,626.05H301l-1.72-1.77c.05-.12.12-.4.18-.4,4.29,0,8.58,0,13.15,0l1.47,2.19Z" fill="#e9e9e9"/><path d="M243.16,626.05c.61,0,1.41-.26,1.78,0,4.43,3.47,8.79,7,13.15,10.57.09.08,0,.39,0,.59-1.44-.41-3.35-.38-4.24-1.32C250.51,632.38,245.45,630.71,243.16,626.05Z" fill="#e0e0e0"/><path d="M535.68,593.68h-1.44c-1.38-1.34-2.54-2.46-3.74-3.64L527,591.79v1.65l-5.84.64,4.93,5.88-2.26,2.55c-.41-1-.7-1.71-1-2.42-.62.37-1.25.72-1.85,1.07-.41-.11-1.06-.15-1.1-.34-.61-2.52-2-3.88-4.36-3.43l-3.4,3.67v2.17l5,1-5.84,2.31c-.58,1.49-1.19,3.08-2.26,5.88l-.93-4.89c-1.27.38-2.63,2.18-4.19-.61-.51,1.39-.94,2.55-1.37,3.7l-1.23-.8c-.19-.67-.37-1.34-.62-2.24h-4.54l-.12.58a4.94,4.94,0,0,1,1.77.51c.4.31.52,1,.88,1.77l-4.86,1.46-3.64-1.87L488,617.12h-2.85c-.88-1.27-1-3.75-4.25-3.44.53,1.93,1,3.7,1.52,5.46l2.54,2.21c-4.69.32-9.06,2.25-13.35-.16-.94-.54-2.43-.1-3.66-.12-4.23-.06-12.66-2.83-16.49-5.17-2.79-1.7-6.34-2-8.61-4.75-.69-.85-2.07-1.1-2.9-1.88-5.39-5-10-10.82-16.17-14.93-.6-.39-.9-1.25-1.33-1.9-1.94-5.74-6.9-9.75-8.36-16-2.38-10.15-4.68-20.13-1.48-30.48,1-1.85,3-2.76,4.14-4,2.17-1.39,4.41-.21,6.29-1,2.27-2.4,1.93-4.6.4-7.31-2.74-4.86-1.93-8.17,2.88-10.8,4.12-2.25,4.91-7.78,10.35-8.9.45-10.39,8.37-17.06,12.85-26.5,7.08.51,7.74-8.07,12.45-11.26-3.85-2.2-1.24-5,.74-7.9,2.25-1.62,5.35-.41,7.41-2.5,1.42-1.07-.08-2.57.41-3.91.79-3.72,4.2-4.25,6.9-5.58a42.83,42.83,0,0,1,16-4.44c3.16,1.63,7-2.89,9.9,1.15l-2.3,1.9v3.89l1.7,1.69,1.16-2.5h1.54c1.17,1.85-.94,5.22,2.22,6l10-2.06c.59,3.29.43,4.23-2,4.61a4.07,4.07,0,0,0-3.74,2.82l2.54,3-1.75,1.75-1.3-1.19-1.89,1.89-7.35-1,1.49-2.15-3.79-3.6c.55,2.91.88,4.71,1.15,6.14L495.12,479,494,478l-1.29,1.16-2.19-2.19c-2.2.62-2.26,2.36-2.16,4.63-.58-.29-1-.45-1.34-.67-1.35-.8-2.4-.37-3.85.22-2.85,1.15-6,1.59-9.82,2.52l-1.58,1.59-4.53.46v1.58c2,1.87,3.62-.34,5.82-1l-1,5.33h2.69c.93,2.76-1.88,3.52-2.82,5.27-7.54,6.15-14.58,13-19.2,21.5-9.61,17.76-12,36.26-2.86,55.1a18.28,18.28,0,0,0,5.24,5.88c7.48,5.86,13.47,14.17,24,15.29a52.11,52.11,0,0,0,36.4-6.19,86.75,86.75,0,0,0,21.72-17.21c3.72-4,5.93-8.93,8.2-13.82,6.33-9.07,6.86-19.6,7.44-30.07a49,49,0,0,0-.59-10.53c-.36-2.3,0-4.11,2.15-5.3l3.66,1.2c-.56,1.45-.92,2.41-1.44,3.76,1.24-.1,2,.07,2.32-.23,1.48-1.35,2.72-3.18,5.62-1.71l-5.37,3.82c.27.75.53,1.46.9,2.45-.2,1.27-1.18,3.25-.58,4.48,2.19,4.56,1,9.27.95,13.84,0,3-.9,6.23-4.08,8.19l2,2.61-4.29,3.6,1.58,2.55-4.19,3.07c2.41,1.74,1.54,3.67,1.56,4.5l-6.1,7.62c-.84,6.28-4.32,11.32-7.91,16.22a9.66,9.66,0,0,0-2.06,5A2.88,2.88,0,0,1,535.68,593.68Z" fill="#7e7e7e"/><path d="M554.35,511.53c.41,2.1.81,4.21,1.25,6.31s-1,4.52.92,6.44c-2.34,2.29,1.65,4.63,0,6.76s.07,5.13-1.1,7c-1.89,3-.53,6-1.27,9.11L552,549.37c-.48,4-1,7.8-3.91,10.71-.86-.56-1.65-1.27-3.2-.81a107.17,107.17,0,0,1-8.1,10.35c-1.89,2.1-4.15,4.54-7.1,1.11-1-4,2.58-5.87,4.27-8.35a89.77,89.77,0,0,0,9.83-18.51c4.17-10.79,3.44-21.52,0-32.27-.47-3.65-3.21-6.61-3.24-10.42.54-1.73,1.12-3.45,3.54-4.15,4.19,1,5,5.55,7.72,8.28a7.39,7.39,0,0,1,1.31,4.76C553.15,510.54,553.93,511,554.35,511.53Z" fill="#4a4a4a"/><path d="M551.86,505.31c-1.24-1.2-2.54-2.35-3.72-3.62-.78-.84-1.32-1.91-2.09-2.78a18.3,18.3,0,0,0-2.42-1.79c-.21,1.92-.35,3.19-.48,4.45-3.78,1.77-5.13-1.75-7.08-3.49C522.77,486.31,508,484,491.73,490.9a13.88,13.88,0,0,0-9.68,3.16c-2.63,2.11-5.35,5.62-9.76,3.77a3,3,0,0,1-1.34-2.48c.94-.83,1.9-1.64,2.8-2.5a9,9,0,0,0,.94-1.24c1-2.11,3.72-1.18,5.19-3.07,1.18-1.52,3.54-2.14,5.86-2a6.38,6.38,0,0,0,3.14-1.18c3.1-1.75,7.95-3.56,10.72-3.69,2.55-.12,4.75-2.15,7.45-1.27,6.21-.33,12.43-.12,18.11,2.58a53.57,53.57,0,0,0,11.4,3.91c3.38,3.38,7.25,7.07,10.9,11C549.44,500,551.47,502.19,551.86,505.31Z" fill="#646464"/><path d="M535.68,592.44c-.36-2.09-4-2.8-2-6,2.12-.36,5.17-.36,4.54-4.29a.64.64,0,0,1,.23-.51c3.4-2.62,5.26-6.38,7.44-9.91.16-.26.68-.31,1-.45.47,1.56.93,3.12,1.49,5h2.25v2.11l-3.77.66,1.1,1.55-.84,1.14c.34.68.74,1.45,1.31,2.58-4.95.93-4.54,5.63-6.15,8.53.31,1.18.59,2.26.88,3.34l-3.74,2.49c-2.18.6-2.4-1-2.41-2.39S537,593.42,535.68,592.44Z" fill="#9d9d9d"/><path d="M503.31,453c-3.38-.14-6.47,2.14-9.95,1.24-2.29-1.53-1.15-4.22-2-6.33-3.52-2.67-7.69-2.7-11.76-3-18.14-1.41-33.49,5.65-47.57,16.09-8.24,6.12-16.14,12.66-22.23,21.18-2.92,4.08-6.35,8.62-12.71,5.45-2-2.93-.94-5.75,1-7.93,5.22-5.83,9.88-12.16,15.29-17.78,2.75-2.87,7.2-4,8.75-8,4.81-2.48,9.79-4.1,13.3-8.11,1-.67,1.87-1.65,3.13-2,3.35.56,6.06-.94,8.62-2.75a24.84,24.84,0,0,1,15.38-4.72A91.94,91.94,0,0,0,478.51,435a32.18,32.18,0,0,1,16.14,1.75c2.18.78,4.39.42,6.48,1.14,5.81,3.61,12.88,4.67,18.37,9,.61,2.5,3.63.48,4.83,2.71.78,1.45,3,2.41,5.12,2.27v1.85c-2,2-3.58-.44-5.34-.62l-1.84,1.32-6.52-2.54C511.8,454.13,507.46,452.56,503.31,453Z" fill="#636363"/><path d="M519.5,446.8c-4.46-1.05-8.86-2.29-13.22-3.69-2.25-.73-3.59-2.59-5.45-3.78-2.62-.63-5.73-.89-3.74-5l1.85-.88c1.55.3,2.42,1.85,3.71,2.93s3.82.84,4.76,2.93l2.13-1.25h1.24c1,1.23,1.82,3.08,3.13,3.57C516.59,442.67,518.06,444.63,519.5,446.8Z" fill="#909090"/><path d="M397.51,486.64h5.54c1.86-1.64,3.74-3.23,3.58-6,2.68-.43,2.78-2.77,3.49-4.58a21.08,21.08,0,0,0,2.94-1.89c5.73-5.24,11.15-10.84,17.17-15.71,4.64-3.75,9.44-7.67,15.48-9.08,2.16-.51,3-3.62,5.79-2.57a9,9,0,0,1,5.78-2.75A27.86,27.86,0,0,0,463,443c6.82-2.36,13.8-1,20.66-1,4.39,0,8.78,1.64,13.07,2.52.43,1,.81,1.9,1.25,3-1,1.88-1.49,4.61-4.61,4.73v2.07c-1.86,2.11-5.15.2-6.94,2.49-3.18-.66-5.51,1.45-8.17,2.48a25.42,25.42,0,0,0-3.74,1.31A12,12,0,0,0,472.2,463c-.43.9-.46,2.24-1.48,2.56-9.69,3-14.47,11.91-21.69,17.88-2,1.65-3.74,4-6.91,2.65-1.95-1.54-2.41-3.83-1-5.5,5-5.89,3.95-14.29,9-19.79-.69-1.32-1.62-1.28-2.3-.91-11.28,6.1-22.9,11.69-30.63,22.66-3.32,4.7-7.49,8.31-13.9,7.75-.8-.07-1.44.74-2,1.32h-3.73c-2.69-1.92-6.06.9-8.71-1.24-3.2-.82-5.33,2-8.23,2.64-.77-2.43-1-4.51,1.5-6.4,3.77.38,8-.87,12,1.21.08.05.62-.77.94-1.18A1.69,1.69,0,0,1,397.51,486.64Z" fill="#393939"/><path d="M397.51,486.64H395l-2.68-2c3.22-6.15,6.44-11.8,11.41-16-.17-2.17.28-3.8,2.47-4.39a3.06,3.06,0,0,0,3.2-1.31c2.46-3.32,5-6.62,7.52-9.87.4-.51,1.6-.71,1.65-1.12.12-1.25,0-2.56,1.3-3.21,3.54-1.74,4.94-6.38,9.36-6.89a4.3,4.3,0,0,1,.62,0L426,448.56a2.82,2.82,0,0,0,4.05-.07c1-1,1.93-2.11,3.6-1.69a1.71,1.71,0,0,1,2.49,0L433,450.54h-2.52c-.58,1.55-1.18,3.13-1.81,4.8h-4.84c-.1,1.13-.18,2.09-.29,3.41l-4.79,4.16h-2.93c-4.52,7.16-11,12.72-15.3,19.92l-1.12-1.12C398.76,483.42,398.14,485,397.51,486.64Z" fill="#8b8b8b"/><path d="M388.8,490.37c2.4,0,4.8-.07,7.19.06.53,0,1,.77,1.52,1.18h-5.86a36.74,36.74,0,0,1-1.68,5.18c-.45.93-1.59,1.54-2.42,2.29v-3.73A6.67,6.67,0,0,1,388.8,490.37Z" fill="#6f6f6f"/><path d="M497.09,434.36c-.27,2.15.84,3.22,2.79,3.77.4.12.63.79.95,1.2l-2.24,1.31L489.47,437c-2.16.62-5.11-1.1-8.44-.31s-6.63.21-10,1.27c-3.14,1-6.84-.88-10,1.41l-3.22-1.61-1,2.88-4.55-.78c-.29.43-.94,1.38-1.75,2.59l-9.72,4.3-2.27-1.19c-1.35-4.67,2.28-4.36,5-5l1.24-1.25c4.15-1.24,8.27-2.59,12.45-3.73,0-1.58,1.19-1.29,2.07-1.22a7.53,7.53,0,0,0,5.4-1.27c4.5-1.07,9.23.37,13.69-1.24h1.24c4.3,2.28,9.24,1.06,13.7,2.49Z" fill="#8b8b8b"/><path d="M478.42,431.87c-4.14,3-4.14,3-8,1.34L467.23,436l-2.5-2.84c.54-.81,1.09-1.62,1.68-2.52L468,432c2.48-1.55,5.17-2,8-.17C476.56,432.19,477.6,431.87,478.42,431.87Z" fill="#909090"/><path d="M443.57,440.58l-5,5-2.49,1.24h-2.49L431.77,443l4,1.65c.2-1.34.37-2.43.55-3.58C438.59,439.88,440.93,438.08,443.57,440.58Z" fill="#909090"/><path d="M457.26,435.6c-1.63,2.88-4.53,2.47-7.16,2.49-.19.86-.31,1.42-.43,2-1.89,1.52-3.29-.2-4.86-.75l-1.71-3.54,8.08,1.31,3.38-2.92Z" fill="#909090"/><path d="M493.36,434.36c-1.69.41-4,1.72-4.95,1.07-2.74-1.82-6.88,0-8.75-3.56,2.28.49,4.93-1.15,6.84,1.18l3-2.77Z" fill="#909090"/><path d="M401.24,491.61a2.93,2.93,0,0,1,1.8-3.54,49.77,49.77,0,0,1,7-1.76c2-2.42,4.43-5.35,6.76-8.38s10.79-10.27,14.64-12.47c5.56-3.17,11-6.44,16.72-9.76h10.51c-1.87,2.44-3.5,4.59-5.18,6.71S450,466.7,448.13,469l1.8,2.42c-1.57,2.85-2.65,6.17-5.34,8.73a6.69,6.69,0,0,0-2.27,5.24c.86,2.67-.21,4.79-1.93,6.72-5.36,6-9.49,12.81-13.52,19.72-5.63,4.4-10.95,9.09-14.93,15.12-2,3-4.16,6.22-8.29,5a10.17,10.17,0,0,1-7.37-9.07,51.8,51.8,0,0,1,0-13.85c1.24-4.18,2.29-8.42,3.82-12.49.64-1.69,2.29-3,3.85-4.94Z" fill="#262626"/><path d="M396.27,509c.66,4.66,3.19,9,2.34,14.26l6,7.48a12.12,12.12,0,0,0,4.48-5.12,15.7,15.7,0,0,1,6.26-6.85c2.91-1.87,5.95-4.28,7.28-8,.28-.77,1.51-1.2,2.31-1.79,1.82,1.17,2.48,3,1.55,4.78-5.42,10.31-5.78,22.38-11.51,32.56-.06,3.29-.06,3.29-1.2,5.62l1.41,1.55c-3,3.38-.76,6.93-.23,10.5s.9,7,1.33,10.41l2.48,2.48c-1.28,5.87,3.26,9.42,6.08,13.89l-2.4,1.61c-6.86-4.69-12.38-10.89-17.48-17.22a41.4,41.4,0,0,1-7.46-13.61,44.09,44.09,0,0,0-2.47-5.27c-.13-1.67.41-4.09-1.17-6.28a8.64,8.64,0,0,1-1.25-3.8,39.06,39.06,0,0,1-.05-5c0-5,.06-9.94,0-14.91-.09-6,1.89-11.6,3.15-17.34C395.68,509,396.06,509,396.27,509Z" fill="#434343"/><path d="M535.68,592.44l3.6-1c-.13,1,.16,2.7-.52,3.29-1.29,1.12,2,2.45-.38,3.07l1,.83c-1.13,2.83-3.76,3.81-6.22,5v-7l2.49-.85v-3.39Z" fill="#b1b1b1"/><path d="M381.33,516.51c.14-1.18,0-2.5.47-3.51,2.19-4.53,1.69-10.17,5.75-13.92C386.47,505.25,385.7,511.52,381.33,516.51Z" fill="#6f6f6f"/><path d="M414.94,546.38c-1-4.9,2.16-9.43,1.16-14.24,3-2.72,2.63-6.19,2.54-10.13l2.43-.91V516c1.33-1.13,2.73-2.32,3.83-3.24V509c1.28-2.32,2.41-4.76,3.9-7,2.29-3.37,4.76-6.64,7.32-9.82,1.93-2.4,4.12-4.59,6.2-6.88,3.72-3.51,7.56-6.92,11.14-10.58,4.21-4.3,9.93-6.46,14.44-10.36.79-.68,2.89-.78,4.3-1.46l4.56,3.83c-.43,2.09-.81,3.93-1.19,5.79l-3.64-4.32L464,469.52l-2.76,4.13,3,1.58c2.73,0,3.94-4.93,8-3.08l-5.32,6.16,2.7,1.55-1.37,1.37-.44.42c-1.29-2.74-4.51-1.94-6.66-3.89v6.41c-1.12,1.91-1.92,3.25-2.92,4.95h-8.89c1.37,1.54,2.26,2.53,3.44,3.87-2.17,1.72-3.32,4-6,5-.89.35-1.42,2.46-3.08,2.79.43,3-2.32,4.86-2.66,7.61a15.31,15.31,0,0,1-1.24,3.33l1.13,1.8-2.31,2.3L441,517c0,.44,0,.85.06,1.25-1.15.13-2.82.79-3.36.28-1.58-1.51-2.47-.63-3.51.38l-1.59-1.39v3.79l1.85-.89.53,1.6-5.16,2.53,1,2.8c-.38.11-.86.42-1.1.29a15.75,15.75,0,0,1-1.92-1.38l-2.44-1.77c-.21,1.73-.28,2.83-.5,3.91s-.59,2-1.08,3.58l3.54-1.93c-1,3.76,3.52,6,2.24,10.18L428,539l-1.58,3c.57,1.1,1.24,2.42,2.09,4.08l-4.27.43-2.5,3.74c-.38-2.81-.57-4.29-.78-5.86l-3.25-1.67c-.16,1-.32,2.11-.56,3.64Z" fill="#6b6b6b"/><path d="M530.7,571.28c6.28-4.77,10-11.43,13.69-18.18.55-1,1.06-2.06,1.63-3.19l2.91,6c-1.3.87-.74,2.59-.8,4.16-.79,1-2.16,1.93-2.27,3-.35,3.67-2.92,5.9-4.9,8.53a37.6,37.6,0,0,1-2.82,3.76c-1.21,1.26-2.69,2.25-4,3.39-1.94,1.68-4.27,3-5,6.09l-1.7.14-4.91,4.91h-4.92c-3.2,4-7.69,5.5-12.68,6.41-2.53.47-5.57.79-6.93,3.24a16.74,16.74,0,0,0-3.41-.84c-4.13-.09-8.26.06-12.38-.09a15.32,15.32,0,0,1-3.82-1.19c-1.69-1-2.69-2.41-2.16-4.68a6.75,6.75,0,0,1,4.2-3.82c16.79.73,31.44-4.6,44.19-15.51C526.25,572,527.89,569.68,530.7,571.28Z" fill="#2c2c2c"/><path d="M482.15,592.44H477.7c-1.41,2.14.06,3.48.72,5l-11.67-2.57-3.09-4.45c.23-.24.53-.53.81-.81-3.3-2.65-6.93-5-9.78-8.06-1.55-1.67-3.79-2.19-5.07-4.54a80.75,80.75,0,0,1-6.23-16.14c-1.34-4.88-.5-9.68-1.15-14.45-.49-3.58,1.22-6.67,1.41-10.07.17-3.09,1.71-5.88,3-8.68a52.83,52.83,0,0,0,1.87-5.44,10.41,10.41,0,0,1,1.28-3.19c2.38-2.89,3.94-6.33,6.2-9.25A61.58,61.58,0,0,1,471,495.35l1.25,1.24c1.69,2.88-.16,4.55-2.06,6.31-9.47,8.8-15.64,19.61-19.24,32-6.95,23.88,4,45.13,27.33,53.28C480.32,588.87,482.93,589.1,482.15,592.44Z" fill="#414141"/><path d="M482.15,592.44c-.32-.42-.63-1.17-1-1.19-1.85-.12-3.72-.06-5.58-.06-4.27-3-9.91-3.59-13.69-7.3s-7.3-8.08-10.48-11.66c-1.09-3.35-1.95-6.1-2.9-8.81-.25-.72-1.06-1.28-1.18-2-.51-3.12-1-6.25-1.25-9.4-.19-2.26,0-4.55,0-6.82a35.46,35.46,0,0,1,.08-6.19c.32-1.84,1.92-3.56,1.93-5.34,0-4.74,4.05-8,4.21-12.57,3.8-3.79,4.91-9.27,8.86-13.18,3.35-3.31,6-7.34,10.16-9.87.44-.26.6-1,.9-1.47.91-.29,2.11-.3,2.68-.91,3.75-4,9-5.18,13.54-7.75.62-.36,1.62-.05,2.45-.05,2.67,3.11-1.58,5.6-.76,8.55a5.62,5.62,0,0,1-.65,1.74c-5.76,4-12,7.31-16.9,12.44-13.22,13.78-19.28,29.68-13.6,48.62,4.52,15,18,24.35,33.72,23.86a19.61,19.61,0,0,0,10.18-3.34,54.94,54.94,0,0,1,7.67-3.93c13.26-5,20.56-15.58,26.23-27.7,1.9-4.08,2.86-8.54,4.69-12.68,3.44-4.83,5.6-9.7,2.78-15.83-1.58-3.42-1.83-7.25,2.65-9.32.35.14,1,.26,1,.44.45,5.18,1.8,10.23,1.57,15.54a59.32,59.32,0,0,1-3.41,17.86c-3.21,8.86-5.87,13.56-10.53,19.22-1.65,2-3.27,4-4.79,6.1-.29.4,0,1.21,0,1.83-1.37,1.16-2.81,2.24-4.09,3.49-7.5,7.32-16.47,12-26.35,15.29-3.07,1-6.36.36-9.16,1.65C488.09,593.1,485.11,592,482.15,592.44Z" fill="#bbb"/><path d="M546.88,510.29c1,2.92-1.73,5.28-1.16,8.28l2.24.78V529l-2.6,1.83,1.76,3.52-2.59,1.28c.43,2.21.86,4.42,1.34,6.86h-2.72v-6.1c-3.36-3.75-1.31-8.75-3-12.89-1.48-18.19-17.77-29.59-36.15-27.9-5.1.47-10.51,2.83-15.63-.29h-2.25c0-.7-.15-2,0-2,2.86-.74,3-3.77,4.72-5.44.22-2.08,1.92-.8,2.83-1.27,7.44-3.75,15.57-3.16,23.18-2.16a33.46,33.46,0,0,1,19,9.31c2.52,2.49,4.82,5.2,7.23,7.81C544.13,504.59,546.88,506.85,546.88,510.29Z" fill="#cfcfcf"/><path d="M512,578.75c-6.71,3.1-13.34,6.42-21,6.23-2.39-.06-13.48-2.92-15.86-3.69-6-1.95-10.4-6.14-14.06-10.8a41.07,41.07,0,0,1-6.1-12.31,31,31,0,0,1-1.38-6.25c-.33-2.86-.88-6.1.11-8.61,1.38-3.52.37-7.13,1.55-10.53a85.55,85.55,0,0,1,7-14.51c4.8-8.32,16.46-18.66,25.54-21.68a2.14,2.14,0,0,1,.62,0c3.21-1,6.36-1.87,7.63,2.67.05,3.24-2.77,3.82-4.82,5-8.39,4.74-16.25,10.41-20.9,18.88-5.78,10.56-9.83,21.78-6.28,34.33a28.58,28.58,0,0,0,15.19,18.43c6.67,5.7,14.43,3.36,21.85,2.8a24,24,0,0,0,7.07-1.78C509.87,576.19,511.81,575.85,512,578.75Z" fill="#2e2e2e"/><path d="M512,578.75l-.58-1.41c-3,1.15-5.77,3.07-9.16,3.1-1.13,0-2.25.73-3.39.76-4.14.1-8.3.21-12.44,0-3.43-.18-6.76-1-9.29-3.68,1-3.67,3.93-3.36,6.55-2.8,6.67,1.41,13.12.17,19.54-1.33,8-1.87,14-6.52,18.86-13.09,3.65-4.92,8.53-8.74,10.64-15a39.57,39.57,0,0,0,.25-26.09c-.58-1.72-1.77-3.42,0-5.14,6.4.63,7.07,2.58,7.06,20.38.05-2.18-.09-4.37.1-6.55.82-1.64-.23-3.92,1.77-5.15.42.52,1.18,1,1.19,1.55.1,4.05.06,8.1.06,12.15-.36.14-1,.29-1,.43.21,6.92-3.08,12.67-6.11,18.51-4.54,8.77-10.76,16-19.46,20.89C515.06,577.11,514.35,579.39,512,578.75Z" fill="#747474"/><path d="M541.9,522.73a22.78,22.78,0,0,1,0,3.51c-.09.54-.78,1-1.19,1.47-1.46-2.75-1.26-6.06-2.87-8.73-6.3-10.43-21.16-21.43-37.22-17.58-2.31.55-4.35,1.45-6-1.07-.36-1.2-.73-2.4-1.14-3.74h-5.08v-1.24c1,0,2.29.39,3.06-.06,7.38-4.37,15.45-1.69,23.17-2.43,11.54,2.87,22.5,10.74,26.16,23.54A21.69,21.69,0,0,1,541.9,522.73Z" fill="#505050"/><path d="M494.6,500.33c3.75-.42,7.51-.76,11.25-1.28,1.31-.19,2.83-1.48,3.78-1.1,4.69,1.89,10,1.33,14.47,3.92a32.44,32.44,0,0,1,12.54,12.65c2.14,4,4.55,8.23,4,13.19,0,1.66,0,3.31,0,5,.05,4.19.28,8.41-2.22,13.27-.12-2.57-.5-4.31-.22-5.93,1.58-9.16,1.78-10.72-.12-18.19a16,16,0,0,0-5.3-8.69,20.35,20.35,0,0,0,.9,3.23c2.23,4,3.69,8.23,3.24,12.94a39.27,39.27,0,0,0,0,4.34c.16,10.62-4,19.44-11.16,27a23.07,23.07,0,0,0-4.15,5.08c-1,1.91-3.49,3.14-5.47,4.46-5.86,3.92-12.13,6.82-19.32,7.29a8.43,8.43,0,0,0-3.43.66,3.44,3.44,0,0,1-3.87-.06c-2.41-1.35-5.39-.25-8-1.71-1-.53-2.88.68-4.37,1.09-7.34-3.25-11.2-9.67-14.45-16.45-1.13-2.39-1.37-5.27-1.67-8-.27-2.44.13-5-.1-7.42-.48-5.32,2.12-9.81,3.46-14.67,2.6-9.38,9-15.84,15.95-21.83A53.18,53.18,0,0,1,494.6,500.33Z" fill="#b3b3b3"/><path d="M492.11,506.55c.59-.79,1.07-2.16,1.78-2.29,9-1.67,18.08-3.38,26.45,2.31a41.63,41.63,0,0,1,4.68,3.68c2,1.81,3.82,3.78,5.46,5.42.68,4.78,4.09,8.38,4,13.05-.12,4.42-.05,8.78-1.14,13.19a54.34,54.34,0,0,1-5.07,12.21,26,26,0,0,1-8.74,9.69c-4.17.56-6.34-2.08-7.95-5-8.92-2.84-9.24-3.23-8.81-10.67-16.72,3.11-22.52,1.33-24.47-7.52-2.35-10.73,4-19.85,16.56-23.69C495.53,513,490.87,510.54,492.11,506.55Z" fill="#6d6d6d"/><path d="M492.11,506.55l5,4.15c-.34,5,3.71,7.21,5.65,10.95l-3.21-1.42-2.35,1.3c-3.58-2.61-6.8-.62-9.47,1.41-3,2.25-5.86,4.92-6.3,9.22-.92,6.12-1.33,12.43,7.1,15.42h6.83l1.84-2.24h3.74l8.52-6.52a30,30,0,0,1-5.31,14.46l3.52,1.48a10.14,10.14,0,0,1,2.49-.86,20.84,20.84,0,0,1,3.71,0c1.85,2.38,1.85,2.38,1.89,6.9l3.74,3.06c-2.9,3.81-2.91,3.79-8.76,6.91-2.53,1.34-4.82,3.41-7.66,3.81-4.29.6-8.54,2.73-12.87,1.62s-9-1.74-13-4.27c-.1-.06,0-.4,0-.6-9.53-6.14-11.26-16.24-12.91-26.2-.46-2.79,1.84-5.61,1.71-8.65,0-1-.37-2.27.06-3.07,3.55-6.5,6.47-13.51,12.23-18.44C482.37,511.42,486.4,507.51,492.11,506.55Z" fill="#555"/><path d="M466,536.43c.47,1.87.94,3.74,1.43,5.71L465,543c-1,2.67,1.05,4.34,1.87,6.41.56,3.72,1.13,7.44,1.68,11.09l8.63,10.79h-1.93c-1.94-2.43-4.29-4.49-6.12-7.21a32.2,32.2,0,0,1-5.51-20.43C463.75,541.24,464.09,538.47,466,536.43Z" fill="#747474"/><path d="M498.28,538.2v4L494.16,545c-1.73.6-4.49,0-6.77-1.4l1.22-3.09-3.74-.54-.28-1.62,2.4-1.11c-.4-.61-.8-1.23-1.43-2.18.8-.84,1.57-1.67,2.53-2.69Z" fill="#555"/><path d="M495.47,533c-1.5-2-4-3.14-4.91-6.31l3.39-.34,3.23,3.21c-.12,1.23-.22,2.19-.32,3.14Z" fill="#555"/></svg>