<svg id="Layer_1" data-name="Layer 1" xmlns="http://www.w3.org/2000/svg" viewBox="0 0 800 600"><path d="M198.23,583.2c-8.94-1.17-18.1-1-26.63-4.73-1.39-.61-3.25-.05-4.86-.29s-3-1-4.46-1.16c-8-.76-15.61-3.26-23.35-5.2-2.08-2.43-5.7.26-7.74-2.31-4.45,1.31-7.64-3.43-12-2.5-4.2-3-9.41-3.38-13.88-5.48-2-.95-4.51.44-6.09-1.94-1.39-2.09-4.12-2-6.25-2.82-1.95-.8-3.56-2.42-5.92-2.2-2.45-3-6.41-3.69-9.26-6.31-3.5-3.23-6.44-6.94-9.62-9.9-1-2.47-1.78-4.61-3-7.71-.32-7.43-2.14-15.85-1.39-24.42-2.61-11.35-.74-22.87-1.16-34.3-.08-2.27-1-4.21-1.28-6.32-.76-4.85,1.08-9.47,1.68-14.2.13-.94.78-1.88.72-2.78-.86-12.31,1.75-24.48,1.36-36.78-.28-8.94,2-17.83,1.17-26.83,2.51-7.59.85-15.4,1.19-23.1.21-4.83,1.79-9.47,1.39-14.41S68,337.43,69,332.65c.89-4.45.29-8.92,1.21-13.16.82-3.8.85-7.7,2.18-11.49a30,30,0,0,1,11.37-14.79c2.51-1.8,5.26-3.27,7.92-4.87,1.33-.8,2.69-1.58,4.5-2.63h2.48a4.39,4.39,0,0,0,1.86,1.28,4.39,4.39,0,0,1-1.86-1.28c1.18-2.78,4.06-3.51,6.27-4.91,4.94-3.14,10-6,14.38-10a49.06,49.06,0,0,1,9-6.53c3.61-2.05,6.09-5.23,9.06-7.91.73-.65,1.57-1.17,2.36-1.75,1.56-.37,3.08-1.34,5.28-.1,1.82,2.25,3.91,5,7,6.84,1.92,1.13,2.87,2.94,1.58,5.24-2.66,2.76-5.42,1.23-8-.07-4.63-2.39-8.08-1.59-11.25,2.72-5.6,7.63-13.43,13.37-18.19,21.81-1.74,3.09-5.6,4.18-9,5-3.74.92-6.45,3-7.68,6.58-2.85,8.31-8.38,12-17.16,10.53a5.23,5.23,0,0,0-1.85.07,2.31,2.31,0,0,0-1.11.54c-.3.3-.64.67-.59,1.05,1.21,9.91,14.07,20.7,23.45,22.11,9.6,1.44,19.34,2,28.78,3.83,8.28,1.61,16.45.61,24.66,1.42,9.86,1,19.66,2.69,29.63,3,23.35.65,46.59,3.89,70,3.48a69.15,69.15,0,0,1,10.57.46c-13.41-.45-26.1-5.67-39.47-6-11.12-.27-21.58-3.36-32.22-5.88-2.83-.67-5.38-1.46-5.47-4.83s2.6-4.29,5.28-5.12c2.85-.88,5.78-1.32,8.55-.25,5.8,2.23,11.71,2,17.76,1.82,5.69-.2,10.31-.48,14.37-6.1,3.3-4.55,10-4.25,15.56-2.31,7.9,2.72,9.43,2.24,13.36-4.92,3.6-6.54,8.8-11.87,13.88-18.68,11-1.49,22.64-3.68,32.55-8.71,2.34-1.66,2-4.11,3.86-5.05,3.16-1.28,6.22-.26,9.3.34,1.88.65,2.53,2.69,4.3,3.8,3.66.49,7.81.18,11.21,4.35.2,5.39,2.87,10.58,6.41,15.59a11.64,11.64,0,0,1,.79,12.72c9,12.26,19,14.71,29.76,11.67,4.33-1.23,7.54-.67,10.82,2.18s7.87,3.6,11.63,5.79c1.75,1,4,1.27,4.59,3.92-.53,3.53-3.47,3.37-6.1,3.72-12,1.59-24.07,2.4-36.07,3.87a63.12,63.12,0,0,1-11.09-.06c-22.43-1.29-44.28,4.2-66.5,5.15-.7.13-1.39.27-2.07.45-12.23-1.66-24.56-2.76-36.82-1.5-16,1.64-31.91-.18-47.86.68-10.38.57-15.6,6.36-18.44,15.45-3.22,5.35-2.59,10.43.92,15.44,1.57,2.24,2.76,4.85.75,7.44a6,6,0,0,1-7.14,2.26,4.75,4.75,0,0,0-3,.32,5.14,5.14,0,0,1-4.85-.05c-2.52-2.54-1.68-5.22-.74-8.23s1.91-6.12,2.49-8.19c-.92,4.28-4,9.17-3.19,14.92.36,5.54.8,10.88,5.37,15.12,1.66,1.54.78,4.43-1.1,6.15a11.14,11.14,0,0,0-3.63,8.91,5.69,5.69,0,0,1-1.24,4.09c-5.5,6.05-5.27,13.7-5.81,21.09-.47,6.37.15,12.7-1.56,19.11-1.32,5,2.73,9.62,3.46,14.78,1.08,7.56-.87,10.49-8.34,8.67-6.29-1.54-12.22-1.78-18.19.86A297.43,297.43,0,0,1,86,479c-2.79-1.71-6-2.71-7.72-4.48,3.42,3,8.6,4.53,13.37,6.9a372.16,372.16,0,0,0,38.26,12.06c9.41,2.33,18.82,4.67,28.53,5.52a681.4,681.4,0,0,0,78.48,11.36c14.76,1.34,29.52,2.66,44.33,3.29,3.75.16,7.65.2,10.78,2.91a3.61,3.61,0,0,1,.14,3.53,4.8,4.8,0,0,1-4.83,1.94c-5.12-.66-10.3-.67-15.39-1.6-9.66-.19-19.29-1-28.91-1.48-8.59-3.53-17.78-1.73-26.67-2.8-13.12-1.58-26.16-3.89-39.34-4.89-4.49-.34-9.13-.55-12.17,3-1.52,4.15,2.35,5.43,3.43,9.09-1.87,8.94,2.73,17,7.89,24.88,1.5,2.82,7.52,2.78,5.59,7.24-1.48,3.09-4.2,2.79-5.5,4.75-.63,2.91,1.49,4.52,3.55,5.74,6,3.55,11.69,7.83,19,8.52,2.69.26,4.05,1.77,4,3.72C202.11,581.44,199.46,581.58,198.23,583.2Z" fill="#cfcfcf"/><path d="M622.69,575.73c-6.72,1.33-13.33,3.19-20.2,3.8-2.88.26-5.68,1.25-8.52,1.9a16.83,16.83,0,0,1-2.27.51c-4.8.45-9.66.53-14.38,1.4a52.24,52.24,0,0,1-7,1.16c-2.34.12-4.6-.35-7.06,1-1.93,1-5.15-.5-7.29.37-3.76,1.52-7.83,0-11.21,1.44-3.91,1.64-7.78-.09-11.42,1-4.58,1.34-9.32.42-13.77,1.33-5.26,1.09-10.64.13-15.64,1.3-5.3,1.24-10.48.64-15.7,1-2.24-3.28-.29-5,2.47-6.14,1.66-.69,3.7-.5,5.22-2.47-4.45-5.35-11-7-17.08-8.73-4.36-1.22-8.57-2.91-12.82-4.34-4.63-1.56-4-6-2.79-9.7-5.94,3.32-8.29,1.69-14.09-10.11-4.11-2.81-9.44-4.5-10-9.83.57-3.15,3.16-3.66,3.8-5.22a16.82,16.82,0,0,0-4.91,6.57c-2.35,1.33-4.18,1-5.12-1-2.1-4.42-.11-8,3.73-10.94-2.88-2.43-7.1-2.84-6.88-7a3.71,3.71,0,0,1,3.42-3.78c28.87-1.24,57.74-2.49,86.45-5.59,7.16-.78,14.88,0,21.6-3.84a33.12,33.12,0,0,1,8.64-1.21c.68,0,1.35,0,2,0a24.2,24.2,0,0,0,15-.46c14,.28,27.73-2.42,41.46-4.68a56,56,0,0,0,9-1.85c5.08-.53,10.16-1.25,15.29-1.09,8.23,2.62,10,6.22,7.17,14.48-1,2.9-1.08,6-1.58,9-1.71,9.82-7,18.13-10.22,27.23-2.38,6.66-8,11.25-11.87,16.94C616.92,571.88,624.12,570.2,622.69,575.73Z" fill="#828282"/><path d="M432.25,521c-.25.53-.5,1-.91,1.94l1.47,3h2.49l2.4-3.78.79.35c-.33,1-.66,1.94-1,3,2.42,2,3.84-.86,5.89-1.84-.86,1.91-.51,4.34-3.39,5.43v4l-4.77,2c1,2.1-1.45,4.31.07,7.22a44.64,44.64,0,0,1,2.79-4.1c1.2-1.41,2.61-2.66,4-4-.36-.59-.72-1.21-1.2-2l5.14-4.27v-2.81l2.11-.65c.16,1.93.31,3.67.43,5.09-1.4,2.05-3.29,3.71-3.66,5.65-.48,2.55-2.3,2.93-3.85,3.55-.32,2.4.29,3.94,2.69,4.73l3.13-2.63a5.05,5.05,0,0,1,.32,1.78c-.34,1.29-.87,2.54-1.69,4.82l5-3.4.73,4,1.36-2.1h4.27c0,.35,0,.73-.1.92-1.49,1.85-3,3.68-4.52,5.52,2.05,3.24,4.53,2.46,7.06,1.12l1.5,1.5-4.35,5.24c4.28,1,5.15-3.45,8.62-2.7-.92-1.58-1.27-2.2-1.89-3.27l3.49-3.66c.63.75,1.22,1.47,1.87,2.26-.94,2.08-1.85,4.12-3,6.65l3.78-1.47c.19.93.3,1.5.41,2l-4.37,1.66v6.29h2.46l2.29-3.66c.75,5.53,5.14,5.35,7.53,7.38l6.69-3.45,1.58,1.92c-.51,1.27-1,2.46-1.61,4h4.81c3.16,1.74,6.26,2.44,7.34,4.3,1.45,2.48,4.21,2.57,5.05,4.61l4-1.24.6.88-3.25,4c-3.65.18-7.47-.76-10.15,2.52l-1.5-1.36c-2,.55-3.2,1.58-2.9,3.85-2.28-.47-4.92,1.08-7-1.28l-.86,2.49c-6.66,0-13.42,0-20.18,0-.42,0-.84-.73-1.38-1.21-.29.82-.54,1.54-.9,2.53-10,0-20,.14-30.11,0-9.76-.17-19.4,2.19-29.19,1.28-4.07-1.73-8.57.42-12.71-1.21-.44-3.76,2.89-4.16,5-5.79-2.86-1.29-5.73-2.43-4.31-5.58-5.51,1.79-9.41-3-14.21-4-2.2-5.72-5.69-10.59-4.34-16.76-6.84,2.65-11.33-.63-11.95-8.87-.29-4,.92-7.76,1.75-11.49-3.6,2.76-12.85.39-14.07-3.95-.93-3.3,0-5.83,4.32-5.15a2.37,2.37,0,0,0,1.93.81c-.88.15-1.41-.41-2-1-2-3.63-2-3.63-.78-8.13,2-1.78,5.07-2.12,6.91-3.9,6.11-.6,11.91.2,17.67-.53,5.32-1.34,10.6-.34,15.94-.12,12.13.48,24.23-1.65,36.39-.84C427,519.31,430.1,518.1,432.25,521Z" fill="#939393"/><path d="M657.55,249.61h1.83c4.68,4.25,9.26,8.58,14,12.67,1.89,1.61,4.3,2.6,6.38,4,2.3,1.57,4.5,3.3,7.47,5.49h1.51a51.78,51.78,0,0,0,14.79,9.07,38.14,38.14,0,0,1,10.09,5.59c2.63,2.17,5.31,4.29,7.81,6.6,3.27,3,5.67,6.52,5.84,11.24a15,15,0,0,0,1.19,3.83c-1.45,8.54-8.19,10.81-15.14,13.19-8.93,3.06-17.89,5.79-27.38,6.34-15.27,2.84-30.76,3.46-46.16,4.9-12.67,1.19-25.41,1.48-38,3.1a13.39,13.39,0,0,1-4.09.24c-2.34-.41-4.41-1.23-4.71-3.95a4.28,4.28,0,0,1,3.15-4.8c4.5-1.29,7.93-4.44,12-6.39,5.93-2.83,7.47-7.66,6.19-13.4-1.8-8-4.13-16-8-23.34-3.43-6.48-1.23-12.45,5.89-13.49,8.66-1.27,16.47-4.71,24.42-7.89A108.25,108.25,0,0,0,657.55,249.61Z" fill="#d1d1d1"/><path d="M371.25,522.21c-3-.54-3.69,2.61-5.95,3.8-.18-1.3-.35-2.43-.5-3.47-3.38-1.74-6.82,3.33-10.17-.92l-1.1,2.57L348.85,526v7.45a6.8,6.8,0,0,0-2.27.49,3.7,3.7,0,0,0-1.41,1.86,8.36,8.36,0,0,0-.06,2.48H352l2.09-2.09c-.45,2.35-.88,4.57-1.44,7.43,2.68-1.44,2.67-5.26,6-4.56v-5.37l3.86-.3c-.89,2.43-1.65,4.5-2.44,6.67l1.11,1.38c-.71,4.68-2.69,9.25-2.24,14.64l3.79-1.35c-.49,2.57-.93,4.9-1.54,8.11l6.57-3.54-1.21-1.4c.46-1,1-2.07,1.55-3.24h2.55c.4-.84.81-1.68,1.22-2.52h1.7c.11,1.71.21,3.48.35,5.67l-2,1.09c-.55,2.64-.94,4.5-1.37,6.61l2.12.71c-.47,1.18-.92,2.34-1.55,4l2.64,1.08v5.3l8.07,3.1,2.75-3.81c.8,2.5.54,4.93.11,7.68a40.12,40.12,0,0,1,3.61-4,55.29,55.29,0,0,1,5.11-3.54c.11.88.24,1.93.4,3.3-2.12,1.11-4.18,2.17-6.15,3.19v3.75l4.47-2.81c.33.56.84,1.42,1.48,2.48l6.38-.91c-.48,3.74-3.36,5.76-5.86,8.43l-2.54-1.46-5.31,1.76c3.37.82,6.78.63,10.18.72.9,0,2.21-.48,2.23,1.23-17.8,0-35.61.13-53.41-.06-8.11-.08-16.38.07-24.28-1.44-7-1.32-13.79-.44-20.65-1-.27-4.21,2.94-3.73,4.51-4,1.84-.17,1,.76,1.2-.06,0-.15-.17-.1-.55-.14-2.75-.31-4.57,2.12-7,2.41-3.44-.47-3.32-4.15-6.06-6-11.08-1.85-8.67-12.4-11.7-19.09-.51-8-10.48-6.23-11.7-12.77.79-5.1,6-7.87,6-13.25-3.19-3.15-7.07-6.15-4.92-11.27-1-2.58-3.66-4-3.17-6.07.63-3.41,2.73-3.84,4.74-4.4,3.51,0,7.06.33,10.52-.09s6.17,1.66,9.4,1.34c6.16-3.76,13-2.19,19.36-1.63,17.8,1.57,35.58.57,53.35,1.08C366.84,519.25,370.42,517.85,371.25,522.21Z" fill="#ababab"/><path d="M686.18,325.54a85,85,0,0,0,15.24-3.74c7.45-2.49,14.89-5,22-7.43l3.22-6.26h1.87c.41,3.14,1,6.27,1.2,9.43s-.69,6.85.22,9.88c1.28,4.24.28,8.52,1.2,12.56,1.39,6.06.27,12.22,1.33,18.11.87,4.86.21,9.75,1.19,14.4,1.28,6.08.07,12.28,1.31,18.11,1.31,6.13.53,12.14,1,18.17.25,3,1,5.86,1.17,8.81s-.76,6.11.23,8.62c1.59,4.05.72,8,1,12,.13,1.64,0,3.31,0,5,.06,1.4-.12,3,.5,4.13,1,1.71-1.28,2.66-.53,4.17a17,17,0,0,1,1.16,10.64c-2,11.62,0,23.38-1.4,34.89-1,8-.23,15.88-1.11,23.73-.63,5.59-2.08,11.17-6.71,15.22-3,2.63-5.32,6.1-9.35,7.44-4.08-1-5.43-3.36-3.94-7.37a14.1,14.1,0,0,0,.53-7.37,111,111,0,0,1-1-32.09c.5-4.17,1.1-8.64-1.48-13-9.19-.13-16.43,6.89-25.46,6.92-1.26.12-2.53.45-3.74-.25a3.4,3.4,0,0,1-1.75-2.14c0-4,3.44-4.3,6-5.14,12.17-4.07,24-8.88,34.21-15.68-3.22.8-5.52,5.46-10.25,4.23-3.59-1.06-4.71-3.74-4.72-7.15,0-10.55,0-21.09.31-31.66.38-12.35-1.42-24.7-2.17-37.06-1-16.52-4.09-32.84-4.2-49.44-.08-10.85-3.51-13.71-14.39-13.9-14.32-.25-28.17,3.52-42.32,4.57-4.64.35-9.42,1.78-13.82-1.09-.16-4.36,3.7-3.28,5.62-3.44,10.17-.83,20.21-2.58,30.34-3.67A91.78,91.78,0,0,0,686.18,325.54Z" fill="#b7b7b7"/><path d="M198.23,583.2c-.53-3,2.6-3.72,4.21-6.62-2.06.6-3.26,1-4.5,1.28s-2.76.32-4,.45l-2.39-2.38-4.76-.52,1.65-1.92h-4.83l-3.21-4c-3.69.21-5.09-1.81-6.06-4.48l-4.64-1.65v-5.83l1.65-1.65h9c.19-.74.34-1.29.59-2.28-3.88-.65-8.26.46-11.45-3.63l2.46-1.28v-3.66l-4.76-3.21c-.66-6.21-4.61-12.18-1.17-19.23-2.71-.25-5-1.22-6.54-4,.18-.78.43-1.91.83-3.67l-2.32-2.68,1.86-2.29c4.31-.55,8.58-1,12.65-2.54a4,4,0,0,1,3-.14c3,1.74,6.4.57,9.43,1.31s5.89.79,8.81,1.26a60.5,60.5,0,0,0,7,1.16c2.32.11,4.61.94,6.94,1.13s5.2-.59,7.4.2c3.58,1.28,7.3.34,10.67,1.25,5,1.35,10,.88,15.05,1.14.35,0,.66.78,1,1.2-1.11,4.3-3.4,8.18-4.48,12.53.86,1.62,3.06,2.23,3.51,4.31-.67,6-6.83,13.06,2.46,16.42,2.49,5.35-1.35,7.09-3.56,9.44,0,6.87,0,6.87,16.53,22.15,13,1.66,15.3,3.09,14.28,9-2.34,2.17-5.26-1.43-7.58.81-6.55.87-12.88-1.66-19.39-1.24-3.61-1.92-7.52-1-11.31-1.29a52.25,52.25,0,0,1-5.71-1.2c-1.72-.34-3.67.75-5.21-1.05-.36-.42-1.56-.09-2.36-.21-2.38-.34-4.94.89-7.15-.73-2-1.5-4.6.3-6.91-1.54C203.52,582.3,200.52,583.2,198.23,583.2Z" fill="#bbb"/><path d="M686.18,488.6h3.73c3.43-.32,3.17,2.06,2.62,4C689.1,505.21,690,518,690.3,530.77c.11,4.09-1.82,7.61-2.69,11.32,1.48,5.11,3.8,9.83,4.79,15q-11.4,3.74-22.79,7.47c-4.18,1.38-8.17,3.36-12.64,3.74-1.51,2.11-3.74.94-5.65,1.24a28.86,28.86,0,0,0-11.2,2.49c0,1.71-1.33,1.1-2.22,1.25l-5.82,1-3.76-1.36-1,2.89h-4.65c-2.56-2.62-5.86-2.53-8.42-2.5l-5-5,4.83-4-.84-.88h4c1.91-3.79,2-9.13,7.47-9.58.49-2.55.86-4.43,1.34-6.87L625,541.44l7.24-2.88c.64-5.87,1.25-11.42,1.89-17.25l3.58-.67L635,517.48c.57-2,1.14-4.07,1.75-6.24l3.94-.61c-2.38-3.11-3.84-6.28-6.78-8.34-.47-2.34,1.26-2.8,2.87-3.18C653.17,495.29,669.17,489.54,686.18,488.6Z" fill="#969696"/><path d="M229.35,72.85a36.28,36.28,0,0,0,3.24-2.65,97.16,97.16,0,0,1,13.88-11.46c3.13-2.15,5.73-5.06,8.77-7.36a191.88,191.88,0,0,1,17.08-11.16c7.11-4.29,14.53-7.94,21.93-11.61,5.29-2.63,10.91-4.62,16.44-6.77a106.52,106.52,0,0,1,11.91-4.19c5.8-1.5,11.4-3.59,17.31-4.87,6.57-1.41,13.29-2.47,19.8-4.48C364,7,368.93,7.74,373.4,6.79,384.18,4.5,395,6.34,405.81,5.56c3.33-.24,6.28,1,9.43,1.32s6.49-.91,9.45,1.21c.41.29,1.22,0,1.83.05,2.37.34,4.9-.85,7.13.76,2,1.46,5-.84,6.75,1.72,5.38-1.24,9.89,2.43,15.11,2.63,3.37.14,6.7,1.67,10,2.66,2.2.65,4.37,1.44,6.55,2.17,3.31,1.93.4,3.85-.05,5.73,7.16,8.44,3,14.43-4.68,17-4.53,1.51-9,3.36-13.7,3.87-8.94,1-16,6.08-23.7,9.93-7.54-.15-12.62-5.76-19-8.58-10.44-5.26-21.64-8-33.09-9.89a8.71,8.71,0,0,1-3.28-1c-2.27-4.06-.37-6.55,3.5-7.27,10.95-2,21.69-5,33.07-4.77,8.86.15,17.78-.8,26.64-.85-52.73-8.36-103.46-.1-152.91,18.83a63.06,63.06,0,0,1,16.26-5.24c2.58-.53,4.65.64,5,3.34.33,2.29-1,3.59-3.37,4.3C285.21,48.61,270,59,253.68,66.92c-2.06,1-3.72,2.81-6.31,2.1-1.14-.5-1.72-1.7-2.63-2.4-3.85,1.88-6.44,5.16-9.85,7.36C231.63,76.09,231.67,76.15,229.35,72.85Z" fill="#9c9c9c"/><path d="M657.55,249.61v3.11l-6,6c-2,1-3.39,1.71-4.79,2.3-1.24.52-2.57.8-3.79,1.35-1.39.63-2.71,1.44-4.06,2.17-12.17,1-23.29,5.78-34.77,9.34a100.53,100.53,0,0,1-24.94,4.26c-4.34.22-8.75.52-12.87,2.23-4.61-.56-9.36,1.86-13.8-.26-2.31-2.62-.43-7.71-5.83-8.31.11,3,4.43,2.67,4.16,5.59-.13,3.51-3.11,4.39-5.58,4.52-12.75.67-25.34,3.37-38.16,2.92a10.12,10.12,0,0,1-3-.64c-2.2-1.75-3.32-4.11-4.07-7.31,3.11-6.35,9.19-10.08,14.89-14,9.49-6.57,19.42-12.25,26.09-22.44,5.66-8.65,23.34-5.19,27,4.74a22.89,22.89,0,0,0,2.13,4.93c4.22,6.37,7.81,6.74,12.78,1.19a4.67,4.67,0,0,1,1.65-1.42c2.27-1,4.33-.19,6.06-.06,1.9-1.29,1.67-3.12,2.08-4.67.68-2.52,2.24-4.11,4.89-3.78,3,.36,4,2.52,4.07,5.34,0,2.42-1.08,4.85-.17,7.31,1.64,0,1.59-1.27,1.91-2.12,2.9-7.8,6.42-8.91,13.53-4.6,2.94,1.79,5.55,4.47,9.38,4.45,6.05-1.48,8.25-4,9.24-10.67.84-5.62-.31-11.13-1-16.65-1.34-11.09-2.82-22.15-6.52-32.77-.09-12.94-5.07-24.56-10-36.1a268.24,268.24,0,0,0-16.64-33.11c-4.15-6.82-9.22-13.15-14.15-19.5a23.54,23.54,0,0,1-3.75-5.65c-.62-1.58-.76-3.35,1.89-3.27,3.66,1.46,4.76,5.31,7.06,8,3.79,4.39,6.59,9.63,9.82,14.5,1.83,2.77,3.92,5.39,5.48,8.3,4,7.44,8,14.91,11.57,22.55,2.53,5.35,4.26,11.07,6.69,16.48s3.83,11.28,5.42,17c1.48,5.4,2.32,11,4.37,16.21,1,2.46-.81,5.47,1.87,7.3.42,4,.82,7.94,1.25,11.91.39,3.56,1,7.1,1.2,10.67s0,7.4,0,11.3C646.63,241.06,653.24,243.64,657.55,249.61Z" fill="#aaa"/><path d="M153.42,265.79c-.76-1.88-2.77-1.67-4.16-2.51-2-1.23-3.92-2.62-5.67-3.8-.1-1.81-.18-3.2-.29-5.16l-3.17,1.24c-.11-.27-.26-.62-.4-1l10-7.47c1.48-1.08,3.08-.89,4.69-.63,4,3.55,3.55,11.34,10.82,11.52,3.16-1.8,2.56-4.74,2.54-7.32a110.14,110.14,0,0,1,1.33-20.44c.37-2,.21-4.2,2.07-5.67,2.25-.88,4.23-3.19,7-1.28,3.31,5,1.59,10.54,1.88,15.86-.88,6.91,1.4,13.23,3.55,19.61,1.38-6.57-.82-12.83-1.38-19.23-2.95-20.62.24-40.8,4.17-60.93,5.41-22.12,13.81-43,26.47-62,5.44-8.19,12.41-15.11,18.82-22.49,1.63-1.83,3-4,4.89-5.53,2.09-1.7,4.19-2.79,6.33,0,1.23,2.87-.54,4.75-2.32,6.48-6.4,6.26-11.25,13.83-17.28,20.4a284.55,284.55,0,0,0-21.81,41.2c-1.55,3.72-1.51,7.64-2.2,11.47-4.83,7.93-4.83,17.07-6.46,25.8-1.57,8-2.12,16.12-.16,24.7,4-4,5-13.35,14-8.72,2.52,3.23,2.83,7.21,3.58,11a71.48,71.48,0,0,0,24.84,42.07c2.25,8.42,10.75,8.79,16.44,12.77,2.4,1.69,6.27,1.53,7,5.69-1.83,4.57-6.07,3.66-9.5,3.41-20.87-1.47-41.75-2.91-62.33-7-9.15-1.82-18.36-3.36-27.16-6.58C156.83,270.24,153.77,269.46,153.42,265.79Z" fill="#c2c2c2"/><path d="M263,590.67l1.15-2,5.86.83c1.55-3.36-2.07-2-2.32-3.52l-3.82,1.16-4.64-4.64c-1.11,1.33-1.93,2.32-3.17,3.79l4.37,1c0,.58.06,1,.11,1.84l-4.69.35c-.16-.77-.28-1.33-.45-2.13l-2-.67c.35-1.37.7-2.77,1.16-4.59l-7.91-3.46c.36-.7.78-1.53,1.21-2.35l-7.13-2v-4l-3.84-3v-4.5l-3.75-2.3,2.43-1.47v-6l5.68,1.47c.56-.75,1.35-1.78,3.05-4l-5.64,1.61c-1.41-2-2.87-4-4.43-6.22l.95-1.77c-3.11-5.11,3-7.27,3.79-11.71l-2.8-2.35c-.53,3.21-1.25,5.69-3.11,6.59L230,534.84l2.95-3.18V528l4.18-4.18-5.29-2.35a2.72,2.72,0,0,1,2.94-2.9c2.88.27,4.68-1.83,7.06-2.57,1,0,2,0,3.07,0,8.65-.36,17.16,2.14,25.85,1.31.28,0,.63.77.95,1.18v1.87l-4.34,2.5,3.46,1.58c1.62-1.12,4.26-1.5,7.53-.39L271,533.76c1.11.47,1.61.66,2.09.9s1,.59,1.64,1c1.83-1.19,3.76-1.74,5.11.24-.34,2.59-.65,4.85-1,7.49l-8.46,11.2a7.9,7.9,0,0,0,1.7,1,14.18,14.18,0,0,0,2.57.4l3.45-4.17c2.78,2.41,2.78,2.41,1.2,5.72l3.21,4.68h5.66c-.71,2.7-1.34,5.05-2.07,7.8l-3.2-1.88c.16,1,.14,2.29.39,2.34,2.87.64,3.93,3.31,6.35,5l-3.08,3.73c.56,2.49,2.17,3,4.38,2.79,2.15-1.4,2.66-5.23,6.32-4.92,0,2.21-.23,3.08-1.71,5.81l3.61,3.59c-.73,1.85-1.09,2.79-1.46,3.73l.82.48,2.91-4,15.39,1.73L315,592c-3.36-.58-6.79.86-10-1-1.21,1.49-3.89-.23-4.69,2.16-2.68,0-5.37.15-8,0-4-.27-7.9-1-11.87-1.16s-7.84-.05-11.76,0C266.65,591.93,265.09,590,263,590.67Z" fill="#b9b9b9"/><path d="M585.35,94l-1.8,1c2.31,2.85,4.44,5.44,6.52,8.08a44.89,44.89,0,0,1,3.5,4.77,133.46,133.46,0,0,0,8.91,12.45c1.69,2.23,2.36,4.86,3.89,7.16,3,4.45,5.2,9.42,7.59,14.24s4.75,9.64,6.86,14.57c2,4.75,3.88,9.6,5.57,14.49,1.83,5.27,2.43,10.9,4.93,16,.58,1.17.09,2.86.09,4.31-4.13,1.3-4.84-1.75-5.83-4.53-4.48-12.63-8.7-25.36-14-37.66a191,191,0,0,0-17.95-32.72c-4-5.74-8.3-11.17-12.49-16.67a136.75,136.75,0,0,0-16.81-18C558.43,72,548.54,67,539.87,60.84a117.44,117.44,0,0,0-23.93-13c-6.31-2.58-12.65-5.23-19.82-4.83-2.41.13-4.6.23-6,2.16-7,9.63-16.62,17.32-21.7,29.84-.11,2,3.75,5.18.44,8.6-2.76,1.93-5.14.75-6.72-1.46-1.95-2.73-4.58-4-7.55-5-3.69-2.13-4.91-7-9.3-8.37-3.69-3.66-7.15-7.59-11.79-10.15-2.1-1.37-4.22-2.72-3.73-5.75V50.69c3.41-.19,6-2.12,8.61-4.28a18,18,0,0,1,8.4-3.58c7-1.23,14.16-2,20.53-5.59a15,15,0,0,1,3.71-.93L473.57,31c-2.32-5.18-7.45-5-11.34-7.17V21a45.1,45.1,0,0,1,5.6-1.64c1.81-.3,3.36,2.49,5.39.67l-1.14-2c2.76.83,5.48,2.14,8.29,2.37,3.16.25,5.07,2.67,7.94,3.44,4.78,1.28,9.1,3.93,13.84,5.51,2.48.82,4.18,3.21,7.15,3.79a14.55,14.55,0,0,1,7,3.8c3.31,3.28,7.71,4.59,11.46,7,6.39,4.16,12.7,8.35,18.85,12.91a253.4,253.4,0,0,1,29.52,26C579.53,86.37,583.16,89.59,585.35,94Z" fill="#c6c6c6"/><path d="M692.4,557.06c-.33-.41-.63-1.16-1-1.19-1.85-.12-3.72,0-6,0l-2-2.32,3.93-4.54v-3H684.1c-.28.71-.55,1.42-.84,2.18-.27-.18-.8-.41-.78-.51.55-2.24,1-4.51,1.79-6.7s2-4.19,2.51-6.4c.47-1.85.84-4.11.19-5.77a9.44,9.44,0,0,1-.09-6.82c.56-1.77.19-3.87.07-5.81-.06-.93-.81-1.88-.71-2.76.2-1.72,1.14-3.41,1.08-5.08s-1-3.3-1.5-4.88l2.94-3.3c-1.88-4.14-1.88-4.14,2.53-10.77l-1.38-.78c.28-2.38,2.32-.72,3.38-1.46,2.37-1.65,5.44-1.39,8-3.35,2.1-1.65,5.4-1.74,8.11-2.68s5.31-2.13,8-3.11a28.4,28.4,0,0,1,3.68-.77c0,1.23.32,2.27-.06,2.74-1.57,1.95-1.2,4.18-1.15,6.34,0,2,.48,4,.48,6a39.19,39.19,0,0,1-.53,5.39,29.27,29.27,0,0,1-.86,5.19c-1.11,3.56-.86,7.52,2.66,10.53l-2.91,3.23c1.49,6.51,2.87,12.9,2.25,19.92l-2.6,2.88,2.72,4c-4.07,2.49-7.91,5.56-12.28,7.32C703.34,552.87,698,555.32,692.4,557.06Z" fill="#a7a7a7"/><path d="M177.07,223.47a17.5,17.5,0,0,1-2.32,1.65,16.81,16.81,0,0,1-2.66.84c-3.31-1.55-2.9-4.67-2.83-7.39a48.42,48.42,0,0,1,3.24-16c.58-14.81,6.2-28.36,9.54-40.12-1.77,3.84-7.53,7.56-10.66,13.37-1,1.81-3.43,4.54-5.51.33,2.18-7.17,4.42-14.31,7-21.37,3.26-9.1,7.93-17.48,12.44-25.94a208.18,208.18,0,0,1,16-25.15C209.5,92.5,219,82.59,228.74,72.87c.11-.11.41,0,.61,0,.25.46.51.91,1,1.84L244,63.06c3,.57,5.21-3.73,9.48-2.16-.94,1.26-1.52,2.85-2.47,3.12-2.2.61-3.26,2.09-4.21,3.85,1.4,2.83-1,3.81-2.51,5.22a264.9,264.9,0,0,0-24.9,23.77c-2.23,2.44-4.51,4.74-6,7.72-.21,2.8,2.21,5,1.7,7.77-6.28,11-13,21.77-17.85,33.65A192.72,192.72,0,0,0,184,194.64c-.31,2.46-1.53,4.72-1.38,7.25-.5,4.69-1,9.38-1.32,14.09C181.06,219.09,180.7,222.23,177.07,223.47Z" fill="#aeaeae"/><path d="M165.87,176.17l.59,1.44,3.12-4.28v-4.41h2.94c5.92-5.79,9.89-12.76,14.72-20.4,1.95,5,.5,8.28-.84,11.38s-2.66,5.95-3.11,9.24c-.43,3.06-2.45,5.65-2.55,8.87a10.52,10.52,0,0,1-1.29,5,19.21,19.21,0,0,0-2.46,8.31c-.27,2.72-1.59,5.29-1.23,8.17.06.47-.76,1.05-1.18,1.58-5.17,6.31-6.63,14.33-9.89,21.52-1,2.23-1.52,4.7-2.94,6.74a3.63,3.63,0,0,1-4.3,1.58c-1.75-.58-2.83-1.72-1.54-3.7.14-2-.3-4.3.55-5.92,1-1.86.38-3.55.69-5.29.33-1.9-.82-4.09,1.21-5.7.3-.24,0-1.18,0-1.8a48.9,48.9,0,0,1,0-5.55c.17-1.5.88-2.93,1.18-4.42a195.47,195.47,0,0,1,5.22-21.91C164.93,176.38,165.52,176.31,165.87,176.17Z" fill="#ccc"/><path d="M155.91,227.2v2.27l3.25.26c2-5.26,2.76-10.57,5.34-15.42,2.49-4.69,4.1-9.86,7.07-14.68l3,1.43c0,2.57.15,5.05-1.12,7.57-1,2-.13,4.46-1.09,6.94-1.17,3.05-.28,6.89-.28,10.39-.41,6.24-1,12.48-1.19,18.73-.21,6.4-.05,12.82-.05,19.44-3.51,1.6-5.85-1.41-8.42-2.61-2.83-1.33-5.14-3.76-7.22-5.36l-2.08-9h-3.44l5-3.5c0-4.23,0-9.24,0-14.26C154.69,228.47,154.26,227.21,155.91,227.2Z" fill="#dfdfdf"/><path d="M640.12,572h-2.3l-.12-.85a56.72,56.72,0,0,1,7-1.56,12.31,12.31,0,0,0,3.87-1.21c.72-.32,2.58-1,2.79,1.13-.64.41-1.24,1.08-1.93,1.2C646.31,571.23,643.21,571.58,640.12,572Z" fill="#828282"/><path d="M153.42,265.79c4,1.32,8.31,2.14,12,4.13,2.62,1.42,5.37.33,8,1.87a11.33,11.33,0,0,0,7.46,1.58c1.37-.23,2.94.78,4.45,1.11s3-.21,4.65.86c2.28,1.49,5.26.36,8.1,1.39,4,1.46,8.69,1,13.07,1.53,2.75.3,5.48.75,8.2,1.24s5.77-1.3,8.22,1.2c.21.21.81.06,1.22,0,9-.85,17.88,1.41,26.86,1.25a2.94,2.94,0,0,0,2.48-1c-2-.92-4-2-6.16-2.7-2.36-.82-4.3-2.4-7-2.77-2-.27-2.81-4.13-6.31-3.34l-6.77-7.62c3.68-3.81,6.71-1.29,9.59,1.1A35.39,35.39,0,0,0,262.65,274c-2.41-8.07-8.48-14-10.67-20.54a11.12,11.12,0,0,0-5-2.59,14.44,14.44,0,0,1-4.7-2.95c-2.38-2-5-17.93-3.64-21.16,2.39-1.56,4.25-.32,6.06,1.15,4.43,3.61,9,7.07,13.44,10.63,3.93,3.5,9.22,5.25,12.49,9.63,4.08,4.34,9.27,7.53,12.94,12.31,1.28,4.32,4.76,5.35,8.4,5.51,6.42,6.78,6.29,7.31-3.94,17.25-2.88.58-5.93-.39-8.61,0,10.3.32,20.92-1.36,31.6-.75,1.25.28,2.44.65,3,2v4.38a8.69,8.69,0,0,0-2.53,1.33c-2.74,3-5.85,4.6-10.09,4.37-2-.11-4.08,1-5.06,1.29l-6.56,6.54-2.82-4.44-8.91,1.6V305l-5.73,1.9c-1.48,2.67-.89,6.8-5.33,7.65-.31,6.44-6,9.11-9.58,13.56-4.64-.71-6.75-6.16-12.66-5.69-1.48,1.37-4.42.38-7.44.7l-1.75,2.11V333c-2.1-.44-3.92-1-5.78-1.17a54.82,54.82,0,0,0-5.59,0c-2.08,0-4.17-.15-6.22.05-1.51.16-3.1,1.36-4.44,1.08-3.61-.73-7.55-.58-10.74-2.5a6.43,6.43,0,0,0-4.53-1.06,62.25,62.25,0,0,0-7.35,1.74c-.53.15-.9.84-1.4,1.35l2.1,1.85c6.6-.92,12.7,2.08,19,4.23a5.88,5.88,0,0,0,2.18.69c9-.94,17.85,2.22,26.56,1.19l7.41,3.93c9.2-1.37,18.33,2.22,27.74,3.7.81.12,1.47,1.15,2.68,2.16-4,.64-7.61.35-11.14,1.29s-7.82.22-11.76.22c-3.74,0-7.47.12-11.2,0s-7.31.76-11.74-1.2c-.91.1-2.55,2.64-5,.34-.89-.85-3.16-.49-4.76-.31-7.38.82-14.54-1.84-21.89-1.28-2.14-1.65-4.07-1-6.5-.21-1.78.6-4.34,1-6.47-.58-.81-.63-2.36-.58-3.51-.42-5.75.81-11.22-1.62-16.92-1.33-.67,0-1.34-.82-2.07-.94-2.36-.38-4.79-.89-6.83,1a21.65,21.65,0,0,0-3.24-1.22c-1.71-.36-3.45.33-5.2-1.13-1-.82-3.61-.79-4.78,0-4.42,2.83-8.48.3-12.67-.29-.91-.13-1.76-1-2.66-1-3.73-.11-7.47.16-11.19-.1-3.56-.26-7.08-1-11.37-1.63l-2.1-2.69-7.6,4.18c-1.63-3.06-4.34-5.13-7.71-6.69-1.57-.73-2.23-3.23-3.63-4.57-1.93-1.85-3.45-4-5.48-5.83-1.73-1.55-2.23-4.41-3.57-6.51-.77-1.2-2.12-2-3.79-3.57-.5-1.36,1-2.49,2.07-4s1.21-3.18,1.73-4.69h4.29c.66,1.06,1.36,2.2,2.15,3.46h6.68c4.23-1.89,7.07-4.84,6.91-9.95a3.28,3.28,0,0,1,1.22-2.52c2.5-1.53,3.21-4.75,5.92-6,6.44,2.75,12.42-1.65,12.72-9.34l3.29-3.3h2.18c2.46-2.8,4.49-5.3,6.72-7.6s4.1-4.29,5.28-7.16c.85-2.06,4.29-4.09,7.87-5.06C144.64,262.73,148.19,265.92,153.42,265.79Z" fill="#d6d6d6"/><path d="M565.44,277c3-.46,6.06.94,9-.83,2.42-1.48,5.37.4,8.11-1.47,1.88-1.29,5.2.72,7.43-1.43,6-.75,12.13-.9,17.69-3.74,6.85.28,12.49-4.1,19-5,2.12-2.23,5-2.84,8.11-3.9.19,1.22.37,2.34.61,3.9h3.49c-2.7,2.23-6.27,2.31-9.27,3.75s-7,.92-9.84,3.37c-.74.64-2.35.2-3.55.36-2.3.3-4.59.69-6.54,1l-2.83,5.86c.46.91.78,2.38,1.69,3.14,3.62,3,4.7,6.87,4.14,11.25,4.94,10,5.32,8.9,5,21.62l3.3,3.56c-1.7.9-2.81,2-4,2-4.12.24-7.1,3-10.54,4.62-1.2.58-1.74,2.52-2.67,4h-6L593,331.83l6,2.35c1.9-.74,4-1.67,6.2-2.36a4.93,4.93,0,0,1,2.3.35c1.13.25,2.44,1.08,3.35.75,6.39-2.28,13-.59,19.42-1.18,2.74-.26,5.45-1,8.19-1.18s6.07.7,8.65-.21c4-1.43,8-.73,12-1.11,2.54-.24,5.06-.77,7.58-1.22s5,.2,7.7-.92c3.54-1.46,7.82-1.12,11.79-1.56-.82,2.36-3.81.5-4.82,2.49-4,.41-7.93,1-11.91,1.18-3,.14-5.64,2-8.8,1.37s-5.69,1-8.42,2.07a7.59,7.59,0,0,1-3.58.32c-5.3-.64-10.37,1.06-15.56,1.51-.17,0-.29.66-.44,1l-.68.87c-6.39,1.91-13,2.16-19.61,2.69-11.35.91-22.58,2.81-34,3.52-7.78.49-15.22,3.74-23.16,3.5-9.55-.38-19,1.93-28.54,1.24-24.45-1-48.73,2.3-73.15,2.78-17.31.34-34.67,1.31-52,2.42-26.22,1.68-52.51,1.77-78.73,3.87-11,.88-22.25,2.11-33.33.1-2.38-.43-6.17.8-6.63-3.57,4.55,0,9.11-.17,13.65.05,5.09.24,9.9-2.21,15-1.29,6.21-3,12.87-2.49,19.46-2.52a6.92,6.92,0,0,0,2.85-.58,7.16,7.16,0,0,1,6.32,0,7.31,7.31,0,0,0,2.84.6c3,0,6.05.52,8.8-1.22,2.6,1.23,5.52,1.91,8.14,1.14,5.2-1.53,10.45-.8,15.66-1.23,2.43-.2,4.76-1.42,7.17-2.08,3.24-.89,6.42-1.94,9.92-1.62a39.31,39.31,0,0,0,9.77-.47c-4.25-.48-8.3-1.16-11.15-4.86L389,340.6,385.37,339l-2-4.29-3.68-1.88-2.87,2.7c-3.23.2-6.37-.34-9.53,1.13-2.32,1.07-4.44-1-7.19-2.41h-6.21c-2.54-8-11.5-8.54-16.09-14.19l1.88-3.3c1.06-.7,4.45,1.47,5.37-2.16-.9-2.27-1.89-4.76-3.1-7.78-7.27-2.14-5.29-8.71-5.55-14.07l-3.07-3.29h-7.73l-2.88-3.71c1.11-2.51,3.31-2.57,5.56-2.49,18.51,2.41,37.13,1.78,55.73,1.89,3.28,0,6.62-.52,9.5.5,2.28,1.31,2.64,3.5,3.51,5.44,10.42,3,18.4,12.22,29.95,10.89,2.72,1.12,4.27,3.11,5.94,4.93a9.32,9.32,0,0,0,6.5,3.25c10.46.59,21,1.38,31.36,2.08,11.87.81,24-1.89,35.67,1.87,2.59.83,5.38-.08,7.56.42,3.46,1.29,3.54,4.35,4.77,6.65.55,1.08,1.45,1.94,2,3,.83,3.28,3,5.37,6,6.84,6.31,3,12.47,6.34,18.17,8.3,3.14.14,4.87-1.55,7-1.22s4.28.67,6.35,1.31c4,2.34,5.27-.57,5.84-3.4,1-5-.89-9.27-4.88-12.58,2.48,3.16,3,7.08,4.17,10.72,1,2.9.49,5.36-3.18,6a11.07,11.07,0,0,1-4.83-2.78c-3-7.91-6.14-15.82-8.91-24.18a48.56,48.56,0,0,1,15.87-11.73c5.64-2.61,11.56-4.63,16.36-8.78,1.74-1.5,3.59-2.94,3-6-2.66-4.23-7.78-2.41-11.65-4C567.3,281.53,564.09,281.26,565.44,277Z" fill="#cacaca"/><path d="M132.26,491.09a8.39,8.39,0,0,0,2.29-.47c4-2.1,8.15-3,12.31-.73,2.67,1.48,5.44,1.1,8.45,1.22l2.37-2.18-4.18-4.79c.46-1.92,1-4,1.42-5.86l-5.18-5.19v-4.23l3.68-3c0-5.49-.18-10.47.05-15.44.24-5.22.87-10.43,1.39-16.43,1.67-2.07,3.78-4.7,6.17-7.69l-1.51-4.7,3.08-6.08,4.52-2.27c0-.49.12-1.11-.09-1.27-2.73-2.14-5.59-4-6.67-7.75-.37-1.31-2.75-2-4.3-3.09V397c.29,0,.64-.16.86,0,1.53.74,3,1.53,4.74,2.41.27-1,.42-1.52.56-2l-2.57-2a3.52,3.52,0,0,1,5,0l3.73-1.24a8,8,0,0,0,7.71,2.1c3.71-.91,5.64-3.63,3.93-7-2.74-5.34-6.42-10.22-3.38-16.65.06-.11-.53-.56-.79-.88v-6.14l7.53-11c3.06-.56,5.74-1.17,8.45-1.51,2.54-.33,5.08-.56,7.6-1,3.33-.56,7.24-1.58,10.68.84.84.59,2.54-.23,3.63.18,3,1.12,6-3.44,8.93-.07h59c.74,2.59-1.22,3.48-2.94,3.76A216.53,216.53,0,0,1,250,359.54c-4.32.12-8.7-.16-12.72,1.86-3.29,1.65-6.07,4.25-6.28,7.9-.29,4.76-3.06,6.87-6.73,8.61-1.4,2.77.18,5.26,1,7.68,2.22,6.61,2.34,6.57-2.55,11.24,3.05-2.6,5.56-2.51,7.32,1.27.3,2.5-1.2,4.52-1.09,6.82C221.76,412,223,420.24,224,429.3c.75,7.06-5,13.14-9.26,18.89-1.09,1.46-3,2.27-3.48,4.46,1.18,2.79,4.45,4.22,5.61,8-3.29,12.9,4.55,25.94,2.51,39.31-4.16,4.23-8.49,4.74-13.05,2.46a47.47,47.47,0,0,1-21.63,1.29c-7.32-.7-14.36-3.14-21.74-3.48-8.61-2.38-17.66-2.37-26.18-5.09C134.73,494.53,131.92,494.47,132.26,491.09Z" fill="#cacaca"/><path d="M220.49,376.23a1.23,1.23,0,0,1,.3-2.05.65.65,0,0,1,.2,0c1.73-.13,3.47-.15,5.52-.17a1.27,1.27,0,0,0,1-2L226,369.9a1.26,1.26,0,0,1,0-1.55l8-9.8a1.32,1.32,0,0,1,.7-.43c2.33-.52,4.45-1.07,6.59-1.44,1.89-.33,4,.55,5.83-.86a1.24,1.24,0,0,1,1.34-.16,10,10,0,0,0,8.27.44,8.32,8.32,0,0,1,3.43-.64c6.93.81,13.65-1.43,20.53-1.35.19,0,.39-.28.59-.61a1.26,1.26,0,0,1,1.06-.58h.57c.32.42.61,1.14,1,1.19,1.6.21,3.93-.42,4.72.44,1.76,1.9,2.15-1,3.6-.52,1.8.58,3.49,1.91,5.66,1.42,1.89-.43,3.95.52,5.8-1.16.55-.5,2.26.28,4.25.73a1.26,1.26,0,0,0,.83-.11,5.27,5.27,0,0,1,2.47-.68c13.54.85,26.95-1.65,40.48-1.4,6.86.12,13.73-.9,20.6-1.11,7-.2,14.23.87,21.08-.28,8.18-1.36,16.38.14,24.34-1.19,9.4-1.57,18.86.16,28.05-1.29,8.59-1.35,17.18.09,25.58-1.21,6.91-1.06,13.89-.06,20.6-1.23,11.11-1.93,22.19-.55,33.26-1a1.26,1.26,0,0,1,.88,2.21,3.94,3.94,0,0,1-2.33.65c-5.39.12-10.65,1.56-16.07,1.4-16.68-.48-33.2,1.83-49.76,3.27-8.62.76-17.21,1.89-25.88.78-5.42-.69-10.71.82-16.09,1-13,.47-26,1.71-39,1.79-7.59.05-15.14.74-22.71.61-17.89-.29-35.61,1.94-53.39,3.4-4.75.39-9.53,0-14.26.61-8.86,1-10.62,3-11,11.64a29.17,29.17,0,0,0,.22,6.8c.43,5.3.4,11.17-2.82,14.76a44.9,44.9,0,0,1-5.63,1.37c-7.62.37-11.65.45-12.51-2.07-.38-1.11,2.4-3.85,2-2.76l-.48,1.27a1.26,1.26,0,0,0,1.72,1.56c2.93-1.28,6-.42,8.77.12.22,0,.37.31.59.28,12.61-1.79,1.27,5.87,2.13,8.55a1.24,1.24,0,0,0,.34.51c3.51,3.3,3,7.05,3.07,11.79.09,8.65-4.1,16.14-4,23.68a1.29,1.29,0,0,1-.1.51c-.94,2.2-2.41,3.18-3.66,4.46a1.26,1.26,0,0,0-.34.88c0,2.9-.32,5.79-2.2,8.19a1.28,1.28,0,0,0-.25,1.05c1.22,5.92,0,11.71-.61,17.4-.56,4.92.38,8.68,4.31,11.4s5.29,6.13,4.18,10.69a11.2,11.2,0,0,0,.19,5.51c1.57,6.15-1.81,11.37-8.32,11.33-9.45-.05-18.93,1.25-28.37-.34h-.09q-21.09-1.54-42-5c-1.94-.32-4.4-.15-5.46-2.08a1.26,1.26,0,0,1,1.22-1.82c1.54.11,3.13.45,4.5-.47a1.23,1.23,0,0,1,1.53.18l1.13,1.13a1.36,1.36,0,0,0,.6.35c4,1,7.35-1.45,11.32-2.44a1.28,1.28,0,0,1,1.15.31l2,1.84a1.25,1.25,0,0,0,1.41.21l4.91-2.43a1.26,1.26,0,0,0,.71-1.13v-9a1.24,1.24,0,0,0-.37-.89l-1.56-1.56a1.3,1.3,0,0,1-.37-.87,56.21,56.21,0,0,1,.06-6.6c.33-3.1-.07-6.39-1.5-8.7-1.9-3.06-.48-5.26.25-7.79a1.53,1.53,0,0,1,.35-.6,1.26,1.26,0,0,0-.06-1.72l-5-5a1.26,1.26,0,0,0-1.4-.27l-2.66,1.2a1.26,1.26,0,0,1-1.68-1.62c.07-.18.13-.35.18-.52a12.06,12.06,0,0,0,.34-2.07,1.3,1.3,0,0,1,.67-1c2.48-1.26,5.06-2.24,7.07-3.91s3.74-4.29,5.57-6.58a1.29,1.29,0,0,0,.27-.78v-3.34a1.24,1.24,0,0,1,.4-.92l4.07-3.78a1.25,1.25,0,0,0,.38-1.13c-.47-2.85-.94-5.68-1.52-9.13a1.21,1.21,0,0,0-.46-.79l-1.1-.86a1.27,1.27,0,0,1-.48-1v-5.05a1.27,1.27,0,0,1,.21-.68c1.38-2.11,2.25-4.25,3.83-5.37,1.73-1.22,3.59-2.1,4.57-4.06a1.09,1.09,0,0,1,.28-.36c4.32-3.81-8.32-2-6.51-7.09.37-1,5.89-5,4.57-7.22-2-3.34,1.31-1.35-.32-5.76C223.74,380.92,222.64,378.26,220.49,376.23Z" fill="#bfbfbf"/><path d="M185.79,501.05c.14.35.23,1,.44,1,2.47.58,5.24-.41,7.47,1.47,5.51-1,10.75,1.5,16.23,1.32,2.3-.07,4.63.72,6.93,1.18s5-1.17,6.93,1.23h11.79c11,.55,21.83,3.06,32.95,1,5.64-1,11.47-.3,17.22-.32,7.69-.11,15.26,2.18,22.76,2.13,9.84-.08,19.65,1.51,29.48.35,18.58,1.52,37.26,4.27,55.79,2.12,16.46-1.91,33-1.15,49.39-3.31,12,1.82,23.82.13,35.61-1.9,5.73-.71,11.56.57,17.27-.78a5.53,5.53,0,0,1,2.29.17c10,1.78,19.69-.92,29.48-1.94,6.15-.64,12.34-.43,18.47-1.25a5.08,5.08,0,0,1,5,1.81,4.39,4.39,0,0,1-.77,5.63c-2.4,0-4.8-.08-7.19.05-.53,0-1,.78-1.52,1.19-11.94,2.77-24.2,2.36-36.3,3.63-19.27,2-38.69,2-58,3.77a44.53,44.53,0,0,1-6.22.05c-20.48-1-40.89,2-61.4,1-8.45-.4-16.94-.72-25.42-.42-7.72-1.22-15.49-.29-23.23-.58-11.92.79-23.7-1.9-35.61-1.28a5.46,5.46,0,0,1-4-1.21c-3.35-.41-6.69-1-10.06-1.2s-7.25.7-10.51-.23c-4-1.16-8.15-.21-11.93-1.21-5.67-1.51-11.3-.73-16.93-1.13-2.54-.19-5-.89-7.58-1.18s-5.27.61-7.58-1.25c-.25-.2-.81-.07-1.22,0-6.75.85-13.28-1.63-20-1.32-1.88.08-3.78-.85-5.7-1.14a32.49,32.49,0,0,1-5.15-1.06c-3.53-1.14-7.49-.89-11.22-1.5-5-.81-10.21-.63-14.77-3.29l-11.77-1.65c.45-4.12.5-4.14,6.22-2.49,2.76,0,5.45,0,8.17,1.14,2.26,1,4.95-.58,7.58,1.16C180.7,501.9,183.52,501.05,185.79,501.05Z" fill="#3d3d3d"/><path d="M353.83,519.72h38c4.77,0,9.54-.05,14.31,0s9-1.81,13.81-1.35c4.52.44,9.12.09,13.68.09,4.77,0,9.7.77,14.28-.16,8.36-1.69,16.8,0,25-1.29,6.73-1,13.47-.15,20-1.22,5.68-.94,11.48-.08,16.89-1.29,6.35-1.41,12.58-.49,18.83-1,2.13-.19,4.2-1,6.33-1.16s4.56,0,6.85,0h6.06c0,.28,0,.57,0,.85-.82.13-1.64.33-2.46.39-6,.43-12.23.13-18.06,1.48-4.47,1-8.9.21-13.16,1.14-5.63,1.22-11.42.22-16.84,1.38-4.48,1-8.81.59-13.19,1-8.09.74-16.16,1.68-24.32,1.3-.84,0-1.72.76-2.94,1.34a4.83,4.83,0,0,0-5.89-1.25c-3.58,1.62-7.15.89-10.72,1.07-2.69.13-5.38,0-8.07,0-6.57.14-13.14.27-19.71.45-.3,0-.6.52-1,.89-3.09-1.34-6.23-2.42-9.58-.4-.77.46-2,.29-3,.3-4.56,0-9.11.07-13.67,0a30.1,30.1,0,0,1-4.68-1l-1.88,1.08-1.94-1c-1.39,1.43-3.53.77-5.59.88-.42-2.42-2.31-1.18-3.45-1.18-15.26-.1-30.52,0-45.79-.12-5,0-10-.94-14.95-1.14-5.15-.21-10.31,0-15.47,0v-2.49c4.35,0,8.7-.16,13,0s8.76,1,13.15,1.15c4.54.21,9.1,0,13.65,0,5.22,1.36,10.54.26,15.8.64C349.43,519.27,351.72,518.53,353.83,519.72Z" fill="#bbb"/><path d="M163.38,498.56h-6.22v2.49c-2.27,0-5.35.91-6.62-.21-2-1.78-4.2-.86-6.2-1.69-3.53-1.47-7.65-1.5-11.75-2.16-1.6-1.53-3.81-1.84-6.22-2.29a102.75,102.75,0,0,1-15-4.05c-5-1.78-10.35-2.76-15.15-5.3-.08-.4-.19-1-.35-1.73-1.73,0-3.35.07-5-.05-.36,0-.66-.78-1-1.19-1.36-2-5.09-1.55-5-5h4.28c2.17,3.56,6.71,3.25,10.35,4.83,5.74,2.48,12,3.81,17.85,6,1.82.68,4.23-.75,5.48,1.61,3.28-.84,6.13,1.57,9.34,1.25.32.42.69,1.22,1,1.19,3.26-.42,6.1,1,9,2,.54.18,1.08.6,1.59.56,4.81-.35,9.33,2.12,14.21,1.33A5,5,0,0,1,163.38,498.56Z" fill="#666"/><path d="M328.93,285.71h-6.22a40.35,40.35,0,0,1-4.92,0,21.34,21.34,0,0,1-3.79-1.2h-3.74c-3.09-1.11-1.48-2.83-.59-4.46,6.21-3.87,12.71-5.52,19.87-2.68a6.94,6.94,0,0,0,6-.1c5.71-3.23,12.38-4.62,17.42-9.39,2.6.28,5.2-.22,7.83,0a5.45,5.45,0,0,1,2.92,2.2c.13,3.74.13,3.74-5.8,10.39,2.07,2.23,7,.05,7.48,4.61-.31,1.46-1.45,1.18-2.42,1.27C351.63,286,340.26,287.11,328.93,285.71Z" fill="#666"/><path d="M85,477.4,91,482l-1,.42c-6-1.6-16.29-8.61-19.9-13.66-.1-.13,0-.4,0-.8,2.24-1.6,4.08.71,4.91,1.6C77.9,472.7,81.61,474.8,85,477.4Z" fill="#535353"/><path d="M98.63,286.08c2.39-1,4.62-2,7.31-3.18.09,1.29.16,2.24.24,3.36l-3.06,3.15C100.05,289.65,98.5,288.61,98.63,286.08Z" fill="#d6d6d6"/><path d="M686.18,488.6c-2.21,3.37-6.4,1.85-9.21,3.74-5.25-.46-9.79,2.2-14.68,3.33-2.64.6-5.31,1.08-8,1.65-4.73,1-9.44,2.07-14.18,3.05-1.53.32-3.13.37-4.65.72-.6.14-1.07.79-1.6,1.2l-16.18,1.25c-1.8.19-1.62-.83-1.22-2,2.36-2.31,5.52-2.45,8.49-3.14,17.72-4.13,36-5.83,53.24-12.1,1.76-.64,4.86-1.63,6.7,1.05Z" fill="#a7a7a7"/><path d="M616.47,502.29l1.25,1.25c-.15.35-.26,1-.45,1-3.92.54-7.86.94-11.78,1.5-1.91.27-3.78.84-5.68,1.21-1.71.33-3.76-.79-5.09,1.2-.07.1-.39.08-.58.05-4.9-.86-9.52,1.24-14.35,1.32-4.38.08-8.74.76-13.11,1.18a2.6,2.6,0,0,1-.11-2.38c2.51-4,6.63-2.29,10.09-2.86,11.38-1.86,22.76-3.69,34.25-4.76C613.1,500.81,614.92,500.51,616.47,502.29Z" fill="#969696"/><path d="M550.5,511v-5c3.16-4,7.27-3.76,11.59-2.66,2.24,2.22,3,4.49.22,6.87a24.68,24.68,0,0,1-10.57.77Z" fill="#080808"/><path d="M551.74,511a42.86,42.86,0,0,1,5-1.2,38.43,38.43,0,0,1,4.92-.05c1.66-1.06,3.32-1.63,5,0V511c-2.25.41-4.48,1-6.75,1.2a43.29,43.29,0,0,1-6.64,0C552.75,512.16,552.26,511.42,551.74,511Z" fill="#bbb"/><path d="M350.13,529.26l5.67-3.9c.27,2,.48,3.45.61,4.35-2.17,2.26-4,4.15-5.83,6l-1.81-1.8C351,532.77,349.58,530.48,350.13,529.26Z" fill="#ababab"/><path d="M337.65,513.5c-7.61,0-15.22-.12-22.83,0-4.83.1-9.38-1.88-14.3-1.39-4.69.47-9.45.13-14.18.05-.33,0-.65-.78-1-1.19,1.31-3.27,4.32-2.89,6.9-2.95,6.84-.17,13.68-.28,20.52.22,7.73.58,10.71-3.12,8.8-10.56-.77-3-1.25-6.05-3.57-8.47a7.53,7.53,0,0,1-1.25-8.22c2.69-6.61.55-12.21-2.91-17.58-3.34-5.18-4.47-9.53.37-15,3.08-3.49,4.22-8.65,3.82-14-.49-6.5,2.35-12.93.69-19.67-2.35-9.57-1.75-18.82,3.89-27.45,1.77-2.71,1.05-5.89-.5-8.9-5.16-10,0-19.7,11.07-20.49,17.66-1.25,35.38-1.65,53.05-2.69,12.77-.76,25.56-1.06,38.33-2,11.68-.87,23.48-1,35.22-1.44,14.71-.56,29.31-2.49,44-2.75a175.58,175.58,0,0,0,27-2.26c7.94-.51,15.94-.23,23.83-1.55a6.79,6.79,0,0,1,2.09-.4c12.93-1.44,25.78-3.46,38.68-5.07,12.4-1.55,24.83-2.94,37.25-4.27,3.31,0,6.64.22,9.93-.07,2.73-.25,5.29-1.49,8.19-1.24a29.19,29.19,0,0,0,8.21-.94c3.44-.71,7-.67,10.19-2.51a2.71,2.71,0,0,1,1.15-.22c10.55-.47,21.06-2.18,31.82-1a20.61,20.61,0,0,1,4,10.68c.13,1.55-.36,3.09,1,4.61.66.73.39,2.85-.16,4a8.65,8.65,0,0,0,0,8c.17.34.46.74.4,1.06-.88,5.12,1.37,9.93,1.36,15,0,6.45,1.87,12.82,1.16,19.34,2,3.8.49,8,1.41,11.86a31.71,31.71,0,0,1,1,8.84,14.81,14.81,0,0,1-1,3.39c1,3.87,2,8,3,12-.6,2.8-1.74,5.8-1.81,8.83-.24,10.32-.09,20.66-.09,31.52l3.73,1.22a2.79,2.79,0,0,1-1.74,3.54c-9.55,3.56-18.43,9-28.83,10.17a12.18,12.18,0,0,1-4.92-3.6c-1.15-2.4-.92-4.89-.47-7.33,1.82-10,3-20.09,2.27-30.15-.78-10.81,1.69-21.53.61-32.2-2-19.55-2-39.18-3.44-58.73-.86-11.49-2.68-12.12-14.3-13.23-14.53-1.38-28.62,1.64-42.87,3.06-4,.4-7.56,3.58-12,2.74q-19.83,1.73-39.51,4.61c-11.23,1.65-22.43,3.69-33.89,3.72-4.48,0-9,1.34-13.54,1-6.18-.38-12.19,1.88-18.39,1.25a10.89,10.89,0,0,0-5,.86c-5.92.37-11.84-.16-17.81.14a491.54,491.54,0,0,0-53.9,5.78c-4.5.72-9.05.9-13.57,1.6a24.69,24.69,0,0,0-16.15,9.13c-1,3,1.83,4.64,2.14,8.12-3.89,7.84-2.63,16.81-.71,25.8.87,4.08-.87,7.71-2.25,12.1,5,4.39,2.28,11,4,16.61a4.86,4.86,0,0,1-1.45,5.17c-4.46,3.74-4.12,9.33-5.52,14.17-.93,3.2.57,6.42,2.06,9.5,3.93,8.08,9.4,15.31,12.43,23.94,1.59,4.52,2.06,9.31,4.18,13.42a33.13,33.13,0,0,1-2.77,9.44,5.51,5.51,0,0,1-4,2.11C383.73,514.24,360.7,514.89,337.65,513.5Z" fill="#a4a4a4"/><path d="M686.18,481.13c3.41-1.12,6.77-3,10.23-3.21,5.2-.34,8.86-4.91,14.16-4.38,1.42-1.82,4.35-1.35,5.48-3.61,3.56-.67,6.13-3.23,9.15-4.9a61,61,0,0,0,6.65-4.82l1.63,1.63c-2.49,2.37-4.59,5.1-7.87,6.66a27.05,27.05,0,0,0-4.47,2.69c-6.89,5.1-15,7.9-22.54,11.66-4.25,2.11-9.09,3-13.67,4.51-4.84,1.31-9.72,2.52-14.52,4-4.65,1.43-9.24,3.06-14.11,3.43-1.3.1-2.23,1-3.24,1.18-4.78,1.1-9.68,1.65-14.49,2.65-3.41.71-6.85,1.22-10.25,2.22-3.77,1.11-7.88,1-11.85,1.47-2.52.42-5,.87-7.57,1.24-2.33.34-4.58.1-7,1-3.43,1.3-7.5.78-11.2,1.54-4.43.91-9,.6-13.37,2.23-1.81.69-4.11.38-6.14.12-1.79-.23-3,.65-4.47,1.31h-5l1.35-2.49-1.35-2.49c1.52-3.38,4.74-3.78,7.77-4.17,13.09-1.67,26.14-3.68,39.35-4.23,4-.17,7.11-3.94,11.41-3.5,12-1.79,23.73-5,35.94-5.59,4.13-.19,7.48-3.35,11.55-4.15C673.8,481.78,679.8,479.76,686.18,481.13Z" fill="#484848"/><path d="M429.76,52.94c1.61,1.3,4.34,1.12,5,3.73,2.42,7.79,5.5,15.61,3.93,23.89-4.89,25.74,2.16,48.78,15.85,70.13,4.33,6.76,6,15,12,20.69,8.63-1.94,8.63-1.94,12.28,7.54,5.54-10.59,6.76-11.26,11.42-6.23,0,9.89-4.51,18.75-6.41,28.2-.77,2.3-3.21,3.18-4.58,5.38-.83,8.74-4.65,16.79-8.51,24.79-1.36,2.81-3.56,5.66-7.3,4.1-3.48-1.44-2.71-4.68-2.06-7.58,1.42-6.27,2.26-12.65,3.48-19.59-2.49.91-4.89,1.47-7-.28-1.84-1.56-2.38-3.84-3.09-6-5.8-17.7-14.21-34.45-19.07-52.5a7,7,0,0,0-2.53-4.23c-2.05,0-2.22,1.78-2.3,3-.62,9.37-3.7,18.23-5.73,27.29-.77,3.43-.31,8.31-5.69,9.17-3.8-1.76-2.18-4.84-1.78-7.56,1.59-10.82,3.65-21.55,2.94-32.64-1.84-28.61-15.26-49.56-40.32-63.43-19.19-10.62-39.57-13.94-61.15-11.46-7.25.84-14.61-.1-21.75,2.91-4.47,1.88-7.61,5.76-12.29,7a30.59,30.59,0,0,0-18.43,10.92c-2.65,1.26-4.9,3.15-7.41,4.65-3.35,1.84-5.23,6.91-10.41,4.73a3.79,3.79,0,0,1-1-1.66c-.71-4.23,2.89-5.65,5.29-7.63C266.84,79,281.91,70,299,64.67c5.45-1.11,10.78-2.66,16.14-4.16,6.86-1.93,14.38-1.09,21.57-.57,13.78,1,27.32,3.3,40.43,8,6.74,2.43,13.13,5.18,18.87,9.53,3.56,2.7,7.11,5.77,12.64,5.67,4.1-6.76,5.61-14.46,7.17-22,.65-3.13-2.46-5.11-5-6.49-6.85-3.71-13.67-7.62-21.71-8.24-3.88-1.92-8.07-2.64-12.31-3.2a5.28,5.28,0,0,1-4.59-4.77c1.91-3.35,5.17-2.48,7.42-2.08,9,1.57,18,3.2,26.42,7.06,2.16,1,4,1.92,6.33.82,3.66.13,6.55,2.45,9.39,4.14C424.36,49.92,427.1,51.37,429.76,52.94Z" fill="#6f6f6f"/><path d="M243,71.61a9,9,0,0,1,.94-1.24c.9-.86,1.86-1.67,2.8-2.5,2.33,0,4.06-1.29,5.74-2.64,2.34-1.88,4.44-4.92,7-5.41,2.9-.56,4.36-3.78,7.47-3.15,5-3.74,11.29-5,16.36-8.56.28-.2.78-.11,1.31-.17,1-2.08,1.92-4.41,5-3.73,1.71-2.3,4.24-.67,5.71-1.17l4.79-2.66L303,42l2.84-3c-.91-.5-1.45-1-1.82-1-6.17,1.57-12.49,2.59-18.34,5.25-2.45,1.11-4.83,2.37-7.31,3.37-.84.33-1.91.05-3.42.05l1.66-1.86-.44-.46,4-4,13.43-6.06c4,0,3,.48,10.42-4.51l6.62,1L313.86,27c5.79-.07,10-4.51,15.63-2.2.61-1.27,1.16-2.42,1.34-2.78,3.72-.22,6.89.48,8.86-.74,2.44-1.51,5.54.85,7.27-1.95,2.09,2.14,4.53,1.48,6.76.66a46.63,46.63,0,0,1,18.59-3.22c4.09.21,8.44.66,12.25-.45,4.15-1.22,8.1-.39,12.11-.67a105.36,105.36,0,0,1,12.44,0c3.36.17,6.69.95,10.06,1.15s7.24-.66,10.52.22c4.4,1.19,9,1.07,13.32,2.74l1.61,4.45,4.83.23.26,2.1c-2,.27-4,.95-5.63-1a3.29,3.29,0,0,1-4.37,1.11c-2.92-1.72-5.92-1-8.89-1.09s-6.22-.16-9.32,0c-1.94.11-3.8-.3-5.92.73-1.85.91-4.63,0-7-.19-.55,0-1.21-.7-1.59-.54-5,2.09-10.7.35-15.61,2.85-.52.26-1.08.88-1.51.79-4.54-.94-8.66,1.94-13.61,1.14L375,34.27c-1.66,2.52-4.33,2.23-6.79,2.35a93.66,93.66,0,0,1-14.41,0,17.1,17.1,0,0,0-16,6.37c-5.4,1.42-11.11,1.76-16.19,4.38-4.8,1.48-9.32-.2-14.58-1.37.59,3.52-1.23,5.3-4.28,6.73-13.82,6.5-28.09,12.33-39,23.69a5.47,5.47,0,0,1-4,1.47c-2.55-1-5.2.82-7.76-.22a3.28,3.28,0,0,1-1.12-1.35,4.63,4.63,0,0,1,0-2.06c-5-.31-6.6,10-14,4.5C238.11,75.12,240.62,73.4,243,71.61Z" fill="#797979"/><path d="M336.4,40.49c.27-2.41,2.5-.41,3.51-1.89l-.69-1a14.34,14.34,0,0,1,7.87-3.38c9.3,0,18.6,0,27.9,0,13.3.13,25.33,5,37.34,9.95-.4,1.26-.81,2.51-1.25,3.88-3.23-1.92-6.36-2.62-9.12-4.57s-6.42-2.29-9.78-3-6.71-.56-9.92-1.4-6.41-1.56-9.94-.87c1.37,2.22,4.36-.65,5.16,2.21-1.52,3-4.18,2.72-6.81,2.28-2.37-.39-4.7-1.22-7.12-.31-6.94,0-13.88-.42-20.8.44C340.28,43.2,337.76,43.27,336.4,40.49Z" fill="#4e4e4e"/><path d="M328.93,285.71H365c1.75-3,4.78-2.83,7.62-3,6.55-.32,13.13.23,19.65-.78,10.33-1.19,20.54,1.31,30.92.86,10.77-.48,21.5-1.42,32.25-2,6.77,2.5,13.47-.29,20.21-.24a103.33,103.33,0,0,1,13.63-.21c5.12-.17,10.5-2.77,15.13,1.62,3.72,0,7.46.22,11.15-.07,2.72-.22,5.29-1.47,8.17-1.24s5.6.57,8.19-1.12c.58-.38,1.62-.07,2.45-.06,5.41.12,10.81.16,17.13-2.19h-12c-.93-6.35,2.4-9.41,7.22-11.54l6.2,3c.48,1.79,1.09,4,1.76,6.5-1,1-1.81,1.82-3.15,3.15L565.44,277c.55.82,1.09,1.64,1.58,2.36l15.63,1.8,5.31,5.53c-1.34,3.32-3.13,6.5-7.07,7.84-3.07,4.94-9,5.38-13.34,8.24-1.71,1.12-4,1.37-7.22,2.41l-2.3,3.17c0,.41-.17,2-.31,3.75l-5.09-1.84-3.19,5.16a49.41,49.41,0,0,1,2.25,5.94c.7,2.61,2.53,4.66,2.76,7.62.17,2.25,2.27,4.36,3.52,6.53-4.44,1.8-7.9.58-9.85-4.59-2-5.36-4.68-10.47-6.3-16-1-3.53-2.37-7.05-6.18-9.28-4.7,1.4-9.84,1.56-14.46,2.81-3.28,4.59-.6,10.49-4.29,14.61-.41-.33-1.16-.63-1.19-1-.13-1.61-.05-3.24-.05-5.18-1.22,0-2.5-.4-3.12.07-2.47,1.85-4.62,1.24-7.26.24a20.55,20.55,0,0,0-9.28-1.68c-3.49.33-7,.07-11,.07-.54.74-1.25,1.74-1.73,2.41-2.56.07-4.43.4-6.11-1.54-2.15-2.49-5.3-2.39-7.78-2.05l-4.92,2.52-7.84-2.22-6.85,1.05c-3.81-2-6.66-4.14-10.53-1.69-2.3,1.46-4.49-.59-6.11-1.09l-5.95-8.26L418,306l-3.31-4.08H408l-5.67-7.22c-4.24-1-7.42.62-11.5,3.53.61-2.71.61-4.1,1.21-5.14,1.42-2.44,1.53-2.38,1.62-6.09h-4.74c-18.83,0-37.66,0-56.49-.06C331.26,286.88,329.37,288.13,328.93,285.71Z" fill="#bebebe"/><path d="M504.44,282c-5.09-.92-9.88,1.69-14.93,1.25-3.17-2.76-3.83-6.26-1.21-9.33,3.86-4.54,7.38-9.33,12.31-13.05,7.74-5.86,13.36-14.1,21.23-20,2.63-2,5-4.38,7.67-6.31,5.86-4.23,10.23-9.26,12.5-16.42,1.93-6.05,5.42-7.19,11.19-4.71,3.87,1.65,7.69,2.83,12,2.61,2.86-.14,6,1.63,11.86,5.39,1.35,1.51,1.75,3.54,2.18,5.57a4.92,4.92,0,0,1-1.48,3.47c-2.57,2.28-3.48,5.52-4.63,8.54-1.24,3.25-.53,6.07,3.27,7.79,7.46-.3,6.71-6.43,7.6-11.41a6.31,6.31,0,0,1,2.39-3c7-3.91,14.32-2.56,21.37-.45,6,1.8,11.87,3.54,18.23,2.65,3.44,6.5,3.08,15.5-.8,20a27.73,27.73,0,0,1-13.12-7.35c-3.2-.66-3.93,1.84-5.51,2.95-.25,1.75.36,3.5-1.13,5.21-.58.68.58,2.86,1.11,5L602.07,263c.63.26,0,.15-.42-.2-1.41-1.19-2.76-2.46-3.95-3.53.47-4.43-.63-8.49,1.25-12.42.79-1.64,0-3.55-1.85-4.59-.59.58-1.17,1.17-1.77,1.77v10.08l-5.67,4-2.43-8.43c-1.46,2-2.67,3.09-3.05,4.38a13.48,13.48,0,0,1-4.75,6.93l-8.55-4.28c-1.66-3.24-3.52-6.41-4.92-9.76s-4-5.36-7-6.91-6-2.64-9.45-.49c-1.69,1.05-4.11.92-5.59,1.2-3.13,4.71-5,9.11-9.51,12.37s-9.8,5.6-13.27,10.19c-7.77,2.79-13.15,8.8-19,14Z" fill="#979797"/><path d="M625.18,254.59c0-5.92,0-11.83,0-17.74,0-.9.44-2.17-1.23-2.18-2.53-1.09-2.47-3.43-2.71-5.62-1.1-7.87-1.35-15.87-3.51-23.59-2.81-13-5.67-25.93-10.77-38.27.16-3.27-1.41-6.35-1.16-9.64,3.3-2.93,2.5-6.32.89-9.62-11.86-24.19-26.41-46.51-46-65.29-1.82-1.75-3.66-3.59-1.73-6.4,3.84-1.31,4.59,2.25,6.45,4.08,3.44,2.77,7,5.4,9,9.56A4.21,4.21,0,0,0,576.61,92c3.93,1.11,5.31,4.77,7.2,7.57a26.84,26.84,0,0,0,5.75,6.81c2.54,2,4.62,4.45,4.51,7.88,3.37,4.32,6.67,8.55,9.93,12.81.2.26-.06.84.09,1.19,2.4,5.46,5.72,10.48,8.16,15.87,2.77,6.1,5.71,12.11,8.41,18.24.77,1.75.76,3.85,1.15,6,.52.51,1.25,1.24,2.05,2.05v3.87l1.76,1.37c.93,3,1.57,4.86,2,6.74.51,2.08.66,4.27,1.35,6.28.33.95,1.58,1.58,2.41,2.35,2.41,6.37,2.72,13.28,5,19.69-.89,4.3,1.22,8.29,1.31,12.52.1,5.23,1.47,10.33,1.28,15.65-.22,6.11-1.81,11.32-6.62,15.31-.48.4-.89.87-1.63,1.61C629.11,255.12,626.77,257.09,625.18,254.59Z" fill="#e0e0e0"/><path d="M239.31,227.2c.07,1.59-.07,3,1.21,4.51a19.71,19.71,0,0,1,4.13,8.48L242,241.88c.45,4,4,4.14,5.39,6.8l9.92-1.7-3,6.18,5.69.31c1.39,2.36-.6,2.22-1.9,2.75v4.31c3.6,1.68,4.19,6.6,8.46,8.4v5.16l2.05.57c1.43,1.68.59,3.12-1.17,4.63h-3.92l-7.08-2.3a28.85,28.85,0,0,1-3.81-1.27c-2.08-1-3.9-2.35-6.41-2.62-1.54-.16-3-1.75-4.33-2.89-1.57-1.34-2.95-2.89-4.2-4.14l-5.88-1.52c-1.66-1.67-3.33-3.31-5-5-.25-.25-.21-.88-.47-1-6-3.05-6.67-10.4-11.68-14.22-.5-2.65-3.17-4.48-2.82-7.48.06-.57.07-1.55-.23-1.7-3.32-1.71-2-5.38-3.32-7.95-1.22-2.28-.54-5.51-1.53-8-1.1-2.74-1.09-5.41-1.13-8.18,2.75-5.53,7.8-2.18,11.76-3.06,1,0,2,.43,3,.42,7.48,0,13.87,1.47,15.49,10.32.15.83,1.5,1.3,2.33,1.89C240.54,222.5,241,224.68,239.31,227.2Z" fill="#e1e1e1"/><path d="M189.52,193.59a44.77,44.77,0,0,0,1.2-5.06c.21-1.62-.23-3.35.1-4.93.86-4.15,1.54-8.44,3.21-12.27.74-1.7-1.16-4.3,1.71-5.12a10.93,10.93,0,0,0,4.2-5.64c5.7-14.28,14.71-26.59,23.6-38.94,1.94-2.69,4.51-4.42,7.89-1.84,2.51,3.93-.45,6.89-2.25,9.57a130.79,130.79,0,0,0-14.39,29.52,2.83,2.83,0,0,1-.45,1.15c-8.26,7.82-9,18.54-11.43,28.72a46.08,46.08,0,0,1-6.17,14.16c-1.55,2.41-3.47,4.79-7.45,3.2C188.82,202,188.38,197.81,189.52,193.59Z" fill="#7a7a7a"/><path d="M189.52,193.59v12.69A18.54,18.54,0,0,0,197,194.9a6.62,6.62,0,0,1,1.3-3.15c2.6-2.53,2.62-5.67,2.39-8.14l3.69-7.17c0-4.61.32-9.54,5.05-14,0-1.65-.39-4.56,2.49-6.19,3.73,2.11,2.41,5.24,1.59,8.21-2.75,10-4.88,20.11-4.71,30.56.06,3.76.69,7.12,5.28,7.84,3.23.58,6.67,0,9.69,1.38,2.06.94,4.9,1.49,4.73,5.22-3.37,1.52-6.84,1.26-10.36.32-2.88,0-5.77-.13-8.64.05A16.6,16.6,0,0,0,205.7,211c-3-.36-5.32,1.06-7.42,3v4.08l-3.78,3.26v4l-4.44,3.07h-1.15c-1.19-1.17-.79-9.11.62-12.2-.42-1.05-1.18-2.1-1.2-3.17-.11-6.17-.07-12.34,0-18.51C188.33,194.24,189.11,193.92,189.52,193.59Z" fill="#a4a4a4"/><path d="M243,71.61c-1.46,1.67-3,3.31-4.36,5-.41.51-.48,1.3-1.07,3,3.29-1.48,6.14-1.6,6.87-5.2,5.1-1.18,8.5-7,15.68-6.18-3.22,3.19-5.81,5.75-8.38,8.31-3.41,2.29-5.46,5.14-8.11,7.33,2.8-2.32,5-5.36,8.11-7.33a9.73,9.73,0,0,0,2.68-.9A50.64,50.64,0,0,0,258.6,72l.63,3.38A2.31,2.31,0,0,1,259,78c-4.62,2.32-7,7.18-11.27,9.93-1.89,1.22-3.54,2.94-5.95,1.15-.14-.34-.27-.69-.43-1.09l-8.28,7.32c-5.84,2.85-9.58,7.88-13.61,12.69-1.51,1.81-2.71,5.09-6.31,3.49v-2.37l-5.93,2.84c-.16-1.77-.28-3.12-.42-4.58,2.12-2.62,4.76-5,6.21-7.93s4.29-4.34,6.36-6.55c2.35-2.52,4.46-5.31,7-7.6,2.37-2.13,4.16-4.75,7.22-6.39s5.07-4.78,7.55-7.25Z" fill="#959595"/><path d="M241.8,89l14.79-12.44H258c2.19,2.62,4.52,1.4,6.62,0,9-5.91,19.38-9.18,28.93-14,2.66-1.36,5.12-1.57,7.11,1.17.51,1.53-.54,2.2-1.58,2.88-1.31-.22-2.16.64-3.23,1.16-6.34,3.07-12.93,5.65-19.19,8.86-6.8,3.48-13.29,7.5-18.73,13-2.76,2.81-5.75,5.39-8.64,8.07-5.35,7.18-12.42,12.6-19.19,18.27-4.32,3.62-6.67,2.77-8.2-2.09,1.39-4,4.78-6.57,6.93-10,3.23-5.19,7.95-9,12.12-13.4A7.68,7.68,0,0,0,241.8,89Z" fill="#444"/><path d="M221.88,113.93l2.13,2.89c7.86-5.73,15.72-10.8,22.05-17.78a3.35,3.35,0,0,1,3.21-1.29V99c1.23,1.89.7,3.54-.68,5.07-4.43,4.94-8.52,10.17-13.05,15-1.44,1.55-3,2.2-4.94,1.07-2-.53-3.21.93-4,2.24-2.67,4.32-6.35,7.94-8.51,12.63-.81,1.76-2.61,3-3.63,4.73-4.11,6.79-8.33,13.52-12,20.55-1.57,3-4.25,4.6-6.1,7.42-.32-.8-.47-1.16-.62-1.51,1.11-2.69,2.47-5.14,2.68-8.29s1.74-6.28,3.09-9.23c2.49-5.41,5.37-10.64,7.9-16s6.59-10,8.88-15.61C218.82,115.74,220.65,115,221.88,113.93Z" fill="#5d5d5d"/><path d="M213.17,111.44a105.11,105.11,0,0,1,19.92-18.75v2.57a51.43,51.43,0,0,1-3.53,4.1,37.33,37.33,0,0,0-7.69,9.85c-1.39,2.66-4,4.31-5.58,7-4.07,6.78-8,13.62-12,20.47-3.67,6.36-6.33,13.11-9.24,19.76-2.79,6.36-5.1,13-5.61,20,0,.35-.78.66-1.19,1-2.37,8.59-3.59,17.38-4.75,26.27-2.54.53-3.89.21-2.72-2.62a50.36,50.36,0,0,1,1.3-7.51c1.84-5.57,1.64-11.46,3.36-17.14,1.61-5.29,3.07-10.74,4.47-16.15a48.65,48.65,0,0,1,3.26-9.17,38.12,38.12,0,0,0,3.12-8.59c.69-3.24,3.34-5.75,3.16-9.24C203,127.92,205,121.68,209.56,117,211.21,115.36,210.77,112.51,213.17,111.44Z" fill="#4b4b4b"/><path d="M180.81,201.06v2.16l2.07.37c.58-4.8,1-9.34,1.7-13.84.38-2.47.62-5.25,1.94-7.19,1.17-1.72-1.12-4.32,1.76-5.15a33.31,33.31,0,0,1-1,7.57c-.89,3.56-2.37,7.27-1.46,11.16-2.24,6.71-.79,13.65-1.28,20.47-.2,2.73-1.69,5.69-1,8.06a26.46,26.46,0,0,1,1,7.58c.05,2.88,0,5.76,0,8.64-2.49,3.69-5,3-7.47,0V223.47c.42-2.67.9-5.32,1.23-8s-.5-5.41,1.14-8.07c.72-1.17,0-3.18.18-4.78C179.68,202.07,180.39,201.58,180.81,201.06Z" fill="#898989"/><path d="M177.07,240.89l3.33.91c.86-1.43,2.6-.81,4.14-.91,2.74,4.46,2.66,9.43,2.46,14.22a9.82,9.82,0,0,1,2.35,9c-3.11,2.24-3.11,2.24-8.17.31a69.49,69.49,0,0,1-2.8-7.36c-.65-2.47.21-5.05-.74-7.72S177.2,243.72,177.07,240.89Z" fill="#a6a6a6"/><path d="M623.94,228.45v12.17a7.18,7.18,0,0,1-6-1.16,25.69,25.69,0,0,0-12.88-4.9c-3.63-.25-7.19-1.55-11.28-2.49-1.61,1-3.06,3.64-5.93,2.6-2.23-1.62-1.32-5.27-4.19-6.45-2.18-1.45-4.92,1-7-1v-3.12L566,218.72l-6.28,1.11-11.78-5.5c-3.46,2.85-3.55,6.61-4.9,9.78-.89,2.11-1.65,4.28-2.68,6.33a4.18,4.18,0,0,1-2.17,2.14c-4.06.88-6,4.61-9.14,6.5s-5.16,5.25-8.23,7.08c-3.58,2.14-6.15,5.24-9.07,8-1.58,1.5-3.23,2.91-4.06,5.14a5.63,5.63,0,0,1-3,3c-7.18,2.46-9.47,10.09-15.16,13.8v7.09h-13.7c-3.95-3.3-2.72-7,.21-9.65,11.14-9.91,18.13-23,27.15-34.57,6.38-8.15,11.21-17.81,15.56-27.42,2-4.44,1.19-8.84-1.73-12.92-3.74-5.22-7.28-10.58-12.3-14.71-2.89-2.37-5.8-4.77-9.69-4.15-3,1.18-3.49,3.69-4.06,6.12-2.95,12.7-6,25.37-7.24,38.41-.63,6.81-2.34,8.48-7,7.3-1.51-2.46-1.4-5.18-.94-7.81,1.38-7.77,2.12-15.74,6.28-22.76.41-2.27.77-4.56,1.26-6.82s1.09-4.44,1.64-6.66c1.25-5,3.45-9.83,3.32-15.15-1.81-6,1.32-11.19,2.64-16.68.46-1.94,2-3.75.4-6.21-3.11.53-3.31,3.13-3.66,5.44-.59,3.82-1.14,7.75-6.05,8.06-4.62.3-5.52-3.56-6.77-6.86a10.38,10.38,0,0,0-2.52-4.52c-7.36.91-10.22-5.07-13.28-10.8a22.4,22.4,0,0,0-1.9-3.21c-8.92-11.5-11.8-25-12.3-39.05-.2-5.61-1.05-11.11-1.52-16.67s-1.15-11.16,3.88-15.3l8.72,7.47c10.54,10,10.56,24.68,16.59,36.68,2.76,5.49,5.24,11.16,9.24,16.08,5.6-1,11.08-.41,16.27-1.49,6.92-1.46,13-2.51,14.26,6.55,12.45,1.69,27.82-13.79,29.77-29.46-5.53-2.12-8.91,3.25-13.55,4-10-2.26-15.1-7.83-16.21-17.63,2.1-5.55,7.1-3.72,11.16-4.31a18.5,18.5,0,0,0,4.33-1c6.6,1.7,12.76,1.72,17.49-4.32.6-.77,1.79-.88,2.83-.91,9.52,1.31,16.53,6.56,21.87,14.22,2.31,3.31,6,5.46,7.69,9.21-.22,4.11.89,7.92,2.07,11.86,3.78,12.58,3.66,24.71-5.28,35.56-3.29,4-6.13,8.36-10,11.84-7.36,6.64-10.15,15.83-14.19,25.19,2.41-.43,3.71-2.63,5.49-2.26,1.82.16,3.49.75,3.87,2.11,1.58,5.69,6.25,7.89,10.86,10.29a17.35,17.35,0,0,1,5.36,4.19c10.65,12.72,24.95,19.38,40.26,24.37A31.27,31.27,0,0,1,623.94,228.45Z" fill="#959595"/><path d="M523.11,86.55h-6.85l-1.74,1.77c1.22,8,6.14,12.77,13.86,15.7C533,99.82,539,98,545.28,96.5c3,2.27,3.55,3.32,2.08,6.17s-3.41,5.69-5.57,9.21c0-.53.12-.07,0,.29a76.27,76.27,0,0,1-5.55,11.33c-1.87,3.11-5.32,5.57-8.56,7.49a110.22,110.22,0,0,1-13.56,6.22c-2.28.95-3.27.52-6.13-1.65V126c-7.05,3.66-14.31,2.81-21.73,2.89l-4,4.83h-2.07c-2.28-5.11-4.06-10.48-7-15.13-1.78-2.83-2.66-6.09-4.62-8.65s-2.2-5.76-3.3-8.61c-1.32-3.38-.89-7.25-3-10.6-1.18-1.88-1.23-4.48-2.09-8-1.72-1.7-4.73-4.26-4.24-8.6a74.48,74.48,0,0,1,6.22,4.44,29,29,0,0,1,3.4,4.27h2.83c4.06-4.88,9.7-1.83,14.53-2.84,5.27.62,10.7-.47,15.82,1.6,5.75.51,11.54.37,17.28.87C518.84,82.69,522.36,82.39,523.11,86.55Z" fill="#b1b1b1"/><path d="M447.18,66.63c-.45,2.72.23,5.39-1,8.29-.89,2.17-1.28,5.6.64,8.2a2,2,0,0,1,.32,1.1c.05,3.19-.05,6.32,1.12,9.47.5,1.34-1.34,3.78-.68,4.8,1.05,1.65.63,3.12.81,4.67.44,3.75,1,7.51,1.2,11.28.17,4.06,2.1,7.41,3.82,10.85,1.64,3.26,3.49,6.43,5.36,9.57,2.29,3.82,4.92,7.46,7,11.41a4,4,0,0,0,4.4,2.5l2.62-5.17c1.68,3.18,4,5.7,4.41,9.52.27,2.77,1.76,5.42,2.7,8.08H483a36.78,36.78,0,0,0,1.49-5.32,40.11,40.11,0,0,1,1.07-7,12,12,0,0,1,2.9-4.58l6.7-1.65,2.06,2c-.49,3-1,6.26-1.65,10-.6.46-1.57,1.22-1.39,1.09-1.59,5.15-2.44,9.18-4.15,12.81-.59,1.25.85,3.61-1.75,3.88l-.88-1.56c-2.89,1.31-3.58,3.73-4.09,6.24a29.57,29.57,0,0,1-5.52,12.83c-1.67-3-1.62-6.36-3-9.32s1.37-6.62-1.83-9.19c-2.25.62-1.79,2.57-2.33,4.17s-2.05,2.81-3.23,4.32c-2.95.24-3.42-3-3.79-4.47-.71-2.85-2.22-4.9-3.65-7.27-1.34-2.21-3.64-4.28-2.93-7.54.18-.84-1-2-1.62-3-3.35-5.05-7-9.93-10-15.16-1.7-2.94-2.41-6.45-3.62-9.68-1.49-3.95-3.26-7.8-4.49-11.83-1.13-3.71-1.56-7.63-2.61-11.37-.69-2.44-2.15-4.69,0-7.11.31-.35.05-1.21.05-1.83,0-2.79-2.06-5.26-1.26-8.2.67-2.48,1.53-4.86,1.36-7.58-.12-2.07,1.08-4.21,1.06-6.32,0-3.77-.54-7.54-.82-11l-5.32-5.28,5-1.86V56.67h2C439.36,60.78,444.84,62,447.18,66.63Z" fill="#848484"/><path d="M483.28,82.81H468.35c-.44-1.47-.88-2.94-1.39-4.67l-6-2V73.23c4.42-1.33,7.31-4.24,9.62-8.16,3.46-5.88,6.49-12.21,13-15.63a11.39,11.39,0,0,0,2.18-1.93V42.34l1.85-1.85c3.63,0,7.37-.26,11.05.08a23.17,23.17,0,0,1,8.38,2.12,14.57,14.57,0,0,0,7,1.53c2.24,1.12,3.57,2.23,5,2.41,3.25.4,4.95,3.45,8.31,4.1a13.1,13.1,0,0,1,7.83,4.93,2.91,2.91,0,0,0,1.44,1c4,1.21,7.22,3.82,10.38,6.31,5.81,4.59,12.35,8.3,17.15,14.14.84,1,1.45,1.9,1.26,3.22a23.47,23.47,0,0,1-3.11-2.55,3.24,3.24,0,0,0-3.12-1.18,3.9,3.9,0,0,1-2.59-.1c-4.43-4.17-9.81-6.84-15.15-9.58a17.72,17.72,0,0,0-8-5.25c-5.16-3.56-8.93-9.26-15.71-10.3-5.67-.87-11.1-4.22-18.13-1.59C503,60.18,503.46,70.1,493.09,77a27.82,27.82,0,0,1-5.32.15c-.33-.76,0,.47-.61-.07,0,.06,0,0,.07,0,2.81,1,2.81,1,3.66,4.35C488.6,83.25,485.6,81.16,483.28,82.81Z" fill="#dadada"/><path d="M239.31,227.2l-2.49-5c-2-5.95-5-11.47-7-17.4-1.17-3.42-2.24-6.94-5.51-8.54a7.44,7.44,0,0,1,.34-5.74,29.05,29.05,0,0,0,7.89-8.7c3.17-5,4.6-10.6,2.91-16-3.11-9.83,0-18.38,3.68-28.08-.2-8.49,2-11.28,12.31-14.18,3.29.34,4.08,2.84,4.7,5.47-.63,5.66-5.21,9.52-6.62,15-2.14,8.34-6.52,16-6.79,25-.14,4.52,2.19,8.65.91,12.74,1.54,2.77,3.81,4.27,5.68,6.16,1.56,2.07,1.43,4.9,3.15,6.9,2.95,3.2,3.71,7.69,6.9,10.88,8.54,8.56,18.8,12.72,30.73,13.33,1.45.07,3-.19,4.43.63,1.52,1.33,2.13,3,1.4,5.7-8.76,5.27-18.58-.36-28.68,2.41-1.11,3.31-4.46,2.49-8,1.23,6.24,2.39,2.37,6.43,2.4,9-1.49,2.47-3.41,2.16-4.86,2.85C250.19,237.27,245.06,231.84,239.31,227.2Z" fill="#a4a4a4"/><path d="M256.74,240.89l2.17-3.1c.52-2.37,1.09-5,1.82-8.29L256,232l-1.77-1.61,1.61-1.82h-6.4c-.07-1-.1-1.54-.16-2.34h3l3.64-4.93c.45,1.84.69,2.86,1.07,4.43l3.58,3.06.81-.48c-.15-.5-.31-1-.61-2l2-.75,2.12,3.7c.23-1.43.36-2.29.49-3.15l.92.87.28-.44c-2.69-1.11-1.79-4.31-3.56-6.15l1.51-1.64c.29.13.74.18.84.4,1.06,2.24,2.06,4.51,3,6.67h3.68L269.21,221l7.24,1.67.36,1.76a8.35,8.35,0,0,1,2.77-.88,14.61,14.61,0,0,1,3.56,1.16,9,9,0,0,1,1.18-.79,17.41,17.41,0,0,1,1.76-.63c.3.87.54,1.59.78,2.31,1.7,1,2.88,0,4.35-.77,1.1-.54,2.68-.11,3.83-.11l-1-3.73c.77-1.8,2.54-2,4.07-2.25,9.91-1.69,18.7-6.26,27.62-10.51,5.34-.22,8.24,2.43,9.53,7.86-9,6.33-19.44,8-29.07,11.65-2.27.92-2.24,3.85-4.82,5.26-2.66,1.6-4.9-1.58-7.53-1.75a2.82,2.82,0,0,0-2.19,2.8c12.28,5.06,13.9,12.07,6.53,16.79-8.85,2.65-17.65-1-26.48-.17a5.13,5.13,0,0,1-2.56-1A79,79,0,0,1,256.74,240.89Z" fill="#909090"/><path d="M311.51,282l-2.67,1.94,1.42.55c-.53.42-1.06,1.19-1.6,1.19-6.84.08-13.77.75-20.48-.17a156,156,0,0,0-15.82-1.05l-2.77-2.24h17l1.89-6.3L294,275c1.19-2.07-1.11-3.36-2.43-4.82l1.27-1.27L290,266.47l-3,7.81c-.27-2.37-.41-3.66-.58-5.18l-3.14-4.39-2.58-.41c.34-1.31.61-2.4.89-3.49,2.87-2.91,6.1-2.13,9.36-.92A11.72,11.72,0,0,1,292.5,261c3.83,2.94,8.64,4.67,11,9.45,2.27,4.63,10.55.28,11.39,7.08C314.69,280,313,280.88,311.51,282Z" fill="#cacaca"/><path d="M290.35,263.3c-2.29.61-3.05-1.53-4.45-2.49h-4.27c-.22-2-1.83-.93-2.46-1.13L272.41,252l-1.36,1.35-1.87-3.73h2.49c4.44-1.49,8,1.16,11.9,2.46,2.46,2.44,3.51,6,6.71,7.92C291.19,260.52,291.09,262.16,290.35,263.3Z" fill="#aeaeae"/><path d="M530.58,347.94c-.33.42-.64,1.18-1,1.2-9.77.48-19.56.81-29.33,1.33-4.19.22-8.36.95-12.55,1.16s-8.52-.79-12.39.24c-6.52,1.73-13,1.07-19.43.89-5.35-.14-10.36,1.75-15.67,1.47s-10.53-.9-15.51.12c-9.19,1.88-18.35.68-27.51,1-4,.13-7.77,1.91-11.94,1.41-3.88-.45-8.06-.87-11.76.08-6.91,1.77-13.86.18-20.66,1.19-7.79,1.15-15.81.88-23.35,3.62-1.26.46-2.51.95-3.89,1.48-2.53,3.18-.9,7.61-3.43,11.3l7.06,5.5c-1.36,3.61-2,8-4.37,11-3.92,5-4.93,10.26-4.63,15.77,1,1.85,1.78,3.38,2.75,5.22-3.11,3.76-.61,7.16.91,10.51L320,433.6h3.9c-.26,1.55-.15,3-.75,4-.71,1.19-1.76,2-1.87,3.65-.07,1.17-1.46,2.26-2.35,3.51a12.54,12.54,0,0,0,.06,2.92,13.54,13.54,0,0,0,1.46,2.85L317,453.59l-1.7-1.4-2.88,2.39c1.34,2.43,2.23,5.19,4,7.05,2.89,3,4.27,6.21,3.68,10.27L326,476l-6.86,5.38v6.12c.83-.63,1.29-1.22,1.87-1.37a11.84,11.84,0,0,1,2.71-.05v10.54l6.73,5.75-6.22,4.39v2.15l-3.37,3.25c-5.83.87-11.46-1.75-17.42-1.29s-12,.11-18,.11c-3.08,0-6.16-.1-9.24,0-8.69.32-17.23-2.16-25.95-1.26-4.4-1.94-9.07-1.05-13.63-1.3-.35,0-.65-.77-1-1.19,4.76,0,9.72-.83,14.23.23,4.68,1.1,9.22.69,13.83,1.06l6-6.32-4.39-3.17c1.13-3.87,2.16-7.41,3.27-11.24-6.36-2.48-9-8.22-13.38-12.94,1.38-1,2.69-1.93,4.21-3-.71-3.31,1.06-6.9-1.23-10.12l2.41-2.52c-.06-1-.12-2-.19-3l-6.62,1.65c2.07-5.09,5.69-7.19,9.19-9.28l-5.18-6.87,8.8-2.07c-1.27-4.53-1.27-4.53,1.4-8.93-1.62-1.48-1.72-2.91-.28-4.72a53.81,53.81,0,0,0,3.5-5.79l-5.42-4.9v-5.63l5.19,3.26c2.07-2.65-.63-4.21-.8-6.46-1.66,0-3.29.07-4.91-.06-.36,0-.66-.77-1-1.19,7.51-4.72,8.44-13,11-20.41.57-1.61-1.09-2.47-2.31-3.24-.15-1.18-.23-2.38-.46-3.54-.15-.75-.95-1.67-.72-2.13,2.33-4.48-1.38-8.89.37-14.07l2.76-2.08-.33-.33c.17-.09.36-.26.51-.24,3.89.61,7.54-1,11.31-1.22,9.57-.54,19.25-.18,28.7-1.52,6.52-.92,12.95-.83,19.43-1s13.28.12,19.91-.09c5.64-.17,11.27-.84,16.91-1.14,1.08-.06,2.2.55,3.81,1,.68-.22,1.95-.69,3.25-1a8.85,8.85,0,0,1,1.86,0c12.69-.41,25.41-.35,38-1.46,5.44-.48,10.85-1,16.3-1a18.15,18.15,0,0,1,4.14,1.08,13.23,13.23,0,0,1,2.93-1.08c1.42-.21,2.9,0,4.35-.07,1.18-.07,2.7.11,3.46-.54,1.65-1.38,2.06,1.16,3.63.68a27.61,27.61,0,0,1,9.41-1.48c3.13.15,6.5,1,9.46-1.09.42-.3,1.22,0,1.84-.05,9.58-.41,19.16-.8,28.73-1.28.91,0,1.78-.64,3.15-1.17a10.06,10.06,0,0,0,7.93.46c3.35-1.13,7.32-.38,11-.51.9,0,2.21.49,2.23-1.23,3.51,0,7.25.78,10.49-.16,6.07-1.76,12.11-.63,18.14-1.08.84.41.84.83,0,1.24-5.94,2-12.17,1.23-18.25,1.87C535,347.56,532.7,346.74,530.58,347.94Z" fill="#b7b7b7"/><path d="M524.36,333h-1.43c-1.42-1.72-2.77-3.17-3.89-4.77a9.64,9.64,0,0,1-.9-2.7c-.56-6,.61-11.77,2.28-17.33,1.83-6.1,13.1-6.36,17.69-.63a20.11,20.11,0,0,1,3.72,7.66,59.35,59.35,0,0,0,3.4,8.62c1.27,2.93,2.85,5.73,4.27,8.51-1.55,3.21-4.08,2.42-6.5,2a2.51,2.51,0,0,1-1.15-.36C533.18,327.3,533.18,327.3,524.36,333Z" fill="#7b7b7b"/><path d="M543,331.76c2.12,1,3,1.08,6.09.76-2.69-2.28-6-4.11-6.09-8.29-3.4-4.12-3.68-9.64-6.25-14.11-1.17-2-2.65-3.9-3.89-5.71h-8L522,307.68c-1,5.8-1.82,12-3.87,17.86-1.87-.11-1.06-1.55-1.25-2.49-.88-5.71,1.59-11.17,1.26-16.83l6-3.08h12.31a67.6,67.6,0,0,1,5.25,4.36c1.07,1.07,2.48,2.6,2.43,3.87-.19,5.16,3.53,9,4.19,13.83a43.17,43.17,0,0,0,1.47,5.21c2.05,1.74,4.44,4.43,8.17,5.09.31.41.64,1.19.95,1.18,2.09,0,1.43,1.47,1.54,2.55.76,1.42-.53,1.81-1.25,2.49h-7.47c-1.76-1.09-4.1-.68-5.72-1.81C543.25,338,539.86,336,543,331.76Z" fill="#a0a0a0"/><path d="M543,331.76a13.74,13.74,0,0,0,.84,2.66c.82,1.49,3.1,2,2.94,3.88l4.93,3.42a63.49,63.49,0,0,0-6.76,0c-4.61.51-8.14-1.21-11.05-4.91h-5.26L524.36,333,523,330.46c1.62-3.61,5.37-4.39,8.28-6,2.11-1.19,4.71.26,6.5,1.63C539.81,327.6,541.31,329.83,543,331.76Z" fill="#5b5b5b"/><path d="M559.21,341.72l1.25-2.49c2.06-.23.91-1.87,1.35-3.16l-2.58-1.93v-4.83c-2.63-4.26-5-8.07-7.42-12l1.78-1.55c4.45,1.48,4.45,1.48,14.06,12.58,1.4,5.86-1.09,10-5.5,13.37Z" fill="#d1d1d1"/><path d="M555.48,345.45v-1.24a18.42,18.42,0,0,0,7-1.16c2-.61,4.17-.42,6.37-1.1a41.84,41.84,0,0,1,12.46-1.36c2.7,0,5.06-.83,7.57-1.36,2.31-.48,4.92,1,7-1.1.32-.32,1.19-.2,1.78-.13,6.75.84,13.35-.94,20-1.53,5-.44,10-.88,15-1-.14.35-.26,1-.44,1-5.36.53-10.74.93-16.1,1.5-3.51.38-7.21.46-10.43,1.71-1.87.72-3.52.53-5.25.72-2.54.28-5-.24-7.59,1.16-2,1.09-4.46-.19-7,1.11s-5.74.87-8.67,1.29C570,345.05,562.73,345,555.48,345.45Z" fill="#b7b7b7"/><path d="M211.93,397.73c-1.68,0-1.23-1.28-1.23-2.18,0-6.74,0-13.48,0-20.22l2.14,1.42c-.32,2.72-.78,5.16-.86,7.61C211.83,388.81,211.93,393.28,211.93,397.73Z" fill="#bfbfbf"/><path d="M621.45,496.07c-.14.35-.26,1-.44,1-4.54.54-9.09.94-13.63,1.5-2.11.27-4.19.84-6.29,1.22s-4.53-.93-6.34,1.16c-.09.11-.37.07-.57.09-4.57.41-9.15,1.22-13.71,1.1-2.74-.08-5,1.15-7.52,1.44-2.32.26-4.78-1-7,1.08-.78.72-2.78.11-4.23.11A52.76,52.76,0,0,1,556,506a48.7,48.7,0,0,1-5.54,0c-3.13.41-6.25,1-9.39,1.2s-6.83-.71-9.84.22c-4.63,1.43-9.39.05-13.73,1.24-6.88,1.88-13.73.52-20.57,1.07-1.07-3.72,1.33-4.9,4.2-5.26,4.42-.55,7.83-3.67,12.18-4.38,1.38-.22,2.52-1.39,3.58-3.05-1.14-1.7-3.81-1.15-5.32-2.48-1.09-12.57-13.21-14.49-20.08-21.48-.71-.72-2.32-1-2.45-1.79-1.35-8.46-8.91-13.12-13-20.14,4.31-5.32,4-11.58,6-18-8.55-4-3.5-12-4.37-18.07-8.24-6-9.39-7.93-4.95-16.8,4.26-8.53,1.82-16-1-23.74-.95-1.49-2.77-1.79-4-2.94-4.26-4.14-2.79-8.5,2.42-11.38,7.35-4.07,15.36-3,23-3.94,17.65-2.29,35.44-3.41,53.14-5.35,26.84-2.94,53.61-6.67,80.64-7.67,6.69-.24,10.29,3.44,9.42,9.7-2.06,14.83-5,29.64-4.24,44.67.48,9.81-2.86,19.18-2.11,29,.35,4.62-3.09,8.43-7.45,9.76-2,3.6-.9,6.79-.42,9.7,1.35,8.13-.33,15.13-6.19,21-6.28,6.28-6.73,14.22-6.89,21.43C612.14,494.15,619,491,621.45,496.07Z" fill="#7a7a7a"/><path d="M621.45,496.07h-7.76c-3.76-2.15-7.2-4.24-11.18-.83-1-1.1-1.76-1.94-2.9-3.19l5.48-2.73,2-5.31-4.38-.65c.33-1.26.29-2.82,1.06-3.61s2.42-1,3.37-1.4c1-4,2.06-8,3.08-11.92.9-.1,1.49-.15,2.06-.24s1.13-.23,1.69-.35c-1-1.36-1.86-2.58-2.76-3.85,2.53-1.75,5.89.68,7.69-2.71.52-2.32-.64-5.22,1.06-7.68-1.93-2.36-.81-5.13-.89-7.69-.11-3.27-2.4-5.27-4-7.58,2.42-3.95,6.07-3.87,9.65-3.72,1.13-2.37,2.21-4.62,3.36-7l-2.84-5.4c.7-1.36,1.5-2.9,2-3.9,2.53-9.53,1.58-18.75,1.81-27.91,0-.86,1-1.71,1-2.56s-1.09-1.79-1-2.63c.26-2.74.83-5.45,1.33-8.52l-3-2.15,5.38-5.07c-.55-4.18-1.09-8.31-1.66-12.55l2.84-2.24v-4.3c-2.74-1.95-6.1-3.82-9.21-2.65a16.52,16.52,0,0,1-5.81.93c-6,.13-12-.11-18,.09-6.26.22-12.63.2-18.73,1.42-3.62.73-7.51-.05-10.64,1.24-4.84,2-9.8.43-14.71,2-4.53,1.42-9.86.28-14.84.31-.78,0-1.81-.05-2.3.39-3.07,2.77-6.86,1.59-10.34,2.17-6.86,1.15-13.88,1.14-20.64,2.76-1.06.26-1.46.52-2.28-.23a2.09,2.09,0,0,0-1.78-.09c-4.08,1.59-8.56.35-12.49,1.45-3.67,1-7.18.73-10.75,1-1.23.09-2.47,0-2.79,0l-11,5,1.25,6,1.79.24c.19-1.23.38-2.37.58-3.64h3.06a47.44,47.44,0,0,1,1.58,6.15c.28,2.24.06,4.54.26,6.64.25,2.95,3.14,3.24,4.88,5.26-2.26,6.05-4.6,12.3-7.43,19.83v5.7l5.43-1.72,3.18,4.57c-.1.94-.32,3.3-.63,5.66a6,6,0,0,1-.67,2.2,7.56,7.56,0,0,0,.39,8.79,17.5,17.5,0,0,0,3-1.28,13.14,13.14,0,0,0,2.06-2h5c-1,1.87-1.37,3.67-2.49,4.72-4,3.76-5.36,6.14-5.39,10.86,0,2.06,0,4.11,0,6.66l-4.81,1.74c1.34,1.84,2.39,4.19,4.2,5.47,1.62,1.15,4.07,1.12,6.3,1.65,1.34,2.18,2.73,4.43.62,7.28-.57.78-.08,2.35-.08,3.63,3.92,1.59,7.95,2.72,8.37,7.3,4.94.4,8.7,1.35,10.6,6,.72,1.77,2.81,3,4.5,4.67v6.84l3.71.21c.12-1.3.22-2.28.34-3.51h3.21l5.71,5.75-3.31,4h-4.09c-1,1.57-2.14,3.21-3.23,4.84-1.86,0-3.75.84-5.55-1.5l-2.19,5.19c-.17,0-.88.36-1.29.13-2.4-1.31-4.94-1.38-7.72-1.08l-1.6,2.37c-5.72,1.57-11.71-.58-17.42,1.25-6,.41-12.06,1-18.1,1.2s-12,0-18,0c-1-3.31.91-4.71,3.68-5,3.66-.38,6.69-2,9.62-3.82a8.34,8.34,0,0,0,1.64-7.51c-4.48-3.23-6.31-9.11-10.49-12.42-1.47-3-.06-5.85-.7-7.58-1.12-2.72-3-3.43-4.43-4.55-3.83-3-5.49-6.63-4-11.45,1.44-4.58-.29-9.57,2.48-14.26-5.87-4.4-6.51-10.07-4.89-16.35a7.69,7.69,0,0,0-.85-6c-3.84-5.84-3.28-10.83,3.4-15.14-9-5.7-4.42-13.78-3.84-20.17.59-6.58.08-12.13-2.87-17.47.57-3.16.7-6.09,2.61-9,9.14-3.61,19.22-3.56,29.08-4.82,11.83-1.52,23.79-1.68,35.55-3.72h5c6.18-1.15,12.51.13,18.67-1.24,7.34.67,14.48-2.2,21.84-1.25,3.39-1.75,7.37-.33,10.57-1.47,3.49-1.25,6.78-.58,10.12-1,1.72-.24,3.37-.86,5.08-1.2,4.13-.81,8.4-.84,12.48-1.5a121.08,121.08,0,0,1,12.56-1,13.33,13.33,0,0,0,5.64-1.29c2.89-1.65,5.88-1,8.85-1.15,15-2.14,30-3.1,45.09-4.11,8.18-.55,12,4.07,11.72,12.29s-.55,16.51-2.61,24.6A15.24,15.24,0,0,0,666,385.94c1.48,2.64,2.39,5.49,1.52,8.33-2.14,7-.17,14-.44,20.94-.41,10.19,1.58,20.42-2.12,30.57-2.67,7.33-2.92,15.41-4.34,23.14-.7,3.79-3.91,7-2.74,11.19,2.76,3.67,9.07.77,10.85,6-.14.35-.27,1-.43,1a32.24,32.24,0,0,0-11.84,2.73c-5.9-1.08-11,2.5-16.83,2.82A73.54,73.54,0,0,0,621.45,496.07Z" fill="#8c8c8c"/><path d="M499.46,352.92a66.27,66.27,0,0,1-7.92,2.49c-6.25.42-12.52.6-18.73,1.37-2.29.28-4.53,1.09-6.95,1.19s-4.59-.51-7.07,1c-1.84,1.09-5.06-.4-7.27.38-2.54.9-5,1-7.4,1.74l-7.92,2.41c-.19,1.79-.42,3.91-.77,7.21.87,1.52,2.38,4.13,4.28,7.42v7l-2.48,2.38v3.17c.65,1.65,3.46,2.43,2.14,5.73L436,399.06v3.38l7.41,2.06v3.91l2.9,1.19-2.69,1.29-1.49-1c-2.06,2.65-6.21,3.06-7.79,7.35l5.75.71c-2.87,4.28-1,7.29,1.82,10-1.28,1.2-2.57,2.41-3.44,3.21v6.62l1.93,3.72,4-1.08v8.11l-2.51,1.74c.58,2.65,1.58,5,1.44,7.19-.12,2-1.59,3.85-2.3,5.83a6.79,6.79,0,0,0,0,2.29l4.25,4.25,4.39.22c.9,1.75,1.88,3.63,2.86,5.52l-3.51,6,8.45,5.08c-.63,1.5-1.14,2.69-1.8,4.24h5.61c2.22,1.85,3.33,3.59,1,5.77l1.49,2c-1,1.18-1.91,2.23-3,3.44.51,1.77,1,3.64,1.66,5.82L459.81,510l-4-3-4.54,4.23-5.76-1.71-2,2.76c-.22,2.08-1.85,1.2-2.85,1.21-11.59.06-23.28-.9-34.75.31-10.45,1.1-20.8.68-31.2.92s-20.7,0-31,0c-1.66,0-3.32.07-5-.06-.35,0-.66-.77-1-1.18,14.51,0,29,.07,43.53-.07,2.73,0,5.47.67,8.29-1,2-1.23,5.14.78,7.56-1.31a3.6,3.6,0,0,1,3.51.12c2.07,1.89,4.29.52,6.81,1.28l3.39-11.17-2.23-2.23c1.3-5.7-2.37-10-4.91-15.68v-4.91c-1.34-.38-2.63-.7-3.89-1.12s-2.5-.94-3.95-1.5c.69-2.32,1.25-4.18,1.76-5.9L394,464.75l-3.19,1.58-2.22-1.94,3.86-3.88c-.5-1.54-.93-2.82-1.31-4.11s-.71-2.56-1.23-4.48l4.07-3-2.77-2.11c0-.41-.07-1.21-.14-2.47.6-.17,1.44-.15,1.88-.56,2.25-2.1,3.33-5.36,6.55-6.52.21-.08.35-.71.31-1.07a3.39,3.39,0,0,0-.53-1.06l-1.32,1.2-1.81-1.82c.86-3.09,1.73-6.24,2.75-9.93l-4.22-2.4-.81.75-3.22-2.49,6.66-8.75v-6c-.63-.49-1.44-1.13-2.65-2.06.49-2.46,1-4.91,1.5-7.56l-2.85-3.17,4.5-12.74-7-7,3-5.19h5.39c1.68-2.28,3.22-4.36,4.45-6,2.57-.87,4.79.42,6.93-1.41,1.31-1.12,4,.79,5.75-1a1.43,1.43,0,0,1,1.08-.33c5.73.88,11.2-1.49,16.9-1.32,6.28.19,12.43-2,18.77-1.19,3.8-2.09,8-.5,11.9-1.35,5.84-1.3,11.85-.24,17.5-1.38S493.83,353.31,499.46,352.92Z" fill="#8d8d8d"/><path d="M353.83,519.72c-6.74,0-13.48,0-20.22,0-.9,0-2.18.45-2.19-1.23,6.74,0,13.48,0,20.22,0C352.54,518.49,353.82,518.05,353.83,519.72Z" fill="#ababab"/><path d="M479.55,511c.39-2.38,2.21-1,3.36-1.21,2-.37,4.39.68,5.73-.84l8.33.8c0,1.66-1.27,1.23-2.17,1.23C489.72,511,484.63,511,479.55,511Z" fill="#7a7a7a"/><path d="M392.42,285.71H365c-.53-.42-1.06-1.18-1.6-1.19-4.33-.1-8.66,0-13-.07-1,0-1.91-.14-3.9-.29,3.44-3,6-5.74,9.32-7a5.29,5.29,0,0,0,3.36-3.72l3.32-.35v-2.3a2.85,2.85,0,0,1,1.17-2.73c9.86-5.46,16-15,24.2-22.21,2.73-2.4,4.88-5.29,5-9.19,1.24-5.43,5.27-9.1,8.61-13.1,2.34-2.8,3.71-5.58,3.36-9.18,1.49-4.07,4.74-1.1,7.09-1.68a7.55,7.55,0,0,0-.66-1.74c-.19-1.9.5-3.65.73-5.47,4.86-10.87,9.31-21.92,13.62-33,1.07-2.77,1.71-5.31,5.07-5.48,3.66-.18,5.66,2.05,6.74,5.31,2.64,7.95,2.84,16.31,3.94,24.51.91,6.79,1.33,13.58,6.27,19.12,2.28,2.56,1.61,5.49-1.09,7.62-4,3.18-4.63,7.28-4.56,12.18a32.42,32.42,0,0,1-5.53,19.37c-5.71,8.15-12.2,15.72-18.53,23.4-3.88,4.71-8.65,7.39-15.17,6.72C399.42,284.86,395.82,284.38,392.42,285.71Z" fill="#464646"/><path d="M311.51,282l2.18-3.12-1.5-3.08-10.11,1.65a39.38,39.38,0,0,1-1.07-5.37c-.19-2.83-2.86-4-3.83-6.22l-1.48,1.36a6.63,6.63,0,0,1-4.11-3.89c1.28-3.74,3.69-1.88,5.8-1.11,2.31.85,3.92,3.7,7,2.44a6.38,6.38,0,0,1,3.4.44c4.27,3,9,1.56,13.62,1.45.57,0,1.13,0,1.69,0,1.91.17,3.34,1.57,5.27,2.07a22.7,22.7,0,0,0,7.38-2.63c2.34-1.3,5.14-.67,7.53-1.8,3.8-1.66,8.59-.19,11.81-3.72a3.74,3.74,0,0,1,2.19-1.39c1.58-.28,3.15.79,4.95-.09,1.75-1.85,2.68-4.72,5.29-6.1,2.79-1.13,5.53-4.66,8.49-.14.45,2.93-1.68,5-2.67,7.38-2.93,5.24-8.11,7.31-13.27,9.39-1.77,2.24-3.61,1.35-5.57.28a22,22,0,0,1-2.12,3,30.7,30.7,0,0,1-3.83,2.79h-3.92c-2.85,3.51-8.32,3.09-9.84,8.48-3.61-3.64-8.13-3.75-11.37-5.49l-8.15,1.35C314.54,280.32,313.84,282.64,311.51,282Z" fill="#aeaeae"/><path d="M360.05,269.52c1.33-2.87,3.8-4.58,6.51-5.78a8.46,8.46,0,0,0,4.69-4.17,19.64,19.64,0,0,0,5.77-7c2.86-6.07,8.36-10.12,12.52-15.22,1.46-1.79,3.5-2.17,5.36-.21-.07,1.57.18,3-1.21,4.48-2.3,2.42-3.3,5.89-6.47,7.74-.89.52-1,2.4-1.44,3.7-4.15.1-6.11,3.45-8.2,6.24-1.2,1.6-3.19,2-4.19,3.67-.89,1.51-1.72,3.33-3.09,4.21-2.37,1.52-5.15,2.41-7.76,3.57Z" fill="#686868"/><path d="M154.42,387.41l-2.74,2.68h-4.59a49.79,49.79,0,0,1,5-19.6h4.54C159,376.38,154.75,381.51,154.42,387.41Z" fill="#c9c9c9"/><path d="M668.75,486.11c-2.18-.05-4.48.54-6.66-2.1-.76,1.44-1.35,2.54-2,3.75l-9.83-6.67,6.81-9.53c1.64-10,3.11-19,4.71-28.69,2.89-1.44,2.41-5.39,2.94-8.4.48-2.74-1.39-5.89-2.32-9.22l2.84-5.58c-.5-1-1.48-2.09-1.41-3.08.45-6.54-.88-12.93-1.53-19.37l2.52-2.16v-5.58a14.4,14.4,0,0,1-4.59-11,19.76,19.76,0,0,1,1.22-7.48c2.9-6.4,2.07-13,2.34-19.57.08-1.73-.89-3.75,1-5.16-.69-4.42-4.9-4.92-8.16-7.09-2.87,0-6.29-.57-9.44.12-6.25,1.36-12.69.17-18.74,1.37s-12.14.54-18.18,1c.14-.35.23-1,.44-1,2.48-.57,5-.76,7.52-1.24,5.9-1.13,12-1,18.06-1.5,3-.25,5.86-.88,8.81-1.2s6.09.75,8.79-1.26c7.45,0,14.91-.12,22.35.07,1.86.05,3.69,1.07,6.08,1.81-.22,1.71.68,3.78-.89,6.26-1.25,2,.72,4.51,1.6,6.58,1,2.33,1.13,4.15-.29,5.73a44.45,44.45,0,0,1,.93,6c.09,8.48.07,17,0,25.45,0,5.4,1.9,10.29,3.65,15.36a14.48,14.48,0,0,0-1.1,3.69c-.14,4.35.06,8.7-.1,13-.08,2.12.84,4.38-1.08,6.43-.61.66-.27,3,.47,3.95,1.27,1.57-1,1.78-.66,3s-.23,3,.33,4.21c1.38,2.93,1.2,5.49,0,8.51a9.68,9.68,0,0,0,.15,6.54c1.51,3.85.9,7.35-.45,10.93-.27.72-1.1,1.29-1.17,2-.49,4.77-.83,9.56-1.27,14.88l3.71,1.21c-.88,3-4.46-.28-5.48,2.37-3.4,0-6.39,1.44-9.48,2.57A7.53,7.53,0,0,1,668.75,486.11Z" fill="#969696"/><path d="M530.58,347.94c.52-.41,1-1.16,1.57-1.19,3.05-.11,6.36.69,9.12-.22,4.76-1.57,9.48-.76,14.21-1.08-1.34,2.36-3.59,2.51-5.94,2.5C543.22,347.93,536.9,347.94,530.58,347.94Z" fill="#b7b7b7"/><path d="M523.11,351.68c-.52.41-1,1.16-1.58,1.19-2.67.12-5.34,0-8,.07-2.14.06-4.37-.56-6.34,1.13-.43.36-2.53.92-2.74-1.15a9.09,9.09,0,0,1,4.44-1.32C513.62,351.82,518.37,351.68,523.11,351.68Z" fill="#8d8d8d"/><path d="M282.88,76.59c.14-.36.21-.94.45-1,2.9-1,5.63-3.21,8.35-3.64,3.06-.48,5.32-2.39,8.22-2.85s6.13-.95,8.92-2.43c.16-.09.41,0,.62,0,9.78.1,19.48-2.19,29.29-1.21,2.73.27,5.28,1.63,8.18,1.25a16.63,16.63,0,0,1,7.59,1.1c2.57.88,5.55.54,8.11,1.44A93.21,93.21,0,0,1,374.7,74.5a115.37,115.37,0,0,1,16,9.44A93.3,93.3,0,0,1,409,101c3.88,4.61,6.2,9.86,8.57,15.14a58.8,58.8,0,0,1,3.37,11c.31,1.37.89,2.58,1.23,3.84a28,28,0,0,1,1.44,8.78c-.14,2.93-.87,6,1.1,8.83.39.55.17,1.64,0,2.44-.35,2.12-.83,4.21-1.22,6.32-.36,1.91.91,4.16-1.22,5.73-.2.15-.05.8,0,1.21a39.09,39.09,0,0,1-3.53,18.88c0,.06.25.34.43.41a1.75,1.75,0,0,0,.61,0,2.42,2.42,0,0,1,.74,1.55c-2.32,5.51-3.86,11.29-5.76,16.95a11.18,11.18,0,0,1-1.09,1.56c-1.75,2.08-1.39,5.23-3.79,7.26a45.19,45.19,0,0,1-6.26,1.66,22.78,22.78,0,0,1-3.92-.83c-3.73-1.08-4-3.45-2.59-6.61A121.78,121.78,0,0,0,402,191.4c3-3.6,3-8,3.34-12.33,1.14-16.75,0-33-9.55-47.6-5-7.72-11.54-14.21-17.85-20.86a63.39,63.39,0,0,1-13.83-11.36c-10.26-10.71-23.2-15.45-37.68-16.62a2.32,2.32,0,0,0-2.22.93C316,92.79,305.66,97.35,293,96.76c-2.44,11.57-14.94,9.67-19.86,16.83-4.65-.9-7.43-2.78-9.22-6.08,0-3.54,2.57-6.56,2.06-10.2,1.15-3.4,4.5-4.65,6.76-7,8.12-1.41,13.67-8.46,21.86-9.92,3.33-.6,6.83-1.44,9.83-4.21-2.13-1.91-4.29-1.14-6.29-.45-3.12,1.07-6.32,1.79-9.48,2.69C286.29,79.11,284.11,79.3,282.88,76.59Z" fill="#9d9d9d"/><path d="M419.8,184.88v-1.24c1.79-3,3.71-8.71,3.73-11.14a23.67,23.67,0,0,1,1.14-8.21c1.7-4.61,2.09-9.56,2.68-14.45s1.22-10.05,3.75-14.67c2.94,1.11,4.07,3.69,4.74,5.84,1.6,5.14,5.3,9.58,5.12,15.28,3.74,6.76,4.14,14.76,8.25,21.45,2.48,4,2.44,9.33,5.46,13.24,2.64,3.42,2,7.84,3.69,11.52a50.84,50.84,0,0,1,1.78,5.29c4.56-2.41,4.59-7.83,8.64-10.85.31,1.2,1.09,2.62.72,3.06-1.53,1.79-.81,3.86-1.21,5.76-.84,4-1.46,8.09-2.1,12.09-.56,3.48-1.31,7-1.74,10.58-.24,2-1.79,3.91-.53,6.39l4.51-5.46a10.19,10.19,0,0,1,1.41-4.56,55.11,55.11,0,0,0,7.63-19.94l4.57-3.8a17,17,0,0,1-1.17,6.91c-.69,2,.88,4.5-1.31,6.25-.1.08,0,.4,0,.6q-.63,8.69-1.25,17.36c1.67,1,1.86,2.53,1.89,4.28.2,12.86-2.08,25.06-8.34,36.53-3.59,6.58-8.5,10.61-16,11.47-3.94,0-8-.68-11.78.14-8.53,1.86-17.08.87-25.61,1.06-8.69.2-17.4,0-26.09,0,0-1.72,1.33-1.22,2.23-1.23,4.94,0,9.88,0,14.71,0l2-4.54a10.31,10.31,0,0,0,5.9-5.44c1.26-2.83,4.28-4,5.52-7.05,1-2.43,3.77-4,5.21-6.53a29.06,29.06,0,0,1,6.12-7.38c2-1.77,1.58-4.42,3.13-6.22-.85-3.62,1.53-6.4,2.77-9.62l-2.63-5.12c1-2.85,2-5.75,3.32-9.57l7.08-3-7.66-8.06c-1.92-13.64-2.56-27-5.53-39.46l-4.06-3.78c-.4.38-1.38.91-1.77,1.73-1.42,3-3.1,5.8-4.66,8.67-1.49,2.72-1.76,6.22-2.94,9.32a79.14,79.14,0,0,0-3.83,12.1c-.08.4.13.95-.07,1.21-1.18,1.48-2.44,2.9-3.67,4.34-1.14-1.24-.87-2.49,0-3.73C416.28,196.72,416.88,190.39,419.8,184.88Z" fill="#666"/><path d="M300.3,64.14h-3c-5.59,2.68-10.46,5.39-15.61,7.35-3.05,1.16-5.85,2.79-8.88,4-2.82,1.1-5.29,3.14-7.91,4.77s-5.34,3.89-9,3.85c-1.63-3.17,1.31-5,2-7.48l1.25-1.25a2.85,2.85,0,0,0,3.53-1.79c.82-2.56,3-3.32,4.74-4.86,4.77-4.21,10.63-6.64,15.68-10.35,1.82-1.33,4.13-2,6.25-2.89.53-.22,1.33,0,1.74-.28a38.18,38.18,0,0,1,14.07-6.59c.53-.13.95-.73,1.14-1.85l-7,1.31-.25-.84,11-4.55,3.51,2.87,6.55-1.3c2.24,3.47-2.84,4.72-2.28,7.76.5,1.35,1.81,1.59,3,1.52,9.47-.53,18.86,1.81,28.43.24,9-1.47,10.2-1.87,12.23-10.87a7.06,7.06,0,0,1,2.17-3.63l13.69,1.25c4.15-.64,7.94,1.66,12,1.5.12,0,.27.64.41,1,2.74,1.05,5.27,2.36,6.88,6.16-3.9,6.64-.16,18.11-12.61,21.42C366,63.2,346.61,61,326.9,61c-7.87,0-15.43,2.29-23.12,3.56C302.51,64.81,301.36,65.08,300.3,64.14Z" fill="#2d2d2d"/><path d="M230.6,120.15c2.64-2.84,5.76-5.39,7.8-8.62,2.63-4.16,6.46-7,9.57-10.64a18.17,18.17,0,0,0,1.3-1.9c3.61-1.08,6.8-2.75,8.71-6.22,4.32.43,5,1.82,2.74,5.48s-5.87,6.68-8.92,9.83a41,41,0,0,0-11.34,20.79c-.38,1.84-1.81,3.25-2.22,5.1-3.41,9-7.53,17.7-9.42,27.38-2.06,10.58-1.84,21.33-3.79,31.86-.37,2,.84,3.42,1.87,5,1.44,2.25,2.85,4.78.63,7.71-5,1.92-10.49-.42-15.6,1.35h-4.39c-.54-.57-1.1-1.17-1.84-1.94,0-6-.53-12.18.16-18.27.64-5.76,1-11.64,3-17.26,1.12-3.24,1.6-6.69,3-9.89.46-1,.08-2.44.08-3.68,1.67,0,1-1.33,1.26-2.18,2.36-7.86,7.07-14.65,10.07-22.22,3.56-2.22,4-6.7,6.88-9.46C230.59,122,230.46,120.91,230.6,120.15Z" fill="#ececec"/><path d="M300.3,64.14c5.41-1.06,10.9-1.8,16.29-2.76,8.59-1.52,17.07-.6,25.59-.89,3.32-.11,6.67.9,10,1.11s6.65-.27,9.9.15c2.62.34,5.14,1.51,7.66,2.4,3.5,1.24,6.84,2.95,10.77,2.54,1.26-.14,2.6.39,4.32.69l4.71-1.86c.68-3.75,1.3-7.22,2-11l3.28-6.35L389.93,43a6.51,6.51,0,0,1,2.46,0c8,3.61,16.68,5.91,23.91,11.19a64,64,0,0,1,4.88,4.39c-.76,5.29-4.41,9.21-5.22,14.29-.77,4.82-3.25,9.34-2.36,14.08l-2.11,2.38a45.75,45.75,0,0,1-13.38-6.55,137.73,137.73,0,0,0-19.29-11.9c-3.19-1.55-6.74-1.58-9.8-3.33s-6.39-1.7-9.58-2.46c-2.78-.66-6,0-8.47-1.93a2.14,2.14,0,0,0-1.12-.28c-8.51-.42-17-1.18-25.54-1.11-4.43,0-8.84,1.48-13.24,2.39-.71.14-1.28,1-2,1.16-3.33.51-6.69.87-10,1.29Z" fill="#4e4e4e"/><path d="M282.88,76.59c2.13.67,3.74-1,5.67-1.32a52.5,52.5,0,0,0,7.15-2.18c.89-.3,1.75-.71,3.57-1.46,3.92.06,9-.8,13.25,2.77-1.15,4.23-4,5.82-8.15,6-2.48.1-4.62,1.78-7,2.6-7,2.45-14.93,3.46-20.08,9.77h-3.16c-1.34-.82-.81-2.76-2.08-3.58-2.64-.61-5.83,2.22-7.87-1.4.28-.49.44-1.18.86-1.44q8-4.93,16-9.73C281.53,76.36,282.27,76.59,282.88,76.59Z" fill="#b8b8b8"/><path d="M264.21,87.79c4-1,8-1.65,10.87-5.35l5.52,2c-2.23,2.88-4.34,5.58-6.44,8.28-1.18,2.77-4.29,3.13-6.22,5-1.87,2.08-2,5.33-4.65,6.91a18.64,18.64,0,0,0-4.41,2.59c-7.61,6.3-11.79,15.39-18.33,22.55-1.35,1.48-2.11,4-5,2.8v-4.49c4.09-2.53,4.76-7.49,7.25-11.22a74.59,74.59,0,0,1,5-7.22c4.39-5.16,8.56-10.5,13.25-16.31L258,92.77C259.17,90,262.28,89.63,264.21,87.79Z" fill="#d3d3d3"/><path d="M363.79,39.24c-.22,2.41,2.65,4.75,1.06,6.79s-.45,4.34-1.27,6.38L361.16,55c-3.3.65-6,1.23-8.68,1.71s-5.37,0-8.24,1A11.94,11.94,0,0,1,334.8,57c-1-.53-2.35-.35-3.55-.36-6,0-11.94,0-17.74,0l-4.88-3.1c4-3.24,7.81-6.3,11.59-9.35,2.84-1.09,5.53-2.63,8.75-2.51,2.54.09,4.74-2.1,7.43-1.22,4.58-.42,9.16-1,13.75-1.2S359.24,39.24,363.79,39.24Z" fill="#171717"/><path d="M455.9,284.46c.36-2.66,3.35-.18,4.35-2.3.58-1.21,2.75-1.57,3.68-2.73,2.06-2.58,4.4-5.21,5.43-8.23a22.12,22.12,0,0,1,2.41-4.61c.87-1.42,1-3.27,1.57-4.9.62-1.8,1.37-3.56,2.39-6.18-.24-5.68,2.15-12.16,1.41-18.9-.15-1.42.75-3,1.16-4.43a41.6,41.6,0,0,0,2.51-8.54c.26-2.58-.84-5.35.75-7.75,1.4-2.08-.86-5,1.72-6.74-.89-5.52,1.91-10.44,2.62-15.72.74-5.55,2.48-11,3.84-16.68,3.1-2.62,6.24-2,9.89,0a34.44,34.44,0,0,1,8.59,6.24c2.82,3,5.81,5.86,8.6,8.65-.25,5,5.74,5.79,6.11,10.15.13,4.45.69,9.09-2,13.27-1.86,2.93-3.54,6-5.28,9-1.91,3.33-4.41,6.21-5.48,10.18a15.5,15.5,0,0,1-5,7.87,30.75,30.75,0,0,0-7.65,9.82c-2,3.81-5.15,7-7.75,10.47a24.31,24.31,0,0,0-2.18,3.44,10.19,10.19,0,0,1-4.63,5.07c-2.28,1.15-4.16,3.36-5.79,5.44-1.5,1.91-1.57,4.43-1.38,6.86-3.33.41-6.66,1-10,1.2S459.2,284.46,455.9,284.46Z" fill="#828282"/><path d="M418.44,287.17l-13.88,4.66c-1.08-2.05-5.91.19-5.93-4.66Z" fill="#cacaca"/><path d="M576.64,227.2l3.21-3.93,7.47,1.18c1.23,2.9,2.34,5.51,3.39,8l-2.87,2.26c-1.86.11-1.06,1.55-1.24,2.49-3.89,8-5.81,9.25-12.37,7.92-2.89-3.41-3.79-7-.49-10.86a8.56,8.56,0,0,0,1.65-4.53Z" fill="#848484"/><path d="M575.39,229.69l2.22,3.06L573,236.18v4.25l3.49,2.85h3.28l6.86-6.12,1.35.76c-1.5,2.73-2.76,5.32-4.31,7.74s-3.25,4.46-4.74,6.48c-4,0-6.36-2-8.48-4.46V236.35C573.24,235.1,572.94,231.4,575.39,229.69Z" fill="#959595"/><path d="M623.94,228.45c-1.73.74-3,1.57-5.38.48-5.21-2.36-11-3.39-16.31-5.57-3.53-1.46-6.43-4.57-10-5.8a27.5,27.5,0,0,1-7.73-3.93,12.67,12.67,0,0,1-1.76-1.75c-4.55-4.92-8.91-10.08-14.65-13.74a8,8,0,0,0-1.53-.8c-6.11-2.32-6.47-2.63-10-8.7l1.24-2L556.26,185a16.68,16.68,0,0,1-2.15,3,15.73,15.73,0,0,1-3.3,1.77,6.38,6.38,0,0,1-3.6,6.12c-3.06-2.14-1.13-5.31-1.75-7.77,3.12-3.37,2.23-8.7,6.39-11.29-.87-4.46,1.13-7.67,4.19-10.68,2.86-2.81,5.33-6,7.94-9.09s5.17-6.12,7.64-9.05c0-1,.09-1.78.12-2.5,6-3.17,6.75-5.2,4.76-13.7l3-1.74c-.37-3.64-.5-6.86-1.05-10-1-5.78-3.16-11.37-3-17.36,3.22-1.58,4.48,1,5.89,2.91a252.25,252.25,0,0,1,25.41,42.64c1.31,2.76,2.78,5.92,1.07,9.22-.48,2.29,1,4,1.65,6,.29.9.56,1.8.84,2.7-3,2-5,.6-6.87-1.75a34.59,34.59,0,0,0-7.61-7.28c-2-1.37-4.17-2.89-6.88-1.27-2,2.55-.85,5.3.09,7.65,6,15.05,12.32,30,26.82,39.24,1.39.89,2.56,2.16,4.41,2,.34.14.94.21,1,.43.67,2.39.66,4.89,1.24,7.36C623.67,217.7,623.52,223.14,623.94,228.45Z" fill="#848484"/><path d="M607.76,157.5c-.58-1.62-1.11-3.25-1.74-4.84-2.25-5.7-5.8-10.74-8.23-16.35-3.38-7.79-8.48-14.59-12.62-21.94-4.39-2.93-5.54-8.58-9.78-11.64-4.38-5-8.57-10.22-13.22-15A21.18,21.18,0,0,0,548,81.57c-5.43-.33-10.8,1.78-16.26.47-3.25.2-6-1.69-9.18-2-5.29.93-9.13-2-12.19-5.44a32.3,32.3,0,0,1-7.15-14.21c-1.84-7.81.68-10.69,8.83-10.17,7,.46,13.16,3.27,19.23,6.45,1.46.77,2.89,1.56,4.27,2.46a18.61,18.61,0,0,1,7.47,5c5.46,3.09,10,7.43,14.94,11.2l1.24,1.25c1.31,1.52,2.59,3.07,3.94,4.55,5,5.39,10.13,10.57,14.81,16.18a112.9,112.9,0,0,1,11.2,16.36c1.48,2.58,3.78,4.69,6,7.35.59,3.87,3.59,6.78,6.3,9.69.07,4.38,3.12,7.53,4.34,11.39,1.17,3.67,3.9,7,5.14,11.58-.22.72-.71,2.28-1.19,3.81Z" fill="#e9e9e9"/><path d="M620.21,204.8v5c-1-.13-1.76,0-2.09-.3-5.88-5.37-11.75-10.75-17.5-16.26a16.49,16.49,0,0,1-3.91-5.19,116.26,116.26,0,0,0-7.5-14.92c-3.29-5.51-3.67-12.11-6.24-17.92-.41-.93.58-2.48.94-3.79h9.51a53.61,53.61,0,0,0,6.29,4.78c2.85,1.62,4.57,4.31,6.28,6.72,1.24,1.74,2.8,2.28,4.26,3.3,1,2.88,2.17,5.72,3,8.65,1.58,5.55,3,11.14,4.45,16.73C618.82,195.94,620.69,200.15,620.21,204.8Z" fill="#6f6f6f"/><path d="M235.58,132.6c1.49-2.12,3.09-4.17,4.47-6.37a90.65,90.65,0,0,1,16.46-20.14,8.62,8.62,0,0,1,1.47-.87c4.38,2.6,2.5,6.39,1.43,9.64a66,66,0,0,1-3.1,6.8c-1.69,2.91-4.42,1.79-5.8,3.47.44.85.89,1.7,1.54,3l-3.77,2.68c-.1-.54-.3-1.68-.58-3.24a15.57,15.57,0,0,0-2,.61c.41,2.23-1.94,1.57-2.64,2.57l1.37,1.53-4.12.71c.67,1.3,1.24,2.42,1.74,3.37l2.67-1.41c.4.39.7.61.67.68-.77,1.72-1.14,4.2-2.47,4.95-2.4,1.35-2.74,4.14-5.24,5.24.67,1.15,1.15,2,1.68,2.92l-1.4,2.54,1.65,2.83c-1.34,1.35-2.69,2.7-4.14,4.14l2.81,1.08c-.42.91-.81,1.74-1.25,2.71l2.36,2.51c-.63,2.81,1,6-1,8.41.41,1.25.77,2.35,1.25,3.85L237.24,178c.38,2.27.64,3.81,1,6.12l-1.93-1.52c-3.8,3.55-4.28,4.48-4.79,9.43l-3.16,1.33-1.1-3-1.35.87c-.13,1.47-.26,2.93-.41,4.66h3.38c.73,2.12,1.42,4.09,2.14,6.17l2,.72v6.45c3,.86,5,3.3,7.48,5.08l-5.33,2.42,2.65,1.59-1,3.95c-1.94-1.08-3.76-2.17-3.82-4.86,0-.81-1.12-1.55-1.54-2.41-.5-1-.79-2.15-1.42-3.93-2.85,0-6.27,0-9.69,0-.9,0-2.19.46-2.2-1.22H228v-2.49H211.93c.53-.42,1.06-1.18,1.6-1.19,4.31-.1,8.63-.06,13.51-.06-.53-2.35-.53-4.63-1.54-6.31-1.15-1.92-.93-3.8-1.16-5.76-.29-2.53-1-5-1.16-7.56a32.84,32.84,0,0,1,0-8c1.08-6.17.47-12.64,3.18-18.53a3.11,3.11,0,0,0,.45-1.66c-1.24-5.88,2.89-10.46,3.94-15.8.53-2.67,2.9-5,4.34-7.49A7.83,7.83,0,0,0,235.58,132.6Z" fill="#b1b1b1"/><path d="M251.78,76.9c-3.22,2.9-5.38,6.74-9.8,8.85C245.52,80.22,248.48,77.52,251.78,76.9Z" fill="#797979"/><path d="M523.11,77.83c2.4,0,4.81-.07,7.2.06.52,0,1,.77,1.52,1.19-.66,2.78-2.67,4.89-3.74,7.47h-5c-.31-.42-.58-1.13-1-1.19a18.22,18.22,0,0,0-3-.06c-3.67,0-7.33-.06-11,0-3.37.07-6.42-2.19-9.88-1.26-2.74-2-1.67-3.81.42-5.34a12.45,12.45,0,0,1,8.68-2.46C512.58,76.84,517.9,76.86,523.11,77.83Z" fill="#dadada"/><path d="M528.09,86.55c-.54-.82-1.09-1.63-1.6-2.39l-4.44-.24c0-.71-.31-1.53,0-1.79,2.75-2.61,6.2-3.13,9.82-3,5.37-.8,10.45,1.61,15.76,1.49.13,0,.28.65.42,1h-3.28c-.94,2.35-1.92,4.77-3,7.36-2.31-1.59-4.7-1.44-6.85-1C532.33,88.36,530.48,86.33,528.09,86.55Z" fill="#b1b1b1"/><path d="M523.11,77.83c-7.28-.09-14.41,2.46-21.29,1l-4.84,3,1.24,2.14c-5,0-9.85-2.12-14.94-1.25.33-.41.63-1.17,1-1.19,2-.11,4.05-.05,6.25-.05-2.38-2.92-4.6-3.69-9.55-3.73l-2.84-1.69.4-.81H487c1.71,1.49,3.8,1.16,5.82,1.26,1.81.08.45-.78.4-1.26,2.89-3.46,3.66-8,5.95-11.81,1.54-2.58-.74-5.62-1.83-8.28-1.28-3.13-2.85-6.14-4.57-9.78,5.75,0,10.88-.23,16,.11,2,.13,3.8,1.78,5.81,2.34,7.32,2,13.7,5.92,20.11,9.77.43.27.6,1,.89,1.47a50.15,50.15,0,0,1-10.74-4.06c-6.17-3-12.48-2.23-18.85-1.77-.47,0-.88.83-1,1,.85,7.89,4.69,14.3,9.37,21.43l6.55.88C521.79,76.71,523.1,76.12,523.11,77.83Z" fill="#e0e0e0"/><path d="M493.24,75.34h6.86l1.72,1.77c-.05.12-.12.4-.18.4-4.29,0-8.58,0-13.16,0L487,75.34Z" fill="#e9e9e9"/><path d="M558,75.34c-.61,0-1.41.26-1.78,0-4.43-3.47-8.79-7-13.15-10.57-.1-.08,0-.39,0-.59,1.44.41,3.35.39,4.24,1.32C550.62,69,555.68,70.68,558,75.34Z" fill="#e0e0e0"/><path d="M265.45,107.71h1.44c1.38,1.34,2.54,2.46,3.74,3.64l3.54-1.75V108l5.84-.64-4.93-5.88,2.26-2.55,1,2.42,1.86-1.07c.4.11,1.06.15,1.1.34.61,2.52,2,3.88,4.36,3.43l3.4-3.67V98.16l-5-1,5.84-2.31c.57-1.49,1.19-3.08,2.26-5.88l.93,4.89c1.27-.38,2.63-2.18,4.19.61.51-1.39.94-2.55,1.37-3.7l1.23.8c.19.67.37,1.34.62,2.24h4.54l.12-.58a4.94,4.94,0,0,1-1.77-.51c-.4-.31-.52-1-.88-1.77l4.86-1.46L311,91.33l2.14-7.06H316c.88,1.27,1,3.75,4.25,3.44l-1.52-5.46L316.21,80c4.69-.32,9.06-2.25,13.35.16.94.54,2.43.1,3.66.12,4.23.06,12.66,2.83,16.49,5.17,2.79,1.7,6.33,2,8.61,4.75.69.85,2.06,1.1,2.9,1.88,5.39,5,10,10.82,16.17,14.93.6.39.89,1.25,1.33,1.9,1.94,5.74,6.9,9.75,8.36,16,2.38,10.15,4.68,20.13,1.48,30.48-1,1.85-3,2.76-4.14,4-2.17,1.39-4.41.21-6.3,1-2.26,2.4-1.92,4.6-.39,7.31,2.74,4.86,1.93,8.17-2.88,10.8-4.12,2.25-4.92,7.78-10.35,8.9-.45,10.39-8.37,17.06-12.85,26.5-7.08-.51-7.74,8.07-12.45,11.26,3.85,2.2,1.24,5-.75,7.9-2.24,1.62-5.34.41-7.4,2.5-1.43,1.07.08,2.57-.41,3.91-.79,3.72-4.2,4.25-6.9,5.58a42.83,42.83,0,0,1-16,4.44c-3.16-1.63-7,2.89-9.91-1.15l2.31-1.9v-3.89l-1.7-1.69c-.4.86-.79,1.7-1.17,2.5h-1.53c-1.17-1.85.94-5.22-2.22-6l-10,2.06c-.59-3.29-.43-4.23,2-4.61a4.09,4.09,0,0,0,3.75-2.82l-2.54-3,1.75-1.75,1.3,1.19,1.89-1.89,7.35,1c-.44.62-.81,1.17-1.49,2.15l3.79,3.6c-.55-2.91-.88-4.71-1.15-6.14l5.85-4.74,1.14,1,1.3-1.16,2.19,2.19c2.19-.62,2.25-2.36,2.16-4.63.58.29,1,.45,1.34.67,1.35.8,2.4.37,3.85-.22,2.85-1.15,6-1.59,9.82-2.52l1.58-1.59,4.53-.46v-1.58c-2-1.87-3.62.34-5.82,1l1-5.33h-2.69c-.94-2.76,1.88-3.51,2.82-5.27,7.54-6.15,14.58-13,19.2-21.5,9.61-17.76,12-36.26,2.86-55.1a18.28,18.28,0,0,0-5.24-5.88c-7.49-5.86-13.47-14.17-24-15.29a52.14,52.14,0,0,0-36.41,6.19A86.88,86.88,0,0,0,264,130.14c-3.72,4.05-5.93,8.93-8.2,13.82-6.34,9.07-6.86,19.6-7.44,30.07a49,49,0,0,0,.59,10.53c.36,2.3,0,4.11-2.15,5.3l-3.66-1.2c.56-1.45.92-2.41,1.43-3.76-1.23.1-2-.07-2.31.23-1.49,1.35-2.72,3.18-5.62,1.71L242,183c-.27-.75-.54-1.46-.9-2.45.2-1.27,1.17-3.25.58-4.48-2.2-4.56-1-9.27-.95-13.84,0-3,.9-6.23,4.07-8.19l-2-2.61,4.29-3.6-1.58-2.55,4.19-3.06c-2.41-1.75-1.54-3.68-1.56-4.51,2.33-2.91,4.21-5.27,6.1-7.62.84-6.28,4.31-11.32,7.91-16.22a9.66,9.66,0,0,0,2.06-5A2.88,2.88,0,0,1,265.45,107.71Z" fill="#7e7e7e"/><path d="M246.78,189.86c-.42-2.1-.82-4.21-1.25-6.31s1-4.52-.92-6.44c2.34-2.29-1.65-4.63,0-6.76s-.07-5.13,1.1-7c1.89-3,.52-6,1.27-9.11l2.14-2.25c.48-4,1-7.8,3.91-10.71.85.56,1.65,1.28,3.2.81a105.63,105.63,0,0,1,8.1-10.35c1.89-2.1,4.15-4.54,7.1-1.11,1,4-2.58,5.87-4.28,8.35a90.22,90.22,0,0,0-9.82,18.51c-4.17,10.79-3.44,21.52,0,32.27.47,3.65,3.2,6.61,3.24,10.42-.55,1.73-1.13,3.45-3.55,4.15-4.18-1-5-5.55-7.71-8.28a7.33,7.33,0,0,1-1.31-4.76C248,190.85,247.19,190.35,246.78,189.86Z" fill="#4a4a4a"/><path d="M249.27,196.08c1.24,1.2,2.54,2.35,3.71,3.62.79.84,1.33,1.91,2.1,2.78a18.3,18.3,0,0,0,2.42,1.79c.21-1.92.34-3.19.48-4.45,3.78-1.77,5.13,1.75,7.08,3.49,13.3,11.77,28.05,14.07,44.34,7.18a13.88,13.88,0,0,0,9.68-3.16c2.62-2.11,5.35-5.62,9.76-3.77a3,3,0,0,1,1.34,2.48c-.94.83-1.9,1.64-2.8,2.5a9,9,0,0,0-.94,1.24c-1,2.11-3.73,1.18-5.19,3.07-1.18,1.52-3.54,2.14-5.86,2a6.38,6.38,0,0,0-3.14,1.18c-3.1,1.75-7.95,3.56-10.72,3.69-2.55.12-4.75,2.15-7.45,1.27-6.21.33-12.43.12-18.11-2.58a53.57,53.57,0,0,0-11.4-3.91c-3.39-3.38-7.25-7.07-10.9-11C251.69,201.41,249.66,199.2,249.27,196.08Z" fill="#646464"/><path d="M265.45,109c.36,2.09,4,2.8,2,6-2.11.36-5.16.36-4.53,4.29a.68.68,0,0,1-.23.51c-3.4,2.62-5.26,6.38-7.44,9.91-.16.26-.68.31-1,.45-.47-1.56-.93-3.12-1.49-5h-2.25V123l3.77-.66-1.1-1.54.84-1.15-1.31-2.58c5-.93,4.54-5.63,6.15-8.53-.31-1.18-.59-2.26-.88-3.34l3.74-2.49c2.17-.6,2.4,1,2.41,2.39S264.15,108,265.45,109Z" fill="#9d9d9d"/><path d="M297.81,248.36c3.39.14,6.48-2.14,10-1.24,2.29,1.53,1.15,4.22,2,6.33,3.52,2.67,7.69,2.7,11.76,3,18.14,1.41,33.49-5.65,47.56-16.09,8.25-6.12,16.15-12.66,22.24-21.18,2.92-4.08,6.34-8.62,12.71-5.45,2,2.93.94,5.75-1,7.93-5.22,5.83-9.88,12.16-15.29,17.78-2.76,2.87-7.2,4-8.75,8-4.82,2.48-9.79,4.1-13.3,8.11-1,.67-1.87,1.65-3.14,2-3.34-.56-6.05.94-8.61,2.75A24.84,24.84,0,0,1,338.56,265a92.15,92.15,0,0,0-15.95,1.48,32.15,32.15,0,0,1-16.13-1.75c-2.18-.78-4.39-.42-6.48-1.14-5.81-3.61-12.88-4.67-18.37-9-.61-2.5-3.63-.47-4.83-2.71-.78-1.45-3-2.41-5.13-2.27v-1.85c2-2,3.59.44,5.35.63l1.83-1.33,6.53,2.54C289.33,247.26,293.67,248.83,297.81,248.36Z" fill="#636363"/><path d="M281.63,254.59c4.46,1,8.86,2.29,13.22,3.69,2.25.73,3.59,2.6,5.45,3.78,2.61.63,5.73.89,3.74,5l-1.85.88c-1.55-.3-2.42-1.85-3.71-2.93s-3.82-.84-4.76-2.93l-2.13,1.25h-1.24c-1-1.23-1.82-3.08-3.13-3.57C284.54,258.72,283.06,256.76,281.63,254.59Z" fill="#909090"/><path d="M403.62,214.75h-5.54c-1.86,1.64-3.74,3.23-3.58,6-2.69.43-2.78,2.77-3.5,4.58a21,21,0,0,0-2.93,1.89c-5.73,5.24-11.15,10.84-17.18,15.71-4.63,3.75-9.43,7.67-15.47,9.08-2.16.51-3.05,3.62-5.79,2.57a9,9,0,0,1-5.78,2.75,27.86,27.86,0,0,0-5.71,1.07c-6.82,2.36-13.8,1-20.66,1-4.39,0-8.78-1.64-13.07-2.52-.43-1-.81-1.9-1.25-3,1-1.88,1.49-4.61,4.61-4.73v-2.07c1.86-2.1,5.15-.2,6.94-2.49,3.18.66,5.51-1.45,8.17-2.48a25.42,25.42,0,0,0,3.74-1.31,12.18,12.18,0,0,0,2.31-2.43c.43-.91.46-2.25,1.48-2.57,9.69-3,14.47-11.91,21.69-17.88,2-1.65,3.74-4,6.91-2.65,1.95,1.54,2.41,3.83,1,5.5-5,5.89-3.95,14.3-9,19.79.7,1.32,1.63,1.28,2.31.91,11.28-6.09,22.9-11.69,30.63-22.66,3.32-4.7,7.49-8.31,13.9-7.75.8.07,1.44-.74,2-1.32h3.74c2.69,1.92,6.05-.9,8.71,1.24,3.2.82,5.33-2,8.23-2.64.77,2.43,1,4.51-1.5,6.4-3.77-.38-8,.87-12-1.21-.09,0-.62.77-.94,1.18A1.69,1.69,0,0,1,403.62,214.75Z" fill="#393939"/><path d="M403.62,214.75h2.49l2.68,2c-3.22,6.15-6.44,11.8-11.41,16,.17,2.17-.28,3.8-2.48,4.39a3,3,0,0,0-3.19,1.31c-2.46,3.32-5,6.62-7.52,9.87-.4.51-1.6.71-1.65,1.12-.12,1.25,0,2.56-1.3,3.21-3.55,1.74-4.94,6.38-9.36,6.89a4.42,4.42,0,0,1-.63,0l3.92-6.74a2.82,2.82,0,0,0-4.05.07c-1.05,1-1.93,2.11-3.6,1.69a1.71,1.71,0,0,1-2.49,0l3.07-3.74h2.51c.59-1.55,1.18-3.13,1.81-4.8h4.85c.1-1.13.18-2.09.29-3.41l4.79-4.16h2.92c4.53-7.16,11-12.72,15.31-19.92l1.12,1.12C402.36,218,403,216.36,403.62,214.75Z" fill="#8b8b8b"/><path d="M412.33,211c-2.4,0-4.8.07-7.19-.06-.53,0-1-.77-1.52-1.18h5.86a35.49,35.49,0,0,1,1.68-5.18c.44-.93,1.59-1.54,2.42-2.29V206A6.67,6.67,0,0,1,412.33,211Z" fill="#6f6f6f"/><path d="M304,267c.27-2.15-.84-3.22-2.79-3.77-.4-.12-.64-.79-.95-1.2l2.24-1.31,9.12,3.64c2.16-.62,5.11,1.1,8.44.31s6.63-.21,10-1.27c3.13-1,6.84.88,10-1.41l3.22,1.61c.33-1,.56-1.71.95-2.88l4.56.78,1.75-2.59,9.72-4.3,2.27,1.19c1.35,4.67-2.28,4.36-5,5l-1.24,1.25c-4.15,1.24-8.27,2.59-12.45,3.73,0,1.58-1.19,1.29-2.07,1.22a7.53,7.53,0,0,0-5.4,1.27c-4.5,1.07-9.24-.37-13.69,1.24h-1.25c-4.3-2.28-9.23-1.06-13.69-2.49Z" fill="#8b8b8b"/><path d="M322.71,269.52c4.14-3,4.14-3,8-1.34l3.16-2.74,2.5,2.84-1.69,2.52-1.61-1.39c-2.48,1.55-5.17,2-8,.17C324.57,269.2,323.53,269.52,322.71,269.52Z" fill="#909090"/><path d="M357.56,260.81l5-5,2.49-1.24h2.49l1.84,3.82-4-1.65c-.21,1.34-.37,2.43-.55,3.58C362.53,261.51,360.2,263.31,357.56,260.81Z" fill="#909090"/><path d="M343.87,265.79c1.62-2.88,4.53-2.47,7.16-2.49.19-.86.31-1.42.43-2,1.89-1.52,3.28.2,4.86.75l1.7,3.54-8.08-1.31-3.37,2.92Z" fill="#909090"/><path d="M307.77,267c1.69-.41,4-1.72,5-1.07,2.74,1.82,6.88,0,8.74,3.56-2.27-.49-4.92,1.15-6.84-1.18l-3,2.77Z" fill="#909090"/><path d="M399.88,209.78a2.92,2.92,0,0,1-1.79,3.54,49.77,49.77,0,0,1-7,1.76c-2,2.42-4.43,5.35-6.76,8.38s-10.79,10.27-14.65,12.47c-5.55,3.17-11,6.44-16.71,9.76H342.48c1.88-2.44,3.51-4.59,5.18-6.71s3.47-4.29,5.34-6.59L351.2,230c1.56-2.85,2.65-6.17,5.34-8.73a6.69,6.69,0,0,0,2.27-5.24c-.87-2.67.21-4.79,1.93-6.72,5.35-6,9.49-12.81,13.52-19.72,5.63-4.4,10.95-9.09,14.93-15.12,2-3,4.15-6.22,8.29-5a10.17,10.17,0,0,1,7.37,9.07,51.8,51.8,0,0,1,0,13.85c-1.24,4.18-2.29,8.42-3.82,12.49-.64,1.69-2.29,3-3.85,4.94Z" fill="#262626"/><path d="M404.86,192.35c-.67-4.66-3.19-9-2.35-14.26l-5.95-7.48a12.22,12.22,0,0,0-4.49,5.12,15.58,15.58,0,0,1-6.26,6.85c-2.91,1.87-5.94,4.28-7.27,8-.28.77-1.51,1.2-2.31,1.79-1.82-1.17-2.48-3-1.55-4.78,5.42-10.31,5.78-22.38,11.51-32.56.06-3.29.06-3.29,1.2-5.62L386,147.84c3-3.38.77-6.93.24-10.5s-.9-7-1.33-10.41l-2.48-2.48c1.28-5.87-3.26-9.42-6.08-13.89l2.4-1.61c6.86,4.69,12.38,10.89,17.48,17.22a41.58,41.58,0,0,1,7.46,13.61,44.09,44.09,0,0,0,2.47,5.27c.13,1.67-.42,4.09,1.17,6.28a8.64,8.64,0,0,1,1.25,3.8,39.06,39.06,0,0,1,.05,5c0,5-.06,9.94,0,14.91.09,6-1.9,11.6-3.15,17.34C405.45,192.39,405.07,192.35,404.86,192.35Z" fill="#434343"/><path d="M265.45,109l-3.6,1c.13-1-.16-2.7.52-3.29,1.29-1.12-2.05-2.45.38-3.07l-1-.83c1.13-2.83,3.75-3.81,6.22-5v7l-2.49.85V109Z" fill="#b1b1b1"/><path d="M419.8,184.88c-.14,1.18,0,2.5-.47,3.51-2.19,4.53-1.7,10.17-5.75,13.92C414.66,196.14,415.43,189.87,419.8,184.88Z" fill="#6f6f6f"/><path d="M386.19,155c1,4.9-2.17,9.43-1.16,14.24-3,2.72-2.63,6.19-2.55,10.13l-2.42.91v5.15l-3.83,3.24v3.67c-1.28,2.32-2.41,4.76-3.9,7-2.3,3.37-4.76,6.64-7.32,9.82-1.93,2.4-4.13,4.6-6.2,6.88-3.73,3.52-7.56,6.92-11.14,10.58-4.21,4.3-9.93,6.46-14.44,10.36-.79.68-2.9.78-4.3,1.47l-4.56-3.84c.43-2.09.81-3.93,1.19-5.79l3.64,4.32,7.91-1.23,2.76-4.13-3-1.58c-2.73,0-3.94,4.93-8,3.09l5.32-6.17-2.7-1.55,1.37-1.37.44-.42c1.29,2.74,4.51,1.94,6.66,3.89v-6.41c1.12-1.91,1.92-3.25,2.92-4.95h8.89c-1.38-1.54-2.26-2.53-3.44-3.87,2.17-1.72,3.32-4,6-5,.89-.35,1.42-2.46,3.08-2.79-.43-3,2.32-4.86,2.66-7.61a14.81,14.81,0,0,1,1.24-3.33l-1.13-1.8,2.31-2.3-2.41-1.17c0-.44,0-.85-.06-1.25,1.15-.13,2.82-.79,3.36-.28,1.58,1.51,2.47.63,3.51-.38l1.59,1.39v-3.79l-1.86.89c-.14-.42-.26-.78-.52-1.6l5.16-2.53c-.31-.87-.66-1.83-1-2.8.38-.11.86-.42,1.1-.29a14.91,14.91,0,0,1,1.91,1.38l2.45,1.77c.21-1.73.28-2.83.5-3.91s.59-2,1.08-3.58l-3.54,1.93c1-3.76-3.52-6-2.24-10.18l1.55,1.25,1.58-3-2.1-4.08,4.28-.43,2.5-3.74c.37,2.81.57,4.29.78,5.86l3.25,1.67c.16-1,.32-2.11.56-3.64Z" fill="#6b6b6b"/><path d="M270.43,130.11c-6.28,4.77-10,11.43-13.69,18.18-.55,1-1.06,2.06-1.63,3.19l-2.91-6c1.3-.87.74-2.59.8-4.16.79-1,2.16-1.93,2.26-3,.36-3.67,2.93-5.9,4.91-8.53A37.6,37.6,0,0,1,263,126c1.21-1.25,2.68-2.25,4-3.39,1.94-1.68,4.27-3,5-6.09l1.69-.14c2-2,3.7-3.69,4.91-4.91h4.93c3.2-4,7.69-5.5,12.68-6.41,2.53-.47,5.57-.79,6.93-3.24a16.74,16.74,0,0,0,3.41.84c4.13.09,8.26-.06,12.38.09a15.32,15.32,0,0,1,3.82,1.19c1.69,1,2.69,2.41,2.16,4.68a6.75,6.75,0,0,1-4.2,3.82c-16.79-.73-31.44,4.6-44.19,15.51C274.88,129.36,273.24,131.71,270.43,130.11Z" fill="#2c2c2c"/><path d="M319,109h4.46c1.4-2.14-.06-3.48-.72-5l11.67,2.57,3.09,4.45-.81.81c3.3,2.65,6.93,5,9.77,8.06,1.56,1.67,3.8,2.19,5.08,4.54a80.75,80.75,0,0,1,6.23,16.14c1.34,4.88.5,9.69,1.15,14.45.49,3.58-1.22,6.67-1.41,10.07-.17,3.09-1.71,5.88-3,8.68a52.83,52.83,0,0,0-1.87,5.44,10.41,10.41,0,0,1-1.28,3.19c-2.38,2.89-3.94,6.33-6.2,9.25A61.76,61.76,0,0,1,330.18,206l-1.25-1.24c-1.69-2.88.15-4.55,2.05-6.31,9.48-8.8,15.65-19.61,19.25-32,6.95-23.88-4-45.13-27.33-53.28C320.81,112.52,318.2,112.29,319,109Z" fill="#414141"/><path d="M319,109c.33.42.64,1.17,1,1.19,1.85.12,3.72.06,5.58.06,4.26,3,9.91,3.6,13.69,7.3s7.3,8.08,10.48,11.66c1.09,3.35,2,6.1,2.9,8.82.25.71,1.06,1.27,1.17,2,.52,3.12,1,6.25,1.26,9.4.19,2.26,0,4.55,0,6.82a35.46,35.46,0,0,1-.08,6.19c-.33,1.84-1.92,3.56-1.93,5.34,0,4.74-4.05,8-4.21,12.57-3.8,3.79-4.91,9.27-8.86,13.18-3.35,3.31-6,7.34-10.16,9.87-.44.26-.61,1-.9,1.47-.91.29-2.11.3-2.69.91-3.74,4-9,5.18-13.53,7.75-.62.36-1.62,0-2.45,0-2.67-3.11,1.58-5.6.76-8.55a5.62,5.62,0,0,1,.65-1.74c5.76-4,12-7.31,16.89-12.44,13.23-13.78,19.29-29.68,13.61-48.62-4.53-15-18-24.35-33.72-23.86a19.61,19.61,0,0,0-10.18,3.34,54.94,54.94,0,0,1-7.67,3.93c-13.26,5-20.57,15.58-26.23,27.7-1.91,4.08-2.86,8.54-4.69,12.68-3.44,4.83-5.6,9.7-2.78,15.83,1.58,3.42,1.83,7.25-2.65,9.32-.36-.14-1-.26-1-.44-.45-5.18-1.8-10.23-1.57-15.54a59,59,0,0,1,3.41-17.86c3.21-8.86,5.86-13.56,10.53-19.22,1.65-2,3.27-4,4.79-6.1.29-.4,0-1.21,0-1.83,1.37-1.16,2.81-2.24,4.09-3.49,7.5-7.32,16.47-12,26.35-15.29,3.07-1,6.35-.36,9.16-1.65C313,108.29,316,109.39,319,109Z" fill="#bbb"/><path d="M254.25,191.1c-1.05-2.92,1.73-5.28,1.16-8.28l-2.24-.78v-9.69l2.6-1.83L254,167l2.59-1.28c-.43-2.21-.87-4.42-1.35-6.86H258V165c3.36,3.75,1.31,8.75,3,12.89,1.48,18.19,17.77,29.59,36.16,27.9,5.09-.47,10.5-2.83,15.63.29H315c0,.7.15,2,0,2-2.86.74-3,3.77-4.72,5.44-.22,2.08-1.92.8-2.84,1.27-7.43,3.75-15.56,3.16-23.17,2.16a33.46,33.46,0,0,1-19-9.31c-2.52-2.49-4.82-5.2-7.23-7.81C257,196.8,254.24,194.54,254.25,191.1Z" fill="#cfcfcf"/><path d="M289.1,122.64c6.7-3.1,13.34-6.42,21-6.23,2.39.06,13.48,2.92,15.86,3.69,6,2,10.4,6.14,14.06,10.8a41.31,41.31,0,0,1,6.1,12.31,31,31,0,0,1,1.38,6.25c.33,2.86.88,6.1-.11,8.61-1.39,3.52-.37,7.13-1.56,10.53a86.27,86.27,0,0,1-6.94,14.51c-4.8,8.32-16.46,18.66-25.54,21.68a2.14,2.14,0,0,1-.62,0c-3.21,1-6.36,1.87-7.63-2.67-.05-3.24,2.77-3.82,4.82-5,8.39-4.74,16.25-10.41,20.89-18.88,5.79-10.56,9.84-21.78,6.29-34.33a28.58,28.58,0,0,0-15.19-18.43c-6.67-5.7-14.43-3.36-21.85-2.8a24.16,24.16,0,0,0-7.08,1.78C291.26,125.2,289.31,125.54,289.1,122.64Z" fill="#2e2e2e"/><path d="M289.1,122.64l.58,1.41c3-1.15,5.77-3.07,9.16-3.1,1.13,0,2.25-.73,3.39-.76,4.14-.1,8.3-.21,12.43,0,3.44.18,6.76,1,9.29,3.68-1,3.67-3.92,3.36-6.54,2.8-6.67-1.41-13.12-.17-19.54,1.33-8,1.87-14,6.52-18.86,13.09-3.66,4.92-8.53,8.74-10.64,15a39.51,39.51,0,0,0-.25,26.09c.58,1.72,1.77,3.42,0,5.14-6.39-.63-7.06-2.58-7-20.38-.05,2.18.08,4.37-.1,6.55-.82,1.64.23,3.92-1.77,5.15-.42-.52-1.18-1-1.19-1.55-.1-4.05-.06-8.1-.06-12.15.35-.14,1-.29,1-.43-.2-6.92,3.09-12.67,6.12-18.51,4.54-8.77,10.76-16,19.46-20.89C286.07,124.29,286.78,122,289.1,122.64Z" fill="#747474"/><path d="M259.23,178.66a22.8,22.8,0,0,1,0-3.51c.09-.54.78-1,1.19-1.47,1.46,2.75,1.25,6.06,2.86,8.73,6.31,10.43,21.17,21.43,37.23,17.58,2.31-.55,4.35-1.45,6,1.07.36,1.2.73,2.4,1.14,3.74h5.08V206c-1,0-2.3-.39-3.06.06-7.38,4.37-15.45,1.69-23.18,2.43C275,205.66,264,197.79,260.35,185A21.68,21.68,0,0,1,259.23,178.66Z" fill="#505050"/><path d="M306.53,201.06c-3.75.42-7.51.76-11.25,1.28-1.31.19-2.83,1.48-3.78,1.1-4.69-1.89-10.05-1.33-14.48-3.92a32.48,32.48,0,0,1-12.53-12.65c-2.15-4-4.56-8.23-4-13.19,0-1.66,0-3.31,0-5-.05-4.19-.28-8.41,2.22-13.27.12,2.57.5,4.31.22,5.93-1.58,9.16-1.78,10.72.12,18.19a16,16,0,0,0,5.3,8.69,20.35,20.35,0,0,0-.9-3.23c-2.23-4-3.69-8.23-3.25-12.94a37,37,0,0,0,0-4.34c-.17-10.62,4-19.44,11.16-27a23.07,23.07,0,0,0,4.15-5.08c1-1.91,3.49-3.14,5.46-4.46,5.87-3.92,12.14-6.82,19.32-7.29a8.44,8.44,0,0,0,3.44-.66,3.46,3.46,0,0,1,3.87.06c2.41,1.35,5.39.25,8,1.71,1,.53,2.88-.68,4.36-1.09,7.35,3.26,11.21,9.67,14.45,16.46,1.14,2.38,1.38,5.26,1.68,8,.27,2.45-.13,5,.09,7.42.49,5.32-2.11,9.81-3.46,14.67-2.59,9.38-9,15.84-15.94,21.83A53.18,53.18,0,0,1,306.53,201.06Z" fill="#b3b3b3"/><path d="M309,194.84c-.59.79-1.07,2.16-1.78,2.29-9,1.67-18.09,3.38-26.45-2.31a42.66,42.66,0,0,1-4.69-3.68c-2-1.81-3.81-3.78-5.45-5.41-.68-4.79-4.09-8.39-4-13.06.12-4.42.05-8.78,1.14-13.19a54.34,54.34,0,0,1,5.07-12.21,26,26,0,0,1,8.74-9.69c4.17-.56,6.34,2.08,7.95,5,8.92,2.84,9.23,3.23,8.81,10.67,16.72-3.11,22.52-1.33,24.47,7.52,2.35,10.73-4,19.85-16.56,23.69C305.6,188.35,310.26,190.85,309,194.84Z" fill="#6d6d6d"/><path d="M309,194.84l-5-4.15c.33-5-3.71-7.21-5.65-10.95l3.21,1.42,2.35-1.3c3.58,2.61,6.79.62,9.46-1.41,3-2.25,5.87-4.92,6.31-9.22.92-6.12,1.33-12.43-7.1-15.42h-6.83l-1.84,2.24h-3.74l-8.52,6.52A29.87,29.87,0,0,1,297,148.11l-3.52-1.48a10.14,10.14,0,0,1-2.49.86,20.85,20.85,0,0,1-3.71,0c-1.85-2.38-1.85-2.38-1.9-6.9l-3.73-3.06c2.9-3.81,2.91-3.79,8.76-6.91,2.53-1.34,4.82-3.41,7.66-3.81,4.29-.6,8.54-2.73,12.87-1.62s9.05,1.74,13,4.27c.1.06,0,.4,0,.6,9.54,6.14,11.27,16.25,12.92,26.2.46,2.79-1.84,5.61-1.71,8.65,0,1,.37,2.27-.06,3.07-3.55,6.5-6.48,13.51-12.24,18.44C318.76,190,314.73,193.88,309,194.84Z" fill="#555"/><path d="M335.16,165c-.47-1.87-.94-3.74-1.43-5.71l2.41-.85c1-2.67-1.05-4.34-1.87-6.41-.56-3.72-1.13-7.44-1.68-11.09L324,130.11h1.93c1.95,2.43,4.3,4.49,6.13,7.21a32.13,32.13,0,0,1,5.5,20.43C337.38,160.15,337,162.93,335.16,165Z" fill="#747474"/><path d="M302.85,163.19v-4l4.11-2.73c1.74-.6,4.5,0,6.78,1.4l-1.22,3.09,3.74.54.27,1.62-2.4,1.11c.41.61.81,1.23,1.44,2.18-.8.84-1.58,1.67-2.53,2.69Z" fill="#555"/><path d="M305.66,168.36c1.49,2,4,3.14,4.91,6.31l-3.39.34L304,171.8c.12-1.23.22-2.19.32-3.14Z" fill="#555"/></svg>