<svg id="Layer_1" data-name="Layer 1" xmlns="http://www.w3.org/2000/svg" viewBox="0 0 775.04 524.56"><path d="M717.74,424.57q34.38,19.65,68.75,39.34c.31.18.4.75.6,1.14-2.61,1.26-5.3,2.38-7.81,3.82q-40.12,23.11-80.2,46.32Q589.16,578.53,479.23,641.85c-10.23,5.89-20.49,11.74-30.65,17.55L425.2,646.64l1.41-8a19.57,19.57,0,0,1,7.32,6.56c2.05,0,4.58.69,6.07-.24,5.83-3.67,11.33-7.87,16.95-11.87l2.6.64q-1.76-4.47-3.52-8.93c-2.89-2.13-5.63-4.52-8.7-6.35-5.43-3.24-11.18-5.94-16.55-9.26-3-1.87-5.58-4.51-8.81-7.18l-23.72,15-2.39,3.79c-.47,2.32-.95,4.63-1.42,6.95l-12.56-6.61c2.27-1.76,4.37-3.82,6.83-5.24,18.52-10.72,37.11-21.29,55.66-32,8-4.62,16-9.35,24-14V521.59c2,.87,4,1.64,6,2.63,6.05,3.1,12.07,6.28,18.1,9.42q-.21,13.51-.4,27l-7.72,4.66c-.68,3.53-1.35,7.07-2.05,10.74l22.1,12.57L728,459.71l-2.8-10.63-7.54-4.14Q717.67,434.76,717.74,424.57Z" transform="translate(-12.42 -140.64)" fill="#989897"/><path d="M400,164.2c6.47-4.17,12.87-8.48,19.46-12.48,6.28-3.81,12.75-7.3,19.41-11.08,15.73,9,31.23,17.92,46.71,26.84L685,282.46c1.34.78,2.59,1.72,3.88,2.59-9.12,5.71-18.18,11.53-27.4,17.05-3.15,1.88-6.73,3-10.12,4.51C637.28,299,623,291.76,609.1,283.83c-30.24-17.23-60.29-34.82-90.44-52.22q-42.33-24.42-84.73-48.72C422.72,176.49,411.32,170.42,400,164.2Z" transform="translate(-12.42 -140.64)" fill="#6f6f91"/><path d="M266.81,239.5l36.3-20.64L319.64,228c.44-1.41.74-2.39,1.05-3.36.72,1.81,1.45,3.62,2.18,5.47q45.81,26.43,91.67,52.89c39.69,22.83,79.46,45.53,119.11,68.45,6.7,3.86,13,8.49,19.41,12.77l-36.43,21.83q-37.74-21.63-75.48-43.28Q357,294.33,273,245.71C270.54,244.3,268.85,241.6,266.81,239.5Z" transform="translate(-12.42 -140.64)" fill="#6f6f91"/><path d="M684.7,363.1c8.3,4.81,16.63,9.56,24.85,14.49,1.76,1.05,3.12,2.77,4.66,4.18a23.29,23.29,0,0,0-4.36,1.47q-46.82,27.11-93.58,54.3L607.88,434l-7.73,4.41-9-1.05c.13,2.69.22,4.5.31,6.19-10,5.76-19.56,11.38-29.22,16.85-13.32,7.54-26.7,15-40,22.45l-2.61-4.17a33,33,0,0,0-4-3.3C503,468,490.42,460.81,477.84,453.55Q423.27,422,368.7,390.47q-52-30-104-59.81-17.08-9.81-34.18-19.58c-4.74.31-8,8.44-13.82,2,10.5-6,20.46-11.85,30.56-17.43,5.77-3.18,11.78-5.93,17.69-8.87,1.65.47,3.64,1.76,4.9,1.25,3.64-1.46,7-3.65,10.46-5.56l2.6,4-16.31,11.18c-.81,1-2.27,2-2.33,3-.27,4.19-.12,8.42-.12,12.67,2.33,1.42,4.19,2.62,6.11,3.72q73,42.09,146,84.14,48.85,28.11,97.81,56l3,.23.14,0a20.15,20.15,0,0,0,3.74-1.3q72.2-41.55,144.37-83.12C671.53,369.36,678.2,366.37,684.7,363.1Z" transform="translate(-12.42 -140.64)" fill="#43484e"/><path d="M684.7,363.1c-6.5,3.27-13.17,6.26-19.47,9.87Q593,414.45,520.86,456.09a20.15,20.15,0,0,1-3.74,1.3q-.18-7.62-.37-15.23l18-11.15-2.06-3.37q-7.41-11.43-14.8-22.86l5.63-7.86,5.15,3.88,16.5,24.44c3.19-1.77,5.94-2.81,8-4.62s3.39-4.26,5-6.45l-12.67-39.4-27.7,16.34-1.35-.15.06-4.9,36.43-21.83c1.28,1.84,3.06,3.51,3.77,5.55,3.25,9.35,6.21,18.81,9.28,28.23q1.49,6.18,3,12.37l2.55.91,6.8-7.87-9-48.42,7.89-4.41c1.29,2.8,3.09,5.48,3.78,8.42,2.27,9.82,4.15,19.73,6.18,29.6.4,3.45.81,6.89,1.5,12.67l9.52-8.51q.21-27,.41-53.93l9.46-4q.13,22.23.25,44.45c0,2.62,0,5.24,0,7.86l.43,1c.34-.17.67-.35,1-.53l7.74-5.76,9.63-60.44,8-4.27c.19,3.19.88,6.45.46,9.56-1.86,13.9-4,27.76-6.12,41.63-.42,2.56-.85,5.12-1.27,7.68l1.8.83,6.84-5.59c1.88-7.26,4-14.47,5.58-21.8,3.11-14.24,5.94-28.55,8.88-42.83,3.39-1.48,7-2.63,10.12-4.51,9.22-5.52,18.28-11.34,27.4-17.05.61,1.87,1.23,3.75,1.81,5.49l-8.84,6.79c-6.06,3.24-12.17,6.4-18.13,9.81a6.33,6.33,0,0,0-2.81,3.55c-3.38,13.82-6.58,27.69-9.82,41.54l-3.78,12.71,1.95,1.35,12.55-9.92c5.67-14.44,11.5-28.81,16.92-43.34,1.92-5.14,5.24-7.88,10.39-8.85-2.67,7.7-5.39,15.38-8,23.11-.82,2.47-1.23,5.08-1.83,7.63L672,349.69l1.63,1.21,16.26-8.26c.25,5,.5,10,.74,14.73Z" transform="translate(-12.42 -140.64)" fill="#9090a8"/><path d="M608.44,379.26q-.12-22.22-.25-44.45c-4.22-3-8.24-6.38-12.71-9-31.11-18-62.34-35.77-93.49-53.69q-50.78-29.24-101.45-58.64c-9.39-5.47-18.47-11.47-27.7-17.22q1.46-8.67,2.9-17.34c8.17,4,16.58,7.5,24.47,12,25.06,14.18,49.92,28.71,74.87,43.09q42.07,24.24,84.15,48.45,34,19.51,68,38.93l-9.63,60.44Z" transform="translate(-12.42 -140.64)" fill="#54546d"/><path d="M598.73,338.84q-.19,27-.41,53.93l-11-4.16c-2-9.87-3.91-19.78-6.18-29.6-.69-2.94-2.49-5.62-3.78-8.42-1-1.07-1.88-2.44-3.11-3.16-11.93-7-23.94-13.79-35.91-20.7q-77.87-45-155.69-90c-12.09-7-23.8-14.73-35.68-22.13q.14-9.81.26-19.63c6.66,3.56,13.4,7,20,10.69q40.19,22.8,80.27,45.76,47.06,27,94,54.06C560.6,316.55,579.65,327.73,598.73,338.84Z" transform="translate(-12.42 -140.64)" fill="#54546d"/><path d="M99.29,346.86c7.75-3.76,15.59-7.36,23.24-11.34,7.49-3.89,14.95-7.91,22.11-12.36,5.75-3.57,11.19-3.69,17-.52L186,337.75l14.5,8.21,1.57,1.15,3.94,2.27L219.66,359q-11.91,6.81-23.82,13.61Q172,386.17,148.12,399.7L139.39,395l-31.88-17.22-15.28-9.42-13.47-8.79Zm40.78,24.59-6.35,3.77,12.12,6.83,3.88-3,19.77-10.21-1.57-2.75-18.27,11-6.61-2c1.45-1.63,2.66-3.63,4.41-4.82,3.84-2.6,8-4.8,12-7.16L158,360.68Zm-14.56-5.84,19.63-10.83-1.47-2.58-18.12,10.93-6.49-1.55c1.26-1.69,2.21-3.81,3.85-5,3.93-2.81,8.19-5.17,12.32-7.71l-1.33-2.19-17.79,10.74-6.57,3.75,11.85,6.86Z" transform="translate(-12.42 -140.64)" fill="#e6e7e7"/><path d="M569.45,355l9,48.42L566.11,398c-3.07-9.42-6-18.88-9.28-28.23-.71-2-2.49-3.71-3.77-5.55-6.46-4.28-12.71-8.91-19.41-12.77C494,328.54,454.23,305.84,414.54,283q-45.89-26.38-91.67-52.89c-.73-1.85-1.46-3.66-2.18-5.47q-1.2-6-2.39-12c2.88,1.07,6,1.77,8.61,3.26q42.16,23.88,84.2,48c28.05,16.11,56,32.37,84,48.51Q532.27,333.76,569.45,355Z" transform="translate(-12.42 -140.64)" fill="#54546d"/><path d="M629.55,368.32c2.07-13.87,4.26-27.73,6.12-41.63.42-3.11-.27-6.37-.46-9.56-7.89-5.2-15.56-10.78-23.72-15.52-31-18-62.27-35.75-93.38-53.65q-51-29.37-101.92-58.91c-6.59-3.84-12.71-8.48-19.05-12.75q1.44-6.06,2.87-12.1c11.31,6.22,22.71,12.29,33.92,18.69q42.44,24.24,84.73,48.72c30.15,17.4,60.2,35,90.44,52.22,13.91,7.93,28.18,15.2,42.28,22.78-2.94,14.28-5.77,28.59-8.88,42.83-1.6,7.33-3.7,14.54-5.58,21.8Z" transform="translate(-12.42 -140.64)" fill="#54546d"/><path d="M684.63,403.45l17.71,11.71q-1.27,12.73-2.54,25.48l-4,.27c-.06-5.08.12-10.18-.31-15.23-.17-2.09-1.65-4.07-2.54-6.1-.91,1.38-2.27,2.67-2.62,4.19a51.76,51.76,0,0,0-.64,7.72,3.7,3.7,0,0,0-.82.9q-.35,7.68-.67,15.36l-4.37.08q-.92-10.31-1.82-20.61c-3.84-3.16-3.75.28-3.8,2.47-.18,7.79-.12,15.59-.16,23.39l-3.94,0q-.68-10.38-1.34-20.76c-1.36.84-3.72,1.5-3.9,2.55-.56,3.19-.28,6.53-.32,9.82l-.13.19c-.79,1.51-2.1,3-2.27,4.53-.36,3.41-.15,6.89-.17,10.34l-3.93.05q-.69-10.32-1.39-20.64c-1.34.75-3.71,1.36-3.84,2.29-1.23,8.33-2.06,16.73-3,25.1l-3.7,1.29-1.47-21.81-1.5-.05-.27,0c-.8,1.8-2.22,3.57-2.3,5.39-.3,7.27-.17,14.56-.2,21.84h-3.87l-1.41-21.74-4.39-1v28.11l-4.5-.11c-.1-2.39-.13-4.78-.34-7.16-.43-4.84-1-9.68-1.45-14.52-1,.95-2.64,1.81-2.79,2.87-1.15,8.55-2,17.13-3,25.7l-4.36,0q-.32-10.41-.65-20.81l-4.71-.44v26.62l-4.4-.17V469.4l-4.37.63q-.78,5.69-1.54,11.36l-1.09,1.91q-.3,7.11-.59,14.22l-4.31,1.18q-.23-9.27-.45-18.54c-.07-2.67-.27-5.21-4.07-3.35l-1.41,26L586.86,504c-.06-5.46-.06-10.93-.22-16.39-.08-2.52.33-5.83-4.12-4.22q-.64,5.61-1.28,11.22h0c-.84,1.49-2.22,2.92-2.41,4.49a99.78,99.78,0,0,0-.24,10.39l-3.65,1.32q-.81-10.85-1.61-21.7l-1.48,0-.21-.05c-.8,1.77-2.23,3.52-2.3,5.32-.28,7.23-.13,14.47-.14,21.71l-4,.07c-.05-5.51.11-11-.26-16.52-.12-1.79-1.62-3.49-2.49-5.23-.88.83-2.42,1.58-2.53,2.5-1.1,8.63-2,17.28-2.87,25.93q-1.3-14.82-2.6-29.65c0-.39,0-.78-.09-1.18L593.45,470V459.67c4.4-2.84,8.93-5.5,13.16-8.57,3.94-2.86,7.56-6.16,11.32-9.26Z" transform="translate(-12.42 -140.64)" fill="#989897"/><path d="M397.14,176.3c6.34,4.27,12.46,8.91,19.05,12.75Q467.06,218.68,518.11,248c31.11,17.9,62.34,35.62,93.38,53.65,8.16,4.74,15.83,10.32,23.72,15.52l-8,4.27q-34-19.45-68-38.93Q517.14,258.29,475.08,234c-24.95-14.38-49.81-28.91-74.87-43.09-7.89-4.47-16.3-8-24.47-12l8.25-7.42Z" transform="translate(-12.42 -140.64)" fill="#6f6f91"/><path d="M598.73,338.84c-19.08-11.11-38.13-22.29-57.26-33.33q-47-27.12-94-54.06-40.08-23-80.27-45.76c-6.57-3.72-13.31-7.13-20-10.69l8.14-6.93,17.49,8.23c9.23,5.75,18.31,11.75,27.7,17.22Q451.18,243,502,272.16c31.15,17.92,62.38,35.7,93.49,53.69,4.47,2.58,8.49,6,12.71,9Z" transform="translate(-12.42 -140.64)" fill="#6f6f91"/><path d="M569.45,355q-37.16-21.3-74.31-42.62c-28-16.14-56-32.4-84-48.51s-56.09-32.05-84.2-48c-2.64-1.49-5.73-2.19-8.61-3.26l7.53-8L347,214.63c11.88,7.4,23.59,15.1,35.68,22.13q77.76,45.15,155.69,90c12,6.91,24,13.74,35.91,20.7,1.23.72,2.08,2.09,3.11,3.16Z" transform="translate(-12.42 -140.64)" fill="#6f6f91"/><path d="M516.57,391l1.35.15,5.64,5.81-5.63,7.86c-11.6-7-23.1-14.26-34.83-21.09q-49.69-28.95-99.54-57.62-51.92-29.82-104-59.28c-3.55-2-7.67-3-11.53-4.53l-1.37-.06c-.52-1.39-1-2.79-1.67-4.5l7.45-4.61a29.51,29.51,0,0,1,5.51,1.86q38.76,22,77.44,44.19,65.4,37.58,130.74,75.25C496.14,380.14,506.41,385.45,516.57,391Z" transform="translate(-12.42 -140.64)" fill="#6f6f91"/><path d="M381.88,621.16l12.56,6.61-.05,0,2.1,1.41,5.08,5.37,23.63,12.14,23.38,12.76c10.16-5.81,20.42-11.66,30.65-17.55q109.93-63.32,219.85-126.66,40.13-23.13,80.2-46.32c2.51-1.44,5.2-2.56,7.81-3.82.12,1.31.25,2.63.37,3.95l-.6,1.33q-80.21,46.31-160.4,92.6-81.39,47-162.82,93.82c-5,2.86-10,5.56-15.26,8.45q-35.55-20.46-71-40.89a9.22,9.22,0,0,1-1.79-1.93l.4.29.44-.22Z" transform="translate(-12.42 -140.64)" fill="#3f5717"/><path d="M289,572.72l-.41.22-.38-.27q-.57-10.23-1.15-20.47.49-2.61,1-5.23l.27-2.31q-.1-6.12-.23-12.24,0-10,.05-20V507.1a4,4,0,0,0,.23-1c2.93-1.6,5.88-3.15,8.78-4.8q31.79-18.21,63.56-36.45.42,10.56.85,21.11l-51.06,30-.65.1c-.59,2.47-1.63,4.92-1.68,7.4-.29,13.11-.32,26.22-.43,39.33l-13,8.45Z" transform="translate(-12.42 -140.64)" fill="#676767"/><path d="M99.29,346.86,78.76,359.51q-.09,7.85-.19,15.71l1.6,9.5q0,19.17,0,38.36l-.27,3L62,436.75l-6.61,1.74v.07l.27-55.3,10.56-5.73c-3.58-2-5.59-2.91-7.42-4.12C53.69,370,48.63,366.48,43.54,363c12.28-7.19,24.5-14.49,36.87-21.52C86.18,338.2,93.33,340.45,99.29,346.86Z" transform="translate(-12.42 -140.64)" fill="#39394a"/><path d="M55.68,383.26l-.27,55.3Q36.66,427.76,17.92,417l-.7-10.77q.26-21.48.49-43A68.3,68.3,0,0,1,24.3,366C34.79,371.67,45.22,377.48,55.68,383.26Z" transform="translate(-12.42 -140.64)" fill="#43484e"/><path d="M307.75,562.75c.12-13.11.15-26.22.44-39.33.05-2.48,1.09-4.93,1.68-7.4a5.27,5.27,0,0,1-.11,1.05,24.21,24.21,0,0,0,3.39,3C325.6,527.42,338,534.92,350.6,542c8.68,4.84,17.73,9,26.61,13.5-.47,4.34-1.35,8.68-1.34,13,.05,18,.37,36,.59,54l-.44.22-.4-.29c-6.69-3.4-13.51-6.57-20-10.25-14.94-8.41-29.76-17-44.56-25.7-1.15-.67-1.79-2.19-2.66-3.32-.1-1.14-.19-2.28-.29-3.42Zm51.72-3.23-14.79-9.72-31.95-18.44c0,12.95-.07,24.09.1,35.22,0,1.15,1.48,2.27,2.28,3.4l12.38,8.08c.06,3.52.13,7,.19,10.55l27.78,18.11c1.11-4.71,1.9-8,2.68-11.37l11.92,7.78V588.66q0-11.35,0-22.71Z" transform="translate(-12.42 -140.64)" fill="#b2b2c3"/><path d="M516.57,391c-10.16-5.51-20.43-10.82-30.46-16.57q-65.43-37.53-130.74-75.25Q316.72,276.92,277.93,255a29.51,29.51,0,0,0-5.51-1.86l-7.93-9.33,2.32-4.26c2,2.1,3.73,4.8,6.16,6.21q84,48.66,168.18,97.07,37.69,21.71,75.48,43.28Z" transform="translate(-12.42 -140.64)" fill="#b2b2c3"/><path d="M266.64,262.2l1.37.06,4.34,8c-20.45,11.64-41,23.18-61.33,35-8,4.63-15.72,9.79-23.57,14.71q-.7,8.89-1.42,17.78l-24.44-15.11Z" transform="translate(-12.42 -140.64)" fill="#989897"/><path d="M651.11,352.23c3.24-13.85,6.44-27.72,9.82-41.54a6.33,6.33,0,0,1,2.81-3.55c6-3.41,12.07-6.57,18.13-9.81l7.27,6.85c-5.15,1-8.47,3.71-10.39,8.85-5.42,14.53-11.25,28.9-16.92,43.34Z" transform="translate(-12.42 -140.64)" fill="#54546d"/><path d="M216.21,531.11l-51.72-30.28,11-7.44c5.14,2.29,10.3,4.55,15.42,6.87,6.73,3.06,13.44,6.17,20.15,9.26l4.57.11q.74,10.74,1.49,21.48l-.44.36Z" transform="translate(-12.42 -140.64)" fill="#989897"/><path d="M287.06,552.2q.57,10.23,1.15,20.47-23.54-13.29-47.07-26.59c-2.29-1.3-4.47-2.8-6.7-4.2l1.34-.58,13-6.41c6.25,3.23,12.45,6.54,18.75,9.67,5.44,2.71,11,5.21,16.48,7.8Z" transform="translate(-12.42 -140.64)" fill="#989897"/><path d="M55.4,438.49,62,436.76l16.47,9.68,9.39,5.47,4,2.41L147,485.65l2.7,2.15,12.37,6.95v5.07Q122,476.93,81.88,454C73,448.94,64.23,443.67,55.4,438.49Z" transform="translate(-12.42 -140.64)" fill="#3f5717"/><path d="M684.63,403.45l-66.7,38.39a1.81,1.81,0,0,0-.23-.91l-.24-1.33-1.18-1.47v-.59q46.79-27.17,93.58-54.3a23.29,23.29,0,0,1,4.36-1.47c-1,2.12-1.37,5.17-3,6.21C702.51,393.42,693.51,398.35,684.63,403.45Z" transform="translate(-12.42 -140.64)" fill="#be9e19"/><path d="M55.68,383.26C45.22,377.48,34.79,371.67,24.3,366a68.3,68.3,0,0,0-6.59-2.76c2.78-2.7,5.55-5.41,7.75-7.56L43.54,363c5.09,3.48,10.15,7,15.28,10.41,1.83,1.21,3.84,2.15,7.42,4.12Z" transform="translate(-12.42 -140.64)" fill="#676767"/><path d="M162.05,499.82c0-1.69,0-3.38,0-5.07q.39-7.92.79-15.83l2-4.59,6.64,4.09-4.08,4.31a48.26,48.26,0,0,0,3.29,5.74,52.91,52.91,0,0,0,4.79,4.92l-11,7.44Z" transform="translate(-12.42 -140.64)" fill="#43484e"/><path d="M699.8,440.64q1.28-12.74,2.54-25.48l2.64-4.78,2.62,3.76c-.86,1.6-2.37,3.17-2.47,4.82-.78,12.61-1.28,25.24-1.86,37.86-1.12-1.83-2.9-3.56-3.21-5.52C699.51,447.82,699.84,444.2,699.8,440.64Z" transform="translate(-12.42 -140.64)" fill="#e2ce79"/><path d="M689.85,342.64l-16.26,8.26L672,349.69l7.38-14.77Z" transform="translate(-12.42 -140.64)" fill="#43484e"/><path d="M703.26,456.82c.59-12.62,1.09-25.25,1.87-37.86.1-1.65,1.61-3.22,2.47-4.82l.36,4.65-.06,21.89c-.93,4.36-1.77,8.74-2.82,13.08A12.12,12.12,0,0,1,703.26,456.82Z" transform="translate(-12.42 -140.64)" fill="#be9e19"/><path d="M707.9,440.67l.06-21.88,4.67,2.09q-.18,10.81-.37,21.64Z" transform="translate(-12.42 -140.64)" fill="#989897"/><path d="M235.78,541.29l-1.34.59-18.23-10.77.44.36.43-.36,5.15-1.61,13.58,5.83Z" transform="translate(-12.42 -140.64)" fill="#3f5717"/><path d="M308.07,579.69c.1,1.14.19,2.28.29,3.42L289,572.72l5.78-1.52Z" transform="translate(-12.42 -140.64)" fill="#3f5717"/><path d="M717.74,424.57q-.06,10.19-.14,20.37l-2.86,4.4c0-2.64-.06-5.28-.18-7.91-.32-7.37-.7-14.74-1.06-22.11,1.2.06,3.23-.24,3.43.23A20,20,0,0,1,717.74,424.57Z" transform="translate(-12.42 -140.64)" fill="#be9e19"/><path d="M17.22,406.18l.7,10.77-4.69-2.2C11,409.62,13.9,407.8,17.22,406.18Z" transform="translate(-12.42 -140.64)" fill="#676767"/><path d="M713.5,419.32c.36,7.37.74,14.74,1.06,22.11.12,2.63.13,5.27.18,7.91q-1.25-3.42-2.48-6.82.18-10.81.37-21.64Z" transform="translate(-12.42 -140.64)" fill="#e2ce79"/><path d="M786.86,470.33l.6-1.33Z" transform="translate(-12.42 -140.64)" fill="#989897"/><path d="M219.66,359l-13.61-9.62q.06-12,.13-24a25.43,25.43,0,0,1,4.37,1.55Q250,349.64,289.41,372.4L454.6,467.73c13.5,7.79,27,15.62,40.21,23.29-.14,2.14-.23,3.61-.3,4.72l11.7,8.46q0,10,0,20l-.33,1.34q-2.14,9.45-4.3,18.91l-4.35-.12c-.09-3.15-.19-6.29-.28-9.43a3.62,3.62,0,0,0,.32-.34,7.65,7.65,0,0,0-.55-.6l-2.63-.47-1.66.16c-6-3.14-12-6.32-18.09-9.42-1.93-1-4-1.76-6-2.63q-.74-8.79-1.45-17.57a16.28,16.28,0,0,0-2.82-2.7q-21.72-12.65-43.52-25.14c-6.92-4-13.87-7.9-20.28-11.55l-14,7.22c-2.45-.91-5.08-1.5-7.33-2.77-16.28-9.25-32.48-18.62-48.7-28-25.11-14.47-50.16-29-75.32-43.39-11.19-6.4-22.61-12.4-33.92-18.59Q220.32,369.07,219.66,359Z" transform="translate(-12.42 -140.64)" fill="#92aaa5"/><path d="M466.91,504q.72,8.78,1.45,17.57V570c-8,4.65-15.95,9.38-24,14-18.55,10.67-37.14,21.24-55.66,32-2.46,1.42-4.56,3.48-6.83,5.24l-5.42,1.29c-.22-18-.54-36-.59-54,0-4.34.87-8.68,1.34-13Z" transform="translate(-12.42 -140.64)" fill="#676767"/><path d="M506.2,524.19q0-10,0-20l32.4-19.31c.88,2.68,1.41,4.32,1.95,5.95l.6,3.12-.25.5c0,1-.1,2.07-.14,3.11v6.37l-.82,1.83c-4.8,14.45-5.29,29.3-4.12,44.29,0,.52,1.6.92,2.45,1.38.86-1.08,2.35-2.08,2.48-3.24.8-6.69,1.28-13.41,1.87-20.12l5,.75a94.25,94.25,0,0,0,.12,10.67c.21,1.76,1.66,3.38,2.54,5.06.87-.81,2.53-1.65,2.5-2.43-.53-13.63-1.26-27.26-1.95-40.89l-.93-6.17,4.57-1.8q1.31,14.82,2.6,29.65c0,3.71-.18,7.43.21,11.1.18,1.73,1.53,3.33,2.36,5,.91-.73,2.5-1.35,2.64-2.21,1.13-6.83,2-13.71,2.94-20.57l4-.07c0,2.66-.27,5.37.17,8a59.64,59.64,0,0,0,2.5,8c.92-2,2.44-3.9,2.63-6,.47-5.07.33-10.21.44-15.32l3.65-1.32A69.72,69.72,0,0,0,579,518a83.06,83.06,0,0,0,2.34,8.68c.9-.71,2.44-1.32,2.58-2.16,1.14-6.8,2-13.64,3-20.47l3.82-1.22a111.17,111.17,0,0,0,.42,11.27c.23,1.78,1.68,3.4,2.58,5.09.86-1.73,2.31-3.41,2.47-5.2.44-5.07.35-10.18.46-15.28l4.31-1.18,2.13,16.21c.88-.79,2.39-1.47,2.54-2.38,1.12-6.89,2-13.83,2.92-20.75l4.4.17a108.23,108.23,0,0,0,.45,11.12c.23,1.74,1.66,3.33,2.55,5,.66-1.89,1.77-3.75,1.91-5.68.37-5.25.33-10.52.45-15.79l4.36,0a63.32,63.32,0,0,0,.26,8.62c.4,2.48,1.57,4.83,2.4,7.24,1-1.12,2.62-2.15,2.79-3.38.91-6.43,1.45-12.91,2.11-19.37l4.5.11c.07,3.92-.09,7.87.34,11.75.14,1.31,1.8,2.44,2.76,3.66.84-1.83,2.27-3.62,2.41-5.5.39-5.08.23-10.19.29-15.29h3.87a80,80,0,0,0,.18,10c.25,1.76,1.74,3.36,2.67,5,.88-1.73,2.36-3.42,2.51-5.21.42-5.06.29-10.17.38-15.26l3.7-1.29a109,109,0,0,0,.34,11.31c.22,1.76,1.73,3.36,2.65,5,.81-.62,2.2-1.16,2.32-1.9,1.1-7,2-14.12,2.93-21.19l3.93-.05c0,4-.13,8,.28,12,.15,1.52,1.68,2.9,2.58,4.34.84-.83,2.29-1.57,2.44-2.52,1.09-6.8,1.92-13.63,2.83-20.45l3.94,0a62.17,62.17,0,0,0,.33,8.43,58,58,0,0,0,2.36,7.79c.95-1.65,2.57-3.25,2.7-5,.43-5.48.3-11,.39-16.51l4.37-.08,2.07,16c.89-.76,2.43-1.41,2.58-2.29,1.14-6.83,2-13.71,2.95-20.57l4-.27c0,3.56-.29,7.18.26,10.66.31,2,2.09,3.69,3.21,5.52a12.38,12.38,0,0,0,1.81-3.06c1-4.34,1.89-8.72,2.82-13.08l4.36,1.84q1.23,3.41,2.48,6.82l2.86-4.4,7.55,4.14a17.42,17.42,0,0,1-2.88,2.64q-44.91,25.92-89.87,51.74-46.95,27.07-93.86,54.2c-11.38,6.56-22.85,13-34.73,19.69l-19.5-12,7.72-4.66c.29,1.5.57,3,.86,4.48l1.18-.18.21-.12c.91-2.83,1.81-5.66,2.72-8.49l1-1.1,3.59,0a85.79,85.79,0,0,0,.28,10c.28,2.06,1.58,4,2.43,6,1.17-4.28,3.2-8.54,3.34-12.85.35-11-.15-21.92-.3-32.88Zm10.39,40.22c.88-1.81,2.47-3.6,2.5-5.43q.33-16.63-.06-33.28c0-1.8-1.74-3.55-2.67-5.33-.83,1.45-2.36,2.89-2.39,4.35q-.29,18,0,35.9C514,561.9,515.69,563.15,516.59,564.41Zm9.58-48.75-.53,10c-.57.67-1.64,1.33-1.65,2-.2,9.56-.31,19.12-.22,28.68,0,.91,1.49,1.81,3.51,4.08,3.73-16.3,3.51-31.23,2.73-47.86Z" transform="translate(-12.42 -140.64)" fill="#676767"/><path d="M484.31,565.33l19.5,12c11.88-6.73,23.35-13.13,34.73-19.69q47-27,93.86-54.2,44.93-25.89,89.87-51.74a17.42,17.42,0,0,0,2.88-2.64l2.8,10.63L504.36,588.64l-22.1-12.57C483,572.4,483.63,568.86,484.31,565.33Z" transform="translate(-12.42 -140.64)" fill="#39394a"/><path d="M398.25,617,422,602c3.23,2.67,5.78,5.31,8.81,7.18,5.37,3.32,11.12,6,16.55,9.26,3.07,1.83,5.81,4.22,8.7,6.35L434.41,637Z" transform="translate(-12.42 -140.64)" fill="#e6e7e7"/><path d="M434.41,637,456,624.79q1.75,4.47,3.52,8.93l-2.6-.64c-5.62,4-11.12,8.2-16.95,11.87-1.49.93-4,.2-6.07.24C434.08,642.45,434.25,639.71,434.41,637Z" transform="translate(-12.42 -140.64)" fill="#676767"/><path d="M434.41,637c-.16,2.74-.33,5.48-.48,8.22a19.57,19.57,0,0,0-7.32-6.56l-17.09-8.21-13.66-9.6,2.39-3.79Z" transform="translate(-12.42 -140.64)" fill="#b2b2c3"/><path d="M409.52,630.42l17.09,8.21-1.41,8L401.58,634.5Z" transform="translate(-12.42 -140.64)" fill="gray"/><path d="M409.52,630.42l-7.94,4.08-5.09-5.37-2.1-1.41.05,0c.47-2.32.95-4.63,1.42-6.95Z" transform="translate(-12.42 -140.64)" fill="#43484e"/><path d="M492.89,565.15c-.29-1.49-.57-3-.86-4.48q.2-13.51.4-27l1.65-.16q.09,15.69.2,31.37l-.21.12A2.08,2.08,0,0,0,492.89,565.15Z" transform="translate(-12.42 -140.64)" fill="#e2ce79"/><path d="M540.56,490.84c-.54-1.63-1.07-3.27-1.95-5.95l-32.4,19.31-11.7-8.46c.07-1.11.16-2.58.3-4.72-13.23-7.67-26.71-15.5-40.21-23.29L289.41,372.4Q250,349.66,210.55,327a25.43,25.43,0,0,0-4.37-1.55c-1.34,1.9-3.61,3.7-3.83,5.72-.57,5.27-.23,10.64-.25,16L200.53,346V326.7L187.45,320c7.85-4.92,15.56-10.08,23.57-14.71,20.37-11.78,40.88-23.32,61.33-35l5.35,7.82-12.81,8.63c-5.9,2.94-11.91,5.69-17.68,8.87-10.1,5.58-20.06,11.42-30.56,17.43,5.85,6.47,9.08-1.66,13.82-2q17.1,9.78,34.18,19.58,52,29.89,104.05,59.81Q423.32,422,477.84,453.55c12.58,7.26,25.19,14.47,37.75,21.78a33,33,0,0,1,4,3.3l-8.19,5.43c5.76,3.14,5.76,3.14,10.8-1.26,13.35-7.48,26.73-14.91,40-22.45,9.66-5.47,19.23-11.09,29.22-16.85-.09-1.69-.18-3.5-.31-6.19l9,1.05,6.61,5.46c-1.15,1.21-2.09,2.78-3.48,3.58-20.6,12-41.27,23.94-62.17,36v4.73C540.92,489.05,540.74,489.94,540.56,490.84Z" transform="translate(-12.42 -140.64)" fill="#6f8f89"/><path d="M532.73,427.64l2.06,3.37-18,11.15c-2.08-1.14-4.18-2.24-6.24-3.43q-88.68-51.09-177.36-102.21c-22.26-12.86-44.4-25.93-66.6-38.91l16.31-11.18a26.75,26.75,0,0,1,4.37,1.59q41,23.4,81.95,46.91,71.15,40.88,142.25,81.79C518.35,420.68,525.62,424,532.73,427.64Z" transform="translate(-12.42 -140.64)" fill="#39394a"/><path d="M266.55,297.61c22.2,13,44.34,26.05,66.6,38.91q88.64,51.18,177.36,102.21c2.06,1.19,4.16,2.29,6.24,3.43q.18,7.62.37,15.23l-.14,0-3-.22q-48.92-28-97.81-56-73-42-146-84.14c-1.92-1.1-3.78-2.3-6.11-3.72,0-4.25-.15-8.48.12-12.67C264.28,299.57,265.74,298.61,266.55,297.61Z" transform="translate(-12.42 -140.64)" fill="#b2b2c3"/><path d="M532.73,427.64c-7.11-3.63-14.38-7-21.3-10.92q-71.18-40.79-142.25-81.79Q328.25,311.41,287.23,288a26.75,26.75,0,0,0-4.37-1.59l-2.6-4-2.56-4.32-5.35-7.82-4.34-8c3.86,1.49,8,2.51,11.53,4.53q52.09,29.49,104,59.28,49.86,28.65,99.54,57.62c11.73,6.83,23.23,14.05,34.83,21.09Q525.33,416.21,532.73,427.64Z" transform="translate(-12.42 -140.64)" fill="#54546d"/><path d="M606.76,443.82l-6.61-5.46,7.73-4.41,8.39,3.59v.59l1.18,1.47.24,1.33Z" transform="translate(-12.42 -140.64)" fill="#b2b2c3"/><path d="M277.7,278.12l2.56,4.32c-3.46,1.91-6.82,4.1-10.46,5.56-1.26.51-3.25-.78-4.9-1.25Z" transform="translate(-12.42 -140.64)" fill="#989897"/><path d="M522.23,482.8c-5,4.4-5,4.4-10.8,1.26l8.19-5.43Z" transform="translate(-12.42 -140.64)" fill="#39394a"/><path d="M514,457.19l3,.22Z" transform="translate(-12.42 -140.64)" fill="#9090a8"/><path d="M523.56,396.92l-5.64-5.81,27.7-16.34,12.67,39.4c-8.4-4.28-16.77-8.62-25.23-12.79-1.24-.61-2.89-.4-4.35-.58Z" transform="translate(-12.42 -140.64)" fill="#54546d"/><path d="M528.71,400.8c1.46.18,3.11,0,4.35.58,8.46,4.17,16.83,8.51,25.23,12.79-1.65,2.19-3,4.71-5,6.45s-4.85,2.85-8,4.62Z" transform="translate(-12.42 -140.64)" fill="#39394a"/><path d="M651.11,352.23l10.72,4.14-12.55,9.92-1.95-1.35Z" transform="translate(-12.42 -140.64)" fill="#43484e"/><path d="M566.11,398l12.31,5.41-6.8,7.87-2.55-.91Q567.59,404.2,566.11,398Z" transform="translate(-12.42 -140.64)" fill="#43484e"/><path d="M587.3,388.61l11,4.16-9.52,8.51C588.11,395.5,587.7,392.06,587.3,388.61Z" transform="translate(-12.42 -140.64)" fill="#39394a"/><path d="M608.44,379.26l9.15,2.58-7.74,5.76-1.43-.48C608.43,384.5,608.43,381.88,608.44,379.26Z" transform="translate(-12.42 -140.64)" fill="#39394a"/><path d="M629.55,368.32l7.37,2.92-6.84,5.59-1.8-.83C628.7,373.44,629.13,370.88,629.55,368.32Z" transform="translate(-12.42 -140.64)" fill="#43484e"/><path d="M608.42,387.12l1.43.48c-.33.18-.66.36-1,.53Z" transform="translate(-12.42 -140.64)" fill="#54546d"/><path d="M147,485.65,91.88,454.32c2-1.63,3.94-3.28,5.94-4.9q5.1-4.14,10.22-8.25l32.88,19.11v16.49c7.9-5.93,3.21-12.78,5-18.35a62.37,62.37,0,0,0-6.13-4.77c-16.34-9.58-32.66-19.19-49.17-28.44-2.58-1.45-6.13-1.19-9.22-1.71l-1.31-.43q0-19.17,0-38.35l6,3.74,21.32-10.73L139.39,395l8.73,4.74q.18,12.42.35,24.84c0,17.83,0,35.66-.14,53.49C148.31,480.57,147.46,483.11,147,485.65Z" transform="translate(-12.42 -140.64)" fill="gray"/><path d="M148.47,424.53q-.18-12.42-.35-24.84,23.87-13.53,47.72-27.08,11.92-6.78,23.82-13.61.66,10.06,1.33,20.13,0,10.17,0,20.34l-23.84,13.4c-.25-4.77-.5-9.54-.79-15.28Z" transform="translate(-12.42 -140.64)" fill="#b2b2c3"/><path d="M107.51,377.73,86.19,388.46l-6-3.74c-.53-3.17-1.07-6.34-1.6-9.5l13.66-6.91Z" transform="translate(-12.42 -140.64)" fill="#676767"/><path d="M187.45,320l13.08,6.73V346L186,337.75Q186.74,328.86,187.45,320Z" transform="translate(-12.42 -140.64)" fill="#92aaa5"/><path d="M92.23,368.31l-13.66,6.91q.11-7.86.19-15.71Z" transform="translate(-12.42 -140.64)" fill="#43484e"/><path d="M202.1,347.11c0-5.33-.32-10.7.25-16,.22-2,2.49-3.82,3.83-5.72q-.06,12-.13,24Z" transform="translate(-12.42 -140.64)" fill="#676767"/><path d="M119.06,361.58l6.49,1.55c0,.82,0,1.65,0,2.48l-4.12,2.44-11.85-6.86,6.57-3.75Z" transform="translate(-12.42 -140.64)" fill="#43484e"/><path d="M125.51,365.61c0-.83,0-1.66,0-2.48l18.12-10.93,1.47,2.58Z" transform="translate(-12.42 -140.64)" fill="#676767"/><path d="M149.65,377.1l18.27-11,1.57,2.75-19.77,10.21C149.7,378.4,149.68,377.75,149.65,377.1Z" transform="translate(-12.42 -140.64)" fill="#676767"/><path d="M119.06,361.58l-3-4.14L133.9,346.7l1.33,2.19c-4.13,2.54-8.39,4.9-12.32,7.71C121.27,357.77,120.32,359.89,119.06,361.58Z" transform="translate(-12.42 -140.64)" fill="#676767"/><path d="M149.65,377.1c0,.65,0,1.3.07,2l-3.88,3-12.12-6.83,6.35-3.76,3,3.65Z" transform="translate(-12.42 -140.64)" fill="#43484e"/><path d="M143,375.11l-3-3.65L158,360.68l1.45,2.45c-4,2.36-8.12,4.56-12,7.16C145.7,371.48,144.49,373.48,143,375.11Z" transform="translate(-12.42 -140.64)" fill="#676767"/><path d="M540.56,490.84c.18-.9.36-1.79.55-2.69,3.57-1.71,7.25-3.23,10.7-5.15,13.92-7.71,27.77-15.54,41.64-23.33V470l-39.07,22.1L550,489.58l-7.84,4.21a1.68,1.68,0,0,0-1,.18Z" transform="translate(-12.42 -140.64)" fill="#b2b2c3"/><path d="M593.45,459.67c-13.87,7.79-27.72,15.62-41.64,23.33-3.45,1.92-7.13,3.44-10.7,5.15v-4.73c20.9-12.08,41.57-24,62.17-36,1.39-.8,2.33-2.37,3.48-3.58l10.94-2.89a1.81,1.81,0,0,1,.23.91c-3.76,3.1-7.38,6.4-11.32,9.26C602.38,454.17,597.85,456.83,593.45,459.67Z" transform="translate(-12.42 -140.64)" fill="#9090a8"/><path d="M608.51,490.6c-.94,6.92-1.8,13.86-2.92,20.75-.15.91-1.66,1.59-2.54,2.38,0-5.48.23-11,0-16.44-.22-4.68-1-9.33-1.51-14l1.09-1.91c6-3,2.72-7.35,1.54-11.36l4.37-.63Z" transform="translate(-12.42 -140.64)" fill="#be9e19"/><path d="M586.86,504c-1,6.83-1.82,13.67-3,20.47-.14.84-1.68,1.45-2.58,2.16l-.09-32h0c5.34-3.18,2.64-7.28,1.28-11.22,4.45-1.61,4,1.7,4.12,4.22C586.8,493.11,586.8,498.58,586.86,504Z" transform="translate(-12.42 -140.64)" fill="#be9e19"/><path d="M695.79,440.91c-.95,6.86-1.81,13.74-2.95,20.57-.15.88-1.69,1.53-2.58,2.29,0-6,.28-11.94,0-17.9-.18-4.51-.95-9-1.45-13.48a3.94,3.94,0,0,1,.82-.91c1.08-1.18,2.84-2.23,3.08-3.57.5-2.7.17-5.55.18-8.33.89,2,2.37,4,2.54,6.1C695.91,430.73,695.73,435.83,695.79,440.91Z" transform="translate(-12.42 -140.64)" fill="#be9e19"/><path d="M565.22,516.24c-1,6.86-1.81,13.74-2.94,20.57-.14.86-1.73,1.48-2.64,2.21q1.41-22.26,2.83-44.53c.87,1.74,2.37,3.44,2.49,5.23C565.33,505.2,565.17,510.73,565.22,516.24Z" transform="translate(-12.42 -140.64)" fill="#be9e19"/><path d="M662,459.82c-.94,7.07-1.83,14.15-2.93,21.19-.12.74-1.51,1.28-2.32,1.9,0-4.67-.48-9.39,0-14,1-9.94,2.54-19.82,3.86-29.72Q661.34,449.5,662,459.82Z" transform="translate(-12.42 -140.64)" fill="#be9e19"/><path d="M674.1,453.1c-.91,6.82-1.74,13.65-2.83,20.45-.15.95-1.6,1.69-2.44,2.52l-.42-31.17.13-.19a28.58,28.58,0,0,0,2.66-4.87,69.25,69.25,0,0,0,1.56-7.5Q673.42,442.72,674.1,453.1Z" transform="translate(-12.42 -140.64)" fill="#be9e19"/><path d="M630.19,478.54c-.66,6.46-1.2,12.94-2.11,19.37-.17,1.23-1.82,2.26-2.79,3.38q1.56-22.21,3.11-44.43c.49,4.84,1,9.68,1.45,14.52C630.06,473.76,630.09,476.15,630.19,478.54Z" transform="translate(-12.42 -140.64)" fill="#be9e19"/><path d="M660.65,439.18c-1.32,9.9-2.83,19.78-3.86,29.72-.48,4.62,0,9.34,0,14-.92-1.67-2.43-3.27-2.65-5a109,109,0,0,1-.34-11.31c1-8.37,1.78-16.77,3-25.1C656.94,440.54,659.31,439.93,660.65,439.18Z" transform="translate(-12.42 -140.64)" fill="#e2ce79"/><path d="M637.79,494.06c-1-1.22-2.62-2.35-2.76-3.66-.43-3.88-.27-7.83-.34-11.75V450.54l4.39,1c-.5,2.12-1.41,4.24-1.43,6.37C637.58,470,637.72,482,637.79,494.06Z" transform="translate(-12.42 -140.64)" fill="#e2ce79"/><path d="M562.47,494.49q-1.41,22.27-2.83,44.53c-.83-1.67-2.18-3.27-2.36-5-.39-3.67-.18-7.39-.21-11.1.92-8.65,1.77-17.3,2.87-25.93C560.05,496.07,561.59,495.32,562.47,494.49Z" transform="translate(-12.42 -140.64)" fill="#e2ce79"/><path d="M680.73,469.3a58,58,0,0,1-2.36-7.79,62.17,62.17,0,0,1-.33-8.43c0-7.8,0-15.6.16-23.39,0-2.19,0-5.63,3.8-2.47a24.15,24.15,0,0,0-1.13,5C680.75,444.57,680.76,456.93,680.73,469.3Z" transform="translate(-12.42 -140.64)" fill="#e2ce79"/><path d="M596.61,498.7c-.11,5.1,0,10.21-.46,15.28-.16,1.79-1.61,3.47-2.47,5.19,0-11.81,0-23.62-.19-35.43,0-2.32-.92-4.62-1.4-6.93,3.8-1.86,4,.68,4.07,3.35Q596.4,489.43,596.61,498.7Z" transform="translate(-12.42 -140.64)" fill="#be9e19"/><path d="M615.91,506.87c-.89-1.65-2.32-3.24-2.55-5a108.23,108.23,0,0,1-.45-11.12V464.15l4.71.44c-.55,2.72-1.54,5.44-1.59,8.16C615.84,484.12,615.92,495.5,615.91,506.87Z" transform="translate(-12.42 -140.64)" fill="#e2ce79"/><path d="M571.86,532.13a59.64,59.64,0,0,1-2.5-8c-.44-2.59-.14-5.3-.17-8,0-7.24-.14-14.48.14-21.71.07-1.8,1.5-3.55,2.3-5.32Q571.75,510.64,571.86,532.13Z" transform="translate(-12.42 -140.64)" fill="#e2ce79"/><path d="M571.86,532.13q-.11-21.5-.23-43l.21.05,1.48,0q.79,10.84,1.61,21.7c-.11,5.11,0,10.25-.44,15.32C574.3,528.23,572.78,530.15,571.86,532.13Z" transform="translate(-12.42 -140.64)" fill="#be9e19"/><path d="M680.73,469.3c0-12.37,0-24.73.14-37.1a24.15,24.15,0,0,1,1.13-5q.9,10.3,1.82,20.61c-.09,5.51,0,11-.39,16.51C683.3,466.05,681.68,467.65,680.73,469.3Z" transform="translate(-12.42 -140.64)" fill="#be9e19"/><path d="M647.21,488.33c-.93-1.67-2.42-3.27-2.67-5a80,80,0,0,1-.18-10c0-7.28-.1-14.57.2-21.84.08-1.82,1.5-3.59,2.3-5.39Q647,467.18,647.21,488.33Z" transform="translate(-12.42 -140.64)" fill="#e2ce79"/><path d="M592.09,476.81c.48,2.31,1.36,4.61,1.4,6.93.18,11.81.15,23.62.19,35.43-.9-1.68-2.35-3.3-2.58-5.08a111.17,111.17,0,0,1-.42-11.27Z" transform="translate(-12.42 -140.64)" fill="#e2ce79"/><path d="M647.21,488.33q-.16-21.15-.35-42.3l.27,0,1.5.05,1.47,21.81c-.09,5.09,0,10.2-.38,15.26C649.57,484.91,648.09,486.6,647.21,488.33Z" transform="translate(-12.42 -140.64)" fill="#be9e19"/><path d="M628.4,456.86q-1.56,22.22-3.11,44.43c-.83-2.41-2-4.76-2.4-7.24a63.32,63.32,0,0,1-.26-8.62c1-8.57,1.83-17.15,3-25.7C625.76,458.67,627.43,457.81,628.4,456.86Z" transform="translate(-12.42 -140.64)" fill="#e2ce79"/><path d="M637.79,494.06c-.07-12.05-.21-24.1-.14-36.15,0-2.13.93-4.25,1.43-6.37l1.41,21.73c-.06,5.1.1,10.21-.29,15.29C640.06,490.44,638.63,492.23,637.79,494.06Z" transform="translate(-12.42 -140.64)" fill="#be9e19"/><path d="M581.23,494.66l.09,32A83.06,83.06,0,0,1,579,518a69.72,69.72,0,0,1-.4-8.45,99.78,99.78,0,0,1,.24-10.39C579,497.58,580.39,496.15,581.23,494.66Z" transform="translate(-12.42 -140.64)" fill="#e2ce79"/><path d="M668.41,444.9l.42,31.17c-.9-1.44-2.43-2.82-2.58-4.34-.41-4-.23-8-.28-12,0-3.45-.19-6.93.17-10.34C666.31,447.86,667.62,446.41,668.41,444.9Z" transform="translate(-12.42 -140.64)" fill="#e2ce79"/><path d="M615.91,506.87c0-11.37-.07-22.75.12-34.12.05-2.72,1-5.44,1.59-8.16q.33,10.4.65,20.81c-.12,5.27-.08,10.54-.45,15.79C617.68,503.12,616.57,505,615.91,506.87Z" transform="translate(-12.42 -140.64)" fill="#be9e19"/><path d="M542.19,493.79l7.84-4.21,4.35,2.51c0,.4.08.79.09,1.18l-4.57,1.8Z" transform="translate(-12.42 -140.64)" fill="gray"/><path d="M688.86,432.39c.5,4.49,1.27,9,1.45,13.48.23,6,0,11.93,0,17.9l-2.07-16Q688.52,440.07,688.86,432.39Z" transform="translate(-12.42 -140.64)" fill="#e2ce79"/><path d="M601.51,483.3c.52,4.66,1.29,9.31,1.51,14,.26,5.47,0,11,0,16.44l-2.13-16.21Q601.22,490.41,601.51,483.3Z" transform="translate(-12.42 -140.64)" fill="#e2ce79"/><path d="M672.76,432.34a69.25,69.25,0,0,1-1.56,7.5,28.58,28.58,0,0,1-2.66,4.87c0-3.29-.24-6.63.32-9.82C669,433.84,671.4,433.18,672.76,432.34Z" transform="translate(-12.42 -140.64)" fill="#e2ce79"/><path d="M692.94,419.58c0,2.78.32,5.63-.18,8.33-.24,1.34-2,2.39-3.08,3.57a51.74,51.74,0,0,1,.64-7.71C690.67,422.25,692,421,692.94,419.58Z" transform="translate(-12.42 -140.64)" fill="#e2ce79"/><path d="M604.14,470c1.18,4,4.5,8.32-1.54,11.36Q603.37,475.71,604.14,470Z" transform="translate(-12.42 -140.64)" fill="#e2ce79"/><path d="M582.52,483.43c1.36,3.94,4.06,8-1.28,11.22Q581.89,489,582.52,483.43Z" transform="translate(-12.42 -140.64)" fill="#e2ce79"/><path d="M573.32,489.16l-1.48,0Z" transform="translate(-12.42 -140.64)" fill="#e2ce79"/><path d="M648.63,446.05l-1.5-.05Z" transform="translate(-12.42 -140.64)" fill="#e2ce79"/><path d="M394.39,627.72l2.1,1.41Z" transform="translate(-12.42 -140.64)" fill="#989897"/><path d="M466.91,504l-89.7,51.44c-8.88-4.47-17.93-8.65-26.61-13.49-12.63-7.05-25-14.55-37.45-21.93a24.21,24.21,0,0,1-3.39-3l.76-1.15,51.06-30,24.68-14.09,14-7.22c6.41,3.65,13.36,7.57,20.28,11.55q21.78,12.52,43.52,25.14A16.28,16.28,0,0,1,466.91,504Z" transform="translate(-12.42 -140.64)" fill="#e6e7e7"/><path d="M360.73,464.83q-31.78,18.23-63.56,36.45c-2.9,1.65-5.85,3.2-8.78,4.8l-44.24-25.14L237.48,477c1.5-1.79,2.66-4.15,4.55-5.27,15.29-9.1,30.73-18,46.12-26.89,6.76-3.78,13.53-7.56,20-11.17,6.79,3.83,12.89,7.11,18.83,10.66C338.29,451.09,349.49,458,360.73,464.83Zm-82.28,21.74L291.11,494l23.81-13.73-1.35-2.48-22.46,12.59-6.29-3.63,20.24-12.29-1.33-2.33ZM263.1,474.06l20-12-1.28-2.26-25,14.12,12.38,7.54,23.65-13.71-1.4-2.44-22.31,12.57Z" transform="translate(-12.42 -140.64)" fill="#e6e7e7"/><path d="M360.73,464.83C349.49,458,338.29,451.09,327,444.35c-5.94-3.55-12-6.83-18.83-10.66-6.49,3.61-13.26,7.39-20,11.17q-.63-10.68-1.25-21.35c-2-1.87-3.76-4.18-6.07-5.55-10.18-6-20.54-11.8-30.81-17.7-5-2.85-9.9-5.79-14.48-8.47L221,399.47q0-10.17,0-20.34c11.31,6.19,22.73,12.19,33.92,18.59,25.16,14.36,50.21,28.92,75.32,43.39,16.22,9.35,32.42,18.72,48.7,28,2.25,1.27,4.88,1.86,7.33,2.77l-24.68,14.09Q361.16,475.38,360.73,464.83Z" transform="translate(-12.42 -140.64)" fill="#989897"/><path d="M288.16,512.43q0,10-.05,20a56.53,56.53,0,0,1-7.26-2.88c-15.06-8.4-30.05-16.93-45.06-25.41l0-1.39L248.21,496c4,1.73,8.2,3.21,12.08,5.24,7.63,4,15.09,8.31,22.63,12.49l2.71-.11Z" transform="translate(-12.42 -140.64)" fill="#989897"/><path d="M235.79,504.13c15,8.48,30,17,45.06,25.41a56.53,56.53,0,0,0,7.26,2.88q.12,6.12.23,12.24a39,39,0,0,1-3.63-1.58q-20.4-11.45-40.77-22.94l-6.64-4Q236.53,510.12,235.79,504.13Z" transform="translate(-12.42 -140.64)" fill="#b2b2c3"/><path d="M244.15,480.94l44.24,25.14a4,4,0,0,1-.23,1L284,508.56c-7-3.82-14-7.72-21-11.43-7.57-4-15.23-7.78-22.86-11.65Z" transform="translate(-12.42 -140.64)" fill="#6f6f91"/><path d="M243.94,520.14q20.38,11.48,40.77,22.94a39,39,0,0,0,3.63,1.58l-.27,2.31-4.06.57c-7.42-4.1-14.94-8-22.23-12.36-6.64-3.94-13-8.31-19.52-12.49Z" transform="translate(-12.42 -140.64)" fill="#6f6f91"/><path d="M308.07,579.69l-13.29-8.49,13-8.45Q307.91,571.21,308.07,579.69Z" transform="translate(-12.42 -140.64)" fill="#989897"/><path d="M284,508.57l4.15-1.47v5.33l-2.53,1.22-1.43-.41C284.14,511.69,284.07,510.13,284,508.57Z" transform="translate(-12.42 -140.64)" fill="#54546d"/><path d="M284,547.54l4.06-.57q-.51,2.63-1,5.23l-3,.16C284,550.76,284,549.15,284,547.54Z" transform="translate(-12.42 -140.64)" fill="#54546d"/><path d="M310.52,515.92l-.76,1.15a5.27,5.27,0,0,0,.11-1.05Z" transform="translate(-12.42 -140.64)" fill="#989897"/><path d="M78.48,446.45,62,436.76,79.85,426.1q.09,7.31.19,14.6c.23,1.51.45,3,.72,4.82Z" transform="translate(-12.42 -140.64)" fill="#989897"/><path d="M80,440.7q-.09-7.31-.19-14.6l.27-3c.44.13.87.28,1.31.42l12,9.34Z" transform="translate(-12.42 -140.64)" fill="#43484e"/><path d="M358.14,595.35c-.78,3.33-1.57,6.66-2.68,11.37l-27.78-18.11a29.56,29.56,0,0,0,4.79-1.7C345,580,357.53,573,370,566q0,11.35,0,22.71Z" transform="translate(-12.42 -140.64)" fill="gray"/><path d="M315.11,570c-.8-1.13-2.26-2.25-2.28-3.4-.17-11.13-.1-22.27-.1-35.22l31.95,18.44c-1.37,1.56-2.46,3.53-4.14,4.59C332.15,559.72,323.6,564.81,315.11,570Z" transform="translate(-12.42 -140.64)" fill="#676767"/><path d="M315.11,570c8.49-5.17,17-10.26,25.43-15.59,1.68-1.06,2.77-3,4.14-4.59l14.79,9.72-32,18.54Z" transform="translate(-12.42 -140.64)" fill="#989897"/><path d="M327.49,578.06l32-18.54L370,566c-12.51,7-25,14-37.57,21a29.56,29.56,0,0,1-4.79,1.7C327.62,585.09,327.55,581.58,327.49,578.06Z" transform="translate(-12.42 -140.64)" fill="#676767"/><path d="M358.14,595.35l11.92-6.69v14.47Z" transform="translate(-12.42 -140.64)" fill="#989897"/><path d="M235.79,504.13q.75,6,1.51,12L235,517c.23,1.79.42,3.29.62,4.8l-13.38,7.71-5.15,1.61q-.74-10.74-1.48-21.49v-5.44l0-1.43q-.06-6-.11-12,0-10.06.08-20.11c0-1.78,0-3.56,0-5.34a7,7,0,0,0,.21-1.13l71.1-40.68q.63,10.67,1.25,21.35c-15.39,8.93-30.83,17.79-46.12,26.89-1.89,1.12-3.05,3.48-4.55,5.27-.88.58-2.54,1.17-2.53,1.73.14,8,.51,16,.82,24Z" transform="translate(-12.42 -140.64)" fill="#676767"/><path d="M175.46,493.39a52.91,52.91,0,0,1-4.79-4.92,48.26,48.26,0,0,1-3.29-5.74c2.45.89,5.06,1.48,7.32,2.71,12.32,6.73,24.55,13.62,36.81,20.45l-.48,3.63c-6.71-3.09-13.42-6.2-20.15-9.26C185.76,497.94,180.6,495.68,175.46,493.39Z" transform="translate(-12.42 -140.64)" fill="#9090a8"/><path d="M211,509.52l.48-3.63,4.09-1.71v5.44Z" transform="translate(-12.42 -140.64)" fill="#54546d"/><path d="M284,547.54c0,1.61,0,3.22,0,4.82-5.5-2.59-11-5.09-16.48-7.8-6.3-3.13-12.5-6.44-18.74-9.67-2-1.59-4-3.12-5.9-4.8-2.48-2.21-5.33-4.51-.64-7.4,6.49,4.18,12.88,8.55,19.52,12.49C269.07,539.51,276.59,543.44,284,547.54Z" transform="translate(-12.42 -140.64)" fill="#9090a8"/><path d="M242.26,522.69c-4.69,2.89-1.84,5.19.64,7.4,1.89,1.68,3.93,3.21,5.9,4.8l-13,6.41c0-2,0-4,0-6q-.09-6.78-.19-13.54c-.2-1.51-.39-3-.62-4.8l2.31-.87,6.64,4Z" transform="translate(-12.42 -140.64)" fill="#43484e"/><path d="M148.47,424.53l47.88-26.94c.29,5.74.54,10.51.79,15.28a49.78,49.78,0,0,1-4.69,3.55c-8.39,4.94-16.9,9.7-25.22,14.75-1.16.7-1.55,2.67-2.29,4.06q-.12,12.4-.23,24.8L164.2,462q.3,6.18.62,12.37l-2,4.59-13.16,8.88-2.7-2.15c.47-2.54,1.32-5.08,1.34-7.63C148.47,460.19,148.44,442.36,148.47,424.53Z" transform="translate(-12.42 -140.64)" fill="#676767"/><path d="M108,441.17q-5.12,4.13-10.22,8.25c-2,1.62-4,3.27-5.94,4.9l-4-2.41c-.57-2.26-1.13-4.52-1.94-7.76l14.18-7.29Z" transform="translate(-12.42 -140.64)" fill="#676767"/><path d="M149.69,487.8l13.16-8.88q-.39,7.92-.79,15.83Z" transform="translate(-12.42 -140.64)" fill="#989897"/><path d="M100.11,436.86l-14.18,7.29c.81,3.24,1.37,5.5,1.94,7.76l-9.39-5.47,2.28-.92c-.27-1.81-.49-3.31-.72-4.82l13.35-7.86Z" transform="translate(-12.42 -140.64)" fill="gray"/><path d="M617.46,439.6l-1.18-1.47Z" transform="translate(-12.42 -140.64)" fill="#9090a8"/><path d="M164.82,474.33q-.31-6.18-.62-12.37c9.16,5.36,18.26,10.83,27.51,16,7.85,4.41,15.87,8.52,23.81,12.77q0,6,.11,12c-2.59-1.27-5.24-2.41-7.74-3.81q-18.25-10.21-36.43-20.52Z" transform="translate(-12.42 -140.64)" fill="#b2b2c3"/><path d="M171.46,478.42q18.21,10.26,36.43,20.52c2.5,1.4,5.15,2.54,7.74,3.81l0,1.43-4.09,1.71c-12.26-6.83-24.49-13.72-36.81-20.45-2.26-1.23-4.87-1.82-7.32-2.71Z" transform="translate(-12.42 -140.64)" fill="#6f6f91"/><path d="M235.61,521.79q.09,6.76.19,13.54l-13.57-5.83Z" transform="translate(-12.42 -140.64)" fill="#989897"/><path d="M504.28,571.29c-.84-2-2.14-3.91-2.42-6a85.79,85.79,0,0,1-.28-10q0-5.41,0-10.85,2.15-9.45,4.3-18.91l.18.41Z" transform="translate(-12.42 -140.64)" fill="#e2ce79"/><path d="M494.28,564.85q-.11-15.69-.2-31.37l2.63.47a1.43,1.43,0,0,0,.23.94c.09,3.14.19,6.28.28,9.43q-.09,5.37-.16,10.74a1.48,1.48,0,0,0-.06,1.3C496.09,559.19,495.19,562,494.28,564.85Z" transform="translate(-12.42 -140.64)" fill="#be9e19"/><path d="M497.06,555.06q.07-5.37.16-10.74l4.35.12q0,5.43,0,10.85l-3.59,0Z" transform="translate(-12.42 -140.64)" fill="#989897"/><path d="M506.2,524.19l1.13,1.37a4.39,4.39,0,0,0-1.28.38l-.18-.41Z" transform="translate(-12.42 -140.64)" fill="#6f8f89"/><path d="M496.94,534.89a1.43,1.43,0,0,1-.23-.94,7.65,7.65,0,0,1,.55.6A3.62,3.62,0,0,1,496.94,534.89Z" transform="translate(-12.42 -140.64)" fill="gray"/><path d="M542.19,493.79l7.71,1.28.93,6.18q-.29,21.66-.55,43.31c-.88-1.68-2.33-3.3-2.54-5.06a94.25,94.25,0,0,1-.12-10.67l-5-.75V509.19l-2.69,0q-.83,21.13-1.66,42.28c-.85-.46-2.41-.86-2.45-1.38-1.17-15-.68-29.84,4.12-44.29.27-.61.54-1.22.82-1.83v-6.37c0-1,.09-2.07.14-3.11l.25-.5A1.75,1.75,0,0,1,542.19,493.79Z" transform="translate(-12.42 -140.64)" fill="#e2ce79"/><path d="M526.17,515.66l3.84-3.14c.78,16.63,1,31.56-2.73,47.86-2-2.27-3.51-3.17-3.51-4.08-.09-9.56,0-19.12.22-28.68,0-.68,1.08-1.34,1.66-2Q525.91,520.65,526.17,515.66Z" transform="translate(-12.42 -140.64)" fill="#be9e19"/><path d="M506.05,525.94a4.39,4.39,0,0,1,1.28-.38c.15,11,.65,21.93.3,32.88-.14,4.31-2.17,8.57-3.34,12.85Q505.16,548.61,506.05,525.94Z" transform="translate(-12.42 -140.64)" fill="#be9e19"/><path d="M538.28,551.44q.83-21.15,1.66-42.28l2.69,0v18.89c-.59,6.71-1.07,13.43-1.87,20.12C540.63,549.36,539.14,550.36,538.28,551.44Z" transform="translate(-12.42 -140.64)" fill="#be9e19"/><path d="M516.59,564.41c-.9-1.26-2.57-2.51-2.59-3.79q-.32-18,0-35.9c0-1.46,1.56-2.9,2.39-4.35Q516.48,542.39,516.59,564.41Z" transform="translate(-12.42 -140.64)" fill="#e2ce79"/><path d="M516.59,564.41q-.11-22-.23-44c.93,1.78,2.63,3.53,2.67,5.33q.4,16.63.06,33.28C519.06,560.81,517.47,562.6,516.59,564.41Z" transform="translate(-12.42 -140.64)" fill="#be9e19"/><path d="M550.28,544.56q.27-21.66.55-43.31c.69,13.62,1.42,27.25,1.95,40.88C552.81,542.91,551.15,543.75,550.28,544.56Z" transform="translate(-12.42 -140.64)" fill="#be9e19"/><path d="M526.17,515.66q-.27,5-.52,10Q525.91,520.65,526.17,515.66Z" transform="translate(-12.42 -140.64)" fill="#e2ce79"/><path d="M540.91,494.46c0,1-.1,2.07-.14,3.11C540.81,496.53,540.86,495.5,540.91,494.46Z" transform="translate(-12.42 -140.64)" fill="#6f8f89"/><path d="M497.06,555.06l.93.2-1,1.1A1.48,1.48,0,0,1,497.06,555.06Z" transform="translate(-12.42 -140.64)" fill="gray"/><path d="M492.89,565.15a2.08,2.08,0,0,1,1.18-.18Z" transform="translate(-12.42 -140.64)" fill="#be9e19"/><path d="M540.77,503.94c-.28.61-.55,1.22-.82,1.83Z" transform="translate(-12.42 -140.64)" fill="#6f8f89"/><path d="M100.11,436.86l-6.72-4-12-9.34c3.09.52,6.64.26,9.22,1.71,16.51,9.25,32.83,18.86,49.17,28.44a62.37,62.37,0,0,1,6.13,4.77c-1.82,5.57,2.87,12.42-5,18.35V460.28L108,441.17Z" transform="translate(-12.42 -140.64)" fill="#e2ce79"/><path d="M164.94,435.23c.74-1.39,1.13-3.36,2.29-4.06,8.32-5.05,16.83-9.81,25.22-14.75a49.78,49.78,0,0,0,4.69-3.55L221,399.47l14.56-7.68c4.58,2.68,9.5,5.62,14.48,8.47,10.27,5.9,20.63,11.66,30.81,17.7,2.31,1.37,4.06,3.68,6.07,5.55l-71.1,40.68-44.15-24.95Zm25.53-3.05,20-12-1.35-2.36-25.3,14.48,12.91,7.24,23.65-13.68L219,423.35,196.44,436Zm51.48,6.3c-.41-.76-.82-1.51-1.22-2.27l-22.51,12.26-5.91-3.75,20-12-1.39-2.28L205.7,444.82l12.76,7.33Z" transform="translate(-12.42 -140.64)" fill="#e6e7e7"/><path d="M278.45,486.57l25.28-14.45,1.33,2.33-20.24,12.29,6.29,3.63,22.46-12.59,1.35,2.48L291.11,494Z" transform="translate(-12.42 -140.64)" fill="#54546d"/><path d="M263.1,474.06l6,3.85,22.31-12.57,1.4,2.44-23.65,13.71L256.83,474l25-14.12,1.28,2.26Z" transform="translate(-12.42 -140.64)" fill="#54546d"/><path d="M235.77,502.74c-.31-8-.68-16-.82-24,0-.56,1.65-1.15,2.53-1.73l6.67,3.92-4,4.54c1.26,2,2.38,4.16,3.82,6.06a53.18,53.18,0,0,0,4.28,4.49Z" transform="translate(-12.42 -140.64)" fill="#43484e"/><path d="M248.21,496a53.18,53.18,0,0,1-4.28-4.49c-1.44-1.9-2.56-4-3.82-6.06,7.63,3.87,15.29,7.67,22.86,11.65,7.07,3.71,14,7.61,21,11.43.05,1.57.12,3.13.18,4.69l-1.28.51c-7.54-4.18-15-8.49-22.63-12.49C256.41,499.24,252.24,497.76,248.21,496Z" transform="translate(-12.42 -140.64)" fill="#9090a8"/><path d="M282.92,513.76l1.28-.51,1.43.4Z" transform="translate(-12.42 -140.64)" fill="#6f6f91"/><path d="M215.52,490.77c-7.94-4.25-16-8.36-23.81-12.77-9.25-5.21-18.35-10.68-27.51-16l.51-1.93q5.73-2.91,11.47-5.81c4.93,2.37,9.89,4.68,14.78,7.13,6.85,3.43,13.64,7,20.46,10.44l4.18-1.13Q215.56,480.71,215.52,490.77Z" transform="translate(-12.42 -140.64)" fill="#989897"/><path d="M171.65,439.24l44.15,24.95a7,7,0,0,1-.21,1.13l-4.17,1.59c-6-3.32-12-6.73-18.14-9.92-8.59-4.5-17.26-8.83-25.89-13.23Z" transform="translate(-12.42 -140.64)" fill="#6f6f91"/><path d="M211.42,466.91l4.17-1.59c0,1.78,0,3.56,0,5.34l-4.18,1.13Z" transform="translate(-12.42 -140.64)" fill="#54546d"/><path d="M171.65,439.24l-4.27,4.52a54.32,54.32,0,0,0,3.87,6,45,45,0,0,0,4.93,4.5q-5.75,2.89-11.47,5.81.12-12.4.23-24.8Z" transform="translate(-12.42 -140.64)" fill="#43484e"/><path d="M190.47,432.18l6,3.86L219,423.35l1.36,2.49-23.65,13.68-12.91-7.24,25.3-14.48,1.35,2.36Z" transform="translate(-12.42 -140.64)" fill="#54546d"/><path d="M242,438.48l-23.49,13.67-12.76-7.33,25.19-14.41,1.39,2.28-20,12,5.91,3.75,22.51-12.26C241.13,437,241.54,437.72,242,438.48Z" transform="translate(-12.42 -140.64)" fill="#54546d"/><path d="M176.18,454.22a45,45,0,0,1-4.93-4.5,54.32,54.32,0,0,1-3.87-6c8.64,4.4,17.31,8.73,25.9,13.23,6.1,3.19,12.1,6.6,18.14,9.92v4.88c-6.82-3.48-13.61-7-20.46-10.44C186.07,458.9,181.11,456.59,176.18,454.22Z" transform="translate(-12.42 -140.64)" fill="#9090a8"/></svg>