<svg id="Layer_1" data-name="Layer 1" xmlns="http://www.w3.org/2000/svg" viewBox="0 0 800 800"><path d="M209.87,145.21c.22-1.85.45-3.7.8-6.6l3.46,2.31,10.53,2.35c-.7,4.44-1.94,8.87-2,13.32q-1.22,81.81-2.11,163.62l2,71.54c-.71,3.25-2,6.49-2,9.74q-.24,41.6,0,83.19c0,4.82,1.28,9.61,1.67,14.44.67,8.26,1.41,16.53,1.53,24.81.08,5.42-.88,10.87-1.42,16.85l21.92,5.43-1.09,1.86,16.15,16.6c9.14-6.4,17.39-1.7,25.56-.94.39,0,.62,1.87.93,2.87,0,.7,0,1.39,0,2.09l-1.8,2-12.78-3.46c0,.19-.12.86-.22,1.53-2.07,2.38-5.84,4.7-5.91,7.14-.54,16.71-.38,33.44-.13,50.16,0,1.28,2.52,2.53,3.87,3.8,3.61,8.12,10.9,5.65,17.22,6l26.65,3.75c5.87,4.39,8,4.12,11-1.4l2.12-2,0,0,2.18-2.57-.15-3.81-.25-21.15.56-18.81,8.16,0,0,10.53c-1.42,2.81-3.79,5.53-4.08,8.46-.62,6.33-.19,12.77-.19,19.86l4.16,1.21,0,6.33c-.8,5.49,1.59,9.3,6.19,11.85l9.25-1.71,5.63.93c.69,1.1,1.2,3,2.11,3.18,9.5,2.3,19.07,4.33,29,6.52.25-2.37.4-3.72.55-5.07l8.39-.07,11.88,8.62c.46,1.7,1.17,4.32,2,7.42,21.38,6.74,41.86,16.19,64.27,17.24l22.48,21.74H523l6.46-5.9,8.89,6.77c4.32-2.1,8.6-4.18,12.89-6.25-7,14.48-3,30.14-4.61,45.89l-6.6,5-15-9.21L514,746.22l-5.75,12.54-13-3.4-7.06-12.63c-1.33,2.42-1.81,3.28-2.28,4.15l-6.09-.08-.19-.14c-.66-1.34-1.33-2.69-2-4v0c-.3-.88-.61-1.77-.92-2.66l-2.94-.36-5.78.51-1.79,6.57-3.95-7.39L436.47,732,431,740.33l-21,4.07-9.49-3.48-3.1,11.16L392,754c3.15,1.14,4.54,1.88,6,2.15,15.27,2.75,30.55,5.52,45.86,8,2,.32,4.34-1,6.51-1.54.69,0,1.38.07,2.06.13,1.6,1.35,3,3.54,4.82,3.92,8.16,1.68,16.41,2.86,24.64,4.22,7.08,1.32,14.14,2.8,21.26,3.89,3.13.47,7.27,2.11,7.9-3.51l12.84,4c6.75,6.08,20.48,6.06,29.51,0l0,0,4.28-2.66,4.16-3.53,2.12-2.22,0,0,8.47-4.18c1.25,7.26-6.25,9.47-8.5,14.71-5.23,5.24-11.88,7.31-18.94,8.45-10.06-.87-20.24-1.07-30.16-2.75-21.22-3.59-42.29-8.08-63.47-11.95-20.49-3.74-41.05-7.11-61.56-10.77-15-2.67-30-5.4-45-8.35-9.18-1.82-18.27-4.1-27.39-6.17-14-2.21-28.07-4.18-42-6.69-17.68-3.17-35.34-6.55-52.9-10.39-4.41-1-8.37-4-12.53-6.14.69-12.9,1.8-25.78,2-38.68.33-22.12.16-44.25,0-66.37,0-2.21-1.28-4.42-2-6.63q0-17.89.08-35.78c6.78,1.14,4,6.54,4,10.06.19,44.37.13,88.74.14,133.11l-.83,1.72,3,.48c.55-.05,1.1-.08,1.65-.1l21.53,6.15q9,1.9,18.07,3.81c2.72.57,4.95.49,4.5-3.28l4.68,1.75c8.48,7,19.23,6.07,29.11,8.1.52.1,1.59-2.44,2.4-3.75l4.33-.06h0c.09.89.17,1.79.26,2.68,1,1.14,1.9,3,3.13,3.31,7,1.62,14,3.11,21,4.06,2.37.32,5-1,7.45-1.65l2.19.2c1.59,1.35,3,3.53,4.8,3.89,8.12,1.64,16.35,2.77,24.54,4.09,6.79.79,13.5,4.24,20.71-.35l-6.16-1.74c-1.93-2.05-3.54-4.58-5.84-6.06-3.42-2.2-7.31-3.66-11.07-5.46v-9l21.2,3.94h12.91c4.6-8.37,5.71-54.45,1.72-66.64L387,661.48l-2.2,0h-4.28l.06,0c-14.23-2.5-28.09-9-44.22-4.71v38.31c0,2.85-.11,5.7-.16,8.55-2.06-2.82-4.76-5.38-6-8.53-1.64-4.09-2.15-8.64-3.33-13.77L309,675.11l-16-12.45c-1.2-2.06-3.11-5.37-4.8-8.3l-20-8.37c-1.2-5.3-1.92-8.5-2.75-12.18l-17,6.81c-6.86-12.06-13.79-22.71-26.16-28.21V559.16L210,560.28l-.1-25.26Zm265.32,545.5-2.05-1.9-3.95,4.27,2,1.88Zm-4.72,42.38c-.35-.49-.64-1.32-1.08-1.4s-1.14.45-1.72.71l1.58,2Z" fill="#a7a7a7"/><path d="M210,560.28l12.15-1.12v53.25c12.37,5.5,19.3,16.15,26.16,28.21l17-6.81c.83,3.68,1.55,6.88,2.75,12.18l20,8.37c1.69,2.93,3.6,6.24,4.8,8.3l16,12.45,17.91,6.22c1.18,5.13,1.69,9.68,3.33,13.77,1.27,3.15,4,5.71,6,8.53q1.11,7.56,2.23,15.13l1.88,1.71c6.48,6.77,15.84,3.33,23.32,6.54v9c3.76,1.8,7.65,3.26,11.07,5.46,2.3,1.48,3.91,4,5.84,6.06l-12.38,0-31.51-5.92-2.19-.2-31.6-5.72c-.09-.89-.17-1.79-.26-2.68.34-.31.69-.63,0,0,.6-.67.29-.33,0,0l-4.33.06L266.8,728.8l-4.68-1.75-22.68-2.2L218,720.37c-.55,0-1.1,0-1.65.1l-2.21-2.2c0-44.37.05-88.74-.14-133.11,0-3.52,2.8-8.92-4-10.06Q210,567.69,210,560.28Z" fill="#aeaeae"/><path d="M593.19,541.29c-.64,13.85-1.16,27.71-2,41.55-.34,5.85-1.26,11.66-1.91,17.48-.75,29.73-1.4,59.46-2.29,89.19-.46,15.35-1.3,30.69-2.15,46-.11,2-1.26,4-1.93,5.92-7.74,6.61-16.05,12.76-19,23.27a7.93,7.93,0,0,0,0,2.07l0,0h-2.18c0-3.53,0-7.06.09-10.6.69-29.32,1.49-58.65,2.06-88,.25-13-.22-25.94.11-38.89.42-16.16,1.38-32.3,1.95-48.45.08-2.46-.67-4.95-1.12-8l-9.29,6.41c0-2.11-.07-4.21-.11-6.32,3.32-3.47,3.15-7,.16-10.55l-.11-4.22-.12-12.71.24-4.11,3.87-3.66L555.68,535l2-31.55q1.08-12.66,2.15-25.3,1.88-8.94,3.75-17.92l-3.59-1c0-1.37.07-2.74.1-4.11,6.41-4.28,4.63-9.5,1.7-14.85l-1.32-29.71c.21-2,.42-3.93.62-5.89,6.3-1.19,6.51-4.29,2.73-8.66L562,389.64l-.19-23.2L563.22,354l5.32-1.19L566,349.59l-1.78-14.77-1.44-6.42-.19-16.33,1.05-4.58c1.5-10.3,3.13-20.58,4.34-30.91.18-1.53-1.63-3.29-2.53-4.95.14-2.05.27-4.11.4-6.16l1.28-21,.76.07.75-.12.84-.06.85,0V265.9l8.36-6.91c-.69,6.54-1.77,13.07-2,19.63-.88,24-1.38,48.08-2.22,72.11-.51,14.95-1.53,29.88-2,44.83-.84,25.08-1.33,50.18-2.21,75.26-.34,9.71-1.9,19.39-1.89,29.08A208.94,208.94,0,0,0,570.49,530c.59,4,3.94,7.58,6,11.36v48.82h1.37l2.94-48.79Z" fill="#a7a7a7"/><path d="M593.19,541.29l-12.36.09q1-28.47,2-56.94c0-9.92-.18-19.84.15-29.75.26-7.7,1.2-15.38,1.84-23.07l0-25.13c.66-1.15,1.88-2.27,1.91-3.44.76-25.59,1.38-51.19,2-76.79q2-44,4-88l.2-11,1.92-56.91V144.46l-13.86-1L575,142.5l-.91-5.29,30.31,3.55c1.85,2,2.73,2.52,2.74,3,.12,18.49.21,37,.16,55.48,0,2-1.08,4.07-1.16,6.12q-1.18,29.82-2.16,59.66c-.8,25.49-1.4,51-2.23,76.48-.57,17.79-1.32,35.58-2.09,53.36q-2,47-4.17,94.09Q594.31,515.14,593.19,541.29Z" fill="#9e9e9e"/><path d="M565.8,265.47c-.13,2-.26,4.11-.4,6.16-1.22,8.38-2.76,16.74-3.51,25.17-.31,3.49,1.08,7.12,1.7,10.69l-1.05,4.58-7.68-1c-1.67-5.1-3.14-9.58-4.76-14.54l2.42-3.28c-.64-8.07-1.19-14.95-1.89-23.65-1.06-.66-3.41-2.11-5-3.06,1.08-8,3.29-14.83-1.33-23.07-3.72,11.22,2.39,23.1-7.92,31,0,3.28.39,6.83-.18,10.23-.25,1.46-2.49,2.58-3.83,3.86.11-10.41.15-20.82.36-31.23.38-19,.87-38,1.31-57l5.17-2.1c-2.44-6.37-4.63-12.13-5.93-15.53l-22-4.07c1.31-3.21,2.15-5.26,2.54-6.19l-9.22-16.66,28.27-16.1H508.41l-2.91,5.23-1.53-.91c-4.85,1.48-7.85,2.43-10.89,3.27-.26.07-.73-.64-1.24-1.11l6-1.94-5.11-1.61,5.92-5.57,14.65-.53,8.36-.11c7.12-6.88,16.27-2,24.49-4.25-.39-.88-.77-1.73-1.14-2.58l-4.25-1.61,7.2-1.7,3.94,7.61L543,136.55l-7,6.57h25.77c0,18,.24,36-.11,53.95-.33,17.35-1.32,34.69-1.86,52,0,1.13,1.4,2.31,2.16,3.46.19,2.4.88,4.9.44,7.18C561.77,263,561.89,265.19,565.8,265.47Z" fill="#1a1a1a"/><path d="M460.63,136.67h4.28l2.21,2.58,12.06,5.36-9.29,1.69c.71,5.28,1.3,9.72,1.9,14.16l1-.67,6.74,9.86-4.7,10,9.42-4.72,5.6,3.6-4.11,16.62h-6l-2.26-4.45-2.35,4.44-24.75-.6h-8.75l-4-.16L391,193.92l-2-.74,10.44-14.75c-.53-3.41-1.07-6.82-1.6-10.22l2.21.11,5.47-.83c.14,1.43.25,2.75.4,4.07s.3,2.49.49,4.11c4.48-4.48,4.93-8.93,1.58-11.61,3.2-8.12,6.89-15.9,14.7-20.77l2.39-.47h38.18c-1.46-2.26-2-3.08-2.51-3.9C460.66,138.17,460.65,137.42,460.63,136.67Z" fill="#525252"/><path d="M224.66,143.27l-10.53-2.35c14.9-7,31.4-1.54,46.63-6,12.32.44,24.63,1,36.95,1.15,1,0,2-2.33,3-3.58h1.58c.92,5.85,5.55,4.14,9,4.17,21.76.2,43.53.22,65.29.3-.12,1.3-.24,2.59-.35,3.88H315.45l0,1.78,6.12.53c-2.68,5.8-5.6,11.5-8,17.43-2.11,5.31-3.6,10.86-6,18.21-1.65,2.93-4.38,7.82-7.12,12.71l-4.21-.06-2.64-3.86L290,191.47c-14.67,0-29.35-.16-44,.14-3.57.07-7.11,1.65-10.66,2.54l-3.63-.21c-4-2-2.87-4.59-.89-7.4,2.31-3.26,4.45-6.63,6.67-10l3.48-2.75,3.9,3.42c4.76-3.4,8.25-6.78,6.86-12.79L262,160.82c2-3.28,4.34-7.07,6.42-10.44,5.06-3,13.84,3.07,15.2-7.2h8.87c-17.55-1.88-35.06-1.9-52.58-1.81-.83,0-1.65,1.09-2.47,1.67l-2.31,0L224.8,143Zm44.25,23-6.56-1.19-4.69,9.07L270,176,269,166.33l5.73.71-.33-2.74Zm5.06,9.87.55,0V173.7l-.86.06C273.76,174.56,273.87,175.35,274,176.14Z" fill="#8c8c8c"/><path d="M485.79,195.15l4.11-16.62-5.6-3.6-9.42,4.72,4.7-10-6.74-9.86-1,.67c-.6-4.44-1.19-8.88-1.9-14.16l9.29-1.69-12.06-5.36,6.06-.42,2.24.09,0,0,6.32,0h0l2.33-2h8.27l1.05,1.25,1-1.31,4.26.07-5.92,5.57,5.11,1.61-6,1.94c.51.47,1,1.18,1.24,1.11,3-.84,6-1.79,10.89-3.27l1.53.91,2.91-5.23h24.46l-28.27,16.1,9.22,16.66c-.39.93-1.23,3-2.54,6.19l22,4.07c1.3,3.4,3.49,9.16,5.93,15.53l-5.17,2.1-6.23-2.17c-3.17-.75-6.32-2-9.52-2.15C507.49,195.45,496.63,195.38,485.79,195.15Z" fill="#353535"/><path d="M543,136.55l8.86-2.77-3.94-7.61c-5.57-3.35-11.13-6.65-17.29-1.15l-4.71.56c0-4,0-7.92,0-11.88.29-10.89-1.85-22.17,5.31-33.15l27.16,1.69v37.32L565.2,127c-.67,3.08-1.39,6.38-2.1,9.67Z" fill="#e5a53c"/><path d="M300.68,132.53c-1,1.25-2,3.59-3,3.58-12.32-.19-24.63-.71-36.95-1.15l-.48-4.54c0-.69,0-1.38.07-2.07l.28-2.1,8.16.45-3.36-6.47c.07-2.14.15-4.27.22-6.41,2.9-6.57,1.71-13-.65-19.37a3.46,3.46,0,0,1,.08-1.63c2.55-.85,5.13-2.45,7.67-2.39,6.33.14,12.65,1,20.32,1.76,3.34,7.48.22,16.69,1.61,25.15Zm-27.79-11.2c3.21,8.28,3.21,8.28,10.62,4.09Z" fill="#e5a53c"/><path d="M300.68,132.53l-6-15.19c-1.39-8.46,1.73-17.67-1.61-25.15-7.67-.72-14-1.62-20.32-1.76-2.54-.06-5.12,1.54-7.67,2.39.22-3,.44-6,.73-9.94H294c7.93,10.77,2.16,23.63,4.87,35.61l6.58,7c-1,2.16-2.08,4.62-3.18,7.08h-1.58Z" fill="#828282"/><path d="M376.22,140.88c.11-1.29.23-2.58.35-3.88,5.19-.16,10.65.62,15.49-.76,4.06-1.15,7.4-4.81,10.92-7.27l8.77,8H450.1c0,.86-.08,1.71-.11,2.57l-25,1.68Z" fill="#525252"/><path d="M543,136.55l20.09.13,7,.34-.81,6.52-7.49-.42H536Z" fill="#353535"/><path d="M525.92,113.7c0,4,0,7.92,0,11.88l.14,3.86-4.44,6.87-8.36.11,2.32-2.1c-3.25-7.55-2.53-9.87,3.44-14C521.61,118.51,523.64,115.92,525.92,113.7Z" fill="#9a9a9a"/><path d="M265.43,120.23l3.36,6.47-8.16-.45c-.09-.7-.17-1.4-.26-2.1a6.42,6.42,0,0,0,.16-1.7Z" fill="#828282"/><path d="M569.26,143.54l.81-6.52,4,.19.91,5.29,6.07.94a5.3,5.3,0,0,0,0,1.32l-10.54.6C570.11,144.76,569.69,144.15,569.26,143.54Z" fill="#6e6e6e"/><path d="M450,139.53c0-.86.07-1.71.11-2.57,3.42-3.36,6.94-3.12,10.53-.29,0,.75,0,1.5.05,2.25Z" fill="#9a9a9a"/><path d="M265,94.45c2.36,6.38,3.55,12.8.65,19.37Q265.32,104.13,265,94.45Z" fill="#828282"/><path d="M473.18,138.81l-6.06.43-2.21-2.58,8.39.08A14.21,14.21,0,0,1,473.18,138.81Z" fill="#9a9a9a"/><path d="M475.44,136.85l6.17,0c0,.68.07,1.36.11,2h0l-6.32,0,0,0A14.17,14.17,0,0,1,475.44,136.85Z" fill="#353535"/><path d="M481.72,138.92c0-.68-.07-1.36-.11-2l2.44.07Z" fill="#9a9a9a"/><path d="M475.44,136.85a14.17,14.17,0,0,0,0,2.06l-2.24-.09a14.43,14.43,0,0,0,.12-2.08Z" fill="#525252"/><path d="M494.36,136.88l-1,1.31-1.05-1.25A2.29,2.29,0,0,1,494.36,136.88Z" fill="#1a1a1a"/><path d="M260.35,128.35c0,.69-.05,1.38-.07,2.07C260.3,129.73,260.32,129,260.35,128.35Z" fill="#8c8c8c"/><path d="M260.53,122.46a6.38,6.38,0,0,1-.16,1.69l-.76-1.41Z" fill="#8c8c8c"/><path d="M336.38,589.8l-8.16,0q-1.22-7.33-2.42-14.67c0-5.87-5.86-4-8.41-6.44l-6.32,0-6.3,0c-3.9-7.86-9.46-4.13-14.77-2.13h-4.2c-.31-1-.54-2.83-.93-2.87-8.17-.76-16.42-5.46-25.56.94l-16.15-16.6,1.09-1.86-21.92-5.43c.54-6,1.5-11.43,1.42-16.85-.12-8.28-.86-16.55-1.53-24.81-.39-4.83-1.64-9.62-1.67-14.44q-.26-41.6,0-83.19c0-3.25,1.32-6.49,2-9.74,5.63,8.07,11.17,16.19,17,24.15,1,1.38,3,2,4.55,3l16.43,2.25-2.4,2.33h-6.38c-1.91,4.69-4.05,9.16-5.52,13.84-1,3.21-1.8,7.08,3.7,7.38,1.45,2.89,2.74,5.87,4.38,8.65,3.08,5.24,5.69,11,9.76,15.35s9.48,7,15.74,11.44l13.26-2c1.27,4,2.31,7.25,3.34,10.49L271,484.46l-9.91,6.88,5.64,3.7,2.05,1.88.12,2.32c-5.55.35-4.13,4.6-4.16,7.78-.12,11.45-.05,22.91-.05,34.36,0,2.09,0,4.18,0,6.28l-1.31,4.15h5.5c2.11,1.74,4,4,6.41,5,1.64.71,4.53-1.19,6-.37,10.84,6.1,22.59,3.1,33.95,3.84l13.48,1.49c-.25-2.11-.45-3.89-.66-5.66q.46-28.6.91-57.22l4.94,3.35-2.17.56c1.11,21.05,2.23,42.1,3.37,63.63l8-.42-.06.11.18,3.23h.94l.6-2.81,4.16.46c4,5,6.07,5.16,12.83,1.29l4,.87c2.29,6.12,5.36,4.9,8.72.93h6.18l4,1.44c4.76,4.78,7.41,4.87,12.86.44a3.49,3.49,0,0,1,1.94-.29l8.47,5.44h0c.31,1.89.61,3.79,1.11,6.89l11.57-7.95,4.34.22,6.13,3c3.31,6.76,7.91,5,12.7,1.91h1l1,.15c1.17,1.23,2.23,3.37,3.54,3.53,9.33,1.15,18.71,1.89,28.08,2.76,1.59,3.45,10.69,4.2,3.83,10.68l-4.27-2.33-5.88-4.13-23.32-1.85-21.63-2.45-8.63-4.14-3.22,8.26q-.63,10.34-1.27,20.66c-.21,11.07-.47,22.13-.63,33.2-.06,4.27-.14,8.71,6.11,8.55l-.13,0c1.66,1.66,3.14,4.52,5,4.78,8.82,1.27,17.74,1.84,26.62,2.65L469,665.24c3,3.93,5.16,3.3,6.54-1.26l4.07-6.73c0-1.4,0-2.79,0-4.19q.68-14.92,1.37-29.85l.84-14.4h11.68l10.69,12.32,12.13.66-1.49,1.54c15.69,8.32,17.28,26.41,27.2,38.77l9.22-4.87c.67,1.46,2,2.94,1.92,4.37-.52,13.29-1.28,26.57-2,39.86-4.29,2.07-8.57,4.15-12.89,6.25l-8.89-6.77-6.46,5.9H498.07L475.59,685.1c-22.41-1.05-42.89-10.5-64.27-17.24-.83-3.1-1.54-5.72-2-7.42l-11.88-8.62c4.9-1.47,4.85-5,3.78-9,.74-15.46,1.78-30.92,2-46.4.06-3.71-2.43-7.48-3.75-11.22l-4.2.41-37.56-5.34c1-2.15,1.61-3.38,2.17-4.56-7.3-3.6-12.1,9.19-19.37-.19v5.86l-2.1,6.29Z" fill="#9e9e9e"/><path d="M551.24,701.46c.69-13.29,1.45-26.57,2-39.86.06-1.43-1.25-2.91-1.92-4.37l.07-14.71c4.59-.87,5.68-2.85,2-6.36l-.09-6.36.15-16.8c6.79-2.32,4.74-6.38,2.06-10.55l-.12-8.46c0-2.82-.07-5.64-.1-8.46q.11-3.12.23-6.25l9.29-6.41c.45,3.07,1.2,5.56,1.12,8-.57,16.15-1.53,32.29-1.95,48.45-.33,12.95.14,25.93-.11,38.89-.57,29.32-1.37,58.65-2.06,88-.08,3.54-.06,7.07-.09,10.6l.06,2.23-4.16,3.53-4.28,2.66,0,0c-9.84.59-19.67,2.85-29.51,0l-12.84-4,.07,0c-.25-5.07-3.54-5.53-9-5.75L507,771l-22.8-2.49-31.78-5.78c-.68-.06-1.37-.1-2.06-.13-.49-.47-.92-1.26-1.48-1.36q-25.71-4.63-51.43-9.12l3.1-11.16L410,744.4l21-4.07,5.45-8.35,25.77,7.29,3.95,7.39,1.79-6.57,5.78-.51,1.68,7.14,0,.21-1.83,3,3.87,1.87,10.13,2c-.75-3.1-1.21-5-1.67-7,.47-.87,1-1.73,2.28-4.15l7.06,12.63,13,3.4L514,746.22l11.1-3.06,15,9.21,6.6-5C548.29,731.6,544.23,715.94,551.24,701.46Z" fill="#aeaeae"/><path d="M338.45,587.68l2.1-6.29c.77.66,1.49,1.8,2.32,1.89,14.26,1.56,28.51,3.16,42.8,4.3,3.14.25,6.42-1.26,9.64-2l4.2-.41q.18,28.78.37,57.56c-3.95,8.21-11.48,2.73-17.12,4.46l-31.29-5.42c.17,2.52.24,3.52.3,4.52L342.52,648c-4.6-2.55-7-6.36-6.19-11.85,4.67-.18,4.23-3.59,4.23-6.71,0-12.11.06-24.22-.14-36.32C340.39,591.32,339.14,589.5,338.45,587.68Zm25.31,23.2,7.49.52c.74,2.74,1.43,5.29,2.34,8.68l14.77.67v-10l-31-3.07-6.62,2c.75,10.5,7.84,5.36,11.95,8.22C363.15,614.84,363.46,612.86,363.76,610.88Z" fill="#9a9a9a"/><path d="M338.47,718.76q-1.12-7.57-2.23-15.13c.05-2.85.11-5.7.16-8.55q2.14-13.73,4.31-27.43l5.17-5.46,51.43,7.69c0,11.91.25,23.82-.08,35.71-.2,7.52-1.26,15-2.08,24.18L384,725.83c.31,1.73.6,3.42.9,5.12L363.67,727c-7.48-3.21-16.84.23-23.32-6.54Zm10.89-45.27c6,14.26,11.19,26.79,17.15,41l20.22-34.43Z" fill="#9a9a9a"/><path d="M327.91,629.8l.15,3.81-2.18,2.57,0,0-2.12,2c-3,5.52-5.16,5.79-11,1.4L305,634H285.78L272,630.22c-.62-3.76-1.2-7.31-1.77-10.86l-1.36.16v10.37c-1.35-1.27-3.85-2.52-3.87-3.8-.25-16.72-.41-33.45.13-50.16.07-2.44,3.84-4.76,5.91-7.14l-.64,6.56c9.67.63,18.93,1.18,28.17,1.86,8.13.6,16.26,1.34,24.38,2q1.52,14.74,3,29.49Q326.91,619.25,327.91,629.8Zm-18-5.1v-39l-34.42,16.72Z" fill="#9a9a9a"/><path d="M283.64,143.18c-1.36,10.27-10.14,4.18-15.2,7.2-2.08,3.37-4.41,7.16-6.42,10.44l-10.32,3.64-14.24.95v11.17c-2.22,3.33-4.36,6.7-6.67,10-2,2.81-3.09,5.37.89,7.4q-.27,36.74-.55,73.47l0,4.26q-.36,23.13-.73,46.28l-9.87,2.26q1-81.81,2.11-163.62c.06-4.45,1.3-8.88,2-13.32l.14-.32,10.35.13,2.31,0Z" fill="#9e9e9e"/><path d="M220.55,320.21l9.87-2.26c.17,3.47.49,6.94.51,10.41.1,19.87.07,39.73.24,59.6,0,3.08-1.71,7.53,4.12,7.67L258.41,400l3,4.21,3.36-3.82,6.27.36c-.35,6.2,4,9,8.39,11.93,1.7,1.14,2.89,3.06,4.32,4.63l-.91.33-8.08-.35c-8.27-1.24-16.52-2.59-24.81-3.68-3.73-.49-6.19,1-5.81,5.29-1.54-1-3.55-1.62-4.55-3-5.79-8-11.33-16.08-17-24.15Z" fill="#8c8c8c"/><path d="M384.87,731c-.3-1.7-.59-3.39-.9-5.12l11.18,3.94c.82-9.16,1.88-16.66,2.08-24.18.33-11.89.08-23.8.08-35.71l-5.12-4.22q-2.56-2.1-5.15-4.18l12.46,2.83c4,12.19,2.88,58.27-1.72,66.64Z" fill="#6e6e6e"/><path d="M322.9,579.23c-8.12-.68-16.25-1.42-24.38-2-9.24-.68-18.5-1.23-28.17-1.86l.64-6.56c.1-.67.2-1.34.22-1.53L284,570.72l20.87,2.9c.13-.78.25-1.55.37-2.32l-4.59-.68,4.13-1.9,6.3,0c.23,1.73.46,3.47.9,6.73l5.42-6.7c2.55,2.47,8.45.57,8.41,6.44l-3.75.73C322.43,577.37,322.66,578.3,322.9,579.23Z" fill="#aeaeae"/><path d="M387,661.48q2.58,2.09,5.15,4.18l5.12,4.22-51.43-7.69-5.17,5.46c.38-3.23.77-6.45,1.15-9.61l38.76,3.44-.06,0h4.28Z" fill="#aeaeae"/><path d="M380.62,661.48,341.86,658c-.38,3.16-.77,6.38-1.15,9.61q-2.16,13.71-4.31,27.43V656.77C352.53,652.47,366.39,659,380.62,661.48Z" fill="#828282"/><path d="M397.45,752.08q25.73,4.53,51.43,9.12c.56.1,1,.89,1.48,1.36-2.17.55-4.47,1.86-6.51,1.54-15.31-2.48-30.59-5.25-45.86-8-1.48-.27-2.87-1-6-2.15Z" fill="#6e6e6e"/><path d="M338.45,587.68c.69,1.82,1.94,3.64,2,5.48.2,12.1.13,24.21.14,36.32,0,3.12.44,6.53-4.23,6.71l0-6.33q.06-14.77.11-29.53l0-10.53Z" fill="#828282"/><path d="M583,741.45c.25,8.93-4.84,15.21-10.56,21.16l-8.47,4.18a7.93,7.93,0,0,1,0-2.07C566.9,754.21,575.21,748.06,583,741.45Z" fill="#9a9a9a"/><path d="M351.77,646.33c-.06-1-.13-2-.3-4.52l31.29,5.42c0,.8,0,1.6.05,2.4l-25.41-2.37Z" fill="#1a1a1a"/><path d="M357.4,647.26l25.41,2.37,6.24,2.26c-.15,1.35-.3,2.7-.55,5.07-9.92-2.19-19.49-4.22-29-6.52C358.6,650.22,358.09,648.36,357.4,647.26Z" fill="#9e9e9e"/><path d="M336.41,600.33q0,14.76-.11,29.53l-4.16-1.21c0-7.09-.43-13.53.19-19.86C332.62,605.86,335,603.14,336.41,600.33Z" fill="#9e9e9e"/><path d="M302.9,735.77l31.6,5.72c-2.49.6-5.08,2-7.45,1.65-7.06-.95-14.07-2.44-21-4.06C304.8,738.79,303.93,736.91,302.9,735.77Z" fill="#6e6e6e"/><path d="M452.42,762.69l31.78,5.78-2.32,2.36c-8.23-1.36-16.48-2.54-24.64-4.22C455.44,766.23,454,764,452.42,762.69Z" fill="#828282"/><path d="M336.69,741.69l31.51,5.92L366,749.67c-8.19-1.32-16.42-2.45-24.54-4.09C339.7,745.22,338.28,743,336.69,741.69Z" fill="#6e6e6e"/><path d="M322.9,579.23c-.24-.93-.47-1.86-.85-3.33l3.75-.73q1.21,7.33,2.42,14.67-.29,9.4-.56,18.81a11.26,11.26,0,0,1-1.74.07Q324.41,594,322.9,579.23Z" fill="#525252"/><path d="M266.8,728.8l31.51,4.35c-.81,1.31-1.88,3.85-2.4,3.75C286,734.87,275.28,735.82,266.8,728.8Z" fill="#828282"/><path d="M481.88,770.83l2.32-2.36L507,771l4.11.22-.07,0c-.63,5.62-4.77,4-7.9,3.51C496,773.63,489,772.15,481.88,770.83Z" fill="#6e6e6e"/><path d="M285.78,634H305l7.72,5.61L286,635.87C286,635.25,285.86,634.63,285.78,634Z" fill="#353535"/><path d="M389.05,651.89l-6.24-2.26c0-.8,0-1.6-.05-2.4,5.64-1.73,13.17,3.75,17.12-4.46l.66.07h.68c1.07,4,1.12,7.52-3.78,9Z" fill="#050505"/><path d="M285.78,634c.08.62.17,1.24.26,1.86-6.32-.33-13.61,2.14-17.22-6V619.52l1.36-.16c.57,3.55,1.15,7.1,1.77,10.86Z" fill="#6e6e6e"/><path d="M523.88,775.23c9.84,2.81,19.67.55,29.51,0C544.36,781.29,530.63,781.31,523.88,775.23Z" fill="#828282"/><path d="M366,749.67l2.17-2.06,12.38,0,6.16,1.74C379.53,753.91,372.82,750.46,366,749.67Z" fill="#525252"/><path d="M239.44,724.85l22.68,2.2c.45,3.77-1.78,3.85-4.5,3.28q-9-1.92-18.07-3.81C239.49,726,239.45,725.41,239.44,724.85Z" fill="#6e6e6e"/><path d="M300.64,570.62l4.59.68c-.12.77-.24,1.54-.37,2.32L284,570.72l1.8-2H290Z" fill="#6e6e6e"/><path d="M239.44,724.85c0,.56.05,1.12.11,1.67L218,720.37Z" fill="#828282"/><path d="M485.9,746.88c.46,1.93.92,3.86,1.67,7l-10.13-2,.76-2,1.61-3Z" fill="#6e6e6e"/><path d="M325.92,608.72a11.26,11.26,0,0,0,1.74-.07l.25,21.15Q326.9,619.26,325.92,608.72Z" fill="#6e6e6e"/><path d="M475.19,690.71l-4,4.25-2-1.88,3.95-4.27Z" fill="#9e9e9e"/><path d="M479.81,746.8l-1.61,3-2.8-2.88,0-.21,2.18-4.12v0c.67,1.34,1.34,2.69,2,4Z" fill="#8c8c8c"/><path d="M470.47,733.1l-1.22,1.32-1.58-2c.58-.26,1.21-.81,1.72-.71S470.12,732.6,470.47,733.1Z" fill="#aeaeae"/><path d="M477.62,742.6l-2.18,4.12-1.68-7.14,2.94.36C477,740.83,477.32,741.72,477.62,742.6Z" fill="#353535"/><path d="M553.34,775.22l4.28-2.66Z" fill="#828282"/><path d="M214.16,718.27l2.21,2.2-3-.48Z" fill="#828282"/><path d="M290,568.7h-4.2c0-.7,0-1.39,0-2.09H290C290,567.29,290,568,290,568.7Z" fill="#aeaeae"/><path d="M384.84,661.45h0Z" fill="#828282"/><path d="M325.88,636.18l2.18-2.57Z" fill="#6e6e6e"/><path d="M479.62,746.66c-.66-1.34-1.33-2.69-2-4C478.29,744,479,745.32,479.62,746.66Z" fill="#6e6e6e"/><path d="M561.78,769l-.06-2.23h2.18Z" fill="#9a9a9a"/><path d="M323.72,638.22l2.12-2Z" fill="#6e6e6e"/><path d="M338.47,718.76l1.88,1.71Z" fill="#a7a7a7"/><path d="M302.64,733.09c.31-.35.62-.69,0,0,.67-.61.32-.29,0,0Z" fill="#a7a7a7"/><path d="M557.69,503.42l-2,31.55c0,2.13-.07,4.27-.1,6.4l-.24,4.11-13.26,3.25c-.66-7.65-1.33-15.41-2-22.8-3.78-4.94-6.89-10.11-11.07-14.18-6-5.84-11-14-20.38-14.44-6.87-.33-11.87-2.91-16.51-7.56-2.66-2.66-6-4.61-9.14-6.79-4.73-3.3-9.5-6.51-14.78-10.12-12.4,4.82-12.4,4.82-18.61-3L460.38,468c.15-1.67.3-3.39.45-5.1l.71.38h4.56c7.87-.62,15.9,3.94,23.69-.7-3-1.09-5.93-1.23-8.87-1.65-3.3-.47-6.56-1.18-11.73-2.13,2.53-3.79,4-6,6.48-9.68,1.59,4,2.38,6,3.48,8.85l7.2-2.9c-1.81-8-8.16-7-12.75-7.78-3-.47-6.37,1.73-9.35,2.65l-2.37,9.23L454.47,458c.72-3.9,1.34-7.18,1.91-10.29l-14-7.6A45.29,45.29,0,0,1,424,443.55c-10.71-.45-13.11,1.32-13.78,12.73l-7.59-3.37c2-7.84,3.91-15.15,5.8-22.45l-2.1-1.76-6.7,5.17-13.81,1.54c.35-4.89.66-9.05,1-13.51l-13.52,3.76L371.5,417l-20-5.41c-.19-1.82-.33-3.19-.47-4.55l77.89,6.46,1.85,4.21,2.63-3.42,4.09.64c1.21,1.4,2.17,3.51,3.68,4,4.87,1.74,9.95,2.91,16.22,4.64,1.07-7.16,9.47.93,11.75-5.83l2.53.13c1.17,8.43,6.15,9.13,12.93,6.32l2.56,4.4H513l20.62-6.18,8.23,6.54c1.22,15,2.33,28.7,3.44,42.39l2.53,1c1.77-1.62,4.65-3,5.12-4.93A113.81,113.81,0,0,0,555.48,450c.92-11.79,1.44-23.61,2.37-35.41.11-1.41,1.72-2.71,2.63-4.06l1.32,29.71q-.85,7.43-1.7,14.85c0,1.37-.07,2.74-.1,4.11q-1.07,9.43-2.14,18.87C554.36,486.47,554,494.93,557.69,503.42ZM503.27,453.5c-.63,4.12-1.13,7.38-1.74,11.3l7.26.8c1.62-5.07,3-9.47,4.59-14.37l-11.58-1.49c-.23-2.26-.42-4.14-.75-7.33l-9.71,5.28c1.76,3.17,2.87,5.19,3.61,6.53Z" fill="#6e6e6e"/><path d="M460.83,462.86c-.15,1.71-.3,3.43-.45,5.1l-10.76,1.89c6.21,7.81,6.21,7.81,18.61,3,5.28,3.61,10,6.82,14.78,10.12,3.11,2.18,6.48,4.13,9.14,6.79,4.64,4.65,9.64,7.23,16.51,7.56,9.42.46,14.39,8.6,20.38,14.44,4.18,4.07,7.29,9.24,11.07,14.18.64,7.39,1.31,15.15,2,22.8l13.26-3.25.12,12.71L551,559.26l2.42,3.18q1,5.25,2,10.52c0,2.11.07,4.21.11,6.32s-.16,4.17-.23,6.25l-14.11,1.9c-2-10.82-4-21.28-5.94-31.74.53-.33,1.07-.65,1.61-1l-6.93-6.66-11.45-.77.72-1.35-33.36-23.52c2.18-14.4-5.36-21.68-17.61-25.87-4.79-1.63-9.32-4-14-6,.21-2.41.41-4.82.68-8.05h-9l-1.1-3-13.3.58-9.47.68c-.47,3.29-.79,5.58-1.12,7.86L408.38,486v-7.82h-4.6c-.31-.35-.63-.69.15.16-.85-.78-.51-.46-.16-.15l-.35,6.89-9.22,4.54.36-2.08-9.89-3.1-4.05-2.08c.43-2.41.86-4.82,1.42-7.92h-5.56l-2.1-2.84c.63-3.06,1.28-6.17,2-9.73l-6.39-.55c1.53-5.81,3.07-11.62,4.82-18.24l5.93,3-4.64,10.13,19.17-1.88c4.56,4,9.54,4.41,14.89,1.76l8.29,3.5c.47,1.19.95,2.38,1.89,4.76l6.52-5.81a2,2,0,0,1,1.53-1.16l14.14,12,7.72-7.55Z" fill="#828282"/><path d="M576.52,541.35c-2.09-3.78-5.44-7.37-6-11.36a208.94,208.94,0,0,1-2.21-30.09c0-9.69,1.55-19.37,1.89-29.08.88-25.08,1.37-50.18,2.21-75.26.5-14.95,1.52-29.88,2-44.83.84-24,1.34-48.08,2.22-72.11.24-6.56,1.32-13.09,2-19.63,0-17.46-.47-34.93.21-52.37.79-20.41,2.61-40.78,4-61.17l9.89,3v21.66c-.45,4.1-1.14,8.2-1.3,12.31-.61,14.88-1,29.76-1.54,44.65-.15,3.65-.31,7.31-.46,11L587,326.42c-.63,1.18-1.76,2.35-1.8,3.55-.78,25.54-1.43,51.08-2.11,76.63q-.17,12.6-.35,25.19c-.66,3.26-1.84,6.5-1.89,9.77-.22,14.29-.11,28.59-.12,42.89-.68,3.23-1.9,6.45-2,9.7-.24,12.51,0,25-.22,37.55C578.47,534.93,577.22,538.13,576.52,541.35Z" fill="#9e9e9e"/><path d="M560.48,410.5c-.91,1.35-2.52,2.65-2.63,4.06-.93,11.8-1.45,23.62-2.37,35.41A113.81,113.81,0,0,1,553,467.45c-.47,1.94-3.35,3.31-5.12,4.93l-2.53-1c-1.11-13.69-2.22-27.38-3.44-42.39l-8.23-6.54L513,428.62H487.16l-2.56-4.4c-6.78,2.81-11.76,2.11-12.93-6.32,12.72.75,25.44,1.6,38.16,2.21,4,.2,8-.23,12-.37,6.59-2.13,5.91-7.78,6.12-12.88q1.38-33.86,2.64-67.71l12.9,1.33c1.64,18.42,7.56,36.41,1.27,55.62h15.11c.41,2.84.83,5.67,1.24,8.51C560.9,406.57,560.69,408.54,560.48,410.5Z" fill="#525252"/><path d="M559.86,396.1H544.75c6.29-19.21.37-37.2-1.27-55.62l-12.9-1.33q.9-25.32,1.82-50.64c1.34-1.28,3.58-2.4,3.83-3.86.57-3.4.18-6.95.18-10.23,10.31-7.85,4.2-19.73,7.92-31,4.62,8.24,2.41,15,1.33,23.07,1.56.95,3.91,2.4,5,3.06.7,8.7,1.25,15.58,1.89,23.65l-2.42,3.28c1.62,5,3.09,9.44,4.76,14.54l7.68,1,.19,16.33c-3.78,1.62-4,3.8-1,6.46q.22,7.49.44,15l1.05,4.17-1.44,12.43c-8.07,2-1.92,9.1-5.73,12.38l-5.93,10,9.43.81.61,6.59Z" fill="#353535"/><path d="M582.84,145.45c-1.38,20.39-3.2,40.76-4,61.17-.68,17.44-.18,34.91-.21,52.37l-8.36,6.91V244.37c3.13-7.08,3.36-14.15-.14-21.2.11-13.23.32-26.46.23-39.69,0-2.93-1.08-5.85-1.67-8.78.07-1.39.13-2.78.19-4.17,4.22-5.1,4.55-10.66,1.13-19,.17-2.06.34-4.11.52-6.17l10.54-.6A7.85,7.85,0,0,1,582.84,145.45Z" fill="#aeaeae"/><path d="M576.52,541.35c.7-3.22,2-6.42,2-9.65.25-12.52,0-25,.22-37.55.06-3.25,1.28-6.47,2-9.7h2.14q-1,28.47-2,56.94l-2.94,48.79h-1.37Z" fill="#8c8c8c"/><path d="M568.7,174.7c.59,2.93,1.65,5.85,1.67,8.78.09,13.23-.12,26.46-.23,39.69q-.78,10.62-1.55,21.24l-.75.12-.76-.07a6.43,6.43,0,0,1-1.23-.27l-2-1.86c.66-13.55,1.4-27.09,1.94-40.64.28-7,0-14,.42-21C566.34,178.66,567.84,176.7,568.7,174.7Z" fill="#6e6e6e"/><path d="M563.59,307.49c-.62-3.57-2-7.2-1.7-10.69.75-8.43,2.29-16.79,3.51-25.17.9,1.66,2.71,3.42,2.53,4.95C566.72,286.91,565.09,297.19,563.59,307.49Z" fill="#6e6e6e"/><path d="M559.55,389.66l-9.43-.81,5.93-10c3.81-3.28-2.34-10.41,5.73-12.38q.11,11.6.19,23.2Z" fill="#525252"/><path d="M557.69,503.42c-3.66-8.49-3.33-16.95.17-25.38.66.06,1.32.08,2,.08Q558.76,490.77,557.69,503.42Z" fill="#8c8c8c"/><path d="M559.84,478.12c-.66,0-1.32,0-2-.08q1.08-9.44,2.14-18.87l3.59,1Q561.7,469.19,559.84,478.12Z" fill="#9a9a9a"/><path d="M568.59,244.41q.76-10.62,1.55-21.24c3.5,7.05,3.27,14.12.14,21.2l-.85,0Z" fill="#9a9a9a"/><path d="M565.8,265.47c-3.91-.28-4-2.46-3.4-5.72.44-2.28-.25-4.78-.44-7.18.62-2.9,1.25-5.79,1.87-8.69a3.77,3.77,0,0,0,2,.31,6.43,6.43,0,0,0,1.23.27Z" fill="#525252"/><path d="M562.17,349.84q-.23-7.48-.44-15l2.44,0L566,349.59Z" fill="#6e6e6e"/><path d="M560.1,455.06q.85-7.43,1.7-14.85C564.73,445.56,566.51,450.78,560.1,455.06Z" fill="#9a9a9a"/><path d="M561.1,404.61c-.41-2.84-.83-5.67-1.24-8.51l.3.15,3.67-.3C567.61,400.32,567.4,403.42,561.1,404.61Z" fill="#9a9a9a"/><path d="M555.41,573q-1-5.26-2-10.52l2.13,0C558.56,566,558.73,569.49,555.41,573Z" fill="#9a9a9a"/><path d="M563.83,396l-3.67.3-.61-6.59,2.42,0Z" fill="#6e6e6e"/><path d="M555.58,541.37l.1-6.4,3.77,2.74Z" fill="#9a9a9a"/><path d="M562.17,349.84l3.78-.25,2.59,3.23L563.22,354Z" fill="#9a9a9a"/><path d="M564.17,334.82l-2.44,0c-3-2.66-2.78-4.84,1-6.46Z" fill="#525252"/><path d="M555.57,562.41l-2.13,0L551,559.26l4.44-1.07Z" fill="#8c8c8c"/><path d="M583.07,406.6c.68-25.55,1.33-51.09,2.11-76.63,0-1.2,1.17-2.37,1.8-3.55a16.29,16.29,0,0,0,1.85-.16c-.65,25.6-1.27,51.2-2,76.79,0,1.17-1.25,2.29-1.91,3.44C584.28,406.5,583.68,406.53,583.07,406.6Z" fill="#6e6e6e"/><path d="M588.83,326.26a16.29,16.29,0,0,1-1.85.16l2.45-88.36,3.37.15Q590.82,282.24,588.83,326.26Z" fill="#525252"/><path d="M589.89,227.1c.5-14.89.93-29.77,1.54-44.65.16-4.11.85-8.21,1.3-12.31l2.19.14L593,227.19Z" fill="#525252"/><path d="M582.85,484.44h-2.14c0-14.3-.1-28.6.12-42.89,0-3.27,1.23-6.51,1.89-9.77l2.12-.17c-.64,7.69-1.58,15.37-1.84,23.07C582.67,464.6,582.88,474.52,582.85,484.44Z" fill="#828282"/><path d="M594.92,170.28l-2.19-.14V148.48l-9.89-3a7.85,7.85,0,0,0-1.76-.69,5.3,5.3,0,0,1,0-1.32l13.86,1Z" fill="#353535"/><path d="M584.84,431.62l-2.12.17q.18-12.6.35-25.19c.61-.07,1.21-.1,1.82-.11Z" fill="#525252"/><path d="M589.89,227.1l3.11.09-.2,11-3.37-.15C589.58,234.41,589.74,230.75,589.89,227.1Z" fill="#6e6e6e"/><path d="M532.4,288.51l-1.82,50.64q-1.3,33.86-2.64,67.71c-.21,5.1.47,10.75-6.12,12.88-1.79-1.6-3.39-4.21-5.4-4.6-4.08-.77-8.41-.05-12.59-.44-28.07-2.64-56.1-5.76-84.19-8-24-2-48.07-3-72.1-4.53-2.37-.15-4.68-1.25-7-1.91.16-4-.94-8.5,4.18-10.54l10.51,2,18.09,1.29c.1-.68.2-1.36.31-2l-8.21-2-10.09-7.7-4.11-.23q0-8.3-.1-16.61l4.22-4.24c0-.65,0-1.29.07-1.93,7.62.61,15.23,1.39,22.86,1.82,27.14,1.53,54.3,2.9,81.44,4.44,5.19.29,10.34,1.47,15.52,1.58,11.07.25,22.14.08,33.62.08v-6.29c.14-8.42.24-16.85.45-25.27q.85-34.65,1.77-69.3l.93-27.15c1.12-1.16,3.16-2.28,3.19-3.47.28-9,.15-18.06.15-27.19-12.44-1.12-23.8-2.76-35.2-3-38.14-1-76.3-1.48-114.45-2.16L307,199.87c2.9-.65,5.79-1.8,8.7-1.86,11.84-.27,23.7-.2,35.55-.25l86.1,2,4.59.05,48.36-.14c9.86.72,19.73,1.41,29.6,2.19,3.28.26,6.31.33,6.93-4l.51.16h.53l6.23,2.17c-.44,19-.93,38-1.31,57C532.55,267.69,532.51,278.1,532.4,288.51Z"/><path d="M563.83,243.88c-.62,2.9-1.25,5.79-1.87,8.69-.76-1.15-2.19-2.33-2.16-3.46.54-17.35,1.53-34.69,1.86-52,.35-18,.1-36,.11-53.95l7.49.42c.43.61.85,1.22,1.28,1.82l-.52,6.17c-1.16,5.46-2.43,10.9-3.36,16.4-.12.72,1.45,1.72,2.23,2.6-.06,1.39-.12,2.78-.19,4.17-.86,2-2.36,4-2.47,6-.39,7-.14,14-.42,21-.54,13.55-1.28,27.09-1.94,40.64C563.84,242.85,563.83,243.36,563.83,243.88Z" fill="#050505"/><path d="M530.64,125c6.16-5.5,11.72-2.2,17.29,1.15l-7.2,1.7Z" fill="#353535"/><path d="M530.64,125l10.09,2.85,4.25,1.61-18.91,0-.14-3.86Z" fill="#050505"/><path d="M526.07,129.44l18.91,0c.37.85.75,1.7,1.14,2.58-8.22,2.27-17.37-2.63-24.49,4.25Z" fill="#727272"/><path d="M422.62,143.29c-7.81,4.87-11.5,12.65-14.7,20.77-2.76,1.21-8-2.26-7.94,4.26l-2.21-.11L392.9,164l-2.62.72c-.26,4.32-.51,8.63-.82,13.75h9.91l-10.44,14.75-14.62.55-6.36,0-6.36-.09H351.13l-12.71-1q1.33-5.7,2.66-11.39c3.41-2.92,9.35,5.27,9.82-2.56l.05.22,2.13-1.81,7.12-5-10.65-8.61c1.21-4.66,1.87-9.11-1.14-13.59-1.21-1.79-1-4.52-1.49-6.82Zm-43.93,22.88c-7.15-5.21-9.92,1.66-16.28,5.38,6.93,1.45,9.93,9.21,16.52,3.46l7.66-4.48Z" fill="#6e6e6e"/><path d="M351.13,193.61h10.46q3.11,4.5,6.36.09l6.36,0,16.65.19,46.75.47-.39,5.39-86.1-2Z" fill="#050505"/><path d="M422.62,143.29l-75.7-.25-19,.08-2.09,0-4.24.05-6.12-.53,0-1.78h60.77l48.74.33a4.83,4.83,0,0,0,.05,1.61Z" fill="#353535"/><path d="M527.84,198.07h-.53l-.51-.16-36.48.31c-11.18-.09-22.37,0-33.54-.4-2.14-.08-4.21-2.13-6.31-3.28l24.75.6h10.57c10.84.23,21.7.3,32.53.77C521.52,196.06,524.67,197.32,527.84,198.07Z"/><path d="M450.47,194.55c2.1,1.15,4.17,3.2,6.31,3.28,11.17.41,22.36.31,33.54.4a6.47,6.47,0,0,0-.05,1.46l-48.36.14,3-2.86-3.2-2.42Z" fill="#050505"/><path d="M399.37,178.43h-9.91c.31-5.12.56-9.43.82-13.75l2.62-.72,4.87,4.25C398.3,171.61,398.84,175,399.37,178.43Z" fill="#353535"/><path d="M425,142.82a4.83,4.83,0,0,1-.05-1.61l25-1.68,10.69-.61c.52.82,1.05,1.64,2.51,3.9Z" fill="#1a1a1a"/><path d="M400,168.32c-.08-6.52,5.18-3,7.94-4.26,3.35,2.68,2.9,7.13-1.58,11.61-.19-1.62-.36-2.87-.49-4.11s-.26-2.64-.4-4.07Z" fill="#1a1a1a"/><path d="M391,193.92l-16.65-.19,14.62-.55Z"/><path d="M441.72,194.55l3.2,2.42-3,2.86-4.59-.05.39-5.39Z"/><path d="M479.83,195.16h-4.61l2.35-4.44Z" fill="#353535"/><path d="M321.59,143.19l4.24-.05,1.05,1.28,1-1.3,19-.08c.45,2.3.28,5,1.49,6.82,3,4.48,2.35,8.93,1.14,13.59-7.5,7.05-7.1,11.6,1.35,15.19-.47,7.83-6.41-.36-9.82,2.56q-1.33,5.69-2.66,11.39l-37.89-1.05c2.74-4.89,5.47-9.78,7.12-12.71,2.38-7.35,3.87-12.9,6-18.21C316,154.69,318.91,149,321.59,143.19Z" fill="#828282"/><path d="M300.53,191.54l37.89,1.05,12.71,1,.09,4.15c-11.85.05-23.71,0-35.55.25-2.91.06-5.8,1.21-8.7,1.86-21.52-1-43.42,3.24-65.23-3.86l-4.47,1.89c-.65-1.25-1.3-2.5-2-3.75,3.55-.89,7.09-2.47,10.66-2.54,14.67-.3,29.35-.14,44-.14h6.33Z"/><path d="M235.31,194.15c.66,1.25,1.31,2.5,2,3.75q0,8.43,0,16.86c-.8,3.89-1.61,7.78-2.51,12.1l6.9.44c.36,4.11,1,8.23,1,12.34-.14,26.18-.43,52.37-.67,78.56q-.3,13.49-.62,27l-2-10.26q-.4-50.81-.84-101.6c0-.19-.46-.45-.74-.53a17.48,17.48,0,0,0-2.59,0c0,8.86.11,17.76-.05,26.66-.06,3.16,1.53,7.48-4,8q.28-36.74.55-73.47Z"/><path d="M237.46,176.58V165.41l14.24-.95c1.39,6-2.1,9.39-6.86,12.79l-3.9-3.42Z" fill="#525252"/><path d="M283.64,143.18,237.46,143c.82-.58,1.64-1.66,2.47-1.67,17.52-.09,35-.07,52.58,1.81Z" fill="#6e6e6e"/><path d="M269,166.33,270,176l-12.35-1.84,4.69-9.07,6.56,1.19Z" fill="#525252"/><path d="M296.32,191.48H290l3.69-3.85Z" fill="#828282"/><path d="M235.15,143.08,224.8,143Z" fill="#6e6e6e"/><path d="M268.91,166.27l5.45-2,.33,2.74-5.73-.71Z" fill="#525252"/><path d="M274,176.14c-.1-.79-.21-1.58-.31-2.38l.86-.06v2.41Z" fill="#525252"/><path d="M475.4,138.89l6.32,0Z" fill="#525252"/><path d="M272.89,121.33l10.62,4.09C276.1,129.61,276.1,129.61,272.89,121.33Z" fill="#1a1a1a"/><path d="M454.25,490.51c4.65,2,9.18,4.41,14,6,12.25,4.19,19.79,11.47,17.61,25.87l33.36,23.52-.72,1.35,11.45.77,6.93,6.66c-.54.32-1.08.64-1.61,1,2,10.46,3.91,20.92,5.94,31.74l14.11-1.9c0,2.82.07,5.64.1,8.46-6.2,1.51-4.93,4.79-2,8.46q0,5.28.05,10.55l-.15,16.8-4.77.55c-1.34,3-2.47,5.57-4.14,9.33-6.58-5.89-7-12.81-7.69-18.91-1.48-13.11-12.72-16-21.32-22.27l-6.81,4.11-9.88-3.38c-5.5-11.53-11.11-14.53-21.16-11.53-9.37-.87-18.75-1.61-28.08-2.76-1.31-.16-2.37-2.3-3.54-3.53l15-.29c5,.31,10,.94,15,.8,2.69-.07,6.31-.79,3.66-5.22,0-8.61-.16-17.23.14-25.84.11-3.2,1.34-6.36,2.06-9.54l.06-25.21-2.12-.1-1.16-5.71c-8.53,1.16-16.75,4.7-23.25-3.33-12.54,2-12.53,2-24.95-1.27a16.83,16.83,0,0,0-4.14,0l-10.08,1.08c-.73,22.56-1.42,44.35-2.11,65.79l6.62,3.57-11.57,7.95c-.5-3.1-.8-5-1.11-6.89.35-.32.7-.63-.05,0,.68-.74.37-.39.05-.05l-8.47-5.44q1.11-2.93,2.24-5.84l-.19-.64c.69-3.62,1.9-7.23,2-10.87.3-15.59.27-31.19.35-46.78l1.12-1.18-1.4-.8.06.09q-2.07-2.19-4.12-4.39l-4.22-2.05-8.41-.05-10.54-2.11-8.39-.19-8.45-2-6.32-.08c-3.42-3.41-6.59-2.54-9.88.62l1.58,3.75-2.23,2.07c-1.4,1.55-4,3.08-4,4.65-.32,14.94-.24,29.89-.12,44.84,0,1.09,1.34,2.17,2,3.25.69,2.79,1.39,5.58,2.08,8.37.15,1.21.3,2.42.44,3.63l-8,.42c-1.14-21.53-2.26-42.58-3.37-63.63l2.17-.56L329,498.93l-3.27-3.51c.42-4.7-3.09-5.84-6.42-6.17-5.55-.54-11.16-.37-16.75-.51l0,0-1.26-1.35c-.47.48-.92,1-1.38,1.44l-.71-.09-2.83-.16c-1-3.24-2.07-6.49-3.34-10.49l-13.26,2c-6.26-4.43-11.79-7.2-15.74-11.44s-6.68-10.11-9.76-15.35c-1.64-2.78-2.93-5.76-4.38-8.65l7.77-10.18,8.64,12.61,2.24-1.2-2.72-11.58,9.27-6.83a5.91,5.91,0,0,0,1.51.1l2.4,5.58c3.36,5.25,7.45,5.36,13,1.37-.53-2.24-1.08-4.61-1.8-7.64l-9.42,3c2.54-9.19,4.37-9.82,17.67-5.75-1.64,6.25-3.29,12.51-5,19l-14.22.69c0,1,0,2.1,0,3.15l18.56,1.57L305.26,427,317,419.74c3.79-2.91,7.54-3.34,11.21.2q-4,5.83-8,11.66c-3.76,4.53-9.61,7.64-6,17.69l24.25,2.63,7.31-1.08,3.3-2.23-.15.13,7.7,6.68-.93,4.23,1.63.43.86-4.69,2.37-1.42,2.75,2c-.31,2.19-.63,4.38-1.21,8.47l7.88-3.13,6.39.55c-.74,3.56-1.39,6.67-2,9.73l2.1,2.84-17-.66-6.23-1.94c-.33-.35-.66-.71.51.56l-.55-.52c0,2.05,0,4.09.05,6.14l-1.2,1.34,2.26,1-.1-.1,3.3,0-.09.07c1.46,1,2.85,2.83,4.38,3,6.18.53,12.4.56,18.6.77l4.28.35,9.89,3.1-.36,2.08,9.22-4.54.35-6.89h4.61V486l12.56,2.58a6.28,6.28,0,0,1,1.76.47c-.41,5.35,2.64,7.1,7.09,7.55l5-7.3,7.38,7.74,3.77-6.15Zm-44.15,6.6,2.92-.64-.57-1.31c-.78.65-1.57,1.29-2.36,1.93-.34.32-.69.63.15-.14C409.47,497.8,409.79,497.45,410.1,497.11ZM326.18,475c0,1.1,0,2.2-.05,3.31l22,3.15v-9C340.58,473.64,332.47,467.78,326.18,475Zm-22.77-6.39c1.22,2.42,2.18,3.44,2,4.15-.36,1.36-1.37,2.54-2.59,4.61h9.95v-7.26Z" fill="#8c8c8c"/><path d="M268.91,499.24l-.12-2.32,0,.14c15.67,1.36,31.33,2.87,47,3.95,2.68.18,5.5-1.5,8.26-2.32.52.87,1.51,1.74,1.5,2.6-.18,18.39-.47,36.78-.74,55.17l-9.61,3.86c-11.36-.74-23.11,2.26-33.95-3.84-1.47-.82-4.36,1.08-6,.37-2.41-1-4.3-3.3-6.41-5q-2.08-2.09-4.19-4.15c0-2.1,0-4.19,0-6.28.69-1.1,1.92-2.17,2-3.31C267.54,525.13,268.2,512.18,268.91,499.24ZM309,532.43l11.6-2.74c-3.75-6.49-7.83-5.44-11.74-4.92-8.4-3.25-8.69-3.1-10.2,6.07Zm-31.05-12.76L273,518.36v10.41h11.93l1.7-6,3.14,8.89,6.18-11Zm38.55,14.64.38-.53-.62-.07Z" fill="#9a9a9a"/><path d="M479.65,653.06c0,1.4,0,2.79,0,4.19-9.71,4-19.51,1.87-29.3.42l-31.84-3.57.13,0c-.66-8.21-1.07-16.45-2.07-24.62-.71-5.76-2.24-11.42-3.41-17.13q.64-10.32,1.27-20.66c1,5.07,2.09,10.15,3.34,16.19l4.8-10,54.62,4.4.66,21Q478.75,638.2,479.65,653.06ZM429.59,645l38.15-16.56-38.15-24.34Z" fill="#9a9a9a"/><path d="M477.53,587.7c10.05-3,15.66,0,21.16,11.53l9.88,3.38,6.81-4.11c8.6,6.27,19.84,9.16,21.32,22.27.69,6.1,1.11,13,7.69,18.91,1.67-3.76,2.8-6.33,4.14-9.33l4.77-.55.09,6.36q-1,3.18-2,6.36l-.07,14.71-9.22,4.87c-9.92-12.36-11.51-30.45-27.2-38.77l1.49-1.54-12.13-.66-10.69-12.32H481.86c-.17-3.48-.34-6.95-.5-10.43C488.22,591.9,479.12,591.15,477.53,587.7Z" fill="#9a9a9a"/><path d="M275.13,427.52l-9.27,6.83,2.72,11.58-2.24,1.2-8.64-12.61-7.77,10.18c-5.5-.3-4.71-4.17-3.7-7.38,1.47-4.68,3.61-9.15,5.52-13.84h6.38v10.3l11.62-8.43-.82-3-8.4-1.22L244.1,418.9c-.38-4.3,2.08-5.78,5.81-5.29,8.29,1.09,16.54,2.44,24.81,3.68Q274.93,422.41,275.13,427.52Z"/><path d="M477.17,602.37,422.55,598l-4.8,10c-1.25-6-2.29-11.12-3.34-16.19l3.22-8.26,8.63,4.14c.92,1.28,1.68,3.51,2.78,3.69,6.22,1,12.51,1.54,18.79,2.23l23.38-1.62,5.88,4.13Z" fill="#a7a7a7"/><path d="M420.67,576.11l-6.62-3.57c.69-21.44,1.38-43.23,2.11-65.79l10.08-1.08-7.32,8.22c-.14,16.66-.25,33.32-.44,50-.05,4.56.95,8.31,6.07,9.49.15,1,.31,2,.46,3Z" fill="#050505"/><path d="M395.31,585.62c-3.22.7-6.5,2.21-9.64,2-14.29-1.14-28.54-2.74-42.8-4.3-.83-.09-1.55-1.23-2.32-1.89v-5.86c7.27,9.38,12.07-3.41,19.37.19-.56,1.18-1.14,2.41-2.17,4.56Z" fill="#aeaeae"/><path d="M413.14,612.4c1.17,5.71,2.7,11.37,3.41,17.13,1,8.17,1.41,16.41,2.07,24.62-6.25.16-6.17-4.28-6.11-8.55C412.67,634.53,412.93,623.47,413.14,612.4Z" fill="#050505"/><path d="M401.22,642.83h-.68l-.66-.07q-.19-28.78-.37-57.56c1.32,3.74,3.81,7.51,3.75,11.22C403,611.91,402,627.37,401.22,642.83Z" fill="#525252"/><path d="M268.91,499.24c-.71,12.94-1.37,25.89-2.21,38.83-.08,1.14-1.31,2.21-2,3.31,0-11.45-.07-22.91.05-34.36C264.78,503.84,263.36,499.59,268.91,499.24Z" fill="#8c8c8c"/><path d="M324.87,556.46c.27-18.39.56-36.78.74-55.17,0-.86-1-1.73-1.5-2.6L321.92,497l3.8-1.55,3.27,3.51q-.45,28.6-.91,57.22Z" fill="#353535"/><path d="M425,576.33c-.15-1-.31-2-.46-3a70.66,70.66,0,0,0,33.72,2.79c.81-.14,1.81.92,2.73,1.42,0,1.18-.05,2.36-.07,3.55l-15,.29-1-.15h-1l-12.7-1.91Z" fill="#525252"/><path d="M343.11,566.05c-.14-1.21-.29-2.42-.44-3.63l38,4.62,0,3.09H374.5l-8.72-.93-4-.87L348.93,567l-4.16-.46a1.39,1.39,0,0,0-1.72-.41Z" fill="#1a1a1a"/><path d="M450.33,657.67c9.79,1.45,19.59,3.56,29.3-.42L475.56,664,469,665.24l-18.92-3.71C450.18,660.24,450.25,659,450.33,657.67Z" fill="#353535"/><path d="M299.24,488.76l.71.09,2.64-.09,0,0q1.08,3.12,2.14,6.22c-9.35-.76-18.68-1.63-28-2.24-3.34-.22-7.38-1-7.83,4.34l0-.14L266.74,495l2.16-6.21c4.44.4,8.89,1.14,13.33,1.1C287.9,489.88,293.57,489.18,299.24,488.76Z" fill="#6e6e6e"/><path d="M450.33,657.67c-.08,1.29-.15,2.57-.23,3.86-8.88-.81-17.8-1.38-26.62-2.65-1.85-.26-3.33-3.12-5-4.78Z" fill="#525252"/><path d="M477.17,602.37l-.08-6.32,4.27,2.33c.16,3.48.33,7,.5,10.43l-.84,14.4-3.19.14Z" fill="#525252"/><path d="M477.83,623.35l3.19-.14q-.69,14.92-1.37,29.85Q478.74,638.21,477.83,623.35Z" fill="#6e6e6e"/><path d="M260.53,421.15l8.4,1.22.82,3-11.62,8.43v-10.3Z" fill="#8c8c8c"/><path d="M299.24,488.76c-5.67.42-11.34,1.12-17,1.17-4.44,0-8.89-.7-13.33-1.1l2.11-4.37,25.4,4.14Z" fill="#a7a7a7"/><path d="M447.83,593.54c-6.28-.69-12.57-1.22-18.79-2.23-1.1-.18-1.86-2.41-2.78-3.69l21.63,2.45Z" fill="#525252"/><path d="M380.68,570.13l0-3.09a70.18,70.18,0,0,0,9.25.53c4-.26,7.91-1.1,11.87-1.69q-1.12,2.91-2.24,5.84a3.49,3.49,0,0,0-1.94.29l-12.86-.44Z" fill="#050505"/><path d="M290,568.7c0-.7,0-1.41,0-2.11,5.31-2,10.87-5.73,14.77,2.13l-4.13,1.9Z" fill="#a7a7a7"/><path d="M447.83,593.54l.06-3.47,23.32,1.85Z" fill="#6e6e6e"/><path d="M384.72,571.57l12.86.44C392.13,576.44,389.48,576.35,384.72,571.57Z" fill="#8c8c8c"/><path d="M431.14,579.36l12.7,1.91C439.05,584.33,434.45,586.12,431.14,579.36Z" fill="#8c8c8c"/><path d="M324.87,556.46l3.21-.31c.21,1.77.41,3.55.66,5.66l-13.48-1.49Z" fill="#8c8c8c"/><path d="M348.93,567l12.83,1.29C355,572.19,353,572,348.93,567Z" fill="#8c8c8c"/><path d="M271,484.46l-2.11,4.37L266.74,495l-5.64-3.7Z" fill="#8c8c8c"/><path d="M365.78,569.19l8.72.93C371.14,574.09,368.07,575.31,365.78,569.19Z" fill="#8c8c8c"/><path d="M317.39,568.73l-5.42,6.7c-.44-3.26-.67-5-.9-6.73Z" fill="#a7a7a7"/><path d="M469,665.24l6.54-1.26C474.18,668.54,472,669.17,469,665.24Z" fill="#828282"/><path d="M264.71,547.66q2.1,2.07,4.19,4.15h-5.5Z" fill="#8c8c8c"/><path d="M343.05,566.16a1.39,1.39,0,0,1,1.72.41l-.6,2.81h-.94Z" fill="#8c8c8c"/><path d="M553.45,613q0-5.26-.05-10.55h2.11C558.19,606.62,560.24,610.68,553.45,613Z" fill="#a7a7a7"/><path d="M511.11,771.18,507,771l-4.89-5.53C507.57,765.65,510.86,766.11,511.11,771.18Z" fill="#a7a7a7"/><path d="M555.51,602.45H553.4c-2.94-3.67-4.21-7,2-8.46Z" fill="#9a9a9a"/><path d="M551.36,642.52q1-3.18,2-6.36C557,639.67,556,641.65,551.36,642.52Z" fill="#a7a7a7"/><path d="M475.4,746.93l2.8,2.88-.76,2L473.57,750Z" fill="#525252"/><path d="M357.36,607.67l31,3.07v10l-14.77-.67c-.91-3.39-1.6-5.94-2.34-8.68l-7.49-.52Z" fill="#1a1a1a"/><path d="M357.36,607.67l6.4,3.21c-.3,2-.61,4-1.07,7-4.11-2.86-11.2,2.28-11.95-8.22Z" fill="#050505"/><path d="M349.36,673.49l37.37,6.6-20.22,34.43C360.55,700.28,355.32,687.75,349.36,673.49Z"/><path d="M309.88,624.7l-34.42-22.28,34.42-16.72Z"/><path d="M351.11,364.37q0,8.31.1,16.61c-5.42.47-6.82,3.94-6.5,8.7-5.12,2-4,6.54-4.18,10.54-12.17-.69-24.34-1.73-36.52-1.94-6.75-.12-13.53,1.13-20.3,1.77l-6.31-.22c-1.32-1.26-2.51-3.44-4-3.64-11.12-1.53-22.28-2.81-33.47-3.76-1.46-.12-3.11,2.07-4.67,3.2-5.83-.14-4.1-4.59-4.12-7.67-.17-19.87-.14-39.73-.24-59.6,0-3.47-.34-6.94-.51-10.41q.36-23.15.73-46.28c5.54.51,4,4.8,4,7.95.15,18.47.15,36.93.19,55.39.25,4.66.49,9.32.77,14.58h5.42L254.07,352c1.65,1.32,3.23,3.67,5,3.8,13.35,1,26.73,1.54,40.11,2.23,1.38.07,2.76.19,4,.28l7.24,5.65C324.41,356.67,337.76,360.62,351.11,364.37Z"/><path d="M235.36,335c0-18.46,0-36.92-.19-55.39,0-3.15,1.52-7.44-4-7.95l0-4.26c5.57-.51,4-4.83,4-8,.16-8.9.05-17.8.05-26.66a17.48,17.48,0,0,1,2.59,0c.28.08.74.34.74.53q.45,50.81.84,101.6Z"/><path d="M277.4,399.83l6.31.22c1.59.55,3.15,1.44,4.77,1.59,20.85,1.85,41.7,3.6,62.55,5.38.14,1.36.28,2.73.47,4.55l20,5.41,1.81,8.68,13.52-3.76c-.33,4.46-.64,8.62-1,13.51l13.81-1.54-2.52,8.4-10.35.11L370,433.32c-2.4,8.16-4.52,15.39-6.64,22.61l-2.75-2c-.89-3-1.79-5.94-2.62-8.69l3.12-4.44L349,438.46v10.28l.15-.13-3.3,2.23-7.31,1.08c-1.35-1.15-2.54-3-4.07-3.34-4.21-1-8.56-1.45-12.2-2-3.08-8.8,4.3-10.21,7.08-13.49.23-3.7.41-6.62.57-9.18,6.81-2.38,7.21,11.82,16.08,3.09-2.13-2.07-3.93-5.11-6.49-6-3.44-1.21-7.47-.77-11.24-1-3.67-3.54-7.42-3.11-11.21-.2l-33.31-2.43c-1.43-1.57-2.62-3.49-4.32-4.63-4.39-2.94-8.74-5.73-8.39-11.93Z" fill="#828282"/><path d="M283.71,417.31,317,419.74,305.26,427l-7.47,21.55-18.56-1.57c0-1.05,0-2.1,0-3.15l14.22-.69c1.69-6.45,3.34-12.71,5-19-13.3-4.07-15.13-3.44-17.67,5.75L279,433.2l-2.4-5.58,6.16-10Z"/><path d="M277.4,399.83l-6.4.92-6.27-.36-6.32-.39-23.12-4.37c1.56-1.13,3.21-3.32,4.67-3.2,11.19.95,22.35,2.23,33.47,3.76C274.89,396.39,276.08,398.57,277.4,399.83Z"/><path d="M282.8,417.64l-6.16,10a5.91,5.91,0,0,1-1.51-.1q-.19-5.11-.41-10.23Z" fill="#828282"/><path d="M258.41,400l6.32.39-3.36,3.82Z" fill="#828282"/><path d="M351,407c-20.85-1.78-41.7-3.53-62.55-5.38-1.62-.15-3.18-1-4.77-1.59,6.77-.64,13.55-1.89,20.3-1.77,12.18.21,24.35,1.25,36.52,1.94,2.33.66,4.64,1.76,7,1.91,24,1.56,48.1,2.57,72.1,4.53,28.09,2.28,56.12,5.4,84.19,8,4.18.39,8.51-.33,12.59.44,2,.39,3.61,3,5.4,4.6-4,.14-8,.57-12,.37-12.72-.61-25.44-1.46-38.16-2.21l-2.53-.13-31.65-2.86-4.09-.64-4.48-.79Z"/><path d="M428.41,457.31a2,2,0,0,0-1.53,1.16l-8.41,1-8.29-3.5.06.26c.67-11.41,3.07-13.18,13.78-12.73a45.29,45.29,0,0,0,18.39-3.49l14,7.6c-.57,3.11-1.19,6.39-1.91,10.29l7.41,1.18,2.37-9.23c3-.92,6.37-3.12,9.35-2.65,4.59.73,10.94-.27,12.75,7.78l-7.2,2.9c-1.1-2.81-1.89-4.81-3.48-8.85-2.47,3.68-3.95,5.89-6.48,9.68,5.17.95,8.43,1.66,11.73,2.13,2.94.42,5.92.56,8.87,1.65-7.79,4.64-15.82.08-23.69.7h-4.56l-.71-.38-10.56-1.08-4.6-2c.89-3.82,1.61-6.94,2.75-11.84l-8.21,4.39-7.85-4.84Zm-12.67-2c8.61-3,8.61-3,4.43-10.2Z"/><path d="M503.27,453.5l-8.32.72c-.74-1.34-1.85-3.36-3.61-6.53l9.71-5.28c.33,3.19.52,5.07.75,7.33l11.58,1.49c-1.57,4.9-3,9.3-4.59,14.37l-7.26-.8C502.14,460.88,502.64,457.62,503.27,453.5Z"/><path d="M410.24,456.28l-.06-.26c-5.35,2.65-10.33,2.21-14.89-1.76a2.3,2.3,0,0,0,.06-1.42q.88-5.28,1.78-10.57l2.52-8.4,6.7-5.17,2.1,1.76c-1.89,7.3-3.77,14.61-5.8,22.45Z"/><path d="M437.49,414.91l31.65,2.86c-2.28,6.76-10.68-1.33-11.75,5.83-6.27-1.73-11.35-2.9-16.22-4.64C439.66,418.42,438.7,416.31,437.49,414.91Z" fill="#525252"/><path d="M428.92,413.48l4.48.79-2.63,3.42Z" fill="#525252"/><path d="M461.54,463.24h0Z" fill="#828282"/><path d="M395.35,452.84a2.3,2.3,0,0,1-.06,1.42l-19.17,1.88L380.76,446l-5.93-3c-1.75,6.62-3.29,12.43-4.82,18.24l-7.88,3.13c.58-4.09.9-6.28,1.21-8.47,2.12-7.22,4.24-14.45,6.64-22.61l16.8,9.06c-.28,3.22-.56,6.45-.9,10.46Z"/><path d="M428.41,457.31l3.95-9.8,7.85,4.84,8.21-4.39c-1.14,4.9-1.86,8-2.75,11.84l4.6,2-7.72,7.55Z" fill="#6e6e6e"/><path d="M359.46,473.73l17,.66H382c-.56,3.1-1,5.51-1.42,7.92-.08.58-.16,1.15-.23,1.73-6.2-.21-12.42-.24-18.6-.77-1.53-.14-2.92-1.94-4.38-3Z" fill="#353535"/><path d="M422.7,489a6.28,6.28,0,0,0-1.76-.47c.33-2.28.65-4.57,1.12-7.86l9.47-.68c0,1.58.05,3.17.07,4.75C430.82,490.72,425.68,487.6,422.7,489Z" fill="#1a1a1a"/><path d="M431.6,484.74c0-1.58-.05-3.17-.07-4.75l13.3-.58,1.1,3-1.13,4.62Z" fill="#525252"/><path d="M444.8,487.08l1.13-4.62h9c-.27,3.23-.47,5.64-.68,8.05l-8.34.33Z" fill="#1a1a1a"/><path d="M418.47,459.52l8.41-1-6.52,5.81C419.42,461.9,418.94,460.71,418.47,459.52Z" fill="#6e6e6e"/><path d="M380.39,484c.07-.58.15-1.15.23-1.73l4.05,2.08Z" fill="#525252"/><path d="M403.77,478.14c-.35-.31-.69-.63.16.15-.78-.85-.46-.51-.15-.16Z" fill="#8c8c8c"/><path d="M568.89,170.53c-.78-.88-2.35-1.88-2.23-2.6.93-5.5,2.2-10.94,3.36-16.4C573.44,159.87,573.11,165.43,568.89,170.53Z" fill="#6e6e6e"/><path d="M563.83,243.88c0-.52,0-1,0-1.55l2,1.86A3.77,3.77,0,0,1,563.83,243.88Z" fill="#1a1a1a"/><path d="M511.06,265.26q-.88,34.65-1.77,69.3c-.21,8.42-.31,16.85-.45,25.27l-16.77-.09-10.36-8.14c.71-2.06,1.41-4.13,2.12-6.19l0,0c5.46.29,9-1.5,8.29-7.76,0-.39-.71-.7-1.1-1.07-.72,1.15-1.39,2.2-2.2,3.5L487,333.47c-.86,2.61-1.45,4.39-2.4,7.25-.64-3.9-1.08-6.59-1.5-9.17l-11.6-.61c-.29,2.09-.6,4.31-.9,6.54l-1.9-.09V322.11l-1.82.11v15l-1.3.13c-.44-2.42-.87-4.83-1.69-9.37-1,4.58-1.45,6.94-2.3,11-.85-4.51-1.34-7.15-1.86-9.88H448.87c-.54,3.16-1,5.75-1.25,7.28l-11.11-16.09L424.33,330l3.13,3.08-1.62-9.85-15.45,5.49c-.23,1-.62,2.81-1,4.58l-1-.18V321.73l-10.51,11.13c-.33-2.36-.66-4.69-1-7H396c-.39,2.54-.78,5.07-1.54,10l-2.34-13-2.18-.48c-1.95,3.73-3.89,7.47-6.45,12.36-.56-3.81-.94-6.34-1.32-8.88l-.93,0c-.37,2.49-.75,5-.86,5.76l-15.09,1.79L368,337q-2.39,6.51-4.79,13l-.79,0c-4.73-3.12-9-5.08-8.29-13.23.58-6.51,3.41-13.08,1-21.42a548.25,548.25,0,0,0-67.74-2.69V277.93l-16.94-1c-.4-2.58-.87-5.58-1.57-10.07L289.92,271v36c4.59.2,7.7.22,10.78.51s6.07.84,8.6,1.2l5.26-3.58c4.76,5.58,21.06,6.14,28,2.15l14.9,2.73c-5.63-21,2.77-41.41-6.37-60.73l1.42-8.4-1.57-1.16-11.66,11.6v-15.5h16.21c1.85-4.34,3.77-8.86,6.22-14.6,5.5-3.49,12.89-4.44,20.76-4.51,8.52-.09,17-1.26,25.55-1.95l102.89,2.28c.09,3.46.19,6.93.28,10.4-5.49,0-7.61,4.48-7.57,8.29.08,9.54,1.42,19.06,2.28,28.88Zm-54.44,50.5,16.71-4.1-.74,14,11.48-6.17-4.45-11.72-6.33,3.91c3.75-7.53,4.18-7.66,12.2-3.64l4.35-8.74c-2.55-7.51-3.46-15.48-13.76-16.7-9.58,8.11-17.35,17.85-19.66,31.2l-9.74-5c-1.86-8,1.7-15.38-5.83-20.12l-3.3,9.07,5,8.73c-2.89,3.62-5.62,7-8.3,10.36C444,321.76,450.22,321.44,456.62,315.76ZM430.41,277l-2.57-.1q-1.95,18.06-3.91,36.11l-2.16.38-5.72-12.92c-2.09,5.31-3.6,9.12-5.36,13.61-9.3-4.54-20.13,4-29.39-5.37-.52-5.84-1.11-12.55-1.71-19.26l-2,.3v25.91l34.47,3,3.33-5.6c2,5.11,4.18,9.55,10.94,4.62.36-4.2.74-8.62,1.09-12.62,2.27-1.64,4.1-3,6.32-4.53L430.41,296ZM368.64,251.6h9.59c-.15-5.58,2.48-11.35-5-13.69C366.41,240,368,245.05,368.64,251.6Zm68.93-.21c1.29,2.77,2.34,5,3.75,8l10.29-8ZM432.2,311c.13-.95.21-1.49,0,0Z" fill="#1a1a1a"/><path d="M237.31,214.76q0-8.43,0-16.86l4.47-1.89c21.81,7.1,43.71,2.91,65.23,3.86l58.71,2.37-6.05,6c-37.74,1.79-75.48-4.69-114.39-.95,1.81,7.31,3.37,13.59,4.93,19.88l-2.07,99.41c-.07,1.35-.15,2.7-.22,4a56.57,56.57,0,0,0-2.25-7.44c-.82-1.84-2.36-3.37-3.58-5,.24-26.19.53-52.38.67-78.56,0-4.11-.66-8.23-1-12.34.73-4.52,1.46-9,2.47-15.32Z" fill="#050505"/><path d="M492.07,359.74l16.77.09v6.29c-11.48,0-22.55.17-33.62-.08-5.18-.11-10.33-1.29-15.52-1.58-27.14-1.54-54.3-2.91-81.44-4.44-7.63-.43-15.24-1.21-22.86-1.82l-5.2,1,5.13.95-4.22,4.24c-13.35-3.75-26.7-7.7-40.72-.39l-7.24-5.65c-1.23-.09-2.61-.21-4-.28-13.38-.69-26.76-1.25-40.11-2.23-1.75-.13-3.33-2.48-5-3.8,7,0,14-.22,21,.13,23.35,1.17,46.68,2.66,70,3.67,1.94.09,4-2.49,6-3.82l11.27-2,.79,0c3.64,1.27,7.21,3.36,10.92,3.65,7,.54,14.08,0,21.12,0l50.82,4.12Z"/><path d="M359.63,208.29l6.05-6c38.15.68,76.31,1.18,114.45,2.16,11.4.29,22.76,1.93,35.2,3,0,9.13.13,18.17-.15,27.19,0,1.19-2.07,2.31-3.19,3.47l-.84-10.66c-.09-3.47-.19-6.94-.28-10.4,0-2,.09-4,.14-6a12.73,12.73,0,0,0,.67-1.74c.05-.21-.29-.74-.46-.74-8.34-.08-16.68-.31-25-.05-3.58.11-7.14,1.25-10.7,1.92l-12.77.09-73.87-1.79Z"/><path d="M511.15,227.45l.84,10.66-.93,27.15-5.2-.64c-.86-9.82-2.2-19.34-2.28-28.88C503.54,231.93,505.66,227.49,511.15,227.45Z" fill="#353535"/><path d="M490.27,199.69a6.47,6.47,0,0,1,.05-1.46l36.48-.31c-.62,4.29-3.65,4.22-6.93,4C510,201.1,500.13,200.41,490.27,199.69Z" fill="#1a1a1a"/><path d="M355.32,381.21l10.09,7.7,8.21,2c-.11.68-.21,1.36-.31,2l-18.09-1.29C355.25,388.17,355.29,384.69,355.32,381.21Z"/><path d="M355.32,381.21c0,3.48-.07,7-.1,10.44l-10.51-2c-.32-4.76,1.08-8.23,6.5-8.7Z"/><path d="M355.33,360.13l-5.13-.95,5.2-1C355.35,358.84,355.33,359.48,355.33,360.13Z"/><path d="M350.9,178.64c-8.45-3.59-8.85-8.14-1.35-15.19l10.65,8.61-7.12,5L351,178.86Z" fill="#353535"/><path d="M378.93,175c-6.59,5.75-9.59-2-16.52-3.46,6.36-3.72,9.13-10.59,16.28-5.38Q373.7,170.73,378.93,175Z"/><path d="M378.93,175q-5.22-4.27-.24-8.84l7.9,4.36Z"/><path d="M368,193.7q-3.26,4.41-6.36-.09Z"/><path d="M351,178.86l2.13-1.81Z" fill="#828282"/><path d="M327.92,143.12l-1,1.3-1.05-1.28Z" fill="#8c8c8c"/><path d="M351.14,352c-2,1.33-4.06,3.91-6,3.82-23.36-1-46.69-2.5-70-3.67-7-.35-14-.11-21-.13l-12.52-2.43-.12-4.42q.31-13.49.62-27c1.22,1.66,2.76,3.19,3.58,5a56.57,56.57,0,0,1,2.25,7.44V345.1h6.54l6,.24,8.4.09c3.4.64,6.78,1.71,10.2,1.85,24,.94,48,1.68,72.05,2.49C351.12,350.51,351.13,351.25,351.14,352Z" fill="#1a1a1a"/><path d="M237.31,214.76l6.86-2.78c-1,6.29-1.74,10.8-2.47,15.32l-6.9-.44C235.7,222.54,236.51,218.65,237.31,214.76Z"/><path d="M241.43,345.17l.12,4.42h-5.42c-.28-5.26-.52-9.92-.77-14.58l4-.1Z" fill="#050505"/><path d="M461,577.57c-.92-.5-1.92-1.56-2.73-1.42a70.66,70.66,0,0,1-33.72-2.79c-5.12-1.18-6.12-4.93-6.07-9.49.19-16.66.3-33.32.44-50,4-.64,8.16-2.16,12.1-1.77,15.48,1.55,30.89,3.73,46.35,5.54.71.08,1.58-1.07,2.37-1.65l2.12.1-.06,25.21c-.72,3.18-1.95,6.34-2.06,9.54-.3,8.61-.13,17.23-.14,25.84Zm2.58-36.71-2.82-1.54c-6.53-4-13-1.82-19.42.28l-4.4-2.63c-1,1.31-1.72,2.32-2.48,3.33l-6.08-3.15c.29,3.51.47,5.74.61,7.45l10.29.6c4.67,5.16,9.36,7.11,14.82.81,1.18-1.36,3.6-1.64,5.45-2.41.46,1.47.91,2.93,1.52,4.92l2.58-2.46c3.09-.66,8.13,1.11,6.75-5.2Z" fill="#9a9a9a"/><path d="M401.76,565.88c-4,.59-7.9,1.43-11.87,1.69a70.18,70.18,0,0,1-9.25-.53l-38-4.62c-.69-2.79-1.39-5.58-2.08-8.37.06-7.24,0-14.49.22-21.72.34-8.9,1-17.78,1.5-26.67,3-.62,6-1.94,9-1.73,16.4,1.15,32.78,2.68,49.16,4.07.42,4.14,1.17,8.27,1.2,12.4.11,15,0,29.89-.06,44.84Zm-13-13-18.69-41.17-19.79,37.13Z" fill="#9a9a9a"/><path d="M328.23,419.94c3.77.27,7.8-.17,11.24,1,2.56.9,4.36,3.94,6.49,6-8.87,8.73-9.27-5.47-16.08-3.09-.16,2.56-.34,5.48-.57,9.18-2.78,3.28-10.16,4.69-7.08,13.49,3.64.56,8,1,12.2,2,1.53.38,2.72,2.19,4.07,3.34l-24.25-2.63c-3.63-10.05,2.22-13.16,6-17.69Q324.23,425.78,328.23,419.94Z"/><path d="M400.43,508c-16.38-1.39-32.76-2.92-49.16-4.07-2.93-.21-6,1.11-9,1.73l.38-4.35,2.23-2.07c3.24-.55,7.94,1.66,8.3-4.37l6.32.08c-.21,1.95-.42,3.9-.68,6.23,4-.27,8.5,2,9.13-4.27l8.39.19-4.92,6.74c6.61-1.92,12.77,3.59,15.46-4.63l8.41.05c0,.7,0,1.39,0,2.08l2.07,2.14,3,2.37Z" fill="#aeaeae"/><path d="M479.74,516c-.79.58-1.66,1.73-2.37,1.65-15.46-1.81-30.87-4-46.35-5.54-3.94-.39-8.06,1.13-12.1,1.77l7.32-8.22a16.83,16.83,0,0,1,4.14,0C442.8,509,442.79,509,455.33,507c6.5,8,14.72,4.49,23.25,3.33Z" fill="#aeaeae"/><path d="M326.18,475c6.29-7.24,14.4-1.38,21.93-2.5v9l-22-3.15C326.15,477.22,326.17,476.12,326.18,475Z" fill="#525252"/><path d="M444.8,487.08l1.11,3.76L442.14,497l-7.38-7.74-5,7.3c-4.45-.45-7.5-2.2-7.09-7.55,3-1.4,8.12,1.72,8.9-4.26Z" fill="#828282"/><path d="M349,448.74V438.46l12.13,2.38L358,445.28c.83,2.75,1.73,5.72,2.62,8.69l-2.37,1.42a1.46,1.46,0,0,1-1.56,0Z"/><path d="M304.69,495q-1.06-3.1-2.14-6.22c5.59.14,11.2,0,16.75.51,3.33.33,6.84,1.47,6.42,6.17l-3.8,1.55Z" fill="#a7a7a7"/><path d="M400.43,508v-2.15l3.24-.15-.06-.09a13.11,13.11,0,0,0,.28,2c-.08,15.59-.05,31.19-.35,46.78-.07,3.64-1.28,7.25-2,10.87,0-15,.17-29.89.06-44.84C401.6,516.27,400.85,512.14,400.43,508Z" fill="#525252"/><path d="M342.69,501.31l-.38,4.35c-.51,8.89-1.16,17.77-1.5,26.67-.27,7.23-.16,14.48-.22,21.72-.71-1.08-2-2.16-2-3.25-.12-14.95-.2-29.9.12-44.84C338.69,504.39,341.29,502.86,342.69,501.31Z" fill="#525252"/><path d="M279,433.2l1.76-3.31,9.42-3c.72,3,1.27,5.4,1.8,7.64C286.49,438.56,282.4,438.45,279,433.2Z" fill="#050505"/><path d="M461,577.57l18.6-.87c2.65,4.43-1,5.15-3.66,5.22-5,.14-10-.49-15-.8C461,579.93,461,578.75,461,577.57Z" fill="#050505"/><path d="M303.41,468.63l9.35,1.5v7.26h-9.95c1.22-2.07,2.23-3.25,2.59-4.61C305.59,472.07,304.63,471.05,303.41,468.63Z" fill="#525252"/><path d="M386.92,499.21c-2.69,8.22-8.85,2.71-15.46,4.63l4.92-6.74Z" fill="#a7a7a7"/><path d="M353.22,494.87c-.36,6-5.06,3.82-8.3,4.37l-1.58-3.75C346.63,492.33,349.8,491.46,353.22,494.87Z" fill="#a7a7a7"/><path d="M368,496.91c-.63,6.31-5.17,4-9.13,4.27.26-2.33.47-4.28.68-6.23Z" fill="#a7a7a7"/><path d="M481.8,541.32l.06-25.21Z" fill="#6e6e6e"/><path d="M359.46,473.73l-2,6.57.09-.07-3.3,0,.1.1L353.24,478c0-2.05,0-4.09-.05-6.14l0,0Z" fill="#828282"/><path d="M403.67,505.7l-3.24.15-3-2.37v-2.15l2.11,0Q401.61,503.52,403.67,505.7Z" fill="#9a9a9a"/><path d="M356.66,455.42a1.46,1.46,0,0,0,1.56,0l-.86,4.69-1.63-.43Z" fill="#828282"/><path d="M410.09,497.09c.79-.64,1.58-1.28,2.36-1.93l.57,1.31-2.92.64Z" fill="#828282"/><path d="M399.55,501.31l-2.11,0c-.69,0-1.38,0-2.07,0,0-.69,0-1.38,0-2.08Z" fill="#a7a7a7"/><path d="M408,577.16c.32-.34.63-.69-.05.05.75-.67.4-.36.05,0Z" fill="#9e9e9e"/><path d="M345.81,450.84l3.3-2.23Z"/><path d="M403.89,507.59a13.11,13.11,0,0,1-.28-2l1.4.8Z" fill="#9a9a9a"/><path d="M353.19,471.83l.55.52c-1.17-1.27-.84-.91-.51-.56Z" fill="#828282"/><path d="M410.1,497.11c-.31.34-.63.69.14-.16-.84.77-.49.46-.15.14Z" fill="#828282"/><path d="M353.24,478l1.06,2.34-2.26-1Z" fill="#353535"/><path d="M302.59,488.76l-2.64.09c.46-.48.91-1,1.38-1.44Z" fill="#a7a7a7"/><path d="M354.2,480.21l3.3,0Z" fill="#353535"/><path d="M304.69,495l17.23,2,2.19,1.72c-2.76.82-5.58,2.5-8.26,2.32-15.7-1.08-31.36-2.59-47-3.95.45-5.32,4.49-4.56,7.83-4.34C286,493.33,295.34,494.2,304.69,495Z" fill="#aeaeae"/><path d="M277.92,519.67l18,1-6.18,11-3.14-8.89-1.7,6-7-3.75Z" fill="#353535"/><path d="M309,532.43l-10.34-1.59c1.51-9.17,1.8-9.32,10.2-6.07C308.88,527.32,308.92,529.88,309,532.43Z"/><path d="M309,532.43c-.05-2.55-.09-5.11-.14-7.66,3.91-.52,8-1.57,11.74,4.92Z" fill="#1a1a1a"/><path d="M277.92,519.67V525l7,3.75H273V518.36Z" fill="#050505"/><polygon points="316.47 534.31 316.23 533.71 316.85 533.78 316.47 534.31" fill="#1a1a1a"/><path d="M429.59,645v-40.9l38.15,24.34Z"/><path d="M395.35,452.84h-9.47c.34-4,.62-7.24.9-10.46l10.35-.11Q396.25,447.55,395.35,452.84Z" fill="#6e6e6e"/><path d="M415.74,455.28l4.43-10.2C424.35,452.25,424.35,452.25,415.74,455.28Z" fill="#6e6e6e"/><path d="M351.14,352c0-.75,0-1.49,0-2.23l-.32-5.26-3.55,1.81c-1.42-3.77-2.83-7.49-4.1-10.84l-42.81-3-.15,1.31,6.86,2.58c-.37,3-.7,5.63-1,8.26l-15.63-2.19c-1.35-4.61-2.67-9.13-4.06-13.85H273.7l-13.23-8.56,15.72-6.17L267.54,309c-2.49,3.95-4.75,7.56-7,11.16-1.34.85-3.71,1.57-3.85,2.59-1,7.42-1.56,14.91-2.26,22.37h-6.54V330.67c.07-1.34.15-2.69.22-4,1.25-1,3.42-1.9,3.62-3.1,1.08-6.5,2.27-13.08,2.35-19.65q.39-35.25-.1-70.5c0-2.07-2.47-4.11-3.8-6.16-1.56-6.29-3.12-12.57-4.93-19.88,38.91-3.74,76.65,2.74,114.39.95l29.24.49c.08,1.31.16,2.61.25,3.92L408,214.77c-8.51.69-17,1.86-25.55,1.95-7.87.07-15.26,1-20.76,4.51-2.45,5.74-4.37,10.26-6.22,14.6H339.24v15.5l11.66-11.6,1.57,1.16-1.42,8.4c9.14,19.32.74,39.77,6.37,60.73l-14.9-2.73c-6.9,4-23.2,3.43-28-2.15l-5.26,3.58c-2.53-.36-5.55-.92-8.6-1.2s-6.19-.31-10.78-.51V271l-21.06-4.16c.7,4.49,1.17,7.49,1.57,10.07l16.94,1v34.73a548.25,548.25,0,0,1,67.74,2.69c2.42,8.34-.41,14.91-1,21.42-.71,8.15,3.56,10.11,8.29,13.23Zm-85.69-55.67h20.42c-.48-4.89-.9-9-1.27-12.81H265.45Zm21.18-42.92c1.11,2.91,1.69,4.46,2.28,6l1.23-.34-.87-11.84h-17l-4.34,13.43h16.83C285.32,258.37,285.84,256.41,286.63,253.41Z" fill="#353535"/><path d="M483.83,345.41c-.71,2.06-1.41,4.13-2.12,6.19l-8.43,4.21-10.51-4.08-7.12-9.84H440.28c-.51,3.4-.91,6.1-1.32,8.85H428.47c.38-4.17.68-7.63,1-11.26l-53.28-2.39L368,337l-2.75-3.6,15.09-1.79c.11-.78.49-3.27.86-5.76l.93,0c.38,2.54.76,5.07,1.32,8.88,2.56-4.89,4.5-8.63,6.45-12.36l2.18.48,2.34,13c.76-5,1.15-7.49,1.54-10h.93c.33,2.34.66,4.67,1,7l10.51-11.13v11.43l1,.18c.4-1.77.79-3.54,1-4.58l15.45-5.49,1.62,9.85L424.33,330l12.18-9.68,11.11,16.09c.26-1.53.71-4.12,1.25-7.28h10.84c.52,2.73,1,5.37,1.86,9.88.85-4.08,1.34-6.44,2.3-11,.82,4.54,1.25,7,1.69,9.37l1.3-.13v-15l1.82-.11v15.28l1.9.09c.3-2.23.61-4.45.9-6.54l11.6.61c.42,2.58.86,5.27,1.5,9.17.95-2.86,1.54-4.64,2.4-7.25l1.87,6.58c.81-1.3,1.48-2.35,2.2-3.5.39.37,1.05.68,1.1,1.07.7,6.26-2.83,8.05-8.29,7.76l-4.19-1.86-.54,1.89Z" fill="#050505"/><path d="M473.33,311.66l-16.71,4.1c-.07-.65-.14-1.29-.2-1.94,2.31-13.35,10.08-23.09,19.66-31.2,10.3,1.22,11.21,9.19,13.76,16.7l-4.35,8.74c-8-4-8.45-3.89-12.2,3.64Z" fill="#353535"/><path d="M430.41,277v19l3.36,4.48c-2.22,1.58-4,2.89-6.32,4.53-.35,4-.73,8.42-1.09,12.62-6.76,4.93-8.93.49-10.94-4.62l-3.33,5.6-34.47-3V289.71l2-.3c.6,6.71,1.19,13.42,1.71,19.26,9.26,9.35,20.09.83,29.39,5.37,1.76-4.49,3.27-8.3,5.36-13.61l5.72,12.92,2.16-.38q1.95-18.06,3.91-36.11Z" fill="#050505"/><path d="M408,214.77l-18.86-2.07c21.31,0,42.62.06,63.92-.13,3.24,0,6.47-1.3,9.7-2l12.77-.09,35.5.61c-.05,2-.1,4-.14,6Z" fill="#050505"/><path d="M456.42,313.82c.06.65.13,1.29.2,1.94-6.4,5.68-12.67,6-22.39,1.12,2.68-3.35,5.41-6.74,8.3-10.36l-5-8.73,3.3-9.07c7.53,4.74,4,12.08,5.83,20.12Z" fill="#050505"/><path d="M368,337l8.21.09-4.28,5.17c2.91,8.25,10.35,5.24,15.45,7.27,2.81,1.12,7.49-1.65,7.87,4.12-7,.06-14.12.56-21.12,0-3.71-.29-7.28-2.38-10.92-3.65Q365.6,343.51,368,337Z" fill="#353535"/><path d="M462.77,351.73l10.51,4.08,8.43-4.21,10.36,8.14-46-2c1.57-1.32,2.95-3.31,4.75-3.84C454.68,352.8,458.77,352.42,462.77,351.73Z" fill="#353535"/><path d="M368.64,251.6c-.62-6.55-2.23-11.6,4.63-13.69,7.44,2.34,4.81,8.11,5,13.69Z" fill="#050505"/><path d="M473.29,311.7l6.33-3.91,4.45,11.72-11.48,6.17.74-14Z" fill="#353535"/><path d="M437.57,251.39h14l-10.29,8C439.91,256.42,438.86,254.16,437.57,251.39Z" fill="#050505"/><path d="M432.2,311h0C432.41,309.46,432.33,310,432.2,311Z" fill="#050505"/><path d="M250.17,227.22c1.33,2.05,3.78,4.09,3.8,6.16q.43,35.25.1,70.5c-.08,6.57-1.27,13.15-2.35,19.65-.2,1.2-2.37,2.08-3.62,3.1Z" fill="#1a1a1a"/><path d="M462.77,351.73c-4,.69-8.09,1.07-12,2.2-1.8.53-3.18,2.52-4.75,3.84l-50.82-4.12c-.38-5.77-5.06-3-7.87-4.12-5.1-2-12.54,1-15.45-7.27l4.28-5.17,53.28,2.39c-.33,3.63-.63,7.09-1,11.26H439c.41-2.75.81-5.45,1.32-8.85h15.37Zm-20.44-9.34c-.23,4.44-.36,7-.57,11.16,2.9-3.12,4.76-5.12,7.38-7.92Z" fill="#1a1a1a"/><path d="M462.74,210.57c-3.23.7-6.46,2-9.7,2-21.3.19-42.61.12-63.92.13-.09-1.31-.17-2.61-.25-3.92Z" fill="#1a1a1a"/><path d="M511,211.09l-35.5-.61c3.56-.67,7.12-1.81,10.7-1.92,8.33-.26,16.67,0,25,.05.17,0,.51.53.46.74A12.73,12.73,0,0,1,511,211.09Z"/><path d="M254.42,345.1c.7-7.46,1.25-15,2.26-22.37.14-1,2.51-1.74,3.85-2.59l-.06-.06,13.23,8.56h12.61c1.39,4.72,2.71,9.24,4.06,13.85L306,344.68c.33-2.63.66-5.25,1-8.26l-6.86-2.58.15-1.31,42.81,3c1.27,3.35,2.68,7.07,4.1,10.84l3.55-1.81.32,5.26c-24-.81-48-1.55-72.05-2.49-3.42-.14-6.8-1.21-10.2-1.85L279.17,341c-.21-2.87-.43-6-.77-10.59l-17.95,3v11.92Z" fill="#525252"/><path d="M260.45,345.34V333.42l17.95-3c.34,4.59.56,7.72.77,10.59l-10.32,4.46Z" fill="#353535"/><path d="M441.34,539.6c6.45-2.1,12.89-4.31,19.42-.28l-1.21,4.28c-1.85.77-4.27,1-5.45,2.41-5.46,6.3-10.15,4.35-14.82-.81C440,543.33,440.65,541.46,441.34,539.6Z" fill="#525252"/><path d="M441.34,539.6c-.69,1.86-1.37,3.73-2.06,5.6L429,544.6c-.14-1.71-.32-3.94-.61-7.45l6.09,3.15,2.47-3.33Z"/><path d="M463.58,540.86h6.82c1.38,6.31-3.66,4.54-6.75,5.2Z" fill="#353535"/><path d="M463.58,540.86l.07,5.2-2.58,2.46c-.61-2-1.06-3.45-1.52-4.92l1.21-4.28Z"/><path d="M388.74,552.88l-38.48-4,19.79-37.13Z"/><path d="M395.37,501.34c.69,0,1.38,0,2.07,0v2.15Z" fill="#8c8c8c"/><path d="M265.45,296.33V283.52H284.6c.37,3.78.79,7.92,1.27,12.81Z" fill="#1a1a1a"/><path d="M286.63,253.41c-.79,3-1.31,5-1.92,7.26H267.88l4.34-13.43h17l.87,11.84-1.23.34C288.32,257.87,287.74,256.32,286.63,253.41Z" fill="#1a1a1a"/><path d="M260.53,320.14c2.26-3.6,4.52-7.21,7-11.16l8.65,4.93-15.72,6.17Z" fill="#525252"/><path d="M483.83,345.41h-4.7l.54-1.89,4.19,1.86Z" fill="#1a1a1a"/><path d="M442.33,342.39l6.81,3.24c-2.62,2.8-4.48,4.8-7.38,7.92C442,349.42,442.1,346.83,442.33,342.39Z" fill="#050505"/></svg>