<?xml version="1.0" encoding="utf-8"?>
<!-- Generator: Adobe Illustrator 24.1.2, SVG Export Plug-In . SVG Version: 6.00 Build 0)  -->
<svg version="1.1" id="final_svg" xmlns="http://www.w3.org/2000/svg" xmlns:xlink="http://www.w3.org/1999/xlink" x="0px" y="0px"
	 viewBox="0 0 539.1 244.7" style="enable-background:new 0 0 539.1 244.7;" xml:space="preserve">
<style type="text/css">
	.st0{fill:#FFFFFF;}
</style>
<g id="color_index_0" transform="translate(258.70631589560514, 256.738025) scale(0.35)">
	<path class="st0" d="M14.2-713.2c0,11.2-9.1,20.4-20.4,20.4s-20.4-9.1-20.4-20.4s9.1-20.3,20.4-20.3
		C5.1-733.5,14.2-724.4,14.2-713.2z M144.3-571.3c0-54.1-27.8-103-74.3-131c-2.7-1.7-6.3-0.8-7.9,2c-1.6,2.7-0.8,6.3,2,7.9
		c43,25.8,68.7,71.1,68.7,121c0,77.9-63.4,141.2-141.2,141.2c-77.9,0-141.2-63.4-141.2-141.2c0-50,25.7-95.2,68.7-121
		c2.7-1.6,3.6-5.2,2-7.9c-1.6-2.7-5.2-3.7-7.9-2c-46.5,27.9-74.3,76.9-74.3,131c0,84.3,68.6,152.8,152.8,152.8
		S144.3-487.1,144.3-571.3z"/>
</g>
<g id="text_group" transform="translate(48.100063981542576, 379.247025)">
	<path class="st0" d="M-48.1-200.6L-48.1-200.6c0-4.1,0.9-7.7,2.6-10.7c1.7-3,3.9-5.5,6.7-7.5c2.7-2,5.8-3.4,9.2-4.4
		c3.4-1,6.9-1.4,10.4-1.4l0,0c3.9,0,7.8,0.6,11.6,1.7c3.8,1.1,7.7,3.1,11.7,5.9l0,0l-6.3,6.4c-2.9-2-5.8-3.4-8.7-4.2
		s-5.9-1.2-8.8-1.2l0,0c-2.3,0-4.6,0.3-6.9,0.8s-4.4,1.4-6.3,2.5c-1.9,1.2-3.4,2.7-4.6,4.7c-1.1,2-1.7,4.4-1.7,7.3l0,0
		c0,3.5,1.1,6.2,3.2,8.1c2.2,1.9,4.9,3.4,8.1,4.6c3.3,1.2,6.8,2.3,10.6,3.2c3.8,1,7.3,2.3,10.6,4c3.3,1.7,6,4,8.2,6.9
		c2.2,2.9,3.2,6.9,3.2,12l0,0c0,4.3-0.7,8.2-2.2,11.5c-1.4,3.4-3.4,6.2-6,8.5c-2.6,2.3-5.6,4.1-9.2,5.3c-3.6,1.2-7.4,1.8-11.6,1.8
		l0,0c-4.1,0-8-0.6-11.7-1.8c-3.8-1.2-7.6-3.2-11.5-6l0,0l6.2-6.4c3,2,6,3.4,8.9,4.2c2.9,0.8,5.8,1.2,8.7,1.2l0,0
		c2.2,0,4.5-0.4,6.8-1.3c2.3-0.8,4.4-2,6.3-3.6s3.4-3.5,4.6-5.7c1.2-2.3,1.8-4.9,1.8-7.8l0,0c0-3.5-1.1-6.2-3.2-8
		c-2.2-1.8-4.9-3.2-8.2-4.3c-3.3-1.1-6.8-2.1-10.6-2.9c-3.8-0.9-7.3-2.2-10.6-3.9c-3.3-1.7-6-4.1-8.2-7.2
		C-47-191.1-48.1-195.3-48.1-200.6z M72.6-134.6l-46.8-46.6l46.8-43.4h11.7l-46.8,43.4l46.8,46.6H72.6z M134.6-175.1l-36.5-49.5
		h11.4l29.6,39.3l29.3-39.3h11.6l-36.6,49.5v40.5h-8.8V-175.1z M240.9-134.6H232v-49.3h56.4v-40.7h8.8v90h-8.8v-40.5h-47.5V-134.6z
		 M328.5-167.9L328.5-167.9v-56.7h8.8v58c0,4.7,0.7,8.6,2.2,11.6c1.5,3,3.4,5.4,5.6,7.1c2.3,1.7,4.8,2.9,7.5,3.6
		c2.7,0.7,5.4,1,7.9,1l0,0c2.9,0,5.8-0.3,8.8-1c2.9-0.7,5.6-1.9,8-3.6c2.4-1.7,4.4-4.1,5.9-7.1c1.5-3,2.3-6.9,2.3-11.6l0,0v-58h8.8
		v56.7c0,2.2-0.1,4.6-0.4,7.1c-0.3,2.5-0.8,5-1.7,7.4c-0.8,2.4-2,4.8-3.5,7.1c-1.5,2.3-3.5,4.3-6.1,6c-2.5,1.7-5.6,3.1-9.2,4.1
		c-3.6,1-7.9,1.6-12.9,1.6l0,0c-7.1,0-12.8-1.1-17-3.4c-4.2-2.2-7.5-5-9.7-8.3c-2.3-3.3-3.7-6.9-4.4-10.8
		C328.8-160.9,328.5-164.5,328.5-167.9z M468.7-134.6h-43v-8.8h42.8c0.3,0,1.2-0.1,2.6-0.4c1.4-0.3,3-0.9,4.6-2
		c1.6-1,3.1-2.6,4.4-4.7s1.9-5,1.9-8.7l0,0c0-3.7-0.6-6.6-1.9-8.7s-2.8-3.7-4.4-4.8c-1.6-1.1-3.2-1.7-4.7-2
		c-1.5-0.3-2.4-0.4-2.7-0.4l0,0h-42.7v-8.8h35.7c0.3,0,1.2-0.2,2.6-0.5c1.4-0.3,2.9-1,4.5-2.1s3-2.8,4.2-4.9
		c1.2-2.2,1.9-5.1,1.9-8.8l0,0c0-3.7-0.7-6.7-2-8.8c-1.3-2.1-2.8-3.7-4.4-4.7c-1.6-1-3.1-1.6-4.5-1.9c-1.4-0.3-2.1-0.4-2.3-0.4l0,0
		h-35.7v-8.7h35.7c0.1,0,0.4,0,1.1,0.1c0.6,0,1.5,0.2,2.5,0.3c1,0.2,2.1,0.5,3.4,1c1.3,0.4,2.6,1.1,3.9,1.8l0,0
		c1.2,0.7,2.4,1.6,3.7,2.8c1.3,1.1,2.4,2.5,3.5,4.2c1,1.7,1.9,3.7,2.6,6c0.7,2.3,1,5.1,1,8.3l0,0c0,4.3-0.6,8-1.9,11.1
		c-1.3,3.1-2.8,5.5-4.6,7.2l0,0c1.8,0.6,3.5,1.5,5.2,2.6c1.7,1.1,3.3,2.6,4.6,4.4c1.4,1.8,2.5,4,3.4,6.6c0.9,2.6,1.3,5.6,1.3,9l0,0
		c0,3-0.3,5.7-1,8c-0.7,2.3-1.5,4.3-2.6,5.9c-1,1.7-2.2,3.1-3.5,4.2c-1.3,1.2-2.6,2.1-3.8,2.8l0,0c-2.6,1.5-5,2.5-7.1,2.9
		C470.8-134.8,469.4-134.6,468.7-134.6L468.7-134.6z"/>
</g>
</svg>
