<?xml version="1.0" encoding="utf-8"?>
<!-- Generator: Adobe Illustrator 24.1.2, SVG Export Plug-In . SVG Version: 6.00 Build 0)  -->
<svg version="1.1" id="final_svg" xmlns="http://www.w3.org/2000/svg" xmlns:xlink="http://www.w3.org/1999/xlink" x="0px" y="0px"
	 viewBox="0 0 686 110.2" style="enable-background:new 0 0 686 110.2;" xml:space="preserve">
<g id="color_index_0" transform="translate(258.70631589560514, 256.738025) scale(0.35)">
	<path d="M-641.7-654.1c0,6.3-5.1,11.5-11.5,11.5c-6.3,0-11.5-5.1-11.5-11.5s5.1-11.5,11.5-11.5
		C-646.9-665.6-641.7-660.5-641.7-654.1z M-568.1-573.8c0-30.6-15.7-58.3-42-74.1c-1.5-1-3.6-0.5-4.5,1.1c-0.9,1.5-0.5,3.6,1.1,4.5
		c24.3,14.6,38.9,40.2,38.9,68.5c0,44.1-35.9,79.9-79.9,79.9c-44.1,0-79.9-35.9-79.9-79.9c0-28.3,14.5-53.9,38.9-68.5
		c1.5-0.9,2-2.9,1.1-4.5c-0.9-1.5-2.9-2.1-4.5-1.1c-26.3,15.8-42,43.5-42,74.1c0,47.7,38.8,86.5,86.5,86.5S-568.1-526.2-568.1-573.8
		z"/>
</g>
<g id="text_group" transform="translate(48.100063981542576, 379.247025)">
	<path d="M34.4-336.2L34.4-336.2c0-2.3,0.5-4.4,1.5-6.1c1-1.7,2.2-3.1,3.8-4.2c1.5-1.1,3.3-1.9,5.2-2.5c1.9-0.6,3.9-0.8,5.9-0.8l0,0
		c2.2,0,4.4,0.3,6.6,1c2.2,0.6,4.4,1.8,6.6,3.3l0,0l-3.6,3.6c-1.6-1.1-3.3-1.9-4.9-2.4s-3.3-0.7-5-0.7l0,0c-1.3,0-2.6,0.2-3.9,0.5
		S44-343.6,43-343c-1.1,0.7-1.9,1.5-2.6,2.7c-0.6,1.1-1,2.5-1,4.1l0,0c0,2,0.6,3.5,1.8,4.6c1.2,1.1,2.8,1.9,4.6,2.6
		c1.9,0.7,3.8,1.3,6,1.8c2.2,0.6,4.2,1.3,6,2.3c1.9,1,3.4,2.3,4.6,3.9c1.2,1.6,1.8,3.9,1.8,6.8l0,0c0,2.4-0.4,4.6-1.2,6.5
		c-0.8,1.9-1.9,3.5-3.4,4.8c-1.5,1.3-3.2,2.3-5.2,3c-2,0.7-4.2,1-6.6,1l0,0c-2.3,0-4.5-0.3-6.6-1c-2.2-0.7-4.3-1.8-6.5-3.4l0,0
		l3.5-3.6c1.7,1.1,3.4,1.9,5,2.4c1.6,0.5,3.3,0.7,4.9,0.7l0,0c1.2,0,2.5-0.2,3.8-0.7c1.3-0.5,2.5-1.1,3.6-2c1.1-0.9,1.9-2,2.6-3.2
		c0.7-1.3,1-2.8,1-4.4l0,0c0-2-0.6-3.5-1.8-4.5c-1.2-1-2.8-1.8-4.6-2.4c-1.9-0.6-3.8-1.1-6-1.6c-2.2-0.5-4.1-1.2-6-2.2
		c-1.9-1-3.4-2.3-4.6-4.1C34.9-330.8,34.4-333.2,34.4-336.2z M102.6-298.8l-26.5-26.4l26.5-24.6h6.6l-26.5,24.6l26.5,26.4H102.6z
		 M137.7-321.7l-20.7-28h6.5l16.7,22.2l16.6-22.2h6.6l-20.7,28v22.9h-5V-321.7z M197.9-298.8h-5v-27.9h31.9v-23h5v50.9h-5v-22.9
		h-26.9V-298.8z M247.5-317.7L247.5-317.7v-32.1h5v32.8c0,2.7,0.4,4.9,1.2,6.6c0.8,1.7,1.9,3.1,3.2,4c1.3,1,2.7,1.6,4.2,2
		s3.1,0.6,4.5,0.6l0,0c1.6,0,3.3-0.2,5-0.6c1.6-0.4,3.2-1.1,4.5-2c1.4-1,2.5-2.3,3.3-4s1.3-3.9,1.3-6.6l0,0v-32.8h5v32.1
		c0,1.2-0.1,2.6-0.2,4c-0.2,1.4-0.5,2.8-1,4.2c-0.5,1.4-1.1,2.7-2,4s-2,2.4-3.5,3.4c-1.4,1-3.2,1.8-5.2,2.3s-4.5,0.9-7.3,0.9l0,0
		c-4,0-7.2-0.6-9.6-1.9c-2.4-1.2-4.2-2.8-5.5-4.7c-1.3-1.9-2.1-3.9-2.5-6.1C247.6-313.7,247.5-315.8,247.5-317.7z M326.8-298.8
		h-24.3v-5h24.2c0.2,0,0.7-0.1,1.5-0.2c0.8-0.2,1.7-0.5,2.6-1.1c0.9-0.6,1.8-1.5,2.5-2.7s1.1-2.8,1.1-4.9l0,0c0-2.1-0.3-3.7-1.1-4.9
		c-0.7-1.2-1.6-2.1-2.5-2.7c-0.9-0.6-1.8-1-2.7-1.1c-0.8-0.2-1.4-0.2-1.5-0.2l0,0h-24.2v-5h20.2c0.2,0,0.7-0.1,1.5-0.3
		c0.8-0.2,1.6-0.6,2.5-1.2c0.9-0.6,1.7-1.6,2.4-2.8c0.7-1.2,1.1-2.9,1.1-5l0,0c0-2.1-0.4-3.8-1.1-5c-0.7-1.2-1.6-2.1-2.5-2.7
		c-0.9-0.6-1.8-0.9-2.5-1.1c-0.8-0.2-1.2-0.2-1.3-0.2l0,0h-20.2v-4.9h20.2c0.1,0,0.2,0,0.6,0.1c0.3,0,0.8,0.1,1.4,0.2
		c0.6,0.1,1.2,0.3,1.9,0.6c0.7,0.2,1.5,0.6,2.2,1l0,0c0.7,0.4,1.4,0.9,2.1,1.6c0.7,0.6,1.4,1.4,2,2.4c0.6,1,1.1,2.1,1.5,3.4
		c0.4,1.3,0.6,2.9,0.6,4.7l0,0c0,2.4-0.3,4.5-1.1,6.3c-0.7,1.8-1.6,3.1-2.6,4.1l0,0c1,0.3,2,0.8,2.9,1.5c1,0.6,1.9,1.5,2.6,2.5
		c0.8,1,1.4,2.3,1.9,3.7s0.7,3.2,0.7,5.1l0,0c0,1.7-0.2,3.2-0.6,4.5c-0.4,1.3-0.8,2.4-1.5,3.3c-0.6,1-1.2,1.8-2,2.4
		c-0.7,0.7-1.5,1.2-2.2,1.6l0,0c-1.5,0.8-2.8,1.4-4,1.6C328-298.9,327.2-298.8,326.8-298.8L326.8-298.8z"/>
</g>
</svg>
